<svg xmlns="http://www.w3.org/2000/svg" width="34.795" height="24.417" viewBox="0 0 34.795 24.417">
    <defs>
        <style>
            .cls-1{fill:#5e5e5e;stroke:#fff;stroke-width:.2px}
        </style>
    </defs>
    <g id="air-conditioner_1_" data-name="air-conditioner (1)" transform="translate(1.1 -74.441)">
        <g id="Group_14" data-name="Group 14" transform="translate(-1 74.541)">
            <g id="Group_13" data-name="Group 13">
                <path id="Path_968" d="M31.866 74.541H.73A1.7 1.7 0 0 0-1 76.271V87.8a1.7 1.7 0 0 0 1.73 1.73h31.136A1.7 1.7 0 0 0 33.6 87.8V76.271a1.7 1.7 0 0 0-1.734-1.73zm.577 13.259a.545.545 0 0 1-.577.577H.73a.545.545 0 0 1-.577-.577V76.271a.578.578 0 0 1 .577-.577h31.136a.545.545 0 0 1 .577.577V87.8z" class="cls-1" data-name="Path 968" transform="translate(1 -74.541)"/>
                <path id="Path_969" d="M209.413 134.449h4.613a.577.577 0 0 0 0-1.153h-4.613a.577.577 0 0 0 0 1.153z" class="cls-1" data-name="Path 969" transform="translate(-194.421 -129.26)"/>
                <path id="Path_970" d="M61.981 242.41h-28.83a.577.577 0 0 0 0 1.153h28.83a.577.577 0 0 0 0-1.153z" class="cls-1" data-name="Path 970" transform="translate(-30.268 -230.878)"/>
                <path id="Path_971" d="M61.981 208.836h-28.83a.577.577 0 1 0 0 1.153h28.83a.577.577 0 0 0 0-1.153z" class="cls-1" data-name="Path 971" transform="translate(-30.268 -199.61)"/>
                <path id="Path_972" d="M227.641 312.178c-.577-.288-.865-.634-.865-.923s.346-.634.807-.98a.551.551 0 0 0 .231-.749.509.509 0 0 0-.75-.231 2.384 2.384 0 0 0-1.442 1.96 2.538 2.538 0 0 0 1.442 2.018c.577.288.865.634.865.923s-.346.634-.865.923a.509.509 0 0 0-.231.75.606.606 0 0 0 .519.288.52.52 0 0 0 .288-.058 2.384 2.384 0 0 0 1.442-1.96 2.314 2.314 0 0 0-1.441-1.961z" class="cls-1" data-name="Path 972" transform="translate(-210.055 -293.092)"/>
                <path id="Path_973" d="M135.313 328.965c-.577-.288-.865-.634-.865-.923s.346-.634.807-.98a.555.555 0 0 0-.519-.98 2.384 2.384 0 0 0-1.442 1.961 2.538 2.538 0 0 0 1.442 2.018c.577.288.865.634.865.923s-.346.634-.865.923a.509.509 0 0 0-.231.75.606.606 0 0 0 .519.288.521.521 0 0 0 .288-.058 2.384 2.384 0 0 0 1.442-1.96 2.314 2.314 0 0 0-1.441-1.962z" class="cls-1" data-name="Path 973" transform="translate(-124.069 -308.726)"/>
                <path id="Path_974" d="M319.969 328.965c-.577-.288-.865-.634-.865-.923s.346-.634.807-.98a.551.551 0 0 0 .231-.75.509.509 0 0 0-.75-.231 2.384 2.384 0 0 0-1.441 1.961 2.538 2.538 0 0 0 1.441 2.018c.577.288.865.634.865.923s-.346.634-.865.923a.509.509 0 0 0-.231.75.605.605 0 0 0 .519.288.52.52 0 0 0 .288-.058 2.384 2.384 0 0 0 1.442-1.96 2.314 2.314 0 0 0-1.441-1.961z" class="cls-1" data-name="Path 974" transform="translate(-296.04 -308.726)"/>
            </g>
        </g>
    </g>
</svg>
