<svg id="Layer_1" data-name="Layer 1" xmlns="http://www.w3.org/2000/svg" viewBox="0 0 22 17"><defs><style>.cls-1{fill:#fff;}</style></defs><title>berger-menu</title><g id="berger-menu"><path id="Rectangle_1192" data-name="Rectangle 1192" class="cls-1" d="M1.5,0h19A1.5,1.5,0,0,1,22,1.5h0A1.5,1.5,0,0,1,20.5,3H1.5A1.5,1.5,0,0,1,0,1.5H0A1.5,1.5,0,0,1,1.5,0Z"/><path id="Rectangle_1193" data-name="Rectangle 1193" class="cls-1" d="M1.5,7h19A1.5,1.5,0,0,1,22,8.5h0A1.5,1.5,0,0,1,20.5,10H1.5A1.5,1.5,0,0,1,0,8.5H0A1.5,1.5,0,0,1,1.5,7Z"/><path id="Rectangle_1194" data-name="Rectangle 1194" class="cls-1" d="M1.5,14h19A1.5,1.5,0,0,1,22,15.5h0A1.5,1.5,0,0,1,20.5,17H1.5A1.5,1.5,0,0,1,0,15.5H0A1.5,1.5,0,0,1,1.5,14Z"/></g></svg>