<svg xmlns="http://www.w3.org/2000/svg" width="23.289" height="31.878" viewBox="0 0 23.289 31.878">
    <defs>
        <style>
            .cls-1{fill:#5e5e5e;stroke:#fff;stroke-width:.1px}
        </style>
    </defs>
    <g id="building" transform="translate(-.449 .073)">
        <path id="Path_963" d="M115.636 2.635c1.241.964 1.3 1.194 1.677 1.194s.44-.233 1.677-1.194a.62.62 0 0 0-.787-.959l-.27.221V.62a.62.62 0 1 0-1.24 0V1.9l-.27-.221a.62.62 0 0 0-.787.959zm0 0" class="cls-1" data-name="Path 963" transform="translate(-107.782)"/>
        <path id="Path_964" d="M199.075 2.153l.27-.221v1.277a.62.62 0 0 0 1.24 0V1.932c.2.136.339.362.663.362a.621.621 0 0 0 .394-1.1L200.359.141a.62.62 0 0 0-.787 0l-1.283 1.053a.62.62 0 1 0 .787.959zm0 0" class="cls-1" data-name="Path 964" transform="translate(-185.308)"/>
        <path id="Path_965" d="M23.067 101.849h-1.743V78.592a2.545 2.545 0 0 0-2.542-2.542H5.4a2.544 2.544 0 0 0-2.542 2.542v23.257H1.12a.62.62 0 1 0 0 1.24h21.947a.62.62 0 0 0 0-1.24zm-10.354 0v-2.3a.62.62 0 0 0-1.24 0v2.3h-5.11V79.564h5.11V94.59a.62.62 0 0 0 1.24 0V79.564h5.111v22.285zm6.351 0V79.406a1.084 1.084 0 0 0-1.082-1.082H6.2a1.084 1.084 0 0 0-1.082 1.082v22.443H4.1V78.592a1.3 1.3 0 0 1 1.3-1.3h13.383a1.3 1.3 0 0 1 1.3 1.3v23.257zm0 0" class="cls-1" data-name="Path 965" transform="translate(0 -71.334)"/>
        <path id="Path_967" d="M178.046 404.977a.621.621 0 1 0 .62.621.62.62 0 0 0-.62-.621zm0 0" class="cls-1" data-name="Path 967" transform="translate(-165.953 -379.859)"/>
    </g>
</svg>
