<svg xmlns="http://www.w3.org/2000/svg" id="dumbbell" width="29.451" height="18.408" viewBox="0 0 29.451 18.408">
    <defs>
        <style>
            .cls-1{fill:#5e5e5e}
        </style>
    </defs>
    <path id="Path_983" d="M27.726 6.328h-.575V3.739a2.3 2.3 0 0 0-3.511-1.956A2.3 2.3 0 0 0 21.4 0a2.3 2.3 0 0 0-2.3 2.3v4.028h-8.746V2.3a2.3 2.3 0 0 0-4.543-.518A2.3 2.3 0 0 0 2.3 3.739v2.589h-.575A1.728 1.728 0 0 0 0 8.053v2.3a1.728 1.728 0 0 0 1.725 1.727H2.3v2.589a2.3 2.3 0 0 0 3.511 1.957 2.3 2.3 0 0 0 2.242 1.783 2.3 2.3 0 0 0 2.3-2.3V12.08H19.1v4.027a2.3 2.3 0 0 0 4.543.518 2.3 2.3 0 0 0 3.511-1.957V12.08h.575a1.728 1.728 0 0 0 1.726-1.726v-2.3a1.728 1.728 0 0 0-1.726-1.726zM2.3 10.93h-.575a.576.576 0 0 1-.575-.575v-2.3a.576.576 0 0 1 .575-.575H2.3zm3.451 3.739a1.15 1.15 0 1 1-2.3 0V3.739a1.15 1.15 0 1 1 2.3 0zM9.2 16.107a1.152 1.152 0 0 1-1.15 1.15 1.152 1.152 0 0 1-1.15-1.15V2.3a1.151 1.151 0 0 1 2.3 0zm9.889-7.478h-4.018a.575.575 0 1 0 0 1.15h4.023v1.15h-8.742V7.478h8.742zm3.456 7.478a1.151 1.151 0 0 1-2.3 0V9.233a.338.338 0 0 1 0 .037v-.133a.338.338 0 0 1 0 .037V2.3a1.152 1.152 0 0 1 1.15-1.15 1.152 1.152 0 0 1 1.15 1.15zM26 14.669a1.15 1.15 0 0 1-2.3 0V3.739a1.15 1.15 0 0 1 2.3 0zm2.3-4.314a.576.576 0 0 1-.575.575h-.575V7.478h.575a.576.576 0 0 1 .575.575zm0 0" class="cls-1" data-name="Path 983"/>
    <path id="Path_984" d="M212.592 151.15a.575.575 0 0 1 0-1.15.575.575 0 1 1 0 1.15zm0 0" class="cls-1" data-name="Path 984" transform="translate(-199.821 -141.371)"/>
</svg>
