<svg xmlns="http://www.w3.org/2000/svg" width="26.037" height="22.549" viewBox="0 0 26.037 22.549">
    <defs>
        <style>
            .cls-1{fill:#5e5e5e;stroke:#5e5e5e;stroke-width:.5px}
        </style>
    </defs>
    <g id="hot-tub_1_" data-name="hot-tub (1)" transform="translate(.25 -2.817)">
        <path id="Path_12068" d="M24.652 147.844h-3.436a1.892 1.892 0 0 0-1.755-1.51v-.03a1.888 1.888 0 0 0-2.274-1.723 1.887 1.887 0 0 0-2.715-1.032 1.887 1.887 0 0 0-3.4 0 1.887 1.887 0 0 0-2.715 1.032 1.888 1.888 0 0 0-2.278 1.719v.029a1.891 1.891 0 0 0-1.755 1.511h-.913a.374.374 0 0 0 0 .748h21.241a.138.138 0 0 1 .138.137v1.239a.138.138 0 0 1-.138.137H.887a.138.138 0 0 1-.138-.137v-1.239a.138.138 0 0 1 .138-.138h.763a.374.374 0 0 0 0-.748H.887a.887.887 0 0 0-.886.886v1.239a.887.887 0 0 0 .886.886h.166a14.478 14.478 0 0 0 .462 3.236 6.16 6.16 0 0 0 5.58 4.559v.666a1.6 1.6 0 1 0 3.2 0v-.654h4.945v.654a1.6 1.6 0 1 0 3.2 0v-.666a6.17 6.17 0 0 0 2.791-.861.374.374 0 1 0-.384-.642 5.423 5.423 0 0 1-2.781.767H7.469a5.412 5.412 0 0 1-5.231-4.009 13.881 13.881 0 0 1-.436-3.044h21.934a13.881 13.881 0 0 1-.436 3.044 5.407 5.407 0 0 1-1.179 2.2.374.374 0 1 0 .559.5 6.159 6.159 0 0 0 1.343-2.5 14.479 14.479 0 0 0 .462-3.236h.166a.887.887 0 0 0 .886-.886v-1.238a.887.887 0 0 0-.886-.886zm-19.555 0a1.142 1.142 0 0 1 1.078-.764.647.647 0 0 0 .461-.191.637.637 0 0 0 .187-.455v-.081a1.152 1.152 0 0 1 1.068-1.061 1.14 1.14 0 0 1 .366.037.64.64 0 0 0 .782-.443 1.138 1.138 0 0 1 1.719-.646.644.644 0 0 0 .952-.3 1.139 1.139 0 0 1 2.111 0 .644.644 0 0 0 .952.3 1.138 1.138 0 0 1 1.719.646.64.64 0 0 0 .782.443 1.139 1.139 0 0 1 1.434 1.024v.081a.636.636 0 0 0 .187.455.65.65 0 0 0 .465.19 1.141 1.141 0 0 1 1.076.765zm12.6 10.818v.654a.853.853 0 1 1-1.705 0v-.654zm-8.147 0v.654a.853.853 0 1 1-1.705 0v-.654zm0 0" class="cls-1" data-name="Path 12068" transform="translate(0 -135.8)"/>
        <path id="Path_12069" d="M282.322 73.261a1.611 1.611 0 1 0-1.611-1.611 1.613 1.613 0 0 0 1.611 1.611zm0-2.474a.863.863 0 1 1-.863.863.864.864 0 0 1 .863-.863zm0 0" class="cls-1" data-name="Path 12069" transform="translate(-266.706 -66.972)"/>
        <path id="Path_12071" d="M54.791 131.464a1.611 1.611 0 1 0-1.611-1.611 1.613 1.613 0 0 0 1.611 1.611zm0-2.474a.863.863 0 1 1-.863.863.864.864 0 0 1 .863-.863zm0 0" class="cls-1" data-name="Path 12071" transform="translate(-50.526 -122.272)"/>
    </g>
</svg>
