<svg xmlns="http://www.w3.org/2000/svg" width="128.103" height="31.589" viewBox="0 0 128.103 31.589">
  <g id="mosem-logo" transform="translate(689.689 -1005.089)">
    <g id="Group_1230" data-name="Group 1230" transform="translate(-689.681 1005.086)">
      <path id="Path_1593" data-name="Path 1593" d="M-660.833,1048.48h.9q6.038,0,9.367,6.659a17.085,17.085,0,0,1,.678,3.725,10.981,10.981,0,0,1-1.129,4.627h6.659c.151.019.226.095.226.226v5.417a.2.2,0,0,1-.057.169.2.2,0,0,1-.169.057h-26.974q-2.4,0-2.709,3.386v6.546a.2.2,0,0,1-.057.169.2.2,0,0,1-.169.057h-2.6q-2.822-.311-2.822-2.822v-6.1q0-4.543,5.53-6.885a17.558,17.558,0,0,1,2.709-.226h1.693v-.113a9.233,9.233,0,0,1-1.016-4.176v-.451q0-6.49,6.772-9.706A10.609,10.609,0,0,1-660.833,1048.48Zm-4.176,10.5q0,3.3,3.725,4.515.9,0,.9.113,3.922,0,4.741-4.74,0-3.02-3.273-4.4a1.884,1.884,0,0,0-.9-.226h-1.016q-2.935,0-4.176,3.95Z" transform="translate(679.681 -1048.477)" fill="#0389ff"/>
      <path id="Path_1594" data-name="Path 1594" d="M-616.239,1075.96h37.809q2.6.566,2.6,2.6v2.934a.2.2,0,0,1-.057.169.2.2,0,0,1-.169.057h-40.179a.2.2,0,0,1-.169-.057.2.2,0,0,1-.057-.169v-5.3Q-616.438,1075.96-616.239,1075.96Z" transform="translate(651.255 -1060.834)" fill="#0389ff"/>
      <path id="Path_1595" data-name="Path 1595" d="M-532.049,1048.66h.677q5.841,0,9.142,6.207a11.531,11.531,0,0,1,.9,4.4v4.853h3.555c.15.019.226.095.226.226v5.418a.2.2,0,0,1-.057.169.2.2,0,0,1-.169.057h-4.345q-.565,2.793-3.95,6.546a13.058,13.058,0,0,1-8.578,3.612H-543.9a.2.2,0,0,1-.169-.057.2.2,0,0,1-.057-.169v-3.047q.423-2.6,3.273-2.6h3.386q6.18,0,9.142-4.176v-.113h-2.258q-8.917,0-11.173-8.69l-.226-2.031q0-6.688,6.772-10.045A10.784,10.784,0,0,1-532.049,1048.66Zm-4.176,10.722a4.5,4.5,0,0,0,3.16,4.4,1.884,1.884,0,0,0,.9.226h1.016q2.68,0,4.063-3.725,0-.931.113-1.015-.791-4.741-4.515-4.741h-.338q-3.385,0-4.4,4.176Z" transform="translate(618.727 -1048.558)" fill="#0389ff"/>
      <path id="Path_1596" data-name="Path 1596" d="M-480.208,1049.68h.9q5.614,0,8.916,5.869a8.673,8.673,0,0,1,1.016,4.063v.9q0,5.474-5.756,8.916a9.976,9.976,0,0,1-4.176,1.016h-17.324a.2.2,0,0,1-.169-.056.2.2,0,0,1-.057-.169v-5.3q.027-.225.226-.226h7.5a10.822,10.822,0,0,1-1.128-4.74q0-5.953,6.094-9.368A9.7,9.7,0,0,1-480.208,1049.68Zm-4.289,10.383a4.685,4.685,0,0,0,2.257,3.95,4.338,4.338,0,0,0,1.919.677h.79q3.216,0,4.4-3.838v-1.015q0-3.217-3.837-4.4h-1.354q-2.257,0-3.838,2.935Z" transform="translate(597.471 -1049.019)" fill="#0389ff"/>
    </g>
  </g>
</svg>
