<svg xmlns="http://www.w3.org/2000/svg" width="26.816" height="28.353" viewBox="0 0 26.816 28.353">
    <defs>
        <style>
            .cls-1{fill:#5e5e5e;stroke:#5e5e5e;stroke-width:.4px}
        </style>
    </defs>
    <g id="swimming-pool" transform="translate(-13.916 .2)">
        <path id="Path_12095" d="M150.239 153.747a1.961 1.961 0 0 1-1.46-.72.666.666 0 0 0-1.029 0 1.982 1.982 0 0 1-3.059 0 .667.667 0 0 0-1.029 0 1.982 1.982 0 0 1-3.059 0 .666.666 0 0 0-1.029 0 1.961 1.961 0 0 1-1.46.72.409.409 0 0 0 .029.818 2.807 2.807 0 0 0 1.946-.884 2.8 2.8 0 0 0 4.088 0 2.8 2.8 0 0 0 4.088 0 2.807 2.807 0 0 0 1.946.884.409.409 0 0 0 .028-.818z" class="cls-1" data-name="Path 12095" transform="translate(-116.852 -144.443)"/>
        <path id="Path_12096" d="M142.1 214.551a.666.666 0 0 0-1.029 0 1.982 1.982 0 0 1-3.059 0 .667.667 0 0 0-1.029 0 1.982 1.982 0 0 1-3.059 0 .666.666 0 0 0-1.029 0 1.978 1.978 0 0 1-1.78.705.409.409 0 0 0-.1.812 2.79 2.79 0 0 0 2.4-.863 2.8 2.8 0 0 0 4.088 0 2.8 2.8 0 0 0 4.088 0 2.791 2.791 0 0 0 2.4.863.409.409 0 0 0-.1-.812 1.978 1.978 0 0 1-1.791-.705z" class="cls-1" data-name="Path 12096" transform="translate(-110.171 -202.608)"/>
        <path id="Path_12097" d="M157.032 91.746a1.966 1.966 0 0 1-1.118-.678.666.666 0 0 0-1.029 0 1.982 1.982 0 0 1-3.059 0 .667.667 0 0 0-1.029 0 1.982 1.982 0 0 1-3.059 0 .666.666 0 0 0-1.029 0 1.966 1.966 0 0 1-1.118.679.409.409 0 1 0 .169.8 2.77 2.77 0 0 0 1.464-.825 2.8 2.8 0 0 0 4.088 0 2.8 2.8 0 0 0 4.088 0 2.77 2.77 0 0 0 1.464.825.409.409 0 1 0 .169-.8z" class="cls-1" data-name="Path 12097" transform="translate(-123.987 -85.866)"/>
        <path id="Path_12098" d="M16.35 23.437h9.267v3.8a.719.719 0 0 0 .718.718h1.375a.719.719 0 0 0 .718-.718v-.08h4.051v.08a.719.719 0 0 0 .718.718h1.375a.719.719 0 0 0 .718-.718v-3.8h3.01a2.233 2.233 0 0 0 2.22-2.454v-.007l-.712-6.091a.409.409 0 1 0-.813.1l.711 6.088a1.413 1.413 0 0 1-1.405 1.55H35.29v-1.04h2.453a.875.875 0 0 0 .87-.962v-.007L36.5 2.642a.872.872 0 0 0-.87-.783h-7.35a.409.409 0 0 0 0 .819h7.347a.055.055 0 0 1 .055.05v.007L37.8 20.7a.055.055 0 0 1-.055.059H35.29v-1.25a3.84 3.84 0 0 0-7.271-1.725 3.841 3.841 0 0 0-7.272 1.725v1.25h-3.841a.055.055 0 0 1-.055-.059l2.115-17.965v-.007a.055.055 0 0 1 .055-.05h7.347a.409.409 0 1 0 0-.819h-7.346a.872.872 0 0 0-.87.783l-2.116 17.966v.007a.875.875 0 0 0 .87.962h8.711v1.04H16.35a1.413 1.413 0 0 1-1.405-1.55L17.162 2.1v-.01a1.408 1.408 0 0 1 1.4-1.271h17.519a1.408 1.408 0 0 1 1.4 1.271v.01l1.282 10.973a.409.409 0 1 0 .813-.1L38.3 2a2.224 2.224 0 0 0-2.219-2H18.567a2.224 2.224 0 0 0-2.219 2l-2.217 18.976v.007a2.233 2.233 0 0 0 2.22 2.454zm14.07-3.893a1.054 1.054 0 0 1 1.01-1.064 1.031 1.031 0 0 1 1.049 1.028v1.25H30.42zm-1.992 3.893h4.051v1.04h-4.052zm4.27-1.859a.52.52 0 0 1 0 1.04h-4.27v-1.04zM28.427 25.3H32.7a.52.52 0 0 1 0 1.04h-4.27zm6.043 1.838H33.3v-.121a1.34 1.34 0 0 0 0-2.394v-1.328a1.34 1.34 0 0 0 0-2.394v-1.393a1.848 1.848 0 0 0-3.7 0v1.25h-1.172v-1.192a3.065 3.065 0 0 1 2.993-3.078 3.024 3.024 0 0 1 3.05 3.021zm-12.905-6.38v-1.192a3.06 3.06 0 0 1 3.145-3.076 3.025 3.025 0 0 1 2.9 3.018v7.626h-1.175v-7.626a1.848 1.848 0 0 0-3.7 0v1.25h-1.17zm1.992 0v-1.214a1.062 1.062 0 0 1 .867-1.051 1.03 1.03 0 0 1 1.192 1.015v1.25z" class="cls-1" data-name="Path 12098"/>
    </g>
</svg>
