<svg xmlns="http://www.w3.org/2000/svg" width="26.666" height="30.829" viewBox="0 0 26.666 30.829">
    <defs>
        <style>
            .cls-1{fill:#5e5e5e;stroke:#5e5e5e;stroke-width:.5px}
        </style>
    </defs>
    <g id="table-tennis-equipment" transform="translate(-33.354 .25)">
        <path id="Path_906" d="M36.18 356.26a2.576 2.576 0 1 0 2.576 2.576 2.579 2.579 0 0 0-2.576-2.576zm0 4.625a2.049 2.049 0 1 1 2.049-2.049 2.051 2.051 0 0 1-2.049 2.049z" class="cls-1" data-name="Path 906" transform="translate(0 -334.178)"/>
        <path id="Path_907" d="M53.689 374.926a1.421 1.421 0 0 0-1.419 1.419.263.263 0 1 0 .527 0 .893.893 0 0 1 .892-.892.263.263 0 0 0 0-.527z" class="cls-1" data-name="Path 907" transform="translate(-17.509 -351.687)"/>
        <path id="Path_908" d="M77.893 12.493a8.153 8.153 0 0 0-2.971-1.926 8.146 8.146 0 0 0 .255-4.142 7.921 7.921 0 0 0-2.227-4.038A7.808 7.808 0 0 0 67.344 0a9.439 9.439 0 0 0-6.626 2.944 8.253 8.253 0 0 0-2.649 5.837 7.281 7.281 0 0 0 .523 2.694c.24.721.73 2.683-.547 3.835l-2.125 1.571a.26.26 0 0 0-.03.026 1.564 1.564 0 0 0 .076 2.2l.616.616a1.664 1.664 0 0 0 1.107.494h.066a1.441 1.441 0 0 0 1.031-.42.258.258 0 0 0 .026-.03l1.579-2.135.014-.021a3.088 3.088 0 0 1 2.95-.914 7.207 7.207 0 0 0-.342 2.185 7.281 7.281 0 0 0 .523 2.694c.24.721.73 2.683-.547 3.835l-2.125 1.571a.259.259 0 0 0-.03.026 1.564 1.564 0 0 0 .076 2.2l.616.616a1.664 1.664 0 0 0 1.107.494h.067a1.441 1.441 0 0 0 1.031-.42.26.26 0 0 0 .026-.03l1.579-2.135.014-.021c1.135-1.389 3.29-.89 3.879-.72a7.218 7.218 0 0 0 2.272.37 8.252 8.252 0 0 0 5.837-2.649 9.63 9.63 0 0 0 2.926-6.1 7.859 7.859 0 0 0-2.371-6.12zM61.09 3.316A8.918 8.918 0 0 1 67.344.527a7.292 7.292 0 0 1 5.233 2.233 7.3 7.3 0 0 1 1.845 7.64 7.692 7.692 0 0 0-2.134-.3 9.426 9.426 0 0 0-6.588 2.912l-2.78-2.781a.263.263 0 0 0-.373.373l2.788 2.788-.053.059-.1.115-.051.059-.1.119-.045.054-.1.127-.037.046-.108.139-.027.035-.008.01-6.06-6.06a7.973 7.973 0 0 1 2.444-4.779zM59 11.061a6.74 6.74 0 0 1-.4-2.261l5.785 5.785a8.544 8.544 0 0 0-.792 1.462 9.08 9.08 0 0 1-2.5-1.805 8.767 8.767 0 0 1-2.023-3.014c-.028-.068-.05-.128-.07-.167zm.94 6.289a.262.262 0 0 0-.026.041L58.4 19.443a.925.925 0 0 1-.69.252 1.139 1.139 0 0 1-.757-.341l-.616-.616a1.04 1.04 0 0 1-.089-1.447l2.119-1.566.019-.015a3.3 3.3 0 0 0 1.031-2.668 10.3 10.3 0 0 0 1.3 1.576 10.044 10.044 0 0 0 1.905 1.507 3.253 3.253 0 0 0-2.678 1.226zm9.613 9.2a3.275 3.275 0 0 0-.2-.062 8.628 8.628 0 0 1-3.326-2.14 8.837 8.837 0 0 1-2-2.937 4.317 4.317 0 0 0-.118-.316 6.709 6.709 0 0 1-.38-2.194l7.941 7.941a6.67 6.67 0 0 1-1.913-.287zm-4.669.9a.263.263 0 0 0-.026.041l-1.513 2.059a.927.927 0 0 1-.69.252 1.138 1.138 0 0 1-.757-.341l-.616-.616a1.04 1.04 0 0 1-.089-1.447l2.119-1.566.019-.015a3.3 3.3 0 0 0 1.031-2.668 10.3 10.3 0 0 0 1.3 1.576 10.067 10.067 0 0 0 1.92 1.517 3.312 3.312 0 0 0-2.695 1.215zm14.849-8.865a9.105 9.105 0 0 1-2.773 5.761 7.978 7.978 0 0 1-4.775 2.457L63.576 18.2a6.834 6.834 0 0 1 .4-1.689v-.009a7.924 7.924 0 0 1 .824-1.592q.066-.1.135-.2v-.005q.128-.181.267-.358l.031-.039.109-.135.048-.058.11-.115.056-.064.1-.11.057-.063.108-.116.051-.054q.081-.084.164-.167a8.916 8.916 0 0 1 6.252-2.789 7.151 7.151 0 0 1 2.22.35h.012a7.579 7.579 0 0 1 3 1.88 7.245 7.245 0 0 1 2.217 5.725z" class="cls-1" data-name="Path 908" transform="translate(-20.512)"/>
        <path id="Path_909" d="M248.585 326.949a.263.263 0 0 0-.373.373l5.345 5.345a.263.263 0 0 0 .372-.373z" class="cls-1" data-name="Path 909" transform="translate(-201.234 -306.611)"/>
    </g>
</svg>
