<svg xmlns="http://www.w3.org/2000/svg" width="24.303" height="31.577" viewBox="0 0 24.303 31.577">
    <defs>
        <style>
            .cls-1{fill:#5e5e5e;stroke:#fff;stroke-width:.5px}
        </style>
    </defs>
    <path id="taking-care-of-disabled-people" d="M150.079 101.378a1.069 1.069 0 0 1-1.069 1.069h-2.475a1.07 1.07 0 0 1-.5-.124 1.069 1.069 0 0 1-.535-.678l-2.377-8.57-7.092-.02a.991.991 0 0 1-.314-.044 1.069 1.069 0 0 1-.76-.911l-1.068-8.848q-.006-.047-.009-.095a1.07 1.07 0 0 1 .94-1.115 1.111 1.111 0 0 1 .164-.007h.176c1.962 0 2.236.044 3.589 1.08l.14.107.026.021 5.152 4.2h1.147a1.069 1.069 0 0 1 0 2.139h-1.52a1.067 1.067 0 0 1-.467-.1 1.07 1.07 0 0 1-.218-.14l-5.428-4.425-.128-.1a3.416 3.416 0 0 0-.862-.574 2.048 2.048 0 0 0-.431-.053l.813 6.733 6.971.02a1.069 1.069 0 0 1 1.027.783l2.382 8.587h1.662a1.07 1.07 0 0 1 1.064 1.065zm-7.577-5.5a1.07 1.07 0 0 0-1.418.526 6.648 6.648 0 0 1-5.448 3.843q-.294.026-.584.026a6.63 6.63 0 0 1-2.916-12.58 1.069 1.069 0 0 0-.943-1.919 8.768 8.768 0 0 0 3.857 16.638q.383 0 .773-.034a8.791 8.791 0 0 0 7.2-5.081 1.069 1.069 0 0 0-.523-1.422zm-12.253-20.049a4.459 4.459 0 1 1 4.458 4.459 4.464 4.464 0 0 1-4.458-4.459zm2.139 0a2.32 2.32 0 1 0 2.32-2.32 2.323 2.323 0 0 0-2.32 2.32z" class="cls-1" transform="translate(-126.027 -71.12)"/>
</svg>
