<svg xmlns="http://www.w3.org/2000/svg" width="24.781" height="33.321" viewBox="0 0 24.781 33.321">
    <defs>
        <style>
            .cls-1{fill:#5e5e5e;stroke:#fff;stroke-width:.2px}
        </style>
    </defs>
    <g id="toilet" transform="translate(.1 .1)">
        <path id="Path_961" d="M21.347 16.819a1.943 1.943 0 0 0 1.941-1.941v-11h.647a.647.647 0 0 0 .647-.647V.647A.647.647 0 0 0 23.935 0H.647A.647.647 0 0 0 0 .647v2.587a.647.647 0 0 0 .647.647h.647v3.235a.647.647 0 0 0 1.294 0V3.881h19.406v11a.647.647 0 0 1-.647.647h-.662c-.231-5.249-3.511-10.35-8.395-10.35-4.974 0-8.169 5.222-8.395 10.35h-.66a.647.647 0 0 1-.647-.647v-2.59a.647.647 0 1 0-1.294 0v2.588a1.943 1.943 0 0 0 1.941 1.941H3.9a18 18 0 0 0 .37 2.994 1.943 1.943 0 0 0-1.677 1.922v1.294a.647.647 0 0 0 .647.647h.872a9.217 9.217 0 0 0 3.559 5.33l-1.16 3.251a.647.647 0 0 0 .609.864h10.35a.647.647 0 0 0 .609-.864l-1.16-3.251a9.217 9.217 0 0 0 3.559-5.33h.872a.647.647 0 0 0 .647-.647v-1.294a1.943 1.943 0 0 0-1.677-1.922 18.025 18.025 0 0 0 .37-2.994zM1.294 2.588V1.294h21.994v1.294zm11 3.881c3.924 0 7.116 4.353 7.116 9.7a16.315 16.315 0 0 1-.412 3.623h-1.359a14.467 14.467 0 0 0 .474-3.623c0-3.826-2.144-8.41-5.822-8.41-3.628 0-5.822 4.5-5.822 8.41a14.467 14.467 0 0 0 .474 3.623H5.587a16.315 16.315 0 0 1-.412-3.623c0-5.351 3.192-9.7 7.116-9.7zm4.528 9.7a12.9 12.9 0 0 1-.528 3.623h-8a12.9 12.9 0 0 1-.528-3.623c0-2.951 1.611-7.116 4.528-7.116s4.528 4.158 4.528 7.116zM8.033 31.827L8.8 29.69a7.668 7.668 0 0 0 6.991 0l.762 2.137zm4.258-2.588a7.412 7.412 0 0 1-6.85-5.564h13.7a7.411 7.411 0 0 1-6.85 5.565zm8.41-7.5v.647H3.881v-.647a.647.647 0 0 1 .647-.647h15.526a.647.647 0 0 1 .646.644zm0 0" class="cls-1" data-name="Path 961"/>
        <path id="Path_962" d="M21.294 140.647a.647.647 0 1 1-.647-.647.647.647 0 0 1 .647.647zm0 0" class="cls-1" data-name="Path 962" transform="translate(-18.706 -130.943)"/>
    </g>
</svg>
