<svg xmlns="http://www.w3.org/2000/svg" width="32.545" height="32.558" viewBox="0 0 32.545 32.558">
    <defs>
        <style>
            .cls-1{fill:#5e5e5e;stroke:#5e5e5e;stroke-width:.3px}
        </style>
    </defs>
    <g id="vacuum-cleaner" transform="translate(.033 .15)">
        <g id="Group_16" data-name="Group 16" transform="translate(.118)">
            <path id="Path_979" d="M32.345 31.591l-.538-2.15a.538.538 0 0 0-.538-.409h-2.354l-.925-1.855a.538.538 0 0 0-.722-.238.544.544 0 0 0-.057.034l-.3.2L16.157 7.285C13.872 3.29 11.625 0 7.077 0 .743 0 .147 3.07.12 4.005c-.1 2.9 3.511 6.4 8.495 6.747 1.769.366 2.624 1.548 2.742 3.763h-.517a.538.538 0 0 0-.538.538v1.613a3.763 3.763 0 0 0-3.355 2.9 27.6 27.6 0 0 0-.769 6.242h-1.79a.538.538 0 0 0-.538.538v5.374a.538.538 0 0 0 .538.538h2.689a.538.538 0 0 0 .538-.538V30.7a3.764 3.764 0 0 0 2.564 1.016h3.462a3.763 3.763 0 0 0 2.575-1.016v1.02a.538.538 0 0 0 .538.538h2.688a.538.538 0 0 0 .54-.535.528.528 0 0 0 0-.056v-5.323a.591.591 0 0 0-.538-.538h-1.8a27.578 27.578 0 0 0-.763-6.215 3.763 3.763 0 0 0-3.355-2.925v-1.613a.538.538 0 0 0-.538-.538h-.538C12.4 13.07 12 10.328 8.8 9.677h-.07c-4.341-.29-7.616-3.263-7.53-5.634.059-1.86 2.258-2.968 5.882-2.968 3.978 0 5.962 2.914 8.129 6.71l10.801 19.989-.414.274a.538.538 0 0 0-.183.688l.151.3h-.747a.538.538 0 0 0-.538.409l-.538 2.15a.538.538 0 0 0 .538.667h7.527a.538.538 0 0 0 .553-.522.546.546 0 0 0-.016-.149zm-25.806-2.64a.507.507 0 0 0 0 .081v2.15H4.926v-4.3h1.3a12.041 12.041 0 0 0 .317 2.032v.038zm10.753.081a.506.506 0 0 0 0-.081v-.038a12.051 12.051 0 0 0 .306-2.032H18.9l-.059 4.3h-1.549zm-1.22-8.064a18.784 18.784 0 0 1 .172 7.683 2.688 2.688 0 0 1-2.6 1.995h-3.465a2.688 2.688 0 0 1-2.6-1.995 18.782 18.782 0 0 1 .172-7.683zm-2.86-3.226a2.688 2.688 0 0 1 2.618 2.091v.059H7.98v-.059a2.688 2.688 0 0 1 2.634-2.091zm-1.833-2.15h1.075v1.075h-1.076zm13.59 15.59l.269-1.075h1.194a.538.538 0 0 0 .478-.78l-.328-.651.71-.473.8 1.613a.538.538 0 0 0 .489.29h2.269l.269 1.075h-6.15z" class="cls-1" data-name="Path 979" transform="translate(-.118)"/>
        </g>
    </g>
</svg>
