<?xml version="1.0" standalone="no"?>
<!DOCTYPE svg PUBLIC "-//W3C//DTD SVG 1.1//EN" "http://www.w3.org/Graphics/SVG/1.1/DTD/svg11.dtd" >
<svg xmlns="http://www.w3.org/2000/svg">
<metadata>Generated by IcoMoon</metadata>
<defs>
<font id="moosem-icon-v12" horiz-adv-x="1024">
<font-face units-per-em="1024" ascent="960" descent="-64" />
<missing-glyph horiz-adv-x="1024" />
<glyph unicode="&#x20;" horiz-adv-x="512" d="" />
<glyph unicode="&#xe900;" horiz-adv-x="872" d="M825.929 276.212c-27.794-75.525-69.993-139.923-123.669-192.683l-0.074-0.072c-66.934-62.923-147.727-111.942-237.242-141.941l-4.57-1.328c-6.986-2.528-15.048-4.040-23.448-4.152l-0.051-0.001h-0.877c-5.107 0.005-10.091 0.52-14.907 1.495l0.482-0.081c-3.912 0.8-7.236 1.732-10.462 2.871l0.547-0.168c-94.189 31.26-175.084 80.256-242.443 143.499l0.344-0.32c-53.76 52.811-95.953 117.209-122.551 189.165l-1.156 3.572c-49.97 135.627-47.142 285.016-44.851 405.090v1.79c0.501 9.951 0.77 20.367 0.966 31.875 1.1 56.846 45.74 102.919 101.893 106.296l0.301 0.014c117.747 6.568 208.809 44.976 286.627 120.825l0.68 0.626c11.658 10.803 27.319 17.43 44.529 17.43s32.871-6.627 44.571-17.469l-0.042 0.039 0.662-0.626c77.836-75.849 168.916-114.257 286.591-120.825 56.454-3.392 101.094-49.465 102.193-106.204l0.002-0.107c0.161-11.58 0.465-21.978 0.931-31.822v-0.787c2.345-120.288 5.172-269.982-44.976-406.003z" />
<glyph unicode="&#xe901;" horiz-adv-x="872" d="M778.823 296.973c-24.432-66.401-61.529-123.020-108.716-169.407l-0.064-0.063c-58.847-55.337-129.881-98.446-208.586-124.83l-4.017-1.168c-6.145-2.2-13.235-3.505-20.62-3.579h-0.804c-4.489 0.009-8.866 0.464-13.095 1.325l0.424-0.072c-3.44 0.705-6.361 1.526-9.197 2.528l0.481-0.148c-82.817 27.472-153.946 70.54-213.176 126.137l0.304-0.283c-47.26 46.417-84.354 103.016-107.746 166.259l-1.017 3.139c-43.902 119.268-41.432 250.564-39.428 356.158v1.629c0.412 8.716 0.662 17.897 0.805 27.974 0.958 49.983 40.207 90.498 89.58 93.465l0.265 0.013c98.415 2.078 187.063 42.241 252.134 106.287l-0.049-0.048 0.591 0.555c10.249 9.499 24.019 15.327 39.151 15.327s28.901-5.828 39.188-15.361l-0.037 0.034 0.591-0.555c64.998-63.96 153.594-104.108 251.557-106.214l0.402-0.007c49.638-2.981 88.887-43.495 89.844-93.385l0.001-0.093c0.143-10.184 0.412-19.329 0.805-27.974v-0.68c2.076-105.774 4.528-237.373-39.571-356.964z" />
<glyph unicode="&#xe902;" horiz-adv-x="872" d="M660.343 448.045c-0.151-123.578-100.060-223.77-223.516-224.38h-0.845c-123.917 0-224.371 100.454-224.371 224.371s100.454 224.371 224.371 224.371h0.787c123.507-0.609 223.413-100.791 223.574-224.346v-0.016z" />
<glyph unicode="&#xe903;" horiz-adv-x="872" d="M537.817 480.332l-122.884-122.901c-4.783-4.779-11.389-7.735-18.685-7.735s-13.902 2.956-18.685 7.736v0l-46.945 46.963c-4.57 4.742-7.385 11.202-7.385 18.32 0 14.589 11.827 26.417 26.417 26.417 7.118 0 13.578-2.815 18.328-7.392l28.27-28.27 104.217 104.217c4.742 4.57 11.202 7.385 18.32 7.385 14.589 0 26.417-11.827 26.417-26.417 0-7.118-2.815-13.578-7.392-18.328l0.008 0.008z" />
<glyph unicode="&#xe904;" horiz-adv-x="1114" d="M476.389 697.274c-104.457 0-189.923-85.465-189.923-189.923s85.465-189.923 189.923-189.923 189.923 85.465 189.923 189.923-85.465 189.923-189.923 189.923zM476.389 363.326c-79.134 0-144.025 64.89-144.025 144.025s64.89 144.025 144.025 144.025c79.134 0 144.025-64.89 144.025-144.025s-64.89-144.025-144.025-144.025z" />
<glyph unicode="&#xe905;" horiz-adv-x="1114" d="M856.235 844.464h-156.686l-23.74 52.229c-17.41 37.985-55.394 63.308-98.127 63.308h-202.584c-42.733 0-80.717-25.323-98.127-63.308l-23.74-52.229h-145.607c-58.56 0-107.623-49.063-107.623-109.206v-489.051c0-60.142 49.063-107.623 107.623-107.623h568.185v42.733h-568.185c-36.402 0-64.89 28.488-64.89 64.89v489.051c0 36.402 28.488 64.89 64.89 64.89h158.269c7.913 0 15.827 4.748 18.992 12.662l31.654 66.473c11.079 23.74 33.236 37.985 58.56 37.985h201.002c25.323 0 49.063-14.244 58.56-37.985l30.071-66.473c3.165-7.913 11.079-12.662 18.992-12.662h170.93c36.402 0 64.89-28.488 64.89-64.89v-223.159h42.733v223.159c1.583 60.142-47.481 109.206-106.040 109.206z" />
<glyph unicode="&#xe906;" horiz-adv-x="1114" d="M1057.236 319.011h-150.355v150.355c0 12.662-11.079 23.74-23.74 23.74s-23.74-11.079-23.74-23.74v-150.355h-150.355c-12.662 0-23.74-11.079-23.74-23.74s11.079-23.74 23.74-23.74h150.355v-150.355c0-12.662 11.079-23.74 23.74-23.74s23.74 11.079 23.74 23.74v150.355h150.355c12.662 0 23.74 11.079 23.74 23.74s-9.496 23.74-23.74 23.74z" />
<glyph unicode="&#xe907;" glyph-name="apple" horiz-adv-x="836" d="M44.011 584.436c-85.089-149.639-32.275-378.499 64.55-516.401 46.946-70.418 96.825-132.034 161.375-132.034h2.934c26.407 2.934 52.814 8.802 76.287 20.539 26.407 14.67 58.682 20.539 88.023 20.539s58.682-5.868 85.089-20.539c26.407-11.736 52.814-20.539 82.155-20.539 73.352 0 120.298 67.484 161.375 126.166 29.341 44.011 52.814 93.891 70.418 143.771v0c0 2.934 0 8.802-5.868 8.802v0c-79.221 32.275-129.1 111.496-129.1 196.585 0 76.287 41.077 143.771 102.693 184.848v0c2.934 2.934 5.868 8.802 2.934 11.736 0 0 0 0 0 0-44.011 67.484-114.43 105.628-190.716 108.562-5.868 0-11.736 0-17.605 0-41.077-2.934-82.155-11.736-120.298-29.341-17.605-8.802-38.143-14.67-58.682-17.605-20.539 2.934-41.077 8.802-58.682 17.605-32.275 14.67-67.484 23.473-105.628 26.407h2.934c-90.957-2.934-170.178-52.814-214.189-129.1zM619.095 960c-58.682-5.868-114.43-35.209-155.507-79.221s-58.682-102.693-55.748-161.375c0-2.934 2.934-5.868 8.802-5.868 2.934 0 5.868 0 11.736 0 55.748 2.934 111.496 29.341 146.705 73.352 38.143 46.946 58.682 105.628 52.814 167.244-2.934 2.934-5.868 5.868-8.802 5.868z" />
<glyph unicode="&#xe908;" glyph-name="arrow_down" horiz-adv-x="2107" d="M1929.618 930.405c35.514 41.434 100.624 47.353 142.058 5.919 41.434-35.514 47.353-100.624 5.919-142.058 0 0-5.919-5.919-5.919-5.919l-722.127-733.965c-165.734-165.734-426.173-165.734-591.908 0 0 0 0 0 0 0l-728.046 733.965c-41.434 41.434-41.434 106.543 0 142.058 41.434 41.434 106.543 41.434 142.058 0l728.046-728.046c82.867-82.867 219.006-82.867 301.873 0l728.046 728.046z" />
<glyph unicode="&#xe909;" glyph-name="arrow_left" horiz-adv-x="499" d="M485.966 873.22c17.356 17.356 17.356 52.068 0 69.424s-52.068 17.356-69.424 0l-355.797-351.458c-78.102-78.102-78.102-208.271 0-286.373 0 0 0 0 0 0l355.797-355.797c21.695-17.356 52.068-17.356 69.424 0s17.356 52.068 0 69.424l-355.797 355.797c-39.051 39.051-39.051 104.136 0 147.525l355.797 351.458z" />
<glyph unicode="&#xe90a;" glyph-name="arrow_right" horiz-adv-x="499" d="M13.017 873.22c-17.356 17.356-17.356 52.068 0 69.424s52.068 17.356 69.424 0l355.797-355.797c78.102-78.102 78.102-208.271 0-286.373 0 0 0 0 0 0l-351.458-351.458c-21.695-17.356-52.068-17.356-69.424 0s-17.356 52.068 0 69.424l355.797 355.797c39.051 39.051 39.051 104.136 0 147.525l-360.136 351.458z" />
<glyph unicode="&#xe90b;" glyph-name="avatar" horiz-adv-x="871" d="M433.035 404.697h5.095c0 0 5.095 0 5.095 0 56.040 0 112.080 25.473 147.741 66.229 81.512 91.701 71.323 249.632 66.229 264.915 5.095 81.512-35.662 152.836-106.985 193.592-30.567 20.378-71.323 30.567-112.080 30.567h-5.095c0 0 0 0 0 0-40.756 0-76.418-10.189-112.080-30.567-71.323-40.756-112.080-117.174-106.985-193.592 0-15.284-15.284-173.214 66.229-264.915 40.756-45.851 91.701-71.323 152.836-66.229zM285.294 735.841c10.189 137.552 106.985 152.836 152.836 152.836v0c66.229 0 142.647-30.567 152.836-157.93 0 0 0-5.095 0-5.095 0-25.473 10.189-147.741-50.945-208.876-25.473-30.567-61.134-45.851-101.891-40.756v0c-40.756 0-76.418 15.284-101.891 40.756-61.134 71.323-50.945 208.876-50.945 208.876v10.189zM866.070 155.065h10.189v5.095c0 40.756-5.095 142.647-101.891 173.214v0c-61.134 15.284-117.174 40.756-168.119 76.418-15.284 10.189-35.662 10.189-50.945-5.095-10.189-15.284-10.189-35.662 5.095-50.945 0 0 5.095 0 5.095-5.095 61.134-40.756 122.269-71.323 193.592-86.607 45.851-15.284 50.945-61.134 50.945-106.985 0 0 0-5.095 0-5.095 0-20.378 0-40.756-5.095-61.134-112.080-56.040-234.348-86.607-361.711-81.512-127.363 0-249.632 25.473-361.711 81.512-5.095 20.378-5.095 40.756-5.095 61.134v5.095c0 45.851 5.095 91.701 50.945 112.080 66.229 20.378 132.458 50.945 193.592 86.607 10.189 5.095 15.284 10.189 15.284 20.378s0 20.378-5.095 25.473c-5.095 10.189-10.189 15.284-20.378 15.284s-20.378 0-25.473-5.095c0 0-5.095 0-5.095-5.095-50.945-35.662-112.080-61.134-173.214-76.418v0c-96.796-30.567-96.796-132.458-101.891-178.308 0 0 0-5.095 0-5.095 0-30.567 0-66.229 10.189-96.796 5.095-5.095 5.095-15.284 15.284-15.284 117.174-66.229 254.726-101.891 387.184-101.891 5.095 0 15.284 0 20.378 0 142.647-5.095 285.294 30.567 412.657 101.891 5.095 5.095 10.189 10.189 15.284 15.284 10.189 30.567 10.189 66.229 10.189 96.796l-10.189 10.189z" />
<glyph unicode="&#xe90c;" glyph-name="awaiting_payment" horiz-adv-x="1507" d="M1395.399 657.575h-790.549c0 0-5.306 0-5.306 0-58.363 0-106.114-47.751-106.114-111.42v-435.067c0-58.363 47.751-111.42 111.42-111.42h790.549c0 0 0 0 5.306 0 58.363 0 106.114 47.751 106.114 111.42v440.373c0 58.363-53.057 106.114-111.42 106.114zM1459.067 418.819h-917.886v63.668h917.886v-63.668zM604.85 47.42c-37.14 0-63.668 31.834-63.668 63.668v265.285h923.192v-265.285c0-37.14-31.834-63.668-63.668-63.668h-795.855zM541.181 530.238v21.223c0 37.14 31.834 63.668 63.668 63.668h790.549c37.14 0 63.668-31.834 63.668-63.668v-21.223h-917.886zM604.85 153.534h286.508v-42.446h-286.508v42.446zM604.85 264.953h175.088v-42.446h-175.088v42.446zM1395.399 264.953c0 10.611-10.611 21.223-21.223 21.223h-132.642c-10.611 0-21.223-10.611-21.223-21.223v-132.642c0-10.611 10.611-21.223 21.223-21.223h132.642c10.611 0 21.223 10.611 21.223 21.223v132.642zM1352.953 153.534h-90.197v90.197h90.197v-90.197zM440.373 15.585v0c-37.14 5.306-74.28 15.917-106.114 31.834v0c-10.611 5.306-15.917 10.611-26.528 15.917-15.917 5.306-26.528 15.917-42.446 26.528-196.311 137.948-238.756 408.539-106.114 604.85 26.528 42.446 63.668 79.585 106.114 106.114v0c148.56 100.808 339.565 100.808 488.124 5.306l-31.834-47.751c-10.611-10.611-5.306-21.223 10.611-21.223l143.254 10.611c15.917 0 26.528 10.611 26.528 26.528 0 0 0 5.306 0 5.306l-37.14 137.948c-5.306 15.917-15.917 15.917-26.528 5.306l-31.834-47.751c-111.42 74.28-244.062 100.808-376.705 79.585-15.917 0-26.528-5.306-37.14-10.611v0c-111.42-26.528-212.228-95.503-281.202-191.005 0 0 0 0 0 0 0-5.306-5.306-5.306-5.306-10.611-15.917-5.306-21.223-10.611-21.223-15.917 0 0 0 0 0 0-58.363-95.503-90.197-196.311-84.891-307.731 0 0 0 0 0 0 0-10.611 0-21.223 0-31.834 0 0 0 0 0 0 0-10.611 0-21.223 5.306-31.834 15.917-106.114 68.974-201.617 143.254-275.896v0c21.223-21.223 42.446-37.14 63.668-53.057 63.668-42.446 132.642-74.28 206.922-84.891 21.223-5.306 42.446 10.611 47.751 31.834 10.611 15.917-5.306 42.446-26.528 42.446z" />
<glyph unicode="&#xe90d;" glyph-name="back_arrow" horiz-adv-x="1589" d="M1589.493 448c0 0 0 0 0 0 0 22.925-7.642 45.851-22.925 61.134l-427.94 427.94c-30.567 30.567-76.418 30.567-106.985 0s-30.567-76.418 0-106.985l305.672-305.672h-1260.896c-45.851 0-76.418-30.567-76.418-76.418s30.567-76.418 76.418-76.418h1253.254l-298.030-305.672c-30.567-30.567-30.567-76.418 0-106.985 15.284-15.284 30.567-22.925 53.493-22.925s38.209 7.642 53.493 22.925l412.657 420.299c22.925 15.284 38.209 38.209 38.209 68.776z" />
<glyph unicode="&#xe90e;" glyph-name="balance" d="M1021.992 335.561v0l-168.659 367.435 40.157 20.078-16.063 30.118-40.157-20.078-6.024 12.047c-4.016 8.031-14.055 12.047-22.086 8.031-4.016-2.008-6.024-4.016-8.031-8.031l-4.016-10.039c-28.11 14.055-60.235 20.078-92.361 20.078h-142.557v34.133h34.133v34.133h-30.118l12.047 48.188c10.039 38.149-14.055 76.298-52.204 84.329-38.149 10.039-76.298-14.055-84.329-52.204-2.008-10.039-2.008-22.086 0-34.133l12.047-48.188h-30.118v-34.133h34.133v-34.133h-142.557c-32.125 0-64.251-6.024-92.361-20.078l-2.008 12.047c-4.016 8.031-14.055 12.047-22.086 8.031-4.016-2.008-6.024-4.016-8.031-8.031l-6.024-12.047-40.157 20.078-16.063-30.118 40.157-20.078-166.651-367.435c-2.008-2.008-2.008-4.016-2.008-6.024 0-66.259 54.212-118.463 118.463-118.463h170.667c66.259 0 118.463 54.212 118.463 118.463 0 2.008 0 4.016-2.008 8.031l-168.659 367.435c24.094 12.047 50.196 18.071 78.306 18.071h142.557v-626.447l-56.22-58.227h-60.235c-46.18 0-84.329-38.149-84.329-84.329 0-10.039 8.031-16.063 18.071-16.063h477.867c10.039 0 16.063 8.031 16.063 16.063 0 46.18-38.149 84.329-84.329 84.329h-60.235l-62.243 58.227v624.439h142.557c26.102 0 54.212-6.024 78.306-18.071l-168.659-367.435c-2.008-2.008-2.008-4.016-2.008-8.031 0-66.259 54.212-118.463 118.463-118.463h172.675c66.259 0 118.463 54.212 118.463 118.463 2.008 4.016 2.008 6.024 0 8.031zM289.129 243.2h-170.667c-40.157 0-76.298 28.11-84.329 68.267h337.318c-6.024-40.157-40.157-68.267-82.322-68.267v0zM365.427 345.6h-321.255l156.612 341.333c2.008 0 6.024 0 8.031 0l156.612-341.333zM483.89 911.812c14.055 16.063 36.141 18.071 52.204 4.016 2.008-2.008 4.016-2.008 4.016-4.016 6.024-8.031 10.039-20.078 6.024-30.118l-14.055-58.227h-42.165l-14.055 58.227c-2.008 10.039 0 22.086 8.031 30.118v0zM493.929 755.2v34.133h34.133v-34.133h-34.133zM528.063 721.067v-614.4h-34.133v614.4h34.133zM682.667 4.267c22.086 0 40.157-14.055 48.188-34.133h-437.71c8.031 20.078 26.102 34.133 48.188 34.133h341.333zM572.235 38.4h-122.478l34.133 34.133h54.212l34.133-34.133zM815.184 686.933c2.008 0 6.024 0 8.031 0l156.612-341.333h-321.255l156.612 341.333zM903.529 243.2h-170.667c-40.157 0-76.298 28.11-84.329 68.267h337.318c-6.024-40.157-40.157-68.267-82.322-68.267z" />
<glyph unicode="&#xe90f;" glyph-name="balance_down" d="M512-64c-280.652 0-512 227.556-512 512s231.348 512 512 512 512-231.348 512-512-227.556-512-512-512zM512 884.148c-238.933 0-436.148-197.215-436.148-436.148s197.215-436.148 436.148-436.148 436.148 193.422 436.148 436.148-193.422 436.148-436.148 436.148zM697.837 470.756c-15.17 15.17-37.926 15.17-53.096 0l-79.644-79.644v189.63c0 22.756-15.17 37.926-37.926 37.926s-37.926-15.17-37.926-37.926v-189.63l-79.644 79.644c-15.17 15.17-37.926 15.17-53.096 0s-15.17-37.926 0-53.096l144.119-144.119c7.585-7.585 18.963-11.378 26.548-11.378 11.378 0 18.963 3.793 26.548 11.378l147.911 144.119c11.378 15.17 11.378 37.926-3.793 53.096z" />
<glyph unicode="&#xe910;" glyph-name="balance_up" d="M512 960c-280.652 0-512-231.348-512-512s231.348-512 512-512 512 227.556 512 512-227.556 512-512 512zM512 11.852c-238.933 0-436.148 193.422-436.148 436.148s197.215 436.148 436.148 436.148 436.148-197.215 436.148-436.148-193.422-436.148-436.148-436.148zM530.963 618.667c-15.17 15.17-37.926 15.17-53.096 0l-147.911-144.119c-15.17-15.17-15.17-37.926 0-53.096 7.585-7.585 18.963-11.378 26.548-11.378 11.378 0 18.963 3.793 26.548 11.378l79.644 79.644v-185.837c0-22.756 15.17-37.926 37.926-37.926s37.926 15.17 37.926 37.926v189.63l79.644-79.644c15.17-15.17 37.926-15.17 53.096 0s15.17 37.926 0 53.096l-140.326 140.326z" />
<glyph unicode="&#xe911;" glyph-name="bed" horiz-adv-x="1765" d="M1735.716-5.901h-170.667v87.149h29.050c14.525 0 29.050 14.525 29.050 29.050v0 283.234c0 0 0 0 0 0 0 3.631 0 7.262 0 7.262s0 0 0 0c0 3.631-3.631 3.631-3.631 7.262l-163.404 192.454v217.872c-7.262 76.255-68.993 141.617-148.879 141.617h-853.333c-79.887 0-141.617-65.362-141.617-141.617v-217.872l-163.404-192.454c0 0-3.631-3.631-3.631-7.262 0 0 0 0 0 0 0-3.631 0-7.262 0-7.262s0 0 0 0v-283.234c0-14.525 14.525-29.050 29.050-29.050 0 0 0 0 0 0h29.050v-87.149h-174.298c-14.525 0-29.050-14.525-29.050-29.050s14.525-29.050 29.050-29.050h1706.667c14.525 0 29.050 14.525 29.050 29.050s-14.525 29.050-29.050 29.050v0zM1506.95 23.149h-58.099v58.099h58.099v-58.099zM1565.050 135.716h-1365.333v228.766h1365.333v-228.766zM370.383 818.383c0 47.206 39.943 83.518 87.149 83.518v0h849.702c47.206 0 83.518-39.943 83.518-83.518v-199.716h-58.099v87.149c0 47.206-39.943 83.518-83.518 83.518h-228.766c-47.206 0-87.149-39.943-87.149-83.518v0-87.149h-112.567v87.149c0 47.206-39.943 83.518-87.149 83.518v0h-228.766c-47.206 0-87.149-39.943-87.149-83.518v0-87.149h-58.099l10.894 199.716zM1278.184 589.617c0-14.525-14.525-29.050-29.050-29.050v0h-228.766c-14.525 0-29.050 14.525-29.050 29.050v0 116.199c0 14.525 14.525 29.050 29.050 29.050 0 0 0 0 0 0h228.766c14.525 0 29.050-14.525 29.050-29.050 0 0 0 0 0 0v-116.199zM766.184 589.617c0-14.525-14.525-29.050-29.050-29.050h-228.766c-14.525 0-29.050 14.525-29.050 29.050v0 116.199c0 14.525 14.525 29.050 29.050 29.050v0h228.766c14.525 0 29.050-14.525 29.050-29.050 0 0 0 0 0 0v-116.199zM355.858 560.567h76.255c10.894-32.681 43.574-58.099 79.887-58.099h228.766c36.312 0 68.993 21.787 79.887 58.099h123.461c10.894-32.681 43.574-58.099 79.887-58.099h228.766c36.312 0 68.993 21.787 79.887 58.099h76.255l123.461-141.617h-1299.972l123.461 141.617zM312.284 77.617v-58.099h-54.468v58.099h54.468zM370.383-5.901v87.149h1024v-87.149h-1024zM1448.851 193.816h58.099c14.525 0 29.050 14.525 29.050 29.050s-14.525 29.050-29.050 29.050h-58.099c-14.525 0-29.050-14.525-29.050-29.050 3.631-18.156 14.525-29.050 29.050-29.050zM1194.667 193.816h170.667c14.525 0 29.050 14.525 29.050 29.050s-14.525 29.050-29.050 29.050h-170.667c-14.525 0-29.050-14.525-29.050-29.050 0-18.156 14.525-29.050 29.050-29.050zM424.851 818.383h83.518c14.525 0 29.050 14.525 29.050 29.050s-14.525 29.050-29.050 29.050h-83.518c-14.525 0-29.050-14.525-29.050-29.050 3.631-18.156 14.525-29.050 29.050-29.050v0z" />
<glyph unicode="&#xe912;" horiz-adv-x="781" d="M701.205 893.942s-569.658 53.45-606.523 0-55.332-130.908-42.405-481.155 0-411.12 0-411.12c3.196-0.2 6.93-0.315 10.691-0.315 38.284 0 73.804 11.831 103.105 32.037l-0.61-0.398c47.91 36.864 160.811 150.796 201.405 158.183s334.372-189.507 334.372-189.507 23.937-18.432 31.36 31.324 0 805.655 0 805.655z" />
<glyph unicode="&#xe913;" horiz-adv-x="781" d="M88.752-64c-18.264 0.045-35.132 5.979-48.818 16.003l0.233-0.163c-22.523 16.593-36.973 43.012-36.973 72.807 0 0.212 0.001 0.423 0.002 0.635v-0.032c0 116.915-2.060 547.248-3.267 745.137-0.005 0.513-0.008 1.119-0.008 1.725 0 52.842 21.117 100.753 55.374 135.752l-0.034-0.035c31.432 32.117 75.19 52.063 123.607 52.171h423.18c99.47-2.785 179.044-84.085 179.044-183.97 0-1.497-0.018-2.991-0.053-4.479l0.004 0.221c0-197.285 0.249-664.341-1.208-740.591-0.428-29.341-14.794-55.24-36.758-71.423l-0.249-0.175c-13.469-9.856-30.364-15.771-48.64-15.771-9.027 0-17.717 1.443-25.852 4.111l0.586-0.166c-4.285 1.401-7.995 3.471-11.21 6.12l0.058-0.047c-105.586 86.337-223.175 179.847-263.911 208.65-41.020-29.513-160.385-126.504-267.462-216.001-3.077-2.6-6.687-4.688-10.629-6.071l-0.238-0.073c-7.938-2.747-17.087-4.333-26.606-4.333-0.061 0-0.121 0-0.182 0h0.009zM178.924 892.167c-29.629-0.161-56.359-12.435-75.517-32.117l-0.023-0.024c-21.976-22.659-35.524-53.603-35.524-87.71 0-0.529 0.003-1.056 0.010-1.583l-0.001 0.080c1.208-197.995 3.374-628.613 3.267-745.635-0.010-0.251-0.016-0.545-0.016-0.84 0-7.107 3.416-13.416 8.697-17.374l0.056-0.040c2.526-1.93 5.728-3.092 9.201-3.092 0.099 0 0.197 0.001 0.296 0.003h-0.015c278.152 232.409 290.227 232.161 305.002 232.125 13.922-0.178 25.926-0.32 299.994-224.241v0c3.445 0.036 6.614 1.191 9.166 3.118l-0.039-0.028c5.309 4.014 8.704 10.317 8.704 17.413 0 0.121-0.001 0.242-0.003 0.362v-0.018c1.456 75.647 1.314 542.205 1.208 739.277 0.049 1.26 0.077 2.74 0.077 4.226 0 62.431-49.233 113.364-110.993 116.090l-0.246 0.009z" />
<glyph unicode="&#xe914;" horiz-adv-x="782" d="M88.853-64c-17.778 0-35.556 7.111-49.778 14.222-24.889 17.778-35.556 46.222-35.556 74.667 0 117.333-3.556 547.556-3.556 746.667 0 49.778 17.778 99.556 56.889 138.667 32 32 74.667 49.778 120.889 49.778h426.667c103.111-3.556 181.333-85.333 177.778-188.444 0-199.111 0-664.889 0-743.111 0-28.444-14.222-53.333-35.556-71.111-21.333-14.222-49.778-21.333-74.667-10.667-3.556 0-7.111 3.556-10.667 7.111-106.667 85.333-224 181.333-263.111 209.778-42.667-28.444-160-128-266.667-216.889-3.556-3.556-7.111-3.556-10.667-7.111-14.222-3.556-21.333-3.556-32-3.556zM177.742 892.444c-28.444 0-56.889-10.667-74.667-32-24.889-24.889-35.556-56.889-35.556-88.889 0-199.111 3.556-629.333 3.556-746.667 0-7.111 3.556-14.222 7.111-17.778s7.111-3.556 10.667-3.556c277.333 231.111 291.556 231.111 305.778 231.111s24.889 0 298.667-224v0c3.556 0 7.111 0 10.667 3.556 7.111 3.556 7.111 10.667 7.111 17.778v0c0 74.667 0 544 0 739.556 7.111 64-42.667 117.333-106.667 120.889h-426.667z" />
<glyph unicode="&#xe915;" horiz-adv-x="782" d="M700.409 892.444c0 0-568.889 53.333-608 0s-53.333-128-39.111-480 0-412.444 0-412.444c39.111-3.556 81.778 7.111 113.778 32 46.222 35.556 160 149.333 202.667 160s334.222-188.444 334.222-188.444 24.889-17.778 32 32 0 807.111 0 807.111l-35.556 49.778z" />
<glyph unicode="&#xe916;" glyph-name="bookmark_on" horiz-adv-x="782" d="M782.222 771.556c3.556 103.111-78.222 184.889-177.778 188.444h-426.667c-46.222 0-88.889-17.778-120.889-53.333-39.111-35.556-56.889-85.333-56.889-135.111 0-199.111 3.556-629.333 3.556-746.667 0-28.444 14.222-56.889 35.556-74.667 14.222-10.667 32-14.222 49.778-14.222 10.667 0 17.778 0 28.444 3.556 3.556 0 7.111 3.556 10.667 7.111 106.667 88.889 227.556 188.444 266.667 216.889 39.111-28.444 160-120.889 263.111-209.778 3.556-3.556 7.111-3.556 10.667-7.111 24.889-7.111 53.333-3.556 74.667 10.667 21.333 17.778 35.556 42.667 35.556 71.111 3.556 78.222 3.556 544 3.556 743.111z" />
<glyph unicode="&#xe917;" glyph-name="call_answer" d="M148.72 120.444l104.637 155.13c28.394 34.822 67.924 42.506 101.648 19.758l80.938-54.593 10.197 7.842c50.983 39.212 99.77 89.719 135.068 149.325 42.043 55.056 70.595 119.211 87.854 181.171-1.098 5.647 3.452 12.392 3.452 12.392l-80.938 54.593c-28.077 23.845-36.858 69.022-19.758 101.648l104.637 155.13c22.747 33.724 67.924 42.506 96.001 18.661l47.214-31.846c14.587-14.746 29.175-29.492 39.212-50.983 8.94-15.844 17.88-31.687 22.271-54.276 45.481-143.532 2.963-286.588-142.619-502.421-200.175-296.771-406.764-319.347-412.411-320.444-16.941-3.293-40.627-2.037-58.667 0.317s-42.823 9.258-61.96 17.259v0l-47.214 31.846c-17.88 31.687-26.662 76.864-9.562 109.491z" />
<glyph unicode="&#xe918;" glyph-name="card" horiz-adv-x="718" d="M677.161 505.806l-165.161 206.452v165.161c0 45.419-37.161 86.71-86.71 86.71h-338.581c-49.548-4.129-86.71-41.29-86.71-90.839v-615.226c0-45.419 37.161-82.581 86.71-82.581h152.774v-45.419c0-107.355 86.71-194.065 194.065-194.065h268.387c8.258 0 16.516 8.258 16.516 16.516v437.677c0 41.29-16.516 82.581-41.29 115.613zM425.29 926.968c28.903 0 49.548-24.774 49.548-49.548v-445.935l-70.194 74.323v421.161h20.645zM375.742 534.71l-28.903 33.032c-8.258 4.129-16.516 12.387-24.774 16.516v342.71h49.548v-392.258zM33.032 262.194v611.097c0 28.903 24.774 49.548 49.548 49.548h206.452v-334.452c-20.645 0-41.29-8.258-53.677-20.645v0c-28.903-28.903-33.032-74.323-4.129-107.355l57.806-70.194v-177.548h-206.452c-24.774-4.129-49.548 20.645-49.548 49.548zM375.742 208.516h-53.677v140.387l49.548-61.935v-53.677c4.129-8.258 4.129-16.516 4.129-24.774zM681.29-30.968h-247.742c-86.71 0-161.032 70.194-161.032 161.032v45.419h111.484c20.645-70.194 70.194-128 140.387-152.774l12.387 33.032c-74.323 28.903-123.871 99.097-123.871 181.677v57.806c0 4.129 0 8.258-4.129 12.387l-152.774 177.548c-16.516 16.516-12.387 45.419 4.129 61.935 8.258 8.258 16.516 12.387 28.903 12.387s24.774-4.129 33.032-12.387l231.226-243.613 24.774 24.774-61.935 66.065v260.129l136.258-169.29c20.645-28.903 33.032-61.935 33.032-94.968v-421.161zM86.71 873.29h33.032v-222.968h-33.032v222.968zM169.29 873.29h33.032v-136.258h-33.032v136.258zM206.452 398.452h-103.226c-8.258 0-16.516-8.258-16.516-16.516v-103.226c0-8.258 8.258-16.516 16.516-16.516h103.226c8.258 0 16.516 8.258 16.516 16.516v103.226c0 8.258-8.258 16.516-16.516 16.516zM185.806 295.226h-66.065v70.194h70.194v-70.194z" />
<glyph unicode="&#xe919;" glyph-name="Check_accommodation" horiz-adv-x="2087" d="M2044.062 717.233l-661.662-661.662c-55.138-55.138-145.723-55.138-200.862 0 0 0 0 0 0 0l-252.062 252.062c-55.138 55.138-59.077 145.723-3.938 200.862s145.723 59.077 200.862 3.938c0 0 3.938-3.938 3.938-3.938l153.6-153.6 559.262 559.262c55.138 55.138 145.723 59.077 200.862 3.938s59.077-145.723 3.938-200.862c0 3.938 0 0-3.938 0v0zM945.231 725.11h-866.462c-43.323 0-78.769 35.446-78.769 78.769s35.446 78.769 78.769 78.769h866.462c43.323 0 78.769-35.446 78.769-78.769s-35.446-78.769-78.769-78.769zM630.154 331.264h-551.385c-43.323 0-78.769 35.446-78.769 78.769s35.446 78.769 78.769 78.769h551.385c43.323 0 78.769-35.446 78.769-78.769s-35.446-78.769-78.769-78.769zM866.462-62.582h-787.692c-43.323 0-78.769 35.446-78.769 78.769s35.446 78.769 78.769 78.769h787.692c43.323 0 78.769-35.446 78.769-78.769s-35.446-78.769-78.769-78.769z" />
<glyph unicode="&#xe91a;" glyph-name="close" d="M621.462 444.469l381.352 381.352c28.248 28.248 28.248 77.683 0 112.993-28.248 28.248-77.683 28.248-112.993 0l-374.29-381.352-381.352 381.352c-28.248 28.248-77.683 28.248-112.993 0-28.248-28.248-28.248-77.683 0-112.993l381.352-381.352-381.352-381.352c-28.248-28.248-28.248-77.683 0-112.993 14.124-14.124 35.31-21.186 56.497-21.186s42.372 7.062 56.497 21.186l381.352 381.352 381.352-381.352c14.124-14.124 35.31-21.186 56.497-21.186s42.372 7.062 56.497 21.186c28.248 28.248 28.248 77.683 0 112.993l-388.414 381.352z" />
<glyph unicode="&#xe91b;" glyph-name="close2" d="M618.39 448l352.416 352.416c26.597 26.597 26.597 79.792 0 106.39s-79.792 26.597-106.39 0l-352.416-352.416-352.416 352.416c-26.597 26.597-79.792 26.597-106.39 0s-26.597-79.792 0-106.39l352.416-352.416-352.416-352.416c-26.597-26.597-26.597-79.792 0-106.39 13.299-19.948 33.247-26.597 53.195-26.597s39.896 6.649 53.195 19.948l352.416 352.416 352.416-352.416c13.299-13.299 33.247-19.948 53.195-19.948s39.896 6.649 53.195 19.948c26.597 26.597 26.597 79.792 0 106.39l-352.416 359.065z" />
<glyph unicode="&#xe91c;" d="M75.732 414.458c-31.771 50.838-50.612 112.588-50.612 178.739 0 188.285 152.635 340.92 340.92 340.92s340.92-152.635 340.92-340.92c0-1.709-0.013-3.415-0.038-5.119l0.003 0.257c-6.207-186.77-159.104-335.818-346.813-335.818-1.192 0-2.383 0.006-3.573 0.018l0.182-0.001h-314.754l33.129 56.242c9.412 15.2 14.99 33.633 14.99 53.369 0 19.302-5.335 37.359-14.612 52.774l0.258-0.462z" />
<glyph unicode="&#xe91d;" d="M948.395 122.277c31.74 50.816 50.561 112.533 50.561 178.647 0 172.215-127.705 314.603-293.582 337.632l-1.788 0.203c2.17-14.491 3.409-31.215 3.409-48.229 0-0.761-0.002-1.521-0.007-2.28l0.001 0.117c-6.206-186.77-159.104-335.818-346.813-335.818-1.181 0-2.361 0.006-3.539 0.018l0.18-0.001h-35.545c28.13-166.766 171.466-292.219 344.103-292.219 0.759 0 1.517 0.002 2.275 0.007l-0.117-0.001h314.754l-33.129 56.274c-9.443 15.221-15.039 33.687-15.039 53.459 0 19.252 5.306 37.264 14.535 52.655l-0.259-0.465z" />
<glyph unicode="&#xe91e;" d="M969.856 28.996c-7.027 11.456-11.189 25.327-11.189 40.171s4.162 28.715 11.383 40.511l-0.193-0.34c33.993 54.441 54.15 120.558 54.15 191.382 0 177.823-127.067 325.968-295.356 358.589l-2.299 0.371c-31.936 172.299-181.056 301.049-360.248 301.049-202.174 0-366.069-163.894-366.069-366.069 0-71.469 20.481-138.154 55.893-194.506l-0.893 1.523c7.027-11.456 11.189-25.327 11.189-40.171s-4.162-28.715-11.383-40.511l0.193 0.34-33.86-56.37c-2.144-3.553-3.412-7.844-3.412-12.431 0-13.45 10.904-24.354 24.354-24.354 0.003 0 0.007 0 0.010 0h259.083c38.626-168.457 187.239-292.213 364.758-292.213 0.17 0 0.341 0 0.511 0h315.554c13.446 0.005 24.345 10.907 24.345 24.354 0 4.574-1.261 8.854-3.454 12.51l0.061-0.11zM84.697 276.984l11.7 19.712c11.441 18.645 18.217 41.223 18.217 65.383s-6.776 46.738-18.532 65.936l0.315-0.553c-29.498 47.204-46.99 104.539-46.99 165.961 0 174.835 141.732 316.566 316.566 316.566s316.566-141.732 316.566-316.566c0-1.587-0.012-3.172-0.035-4.754l0.003 0.24c-5.937-173.526-148.035-311.942-322.461-311.942-1.18 0-2.359 0.006-3.537 0.019l0.18-0.002zM667.406-15.229c-0.544-0.003-1.188-0.005-1.832-0.005-150.561 0-277.221 102.333-314.22 241.24l-0.515 2.271h5.85c0.933-0.008 2.036-0.013 3.14-0.013 201.113 0 364.909 159.779 371.371 359.321l0.015 0.593v21.111c140.982-33.989 244.098-159.033 244.098-308.16 0-61.414-17.488-118.743-47.756-167.279l0.777 1.337c-11.447-18.644-18.228-41.221-18.228-65.383s6.78-46.74 18.542-65.935l-0.314 0.552 11.7-19.744z" />
<glyph unicode="&#xe91f;" d="M392.998 652.145v0c0-24.354-22.891-39.932-81.582-42.381l-2.416-2.416 10.714-75.477h48.707l5.119 28.614c49.661 8.743 89.848 33.097 89.848 92.773v0c0 61.838-45.528 97.383-112.739 97.383-1.029 0.026-2.241 0.041-3.457 0.041-44.037 0-83.528-19.463-110.34-50.257l-0.15-0.176 42.857-46.991c17.276 19.354 42.128 31.63 69.855 32.142l0.090 0.001c27.66-0.127 43.493-12.304 43.493-33.256z" />
<glyph unicode="&#xe920;" d="M304.358 494.927h75.477v-74.524h-75.477v74.524z" />
<glyph unicode="&#xe921;" horiz-adv-x="872" d="M825.936 276.174c-27.793-75.522-69.986-139.919-123.653-192.682l-0.072-0.071c-66.933-62.929-147.726-111.952-237.242-141.955l-4.569-1.328c-6.992-2.518-15.060-4.018-23.465-4.117h-0.93c-5.104 0.009-10.082 0.525-14.893 1.502l0.482-0.082c-3.915 0.797-7.241 1.728-10.471 2.865l0.548-0.168c-94.191 31.266-175.086 80.269-242.443 143.52l0.344-0.32c-53.757 52.805-95.949 117.194-122.549 189.14l-1.156 3.571c-50.005 135.604-47.143 285.022-44.858 405.083v1.853c0.453 9.923 0.762 20.319 0.926 31.827 1.104 56.857 45.764 102.936 101.934 106.295l0.3 0.014c111.901 2.386 212.691 48.057 286.683 120.877l-0.055-0.054 0.679 0.618c11.658 10.804 27.319 17.432 44.529 17.432s32.871-6.628 44.571-17.471l-0.042 0.039 0.659-0.618c73.95-72.768 174.754-118.439 286.214-120.815l0.455-0.008c56.459-3.395 101.101-49.477 102.19-106.224l0.002-0.106c0.165-11.57 0.453-21.966 0.926-31.827v-0.782c2.285-120.288 5.105-269.973-45.044-406.010z" />
<glyph unicode="&#xe922;" horiz-adv-x="872" d="M778.813 297.007c-24.433-66.401-61.53-123.019-108.716-169.407l-0.064-0.063c-58.846-55.325-129.879-98.425-208.581-124.802l-4.017-1.168c-6.119-2.212-13.181-3.539-20.539-3.643l-0.048-0.001h-0.782c-4.492 0.008-8.872 0.465-13.105 1.328l0.424-0.072c-3.436 0.7-6.355 1.517-9.189 2.515l0.481-0.148c-82.837 27.456-153.986 70.516-213.234 126.11l0.306-0.284c-47.263 46.425-84.356 103.035-107.743 166.289l-1.016 3.139c-43.932 119.238-41.441 250.601-39.423 356.149v1.626c0.412 8.708 0.659 17.869 0.803 27.977 0.96 49.996 40.228 90.518 89.618 93.471l0.263 0.013c98.383 2.097 186.998 42.251 252.050 106.275l-0.049-0.048 0.597 0.556c10.243 9.484 23.999 15.302 39.115 15.302s28.872-5.818 39.152-15.337l-0.038 0.035 0.576-0.556c65.012-63.976 153.633-104.129 251.622-106.22l0.4-0.007c49.636-2.987 88.882-43.502 89.839-93.391l0.001-0.093c0.144-10.17 0.412-19.331 0.803-27.977v-0.679c2.12-105.733 4.591-237.364-39.506-356.89z" />
<glyph unicode="&#xe923;" horiz-adv-x="872" d="M436.766 223.616h-0.741c-123.93 0-224.394 100.465-224.394 224.394s100.465 224.394 224.394 224.394v0h0.782c123.93 0 224.394-100.465 224.394-224.394s-100.465-224.394-224.394-224.394v0zM349.273 449.41c-0.027 0-0.059 0-0.092 0-7.257 0-13.826-2.942-18.58-7.699v0c-4.751-4.803-7.686-11.41-7.686-18.703s2.935-13.9 7.689-18.705l-0.002 0.002 46.999-46.876c4.775-4.77 11.369-7.72 18.651-7.72s13.877 2.95 18.652 7.72v0l21.842 21.863 101.039 100.998c4.78 4.778 7.737 11.38 7.737 18.672 0 14.58-11.819 26.399-26.399 26.399-7.287 0-13.885-2.953-18.662-7.727v0l-104.168-104.21-28.204 28.307c-4.78 4.746-11.366 7.679-18.637 7.679-0.063 0-0.126 0-0.189-0.001h0.010z" />
<glyph unicode="&#xe924;" glyph-name="delete" horiz-adv-x="874" d="M839.243 798.878h-228.095c-14.559 106.768-116.474 174.711-218.389 160.152-82.502-14.559-145.592-77.649-160.152-160.152h-203.829c-14.559 0-29.118-14.559-33.972-29.118 0-14.559 14.559-29.118 29.118-33.972 0 0 0 0 4.853 0h810.464c14.559 0 29.118 14.559 33.972 29.118 0 19.412-14.559 33.972-33.972 33.972 4.853 0 0 0 0 0v0zM421.878 900.792c63.090 0 111.621-43.678 126.18-101.915h-257.213c19.412 58.237 67.943 101.915 131.033 101.915v0zM766.447 701.816c-14.559 0-33.972-9.706-33.972-29.118 0 0 0 0 0 0l-48.531-548.398c0 0 0 0 0-4.853 0-67.943-58.237-126.18-126.18-126.18h-242.654c-67.943 0-126.18 58.237-126.18 126.18 0 0 0 0 0 4.853l-48.531 548.398c0 14.559-14.559 29.118-33.972 29.118s-29.118-14.559-29.118-33.972l48.531-548.398c0-101.915 87.355-184.417 189.27-189.27h242.654c101.915 0 189.27 82.502 189.27 189.27l48.531 548.398c0 14.559-9.706 29.118-29.118 33.972 0 0 0 0 0 0zM363.641 274.745v286.332c0 14.559-14.559 29.118-29.118 33.972-14.559 0-29.118-14.559-33.972-29.118 0 0 0 0 0-4.853v-286.332c0-14.559 14.559-29.118 29.118-33.972 19.412 0 33.972 14.559 33.972 33.972 0-4.853 0-4.853 0 0zM572.324 148.565v286.332c0 14.559-14.559 29.118-29.118 29.118s-29.118-14.559-29.118-29.118v0-286.332c0-14.559 14.559-29.118 29.118-29.118s29.118 9.706 29.118 29.118z" />
<glyph unicode="&#xe925;" horiz-adv-x="1797" d="M383.988 831.988h1028.874c212.071 0 383.988-171.917 383.988-383.988s-171.917-383.988-383.988-383.988h-1028.874c-212.071 0-383.988 171.917-383.988 383.988s171.917 383.988 383.988 383.988z" />
<glyph unicode="&#xe926;" horiz-adv-x="1797" d="M1024 448c0-282.77-229.23-512-512-512s-512 229.23-512 512c0 282.77 229.23 512 512 512s512-229.23 512-512z" />
<glyph unicode="&#xe927;" glyph-name="door_handle" horiz-adv-x="768" d="M154.097 840.699h34.796c9.942 0 17.398 7.456 17.398 17.398s-9.942 17.398-17.398 17.398h-34.796c-9.942 0-17.398-7.456-17.398-17.398s7.456-17.398 17.398-17.398zM238.602 840.699h34.796c9.942 0 17.398 7.456 17.398 17.398s-7.456 17.398-17.398 17.398h-34.796c-9.942 0-17.398-7.456-17.398-17.398s7.456-17.398 17.398-17.398v0zM325.592 840.699h34.796c9.942 0 17.398 7.456 17.398 17.398s-7.456 17.398-17.398 17.398h-34.796c-9.942 0-17.398-7.456-17.398-17.398s7.456-17.398 17.398-17.398zM154.097 771.107h34.796c9.942 0 17.398 7.456 17.398 17.398s-7.456 17.398-17.398 17.398h-34.796c-9.942 0-17.398-7.456-17.398-17.398s7.456-17.398 17.398-17.398zM238.602 771.107h34.796c9.942 0 17.398 7.456 17.398 17.398s-7.456 17.398-17.398 17.398h-34.796c-9.942 0-17.398-7.456-17.398-17.398s7.456-17.398 17.398-17.398v0zM325.592 771.107h34.796c9.942 0 17.398 7.456 17.398 17.398s-7.456 17.398-17.398 17.398h-34.796c-9.942 0-17.398-7.456-17.398-17.398s7.456-17.398 17.398-17.398zM154.097 704h34.796c9.942 0 17.398 7.456 17.398 17.398s-7.456 17.398-17.398 17.398h-34.796c-9.942 0-17.398-7.456-17.398-17.398s7.456-17.398 17.398-17.398zM238.602 704h34.796c9.942 0 17.398 7.456 17.398 17.398s-7.456 17.398-17.398 17.398h-34.796c-9.942 0-17.398-7.456-17.398-17.398s7.456-17.398 17.398-17.398v0zM325.592 704h34.796c9.942 0 17.398 7.456 17.398 17.398s-7.456 17.398-17.398 17.398h-34.796c-9.942 0-17.398-7.456-17.398-17.398s7.456-17.398 17.398-17.398zM154.097 634.408h34.796c9.942 0 17.398 7.456 17.398 17.398s-7.456 17.398-17.398 17.398h-34.796c-9.942 0-17.398-7.456-17.398-17.398 0-7.456 7.456-17.398 17.398-17.398 0 0 0 0 0 0zM238.602 634.408h34.796c9.942 0 17.398 7.456 17.398 17.398s-7.456 17.398-17.398 17.398h-34.796c-9.942 0-17.398-7.456-17.398-17.398 0-7.456 7.456-17.398 17.398-17.398v0zM325.592 634.408h34.796c9.942 0 17.398 7.456 17.398 17.398s-7.456 17.398-17.398 17.398c0 0 0 0 0 0h-34.796c-9.942 0-17.398-7.456-17.398-17.398 0-7.456 7.456-17.398 17.398-17.398zM683.495 293.903h-171.495v529.398c0 37.282-29.825 67.107-67.107 67.107v17.398c0 27.34-22.369 52.194-52.194 52.194h-273.398c-27.34 0-49.709-22.369-52.194-52.194v-17.398c-37.282 0-67.107-29.825-67.107-67.107v-820.194c0-37.282 29.825-67.107 67.107-67.107h375.301c37.282 0 67.107 29.825 67.107 67.107v119.301h171.495c47.223 0 84.505 37.282 84.505 84.505 2.485 49.709-34.796 86.99-82.019 86.99 0 0 0 0 0 0v0zM101.903 907.806c0 9.942 7.456 17.398 17.398 17.398h273.398c9.942 0 17.398-7.456 17.398-17.398v-273.398c0-84.505-69.592-154.097-154.097-154.097s-154.097 69.592-154.097 154.097v273.398zM477.204 3.107c0-19.883-14.913-34.796-34.796-34.796h-375.301c-19.883 0-34.796 14.913-34.796 34.796v820.194c0 19.883 14.913 34.796 34.796 34.796v-221.204c0-104.388 86.99-186.408 188.893-186.408s183.922 84.505 186.408 186.408v221.204c19.883 0 34.796-14.913 34.796-34.796v-529.398h-94.447c-47.223 69.592-141.67 89.476-213.748 42.252-69.592-47.223-89.476-141.67-42.252-213.748s141.67-89.476 213.748-42.252c17.398 12.427 32.311 24.854 42.252 42.252h94.447v-119.301zM256 122.408h84.505c-47.223-47.223-121.786-44.738-169.010 2.485s-47.223 121.786 0 169.010c47.223 44.738 121.786 44.738 166.524 0h-84.505c-47.223 0-84.505-37.282-84.505-84.505 2.485-47.223 39.767-86.99 86.99-86.99 0 0 0 0 0 0zM683.495 157.204h-427.495c-27.34 0-52.194 22.369-52.194 49.709s22.369 52.194 49.709 52.194c0 0 2.485 0 2.485 0h427.495c27.34 0 52.194-22.369 52.194-49.709s-22.369-52.194-52.194-52.194c0 0 0 0 0 0zM308.194 224.311h-52.194c-9.942 0-17.398-7.456-17.398-17.398s7.456-17.398 17.398-17.398c0 0 0 0 0 0h52.194c9.942 0 17.398 7.456 17.398 17.398s-9.942 17.398-17.398 17.398z" />
<glyph unicode="&#xe928;" glyph-name="download_up" horiz-adv-x="1164" d="M497.371 275.383l-140.434-134.583v315.977c0 35.109-23.406 58.514-58.514 58.514s-58.514-23.406-58.514-58.514v-327.68l-140.434 140.434c-23.406 23.406-58.514 23.406-81.92 0s-23.406-58.514 0-81.92l234.057-234.057c11.703-11.703 29.257-17.554 40.96-17.554 17.554 0 29.257 5.851 40.96 17.554l245.76 234.057c23.406 23.406 23.406 58.514 0 81.92-17.554 23.406-58.514 29.257-81.92 5.851zM1146.88 708.389l-234.057 234.057c-23.406 23.406-58.514 23.406-81.92 0l-245.76-234.057c-23.406-23.406-23.406-58.514 0-81.92 5.851-11.703 23.406-17.554 40.96-17.554s29.257 5.851 40.96 17.554l140.434 134.583v-321.829c0-35.109 23.406-58.514 58.514-58.514s58.514 23.406 58.514 58.514v327.68l140.434-140.434c23.406-23.406 58.514-23.406 81.92 0s23.406 58.514 0 81.92z" />
<glyph unicode="&#xe929;" glyph-name="easy_access" horiz-adv-x="883" d="M883.451 411.939c-2.008 12.047-12.047 22.086-24.094 24.094-18.071 216.847-200.784 385.506-419.639 383.498v0c0 0-2.008 0-2.008 0v0c0 0-2.008 0-2.008 0v0c-218.855-4.016-397.553-176.69-409.6-393.537-16.063-4.016-26.102-20.078-22.086-36.141 2.008-12.047 12.047-22.086 24.094-24.094 130.51-20.078 265.035-30.118 397.553-28.11 146.573 0 293.145 12.047 435.702 38.149 14.055 4.016 24.094 18.071 22.086 36.141zM799.122 425.994c-64.251-10.039-128.502-18.071-188.737-22.086 2.008 30.118 6.024 212.831-94.369 347.357 154.604-32.125 271.059-164.643 283.106-325.271zM184.722 650.872c50.196 52.204 116.455 86.337 186.729 100.392-66.259-104.408-100.392-226.886-98.384-349.365-82.322 4.016-148.58 12.047-188.737 16.063 4.016 88.345 40.157 170.667 100.392 232.91zM333.302 399.892c0 0 0 0 0 0-4.016 124.486 34.133 244.957 106.416 345.349 120.471-122.478 108.424-339.325 108.424-341.333s0-2.008 0-4.016c-76.298-4.016-148.58-2.008-214.839 0v0zM582.275 66.59c-16.063 0-30.118-14.055-30.118-30.118 0 0 0 0 0 0 0-22.086-16.063-38.149-38.149-38.149 0 0 0 0 0 0-22.086 0-38.149 16.063-38.149 38.149l-2.008 228.894c0 16.063-14.055 30.118-30.118 30.118s-30.118-14.055-30.118-30.118c0 0 0 0 0 0l2.008-228.894c0-54.212 44.173-98.384 98.384-98.384h2.008c54.212 0 98.384 46.18 98.384 100.392-2.008 14.055-14.055 28.11-32.125 28.11 0 0 0 0 0 0zM435.702 855.672v0c16.063 0 30.118 14.055 30.118 30.118v44.173c0 16.063-14.055 30.118-30.118 30.118v0c-16.063 0-30.118-14.055-30.118-30.118 0 0 0 0 0 0v-44.173c0-16.063 14.055-30.118 30.118-30.118z" />
<glyph unicode="&#xe92a;" horiz-adv-x="1910" d="M383.988 831.988h1028.874c212.071 0 383.988-171.917 383.988-383.988s-171.917-383.988-383.988-383.988h-1028.874c-212.071 0-383.988 171.917-383.988 383.988s171.917 383.988 383.988 383.988z" />
<glyph unicode="&#xe92b;" horiz-adv-x="1910" d="M1910.239 448c0-282.77-229.23-512-512-512s-512 229.23-512 512c0 282.77 229.23 512 512 512s512-229.23 512-512z" />
<glyph unicode="&#xe92c;" glyph-name="exit" horiz-adv-x="1406" d="M1400.101 429.169c0.255 0.426 0.468 0.894 0.723 1.319 0.822 1.276 1.619 2.757 2.3 4.301l0.083 0.21c0.255 0.596 0.383 1.277 0.596 1.915 0.468 1.155 0.92 2.576 1.274 4.035l0.045 0.221c0.467 2.009 0.734 4.316 0.734 6.686 0 3.977-0.754 7.778-2.126 11.269l0.072-0.209c-0.213 0.596-0.34 1.277-0.596 1.872-0.779 1.77-1.589 3.264-2.505 4.685l0.079-0.132c-0.255 0.426-0.426 0.851-0.681 1.234-1.3 1.912-2.7 3.583-4.25 5.101l-0.006 0.005-199.668 199.71c-6.11 6.11-14.55 9.889-23.873 9.889-18.646 0-33.762-15.116-33.762-33.762 0-9.323 3.779-17.764 9.889-23.873l142.048-142.091h-567.47c-18.649 0-33.767-15.118-33.767-33.767s15.118-33.767 33.767-33.767v0h567.513l-142.048-142.048c-6.11-6.11-9.889-14.55-9.889-23.873 0-18.646 15.116-33.762 33.762-33.762 9.323 0 17.764 3.779 23.873 9.889l199.668 199.668c1.541 1.567 2.93 3.293 4.136 5.15l0.077 0.127zM1010.723 314.101c-0.805 0.069-1.742 0.109-2.687 0.109-17.767 0-32.286-13.906-33.268-31.427l-0.004-0.087c-4.851-71.663-12.766-145.24-51.874-188.221-40.427-36.23-92.621-60.083-150.201-65.208l-0.997-0.072c-76.378-15.457-164.514-24.713-254.666-25.528l-0.664-0.005c-90.864 2.398-177.752 11.126-262.606 25.79l10.723-1.534c-64.355 3.195-119.39 40.188-148.009 93.481l-0.465 0.948c-26.498 57.78-42.658 125.182-44.331 196.169l-0.011 0.605c-2.255 33.065-3.192 67.024-3.873 96.259-1.745 77.195 2.681 152.687 7.234 216.307-0.001 0.336-0.002 0.733-0.002 1.13 0 56.59 14.028 109.904 38.797 156.653l-0.879-1.819c17.207 24.483 40.663 43.506 68.077 54.94l1.033 0.382c24.893 10.721 53.972 19.414 84.227 24.68l2.372 0.342c76.068 15.591 163.495 24.516 253.007 24.516 59.512 0 118.103-3.945 175.525-11.588l-6.727 0.732 14.894-1.83c70.701-2.754 136.163-22.835 192.985-56.081l-1.956 1.057c40.044-27.703 65.705-82.259 76.173-162.134 2.254-16.653 16.378-29.354 33.469-29.354 18.644 0 33.758 15.114 33.758 33.758 0 1.553-0.105 3.082-0.308 4.579l0.019-0.174c-13.064 99.621-48.3 169.879-104.728 208.902-63.294 38.501-139.096 62.74-220.25 66.475l-1.036 0.038-14.554 1.745c-53.274 7.263-114.844 11.41-177.383 11.41-93.957 0-185.727-9.359-274.431-27.195l8.859 1.487c-38.245-6.689-72.312-17.032-104.478-30.937l2.984 1.148c-40.32-17.256-73.521-44.603-97.391-78.926l-0.485-0.737c-30.746-54.327-48.909-119.289-49.023-188.484v-0.034c-4.638-65.237-9.192-142.687-7.362-222.69 0.681-29.788 1.617-64.854 4-99.323 2.167-81.496 21.075-158.055 53.39-227.085l-1.473 3.502c39.499-72.615 112.389-122.714 197.495-129.775l0.896-0.060c77.001-13.589 167.18-22.565 259.011-24.89l2.361-0.047h5.873c93.272 1.079 183.599 10.772 271.088 28.322l-9.289-1.555c73.888 7.332 139.293 38.857 189.29 86.427l-0.133-0.126c53.577 59.024 63.62 145.538 69.279 229.073 0.050 0.687 0.078 1.489 0.078 2.298 0 17.796-13.776 32.375-31.246 33.655l-0.11 0.006z" />
<glyph unicode="&#xe92d;" d="M1018.639 450.681c0-281.289-228.030-509.319-509.319-509.319s-509.319 228.030-509.319 509.319c0 281.289 228.030 509.319 509.319 509.319s509.319-228.030 509.319-509.319z" />
<glyph unicode="&#xe92e;" d="M509.319-64c-278.785 0-509.319 230.534-509.319 514.681s230.534 509.319 509.319 509.319 509.319-230.534 509.319-509.319-225.173-514.681-509.319-514.681zM509.319 906.387c-251.979 0-455.707-203.728-455.707-455.707s203.728-455.707 455.707-455.707 455.707 203.728 455.707 455.707-203.728 455.707-455.707 455.707z" />
<glyph unicode="&#xe92f;" d="M509.319 890.304c-241.257 0-439.623-198.366-439.623-439.623s198.366-439.623 439.623-439.623c241.257 0 439.623 198.366 439.623 439.623s-193.005 439.623-439.623 439.623zM536.126 193.34l-48.251 48.251 48.251 48.251 48.251-48.251-48.251-48.251zM643.351 525.738h-64.335c0 48.251-16.084 69.696-53.613 69.696-5.361 0-10.723 0-21.445-5.361-5.361 5.361-10.723 0-16.084-5.361-5.361 0-10.723-5.361-16.084-10.723 0-5.361-5.361-10.723-5.361-16.084 0 0 0 0 0 0 0-21.445 10.723-37.529 21.445-48.251 10.723-5.361 16.084-10.723 26.806-21.445s21.445-21.445 26.806-26.806c5.361-5.361 10.723-10.723 10.723-16.084 5.361-5.361 5.361-10.723 5.361-16.084s5.361-16.084 5.361-21.445c0-5.361 0-16.084 0-26.806v-42.89h-58.974v42.89c0 10.723 0 16.084-5.361 21.445-5.361 10.723-10.723 21.445-16.084 26.806-10.723 10.723-16.084 16.084-26.806 21.445l-26.806 26.806c-10.723 5.361-16.084 21.445-21.445 32.168-5.361 16.084-5.361 26.806-5.361 42.89s5.361 32.168 10.723 42.89c5.361 16.084 16.084 26.806 26.806 37.529s26.806 16.084 42.89 21.445c16.084 5.361 26.806 10.723 42.89 10.723s37.529-5.361 53.613-10.723c10.723-10.723 26.806-16.084 32.168-32.168 10.723-10.723 16.084-26.806 21.445-42.89s10.723-32.168 10.723-53.613v0z" />
<glyph unicode="&#xe930;" horiz-adv-x="872" d="M872.296 523.852c0-240.878-195.27-436.148-436.148-436.148s-436.148 195.27-436.148 436.148c0 240.878 195.27 436.148 436.148 436.148s436.148-195.27 436.148-436.148z" />
<glyph unicode="&#xe931;" horiz-adv-x="872" d="M436.148 87.704c-238.933 0-436.148 197.215-436.148 436.148s197.215 436.148 436.148 436.148c238.933 0 436.148-197.215 436.148-436.148s-197.215-436.148-436.148-436.148zM436.148 922.074c-219.97 0-398.222-178.252-398.222-398.222s178.252-398.222 398.222-398.222c219.97 0 398.222 178.252 398.222 398.222s-178.252 398.222-398.222 398.222z" />
<glyph unicode="&#xe932;" horiz-adv-x="872" d="M436.148 406.281c0 30.341-7.585 56.889-22.756 72.059l-34.133 34.133c-34.133 34.133-49.304 72.059-49.304 109.985s11.378 68.267 34.133 87.23 53.096 30.341 91.022 30.341c37.926 0 68.267-11.378 94.815-30.341s34.133-49.304 37.926-83.437h-56.889c0 18.963-7.585 34.133-18.963 45.511-18.963 15.17-34.133 18.963-56.889 18.963s-37.926-7.585-49.304-18.963c-11.378-11.378-18.963-30.341-18.963-53.096s7.585-45.511 26.548-64.474l41.719-41.719c15.17-18.963 26.548-34.133 34.133-49.304 3.793-15.17 7.585-34.133 7.585-60.681h-60.681zM489.244 284.919c-7.585-7.585-15.17-7.585-26.548-7.585s-18.963 3.793-26.548 7.585c-7.585 7.585-7.585 15.17-7.585 22.756s3.793 18.963 7.585 22.756c7.585 7.585 15.17 11.378 26.548 11.378s18.963-3.793 26.548-11.378c7.585-7.585 7.585-15.17 7.585-22.756 0-11.378 0-18.963-7.585-22.756z" />
<glyph unicode="&#xe933;" glyph-name="google_plus" d="M512 550.4v-204.8h291.84c-56.32-158.72-230.4-245.76-394.24-189.44-158.72 56.32-245.76 235.52-189.44 394.24 46.080 122.88 163.84 204.8 291.84 204.8 71.68 0 143.36-25.6 199.68-71.68l133.12 153.6c-92.16 76.8-209.92 122.88-332.8 122.88-281.6 0-512-230.4-512-512s230.4-512 512-512 512 230.4 512 512v102.4h-512z" />
<glyph unicode="&#xe934;" horiz-adv-x="960" d="M531.763 468.391l-495.289-495.259c-22.493 21.43-36.481 51.613-36.481 85.063 0 0.443 0.002 0.886 0.007 1.328l-0.001-0.067v776.879c-0.001 0.212-0.002 0.463-0.002 0.714 0 34.283 14.498 65.18 37.696 86.894l0.066 0.062z" />
<glyph unicode="&#xe935;" horiz-adv-x="960" d="M959.849 447.895c-0.192-46.095-26.034-86.111-63.983-106.531l-0.647-0.318-140.631-78.065-222.555 205.41 184.944 184.944 178.541-98.531c38.493-20.821 64.225-60.848 64.331-106.894v-0.015z" />
<glyph unicode="&#xe936;" horiz-adv-x="960" d="M531.763 468.391l-494.002 455.703c6.773 6.401 14.321 12.111 22.452 16.942l0.587 0.323c19.051 11.746 42.139 18.706 66.851 18.706 23.426 0 45.391-6.253 64.318-17.182l-0.622 0.331 525.36-289.879z" />
<glyph unicode="&#xe937;" horiz-adv-x="960" d="M754.438 262.981l-563.121-310.345c-18.096-10.465-39.808-16.641-62.962-16.641-0.366 0-0.731 0.002-1.095 0.005h0.056c-0.327-0.003-0.714-0.005-1.101-0.005-24.224 0-46.834 6.908-65.969 18.862l0.525-0.306c-9.259 5.353-17.246 11.501-24.33 18.555l0.004-0.004 495.289 495.289 47.874-44.164z" />
<glyph unicode="&#xe938;" glyph-name="hide" horiz-adv-x="1505" d="M594.95 450.86c0-5.721 0-11.441 0-11.441v0l74.369 62.927c11.441 17.162 28.603 28.603 45.765 40.045l74.369 62.927c-11.441 5.721-28.603 5.721-40.045 5.721-85.81-5.721-154.458-74.369-154.458-160.179zM314.637 204.872c-91.531 57.207-177.341 125.855-245.989 211.665-11.441 17.162-11.441 45.765 5.721 68.648 80.089 102.972 177.341 183.061 297.475 240.268 28.603 17.162 62.927 28.603 97.251 40.045-91.531-80.089-143.017-194.503-143.017-314.637 0-68.648 17.162-137.296 51.486-200.223l45.765 40.045c-22.883 51.486-34.324 102.972-34.324 160.179 0 200.223 165.899 366.123 366.123 366.123 74.369 0 148.737-22.883 211.665-68.648l91.531 80.089c-97.251 34.324-194.503 51.486-291.754 51.486h-22.883c-137.296 0-274.592-34.324-400.447-97.251s-228.827-148.737-314.637-257.43c-34.324-40.045-34.324-97.251 0-143.017 62.927-91.531 143.017-165.899 240.268-223.106l45.765 45.765zM1475.933 519.508c-68.648 85.81-154.458 165.899-251.709 223.106l-51.486-40.045c97.251-57.207 183.061-131.575 251.709-217.385 17.162-17.162 17.162-45.765 0-68.648-102.972-131.575-240.268-228.827-394.726-286.034 148.737 131.575 183.061 348.961 85.81 520.581l-40.045-34.324c28.603-51.486 40.045-108.693 40.045-165.899 0-200.223-165.899-366.123-366.123-366.123-80.089 0-154.458 22.883-217.385 74.369l-97.251-80.089c97.251-34.324 200.223-51.486 303.196-57.207h22.883c137.296 0 274.592 34.324 400.447 97.251s228.827 148.737 314.637 257.43c34.324 45.765 34.324 102.972 0 143.017zM766.57 353.609l-62.927-51.486c17.162-5.721 34.324-5.721 51.486-5.721v0c85.81 0 154.458 68.648 154.458 154.458 0 5.721 0 17.162 0 22.883l-62.927-51.486c-17.162-34.324-45.765-62.927-80.089-68.648zM1327.196 937.117c-11.441 11.441-22.883 17.162-40.045 5.721l-1126.972-949.631c-11.441-11.441-11.441-28.603 0-40.045s22.883-17.162 40.045-5.721l1126.972 955.352c11.441 5.721 11.441 22.883 0 34.324z" />
<glyph unicode="&#xe939;" glyph-name="home" horiz-adv-x="955" d="M881.034 679.769c-0.832 0.855-1.709 1.652-2.633 2.395l-0.056 0.044-293.248 234.153c-27.677 27.017-65.563 43.684-107.341 43.684s-79.665-16.666-107.372-43.713l0.031 0.030-293.212-234.153c-0.932-0.753-1.829-1.542-2.725-2.402-46.006-45.769-74.478-109.125-74.478-179.13 0-0.22 0-0.44 0.001-0.66v0.034-315.802c0.184-137.001 111.206-248.011 248.194-248.174h458.999c136.997 0.163 248.011 111.177 248.174 248.158v315.818c0.001 0.24 0.001 0.523 0.001 0.807 0 69.911-28.415 133.186-74.326 178.905l-0.009 0.009zM890.572 184.246c-0.102-101.164-82.074-183.149-183.223-183.271h-458.995c-101.184 0.102-183.184 82.090-183.307 183.259v315.814c-0.001 0.17-0.001 0.372-0.001 0.574 0 51.498 20.702 98.161 54.237 132.121l-0.019-0.019 293.104 234.046c0.98 0.785 1.858 1.583 2.683 2.432l0.006 0.007c16.072 16.033 38.254 25.946 62.752 25.946s46.68-9.914 62.753-25.948l-0.002 0.002c0.832-0.855 1.709-1.652 2.633-2.395l0.056-0.044 293.104-234.046c33.495-33.937 54.183-80.585 54.183-132.065 0-0.214 0-0.429-0.001-0.643v0.033z" />
<glyph unicode="&#xe93a;" glyph-name="house-outline" horiz-adv-x="1089" d="M909.643 458.217c-0.148 0.003-0.323 0.004-0.498 0.004-17.064 0-30.897-13.833-30.897-30.897 0-0.187 0.002-0.374 0.005-0.561v0.028-429.103h-222.514v175.2c-0.113 16.775-13.532 30.38-30.224 30.79l-0.038 0.001h-161.037c-0.077 0.001-0.168 0.001-0.26 0.001-17.19 0-31.184-13.679-31.693-30.745l-0.001-0.047v-175.2h-221.95v414.87c0 17.025-13.801 30.826-30.826 30.826s-30.826-13.801-30.826-30.826v0-446.261c0.099-16.688 13.581-30.194 30.249-30.333h285.377c16.682 0.139 30.164 13.645 30.263 30.324v175.209h99.314v-175.2c0.235-16.806 13.913-30.34 30.753-30.34 0.224 0 0.447 0.002 0.67 0.007l-0.033-0.001h284.237c16.682 0.139 30.164 13.645 30.263 30.324v460.503c0.006 0.221 0.009 0.481 0.009 0.742 0 16.826-13.543 30.49-30.324 30.683h-0.018zM1080.298 433.732l-247.703 248.76v169.633c-0.037 17.289-14.061 31.29-31.355 31.29-0.211 0-0.421-0.002-0.63-0.006h0.031c-16.763-0.215-30.269-13.854-30.269-30.648 0-0.224 0.002-0.447 0.007-0.67l-0.001 0.033v-107.382l-204.335 205.533c-5.282 5.77-12.752 9.463-21.086 9.757l-0.052 0.001c-8.778-0.092-16.668-3.819-22.251-9.743l-0.014-0.016-513.092-513.127c-5.87-5.39-9.536-13.1-9.536-21.667s3.666-16.277 9.515-21.647l0.021-0.019c5.396-5.872 13.112-9.538 21.684-9.538s16.288 3.667 21.665 9.517l0.019 0.021 491.989 490.827 490.862-495.371c5.394-5.006 12.643-8.078 20.611-8.078 0.582 0 1.161 0.016 1.735 0.049l-0.080-0.004c0.041 0 0.090 0 0.139 0 8.446 0 16.183 3.036 22.179 8.076l-0.053-0.043c5.473 5.786 8.838 13.615 8.838 22.23s-3.365 16.445-8.852 22.245l0.014-0.015z" />
<glyph unicode="&#xe93b;" glyph-name="id-card" horiz-adv-x="1397" d="M1295.558 960h-1199.381c-50.917 0-96.177-45.26-96.177-96.177v-825.989c0-56.575 45.26-96.177 96.177-96.177h1199.381c56.575 0 96.177 45.26 96.177 96.177v825.989c0 50.917-39.602 96.177-96.177 96.177zM1346.475 37.834c0-28.287-22.63-50.917-50.917-50.917h-1199.381c-28.287 0-50.917 22.63-50.917 50.917v825.989c0 28.287 22.63 50.917 50.917 50.917h1199.381c28.287 0 50.917-22.63 50.917-50.917v-825.989zM526.144 303.735l-84.862 45.26v11.315c39.602 22.63 67.89 56.575 79.204 101.834 22.63 11.315 39.602 33.945 39.602 62.232v16.972c0 22.63-11.315 39.602-28.287 56.575-16.972 84.862-79.204 130.122-181.039 130.122-5.657 0-11.315 0-16.972 0-28.287-5.657-50.917 5.657-73.547 16.972-11.315 5.657-16.972 11.315-22.63 16.972-11.315 11.315-28.287 16.972-39.602 5.657-5.657-5.657-11.315-16.972-11.315-22.63 0-11.315 0-16.972 5.657-28.287 5.657-22.63 5.657-22.63 0-33.945 0-5.657-5.657-11.315-11.315-16.972-5.657-28.287-11.315-50.917-16.972-67.89-16.972-16.972-22.63-33.945-22.63-56.575v-22.63c0-28.287 16.972-50.917 39.602-62.232 11.315-45.26 39.602-79.204 79.204-101.834v-11.315l-90.519-39.602c-33.945-16.972-50.917-50.917-50.917-84.862v-28.287c0-16.972 0-62.232 231.956-62.232s231.956 45.26 231.956 62.232v28.287c0 33.945-22.63 67.89-56.575 84.862zM537.459 190.586c-62.232-16.972-124.464-28.287-186.696-22.63-62.232-5.657-124.464 0-186.696 22.63v28.287c0 16.972 11.315 33.945 28.287 45.26l90.519 45.26c11.315 5.657 22.63 22.63 22.63 39.602v39.602l-11.315 5.657c-39.602 11.315-67.89 45.26-73.547 84.862l-5.657 11.315-11.315 5.657c-11.315 5.657-16.972 11.315-16.972 22.63v22.63c0 11.315 5.657 16.972 11.315 22.63l11.315 5.657v11.315c5.657 16.972 5.657 39.602 16.972 56.575 0 11.315 5.657 16.972 5.657 16.972 5.657 11.315 11.315 28.287 11.315 45.26 28.287-16.972 62.232-22.63 96.177-16.972 5.657 0 5.657 0 11.315 0 84.862 0 130.122-33.945 135.779-101.834v-11.315l11.315-5.657c11.315-5.657 11.315-11.315 11.315-22.63v-22.63c0-11.315-5.657-16.972-11.315-22.63l-16.972-5.657v-11.315c-5.657-39.602-33.945-73.547-67.89-90.519l-16.972-5.657v-39.602c0-16.972 11.315-28.287 22.63-33.945l90.519-45.26c16.972-11.315 28.287-28.287 28.287-45.26v-28.287zM695.867 609.238h231.956c11.315 0 22.63 11.315 22.63 22.63s-11.315 22.63-22.63 22.63h-231.956c-11.315 0-22.63-11.315-22.63-22.63s11.315-22.63 22.63-22.63zM1024 609.238h22.63c11.315 0 22.63 11.315 22.63 22.63s-11.315 22.63-22.63 22.63h-22.63c-11.315 0-22.63-11.315-22.63-22.63s11.315-22.63 22.63-22.63zM718.497 264.133c0 0 0 0 0 0h-22.63c-11.315 0-22.63-11.315-22.63-22.63s11.315-22.63 22.63-22.63c0 0 0 0 0 0h22.63c11.315 0 22.63 11.315 22.63 22.63s-5.657 22.63-22.63 22.63zM859.934 264.133c0 0 0 0 0 0h-45.26c-11.315 0-22.63-11.315-22.63-22.63s11.315-22.63 22.63-22.63c0 0 0 0 0 0h45.26c11.315 0 22.63 11.315 22.63 22.63s-11.315 22.63-22.63 22.63zM978.74 264.133c0 0 0 0 0 0h-22.63c-11.315 0-22.63-11.315-22.63-22.63s11.315-22.63 22.63-22.63c0 0 0 0 0 0h22.63c11.315 0 22.63 11.315 22.63 22.63s-11.315 22.63-22.63 22.63zM1114.519 264.133c0 0 0 0 0 0h-45.26c-11.315 0-22.63-11.315-22.63-22.63s11.315-22.63 22.63-22.63c0 0 0 0 0 0h45.26c11.315 0 22.63 11.315 22.63 22.63s-11.315 22.63-22.63 22.63zM1193.724 258.475c-11.315-11.315-11.315-22.63 0-33.945s22.63-11.315 33.945 0c11.315 11.315 11.315 22.63 0 33.945-11.315 5.657-28.287 5.657-33.945 0zM695.867 473.459h509.171c11.315 0 22.63 11.315 22.63 22.63s-11.315 22.63-22.63 22.63v0h-509.171c-11.315 0-22.63-11.315-22.63-22.63s11.315-22.63 22.63-22.63zM1210.696 377.282c0 0 0 0 0 0v0h-509.171c-11.315 0-22.63-11.315-22.63-22.63s11.315-22.63 22.63-22.63c0 0 0 0 0 0h509.171c11.315 0 22.63 11.315 22.63 22.63s-11.315 22.63-22.63 22.63z" />
<glyph unicode="&#xe93c;" glyph-name="invit" horiz-adv-x="1052" d="M1039.078 669.898c-14.092 98.642-46.972 169.101-103.339 206.679-65.761 42.275-140.917 61.064-220.771 65.761h-14.092c-145.615 18.789-295.927 14.092-441.541-14.092-32.881-4.697-70.459-14.092-103.339-28.183v0c-37.578-18.789-75.156-42.275-98.642-79.853-32.881-56.367-46.972-122.128-46.972-187.89-4.697-65.761-9.394-140.917-9.394-225.468 0-32.881 0-65.761 4.697-98.642 0-75.156 18.789-155.009 51.67-225.468 37.578-75.156 112.734-122.128 197.284-131.523 84.55-14.092 173.798-23.486 263.046-23.486h4.697c89.248 0 173.798 9.394 263.046 28.183 70.459 4.697 136.22 37.578 187.89 84.55 51.67 61.064 65.761 145.615 70.459 230.165 9.394 136.22 9.394 267.743-4.697 399.266zM978.014 280.026c-4.697-70.459-14.092-145.615-51.67-187.89-42.275-37.578-93.945-61.064-150.312-65.761-84.55-14.092-169.101-23.486-258.349-23.486-84.55 0-169.101 9.394-253.651 23.486-61.064 4.697-122.128 37.578-150.312 93.945-28.183 61.064-42.275 131.523-42.275 197.284 0 32.881-4.697 65.761-4.697 98.642 0 75.156 4.697 155.009 9.394 216.073 0 56.367 14.092 108.037 37.578 155.009 18.789 23.486 42.275 42.275 70.459 56.367 28.183 9.394 56.367 18.789 89.248 23.486 140.917 28.183 281.835 32.881 422.752 14.092h14.092c65.761-4.697 131.523-23.486 192.587-56.367 46.972-42.275 75.156-98.642 75.156-164.404 9.394-122.128 9.394-253.651 0-380.477v0zM367.372 524.283c32.881 0 61.064 28.183 61.064 61.064s-28.183 61.064-61.064 61.064c-32.881 0-61.064-28.183-61.064-61.064v0c0-32.881 28.183-61.064 61.064-61.064zM367.372 590.045c4.697 0 4.697-4.697 0 0 4.697-9.394-4.697-9.394 0 0-4.697-4.697 0 0 0 0v0zM747.849 392.76l-46.972-37.578c-103.339-84.55-248.954-79.853-352.294 4.697l-42.275 32.881c-14.092 9.394-32.881 9.394-46.972-4.697-9.394-14.092-9.394-32.881 4.697-42.275l42.275-32.881c126.826-103.339 305.321-103.339 432.147-4.697l46.972 37.578c14.092 14.092 14.092 32.881 0 46.972-9.394 4.697-28.183 9.394-37.578 0v0zM790.124 599.439c-28.183 9.394-56.367 14.092-79.853 9.394 14.092 14.092 37.578 28.183 56.367 32.881s28.183 23.486 18.789 42.275c-4.697 14.092-18.789 23.486-37.578 23.486-65.761-18.789-117.431-70.459-131.523-131.523-4.697-18.789 4.697-37.578 23.486-37.578 4.697 0 14.092 0 18.789 0 37.578 9.394 75.156 9.394 112.734 0 18.789-4.697 37.578 4.697 37.578 23.486 4.697 14.092-4.697 32.881-18.789 37.578z" />
<glyph unicode="&#xe93d;" glyph-name="invoice" horiz-adv-x="808" d="M766.98 960h-730.263c-20.398 0-36.717-16.319-36.717-36.717v-950.566c0-20.398 16.319-36.717 36.717-36.717 8.159 0 16.319 4.080 24.478 8.159l85.673 81.594c4.080 4.080 12.239 4.080 16.319 0l57.116-48.956c32.637-28.558 81.594-28.558 114.231 0l57.116 48.956c4.080 4.080 12.239 4.080 16.319 0l57.116-48.956c32.637-28.558 81.594-28.558 114.231 0l57.116 48.956c4.080 4.080 12.239 4.080 16.319 0l85.673-81.594c16.319-12.239 36.717-12.239 53.036 4.080 8.159 8.159 8.159 16.319 8.159 24.478v950.566c8.159 20.398-8.159 36.717-32.637 36.717zM730.263 886.566v-828.175l-24.478 20.398c-32.637 32.637-81.594 32.637-118.311 0l-57.116-48.956c-4.080-4.080-12.239-4.080-16.319 0l-57.116 48.956c-16.319 16.319-36.717 24.478-57.116 24.478s-40.797-8.159-57.116-24.478l-57.116-48.956c-4.080-4.080-12.239-4.080-16.319 0l-57.116 48.956c-32.637 28.558-85.673 28.558-118.311 0l-24.478-20.398v828.175h660.908zM236.622 547.952h318.215c20.398 0 36.717 16.319 36.717 36.717s-16.319 36.717-36.717 36.717h-318.215c-20.398 0-36.717-16.319-36.717-36.717s16.319-36.717 36.717-36.717zM236.622 376.606h318.215c20.398 0 36.717 16.319 36.717 36.717s-16.319 36.717-36.717 36.717h-318.215c-20.398 0-36.717-16.319-36.717-36.717s16.319-36.717 36.717-36.717z" />
<glyph unicode="&#xe93e;" glyph-name="list_down" horiz-adv-x="1150" d="M574.649 960h466.824c59.534-0.022 107.788-48.289 107.788-107.826 0-19.85-5.364-38.448-14.721-54.422l0.275 0.509-466.824-808.578c-18.999-32.42-53.668-53.847-93.342-53.847s-74.343 21.427-93.066 53.339l-0.275 0.508-466.709 808.578c-9.082 15.465-14.446 34.063-14.446 53.913 0 59.537 48.253 107.804 107.785 107.826h0.002z" />
<glyph unicode="&#xe93f;" glyph-name="log" horiz-adv-x="893" d="M704.113 960.181h-516.531c-104.212 0-188.035-83.823-188.035-188.035v-645.664c0-104.212 83.823-188.035 188.035-188.035h326.23c74.761 0 147.257 31.717 197.097 88.354l115.54 129.133c43.044 47.575 65.699 111.009 65.699 174.442v441.77c0 104.212-83.823 188.035-188.035 188.035zM187.582-0.385c-70.23 0-124.602 56.637-124.602 124.602v645.664c0 70.23 56.637 124.602 124.602 124.602h516.531c70.23 0 124.602-56.637 124.602-124.602v-441.77c0-9.062 0-20.389-2.265-29.451-2.265 0-6.796 2.265-9.062 2.265h-176.708c-49.841 0-90.619-40.779-90.619-90.619l-4.531-210.69c-9.062-2.265-20.389-2.265-29.451-2.265l-328.496 2.265zM663.335 67.579c-15.858-18.124-36.248-33.982-56.637-45.31l4.531 188.035c0 15.858 13.593 27.186 29.451 27.186h167.646c-6.796-15.858-18.124-29.451-29.451-43.044l-115.54-126.867zM251.016 590.907h389.664c18.124 0 31.717 13.593 31.717 31.717s-13.593 31.717-31.717 31.717c0 0 0 0 0 0h-389.664c-18.124 0-31.717-13.593-31.717-31.717s13.593-31.717 31.717-31.717c0 0 0 0 0 0zM251.016 454.978h389.664c18.124 0 31.717 13.593 31.717 31.717s-13.593 31.717-31.717 31.717h-389.664c-18.124 0-31.717-13.593-31.717-31.717s13.593-31.717 31.717-31.717zM416.396 380.217h-165.381c-18.124 0-31.717-13.593-31.717-31.717s13.593-31.717 31.717-31.717h165.381c18.124 0 31.717 13.593 31.717 31.717s-15.858 31.717-31.717 31.717v0z" />
<glyph unicode="&#xe940;" horiz-adv-x="789" d="M268.785 735.958h264.531l232.516 224.042h-264.531z" />
<glyph unicode="&#xe941;" horiz-adv-x="789" d="M582.378 616.534h-375.448v164.265h375.448v-164.265zM249.595 659.2h290.118v78.934h-290.118z" />
<glyph unicode="&#xe942;" horiz-adv-x="789" d="M533.316 735.958h-264.531l-234.659 224.042h266.642z" />
<glyph unicode="&#xe943;" horiz-adv-x="789" d="M789.341 330.67c0-217.97-176.7-394.67-394.67-394.67s-394.67 176.7-394.67 394.67c0 217.97 176.7 394.67 394.67 394.67s394.67-176.7 394.67-394.67z" />
<glyph unicode="&#xe944;" horiz-adv-x="789" d="M394.67 32.013c-164.98 0-298.722 133.742-298.722 298.722s133.742 298.722 298.722 298.722c164.98 0 298.722-133.742 298.722-298.722v0c-0.46-164.794-133.928-298.262-298.678-298.722h-0.044z" />
<glyph unicode="&#xe945;" horiz-adv-x="789" d="M394.67 599.455l61.855-187.74h198.39l-162.122-117.346 61.855-187.74-160.011 117.346-160.011-117.346 61.855 187.74-162.024 117.346h198.39z" />
<glyph unicode="&#xe946;" glyph-name="message" horiz-adv-x="1401" d="M1239.579 960h-1082.794c-88.191 0-156.785-73.493-156.785-156.785v-705.531c0-88.191 68.593-156.785 156.785-156.785h1082.794c88.191 0 156.785 68.593 156.785 156.785v705.531c4.9 83.292-68.593 156.785-156.785 156.785zM641.837 367.158l-553.646 431.158v4.9c0 39.196 34.297 73.493 73.493 73.493h1082.794c39.196 0 73.493-34.297 73.493-73.493v-4.9l-543.847-426.258c-44.096-34.297-93.091-34.297-132.287-4.9zM470.354 391.656l122.488-93.091c68.593-53.895 161.684-53.895 230.278 0l117.589 93.091 357.665-342.967c-14.699-14.699-34.297-24.498-53.895-24.498 0 0 0 0 0 0h-1087.694c-19.598 0-39.196 9.799-53.895 24.498l367.464 342.967zM401.761 445.55l-313.569-293.971v534.048l313.569-240.077zM1313.072 685.627v-534.048l-303.77 293.971 303.77 240.077z" />
<glyph unicode="&#xe947;" glyph-name="mobile" horiz-adv-x="652" d="M490.899 961.668h-333.576c-89.212 0-159.030-69.818-159.030-159.030v-705.939c0-89.212 69.818-159.030 159.030-159.030h333.576c89.212 0 159.030 69.818 159.030 159.030v705.939c3.879 85.333-69.818 159.030-159.030 159.030zM583.99 96.698c0-50.424-38.788-89.212-89.212-89.212h-337.455c-50.424 0-89.212 38.788-89.212 89.212v705.939c0 50.424 38.788 89.212 89.212 89.212h333.576c50.424 0 89.212-38.788 89.212-89.212v-705.939zM452.112 193.668h-248.242c-19.394 0-34.909-15.515-34.909-34.909s15.515-34.909 34.909-34.909c0 0 0 0 0 0h248.242c19.394 0 34.909 15.515 34.909 34.909s-15.515 34.909-34.909 34.909c0 0 0 0 0 0z" />
<glyph unicode="&#xe948;" glyph-name="move" d="M936.727 477.091h-343.273c-11.636 0-23.273-11.636-29.091-23.273 0-11.636 11.636-23.273 23.273-29.091 0 0 0 0 0 0h343.273l-87.273-87.273c-11.636-11.636-11.636-29.091 0-34.909 11.636-11.636 29.091-11.636 34.909 0l133.818 133.818c11.636 11.636 11.636 23.273 0 34.909 0 0 0 0 0 0l-133.818 133.818c-11.636 11.636-29.091 11.636-34.909 0-11.636-11.636-11.636-23.273 0-34.909l93.091-93.091zM139.636 296.727c11.636-11.636 29.091-11.636 34.909 0 11.636 11.636 11.636 29.091 0 34.909l-87.273 93.091h343.273c11.636 0 23.273 11.636 29.091 23.273 0 11.636-11.636 23.273-23.273 29.091 0 0 0 0 0 0h-349.091l87.273 87.273c11.636 11.636 11.636 29.091 0 34.909-11.636 11.636-23.273 11.636-34.909 0l-133.818-133.818c-5.818-5.818-5.818-23.273 0-34.909 0 0 0 0 0 0l133.818-133.818zM401.455 785.455l87.273 87.273v-343.273c0-11.636 11.636-23.273 23.273-23.273s23.273 11.636 23.273 23.273v343.273l87.273-87.273c11.636-11.636 29.091-11.636 34.909 0s11.636 29.091 0 34.909l-128 133.818c-11.636 5.818-23.273 5.818-34.909 0l-133.818-133.818c-5.818-5.818-5.818-23.273 0-34.909 0 0 0 0 0 0 11.636-11.636 29.091-11.636 40.727 0-5.818 0 0 0 0 0zM512 395.636c-11.636 0-23.273-11.636-23.273-23.273v-343.273l-87.273 87.273c-11.636 11.636-23.273 11.636-34.909 0s-11.636-23.273 0-34.909c0 0 0 0 0 0l133.818-133.818c5.818-5.818 11.636-5.818 17.455-5.818s11.636 0 17.455 5.818l133.818 133.818c11.636 11.636 11.636 23.273 0 34.909s-23.273 11.636-34.909 0c0 0 0 0 0 0l-87.273-87.273v343.273c-11.636 11.636-23.273 23.273-34.909 23.273z" />
<glyph unicode="&#xe949;" glyph-name="notification" horiz-adv-x="844" d="M777.888 296.378v162.609c0 17.579-13.185 30.764-30.764 30.764s-30.764-13.185-30.764-30.764v-162.609c0-43.948 17.579-87.897 52.738-114.266 8.79-8.79 13.185-17.579 13.185-30.764s-4.395-21.974-13.185-30.764c-8.79-8.79-21.974-13.185-30.764-13.185h-637.253c-13.185 0-21.974 4.395-30.764 13.185s-13.185 17.579-13.185 30.764c0 13.185 4.395 26.369 13.185 30.764 30.764 30.764 52.738 70.318 52.738 114.266v193.373c0 79.107 30.764 153.82 87.897 210.953s131.845 87.897 210.953 87.897c0 0 0 0 0 0 39.554 0 83.502-8.79 123.056-26.369-17.579-30.764-26.369-70.318-17.579-109.871s35.159-79.107 70.318-101.082c35.159-21.974 79.107-30.764 123.056-21.974s79.107 35.159 101.082 70.318c21.974 35.159 30.764 79.107 21.974 123.056s-35.159 79.107-70.318 101.082c-57.133 35.159-136.24 30.764-188.979-13.185-26.369 13.185-52.738 21.974-83.502 30.764 17.579 39.554 4.395 83.502-30.764 105.476-21.974 13.185-43.948 17.579-65.923 13.185-21.974-8.79-39.554-21.974-52.738-39.554-17.579-21.974-17.579-52.738-4.395-79.107-162.609-35.159-281.27-180.189-281.27-347.193v-193.373c0-26.369-13.185-52.738-30.764-70.318-43.948-39.554-43.948-105.476-4.395-145.030 17.579-21.974 48.343-35.159 74.712-35.159h184.584c13.185-65.923 70.318-109.871 136.24-109.871 8.79 0 13.185 0 21.974 0 57.133 8.79 101.082 52.738 114.266 109.871h184.584c57.133 0 101.082 48.343 101.082 101.082 0 30.764-13.185 57.133-35.159 74.712s-35.159 43.948-35.159 70.318zM496.618 45.871c-13.185-30.764-39.554-52.738-74.712-52.738s-65.923 21.974-74.712 52.738h149.425zM395.536 876.498c0 13.185 13.185 26.369 26.369 26.369s26.369-13.185 26.369-26.369c0-13.185-13.185-26.369-26.369-26.369s-26.369 8.79-26.369 26.369zM681.202 788.601v0c57.133 0 105.476-43.948 105.476-101.082s-43.948-101.082-101.082-101.082c-57.133 0-101.082 43.948-101.082 101.082s43.948 101.082 96.687 101.082zM654.833 683.124v-30.764c0-17.579 13.185-30.764 30.764-30.764s30.764 13.185 30.764 30.764v83.502c0 13.185-8.79 21.974-17.579 26.369s-21.974 0-30.764-4.395l-21.974-21.974c-13.185-13.185-13.185-30.764 0-39.554 0-8.79 4.395-8.79 8.79-13.185z" />
<glyph unicode="&#xe94a;" glyph-name="padlock" horiz-adv-x="731" d="M622.52 558.52c-4.511 4.511-13.533 13.533-18.044 18.044v135.33c0 135.33-108.264 243.595-243.595 243.595s-243.595-108.264-243.595-243.595v-144.352c-4.511 0-4.511-4.511-9.022-9.022-144.352-144.352-144.352-374.414 0-514.256 72.176-72.176 162.396-108.264 257.128-108.264s184.952 36.088 257.128 108.264c144.352 139.841 144.352 369.903 0 514.256zM586.432 80.352v0c-58.643-58.643-135.33-90.22-221.040-90.22 0 0 0 0 0 0-81.198 0-162.396 31.577-221.040 90.22s-90.22 135.33-90.22 221.040c0 81.198 31.577 162.396 90.22 221.040s135.33 90.22 221.040 90.22c0 0 0 0 0 0 81.198 0 162.396-31.577 221.040-90.22s90.22-139.841 90.22-221.040c0-85.709-36.088-162.396-90.22-221.040zM175.93 612.652v99.242c0 103.753 85.709 189.463 189.463 189.463s189.463-85.709 189.463-189.463v-99.242c-121.797 72.176-266.15 67.665-378.925 0zM365.392 355.524c-45.11 0-76.687-36.088-76.687-76.687 0-31.577 18.044-63.154 49.621-72.176v-54.132c0-13.533 13.533-27.066 27.066-27.066s27.066 13.533 27.066 27.066v54.132c36.088 13.533 58.643 54.132 45.11 94.731-9.022 36.088-40.599 54.132-72.176 54.132zM387.947 278.837c0-13.533-9.022-22.555-22.555-22.555s-22.555 9.022-22.555 22.555 9.022 22.555 22.555 22.555c13.533 0 22.555-9.022 22.555-22.555z" />
<glyph unicode="&#xe94b;" glyph-name="pin_location" horiz-adv-x="882" d="M881.579 543.165c-14.26 226.169-195.849 405.611-421.638 416.416l-1.009 0.038c-5.26 0.224-11.431 0.352-17.632 0.352-243.711 0-441.278-197.567-441.278-441.278 0-80.785 21.708-156.5 59.61-221.629l-1.131 2.105c51.874-90.168 211.296-245.68 301.681-330.361 21.63-20.298 50.817-32.767 82.916-32.767s61.286 12.469 82.981 32.828l-0.065-0.061c97.175 91.471 267.461 260.726 315.858 365.396 25.486 54.256 40.361 117.83 40.361 184.878 0 8.471-0.237 16.887-0.706 25.241l0.052-1.159zM786.088 359.842c-32.156-69.69-142.313-196.033-302.17-346.494-10.662-10.031-25.062-16.194-40.901-16.194s-30.239 6.163-40.932 16.223l0.031-0.029c-108.101 94.027-203.577 197.673-286.748 310.919l-3.69 5.266c-31.674 54.266-50.374 119.462-50.374 189.026 0 209.713 169.95 379.733 379.638 379.845h0.011c5.432 0 10.375 0 15.589-0.326 195.303-9.225 351.707-163.746 363.874-357.397l0.055-1.101c0.389-6.403 0.61-13.889 0.61-21.426 0-57.531-12.901-112.049-35.967-160.819l0.974 2.29zM447.688 672.333c-70.587 0-127.81-57.222-127.81-127.81s57.222-127.81 127.81-127.81c70.587 0 127.81 57.222 127.81 127.81v0c-0.093 70.55-57.26 127.717-127.801 127.81h-0.009zM447.688 478.038c-36.719 0-66.485 29.766-66.485 66.485s29.766 66.485 66.485 66.485c36.719 0 66.485-29.766 66.485-66.485v0c-0.031-36.706-29.779-66.454-66.482-66.485h-0.003z" />
<glyph unicode="&#xe94c;" horiz-adv-x="710" d="M710.194 604.903c0-196.115-158.982-355.097-355.097-355.097s-355.097 158.982-355.097 355.097c0 196.115 158.982 355.097 355.097 355.097s355.097-158.982 355.097-355.097z" />
<glyph unicode="&#xe94d;" horiz-adv-x="710" d="M355.097 249.806c-196.542 0-355.097 158.555-355.097 355.097s158.555 355.097 355.097 355.097c196.542 0 355.097-158.555 355.097-355.097s-158.555-355.097-355.097-355.097zM355.097 926.968c-178.374 0-322.065-143.69-322.065-322.065s143.69-322.065 322.065-322.065c178.374 0 322.065 143.69 322.065 322.065s-143.69 322.065-322.065 322.065z" />
<glyph unicode="&#xe94e;" horiz-adv-x="710" d="M627.613 604.903c0-150.507-122.010-272.516-272.516-272.516s-272.516 122.010-272.516 272.516c0 150.507 122.010 272.516 272.516 272.516s272.516-122.010 272.516-272.516z" />
<glyph unicode="&#xe94f;" horiz-adv-x="710" d="M330.323 266.323h66.065v-198.194c0-18.168-14.865-33.032-33.032-33.032v0c-18.168 0-33.032 14.865-33.032 33.032v198.194z" />
<glyph unicode="&#xe950;" horiz-adv-x="710" d="M512 35.097c0-54.73-66.551-99.097-148.645-99.097s-148.645 44.367-148.645 99.097c0 54.73 66.551 99.097 148.645 99.097s148.645-44.367 148.645-99.097z" />
<glyph unicode="&#xe951;" horiz-adv-x="710" d="M710.194 604.903c0-196.115-158.982-355.097-355.097-355.097s-355.097 158.982-355.097 355.097c0 196.115 158.982 355.097 355.097 355.097s355.097-158.982 355.097-355.097z" />
<glyph unicode="&#xe952;" horiz-adv-x="710" d="M355.097 249.806c-196.542 0-355.097 158.555-355.097 355.097s158.555 355.097 355.097 355.097c196.542 0 355.097-158.555 355.097-355.097s-158.555-355.097-355.097-355.097zM355.097 926.968c-178.374 0-322.065-143.69-322.065-322.065s143.69-322.065 322.065-322.065c178.374 0 322.065 143.69 322.065 322.065s-143.69 322.065-322.065 322.065z" />
<glyph unicode="&#xe953;" horiz-adv-x="710" d="M627.613 604.903c0-150.507-122.010-272.516-272.516-272.516s-272.516 122.010-272.516 272.516c0 150.507 122.010 272.516 272.516 272.516s272.516-122.010 272.516-272.516z" />
<glyph unicode="&#xe954;" horiz-adv-x="710" d="M330.323 266.323h66.065v-198.194c0-18.168-14.865-33.032-33.032-33.032v0c-18.168 0-33.032 14.865-33.032 33.032v198.194z" />
<glyph unicode="&#xe955;" horiz-adv-x="710" d="M512 35.097c0-54.73-66.551-99.097-148.645-99.097s-148.645 44.367-148.645 99.097c0 54.73 66.551 99.097 148.645 99.097s148.645-44.367 148.645-99.097z" />
<glyph unicode="&#xe956;" glyph-name="profile" horiz-adv-x="819" d="M409.268 440.030c143.573 0.017 259.955 116.41 259.955 259.985 0 143.586-116.399 259.985-259.985 259.985s-259.985-116.399-259.985-259.985v0c0.172-143.527 116.485-259.83 260-259.985h0.015zM409.268 901.645c111.357 0 201.63-90.273 201.63-201.63s-90.273-201.63-201.63-201.63c-111.357 0-201.63 90.273-201.63 201.63v0c0.137 111.302 90.328 201.493 201.617 201.63h0.013zM633.087 325.494h-447.577c-102.395-0.12-185.372-83.086-185.509-185.466v-18.549c0.137-102.393 83.114-185.359 185.498-185.479h447.589c102.382 0.137 185.342 83.097 185.479 185.466v18.549c-0.137 102.382-83.097 185.342-185.466 185.479h-0.013zM760.211 121.479c-0.086-70.174-56.95-127.039-127.116-127.125h-447.586c-70.18 0.086-127.052 56.946-127.155 127.115v18.546c0.103 70.178 56.974 127.039 127.146 127.125h447.586c70.174-0.086 127.039-56.95 127.125-127.116v-0.008z" />
<glyph unicode="&#xe957;" glyph-name="radio_active" d="M512-64c-283.881 0-512 228.119-512 512s228.119 512 512 512c283.881 0 512-228.119 512-512s-228.119-512-512-512zM512 909.307c-253.465 0-461.307-207.842-461.307-461.307s207.842-461.307 461.307-461.307c253.465 0 461.307 207.842 461.307 461.307s-202.772 461.307-461.307 461.307zM461.307 235.089c0 0 0 0 0 0-15.208 0-25.347 5.069-35.485 15.208l-121.663 131.802c-20.277 20.277-20.277 50.693 0 70.97s50.693 20.277 70.97 0l86.178-91.248 238.257 248.396c20.277 20.277 50.693 20.277 70.97 0s20.277-50.693 0-70.97l-273.743-283.881c-10.139-15.208-20.277-20.277-35.485-20.277z" />
<glyph unicode="&#xe958;" glyph-name="rate_fill" horiz-adv-x="1075" d="M568.889 941.037l139.062-278.123c6.321-12.642 12.642-18.963 25.284-18.963l309.728-44.247c18.963 0 31.605-18.963 31.605-37.926 0-6.321-6.321-12.642-12.642-18.963l-221.235-214.914c-6.321-6.321-12.642-18.963-12.642-31.605l50.568-309.728c6.321-18.963-6.321-37.926-31.605-44.247-6.321 0-18.963 0-25.284 6.321l-278.123 145.383c-12.642 6.321-25.284 6.321-31.605 0l-278.123-145.383c-18.963-6.321-37.926 0-50.568 12.642 6.321 0 6.321 6.321 6.321 18.963l50.568 309.728c0 12.642 0 25.284-12.642 31.605l-214.914 214.914c-12.642 12.642-12.642 37.926 0 50.568 6.321 6.321 12.642 6.321 18.963 12.642l309.728 44.247c12.642 0 18.963 6.321 25.284 18.963l139.062 278.123c6.321 18.963 31.605 25.284 44.247 12.642 6.321 0 12.642-6.321 18.963-12.642z" />
<glyph unicode="&#xe959;" glyph-name="rate_strocke" horiz-adv-x="1072" d="M244.093-64c-23.814 0-47.628 11.907-53.581 35.721-11.907 11.907-11.907 23.814-5.953 41.674l47.628 291.721-214.326 202.419c-11.907 11.907-17.86 29.767-17.86 47.628s5.953 35.721 17.86 47.628c11.907 11.907 23.814 17.86 35.721 17.86l291.721 41.674 130.977 261.953c5.953 17.86 17.86 23.814 35.721 29.767s35.721 5.953 53.581 0c11.907-5.953 23.814-17.86 29.767-29.767l125.023-261.953 291.721-41.674c17.86 0 29.767-11.907 41.674-23.814 11.907-17.86 17.86-35.721 17.86-53.581 0-11.907-5.953-29.767-17.86-35.721l-214.326-202.419 47.628-291.721c0-17.86 0-35.721-11.907-47.628s-23.814-23.814-41.674-23.814c-11.907 0-29.767 0-41.674 5.953l-256 130.977-261.953-136.93c-11.907-5.953-17.86-5.953-29.767-5.953zM238.14 1.488v0l267.907 130.977c17.86 11.907 41.674 11.907 59.535 0l261.953-136.93 5.953 5.953-47.628 291.721c-5.953 17.86 5.953 41.674 17.86 53.581l208.372 202.419v5.953l-297.674 47.628c-17.86 0-35.721 17.86-47.628 35.721l-125.023 261.953c0 0 0 0 0 0l-136.93-267.907c-11.907-17.86-29.767-29.767-47.628-29.767l-291.721-47.628v-5.953l208.372-202.419c17.86-11.907 23.814-35.721 17.86-53.581l-53.581-291.721z" />
<glyph unicode="&#xe95a;" glyph-name="search" d="M1014.898-4.836l-227.556 227.556c0 0-4.551 4.551-9.102 4.551 68.267 77.369 109.227 177.493 109.227 291.271 0 245.76-200.249 446.009-446.009 446.009s-441.458-204.8-441.458-450.56 200.249-446.009 446.009-446.009c109.227 0 213.902 40.96 291.271 109.227 0-4.551 4.551-4.551 4.551-9.102l227.556-227.556c4.551-4.551 13.653-9.102 22.756-9.102s18.204 4.551 22.756 9.102c13.653 18.204 13.653 40.96 0 54.613zM446.009 140.8c-204.8 0-377.742 168.391-377.742 377.742s168.391 377.742 377.742 377.742 373.191-172.942 373.191-382.293-168.391-373.191-373.191-373.191z" />
<glyph unicode="&#xe95b;" glyph-name="search_big" horiz-adv-x="1011" d="M1003.236-9.731l-147.023 152.181c-12.897 12.897-33.531 12.897-46.428 0s-12.897-33.531 0-46.428l147.023-152.181c12.897-12.897 33.531-12.897 46.428 0 10.317 12.897 12.897 33.531 0 46.428zM451.256 960.103c-250.196 0-451.385-201.189-451.385-451.385s201.189-451.385 451.385-451.385c250.196 0 451.385 201.189 451.385 451.385v0c2.579 247.617-201.189 451.385-451.385 451.385zM451.256 121.816c-214.086 0-384.322 172.816-384.322 384.322s172.816 384.322 384.322 384.322 384.322-172.816 384.322-384.322v0c2.579-211.506-170.237-384.322-384.322-384.322v0z" />
<glyph unicode="&#xe95c;" glyph-name="share" horiz-adv-x="949" d="M641.644 628.75c32.881-28.183 75.156-42.275 117.431-42.275 4.697 0 14.092 0 18.789 0 103.339 9.394 178.495 103.339 164.404 206.679s-103.339 178.495-206.679 164.404c-103.339-9.394-178.495-103.339-164.404-206.679 0-14.092 4.697-28.183 9.394-42.275l-108.037-61.064c-14.092-9.394-23.486-28.183-14.092-42.275s28.183-23.486 42.275-14.092c0 0 4.697 0 4.697 4.697l108.037 61.064c9.394-9.394 18.789-18.789 28.183-28.183zM749.681 896.493c65.761 9.394 126.826-42.275 136.22-108.037 0 0 0 0 0 0v0c4.697-65.761-42.275-126.826-108.037-136.22-46.972-4.697-98.642 18.789-122.128 61.064v0 0c-32.881 61.064-9.394 136.22 51.67 164.404 9.394 9.394 23.486 14.092 42.275 18.789v0zM740.286 314.034c-103.339 0-187.89-84.55-187.89-187.89s84.55-187.89 187.89-187.89c103.339 0 187.89 84.55 187.89 187.89s-84.55 183.193-187.89 187.89zM740.286 4.016c-65.761 0-122.128 56.367-122.128 122.128s56.367 122.128 122.128 122.128c65.761 0 122.128-56.367 122.128-122.128 0-70.459-56.367-122.128-122.128-122.128zM486.635 290.548l-126.826 79.853c4.697 18.789 9.394 32.881 14.092 51.67 9.394 103.339-65.761 192.587-169.101 206.679-103.339 9.394-192.587-65.761-206.679-169.101-9.394-103.339 65.761-192.587 169.101-206.679 4.697 0 14.092 0 18.789 0 42.275 0 84.55 14.092 117.431 42.275 9.394 4.697 14.092 14.092 18.789 18.789l126.826-79.853c14.092-9.394 32.881-4.697 46.972 9.394s4.697 37.578-9.394 46.972c0 0 0 0 0 0v0zM176.617 318.732c-65.761 4.697-117.431 65.761-108.037 136.22s65.761 117.431 136.22 108.037c65.761-4.697 117.431-65.761 108.037-136.22 0 0 0 0 0 0-9.394-65.761-70.459-112.734-136.22-108.037v0z" />
<glyph unicode="&#xe95d;" glyph-name="show" horiz-adv-x="1807" d="M1773.101 533.975c-103.087 130.577-233.664 233.664-377.987 309.262-151.195 75.597-316.134 116.832-481.074 116.832-6.872 0-20.617 0-27.49 0-164.94 0-329.879-41.235-481.074-116.832s-274.899-178.685-377.987-309.262c-41.235-48.107-41.235-116.832 0-171.812 103.087-130.577 233.664-233.664 377.987-309.262 151.195-75.597 316.134-116.832 481.074-116.832 6.872 0 20.617 0 27.49 0 164.94 0 329.879 41.235 481.074 116.832s274.899 178.685 377.987 309.262c41.235 54.98 41.235 123.705 0 171.812zM439.839 121.626c-137.45 68.725-261.154 164.94-357.369 288.644-13.745 20.617-13.745 54.98 6.872 75.597 123.705 158.067 288.644 274.899 474.201 343.624-213.047-185.557-233.664-508.564-41.235-721.611 13.745-13.745 27.49-27.49 41.235-41.235-41.235 13.745-82.47 34.362-123.705 54.98zM900.295 11.666c-240.537 0-439.839 199.302-439.839 439.839s199.302 439.839 439.839 439.839 439.839-199.302 439.839-439.839v0c0-247.409-199.302-439.839-439.839-439.839zM1718.121 410.27c-123.705-158.067-288.644-274.899-474.201-343.624 213.047 185.557 226.792 508.564 41.235 721.611-13.745 13.745-27.49 27.49-41.235 41.235 185.557-68.725 350.497-185.557 474.201-343.624 20.617-20.617 20.617-54.98 0-75.597v0zM900.364 636.169c-103.087 0-185.557-82.47-185.557-185.557s82.47-185.557 185.557-185.557c103.087 0 185.557 82.47 185.557 185.557v0c6.872 103.087-82.47 185.557-185.557 185.557zM900.364 333.779c-61.852 0-116.832 48.107-116.832 116.832 0 61.852 48.107 116.832 116.832 116.832 61.852 0 116.832-48.107 116.832-116.832 0-61.852-54.98-116.832-116.832-116.832 0 0 0 0 0 0v0z" />
<glyph unicode="&#xe95e;" glyph-name="sibapp" horiz-adv-x="765" d="M528.027 517.36c90.667-80 114.667-213.333 61.333-320 141.333 237.333 88 424 88 424-312 154.667-485.333 21.333-485.333 21.333 125.333 0 242.667-45.333 336-125.333zM178.693 464.027c80 90.667 210.667 114.667 317.333 61.333-237.333 141.333-421.333 88-421.333 88-152-309.333-24-485.333-24-485.333 0 122.667 42.667 242.667 128 336zM232.027 114.693c-90.667 80-114.667 213.333-61.333 320-141.333-237.333-88-424-88-424 309.333-157.333 482.667-24 482.667-24-125.333 2.667-242.667 48-333.333 128zM712.027 504.027c0-122.667-45.333-242.667-125.333-336-80-90.667-213.333-114.667-320-61.333 237.333-141.333 424-88 424-88 152 314.667 21.333 485.333 21.333 485.333zM602.693 960.027c-221.333-2.667-237.333-200-237.333-200 221.333-18.667 237.333 200 237.333 200z" />
<glyph unicode="&#xe95f;" glyph-name="speech-bubble" horiz-adv-x="1137" d="M571.284 739.085c-10.779 0-21.558-10.779-21.558-21.558s5.389-26.947 21.558-26.947c10.779 0 21.558 10.779 21.558 26.947v0c0 10.779-10.779 21.558-21.558 21.558zM199.411 334.875c10.779 0 21.558 10.779 21.558 21.558s-10.779 21.558-21.558 21.558c-10.779 0-21.558-10.779-21.558-21.558v0c0-10.779 10.779-21.558 21.558-21.558zM749.137 960.054c-199.411 0-366.484-140.126-377.263-312.589-194.021-10.779-371.874-145.516-371.874-334.147 0-80.842 32.337-156.295 86.232-210.189 10.779-43.116 0-91.621-37.726-129.347-10.779-10.779-10.779-21.558 0-32.337 5.389 0 10.779-5.389 16.168-5.389 64.674 0 123.958 26.947 172.463 70.063 48.505-16.168 102.4-21.558 156.295-21.558 199.411 0 366.484 140.126 377.263 312.589 43.116 0 91.621 10.779 134.737 21.558 43.116-43.116 107.789-70.063 172.463-70.063 10.779 0 21.558 10.779 21.558 21.558 0 5.389 0 10.779-5.389 16.168-32.337 32.337-48.505 80.842-37.726 129.347 53.895 59.284 86.232 134.737 86.232 210.189-5.389 194.021-199.411 334.147-393.432 334.147zM393.432 27.675c-53.895 0-102.4 10.779-150.905 26.947-10.779 5.389-16.168 0-26.947-5.389-26.947-26.947-59.284-48.505-102.4-59.284 21.558 43.116 26.947 86.232 16.168 134.737 0 5.389-5.389 5.389-5.389 10.779-48.505 48.505-75.453 118.568-80.842 183.242 0 156.295 156.295 291.032 344.926 291.032 177.853 0 334.147-123.958 334.147-291.032 5.389-161.684-145.516-291.032-328.758-291.032v0zM1018.611 442.664c0 0-5.389-5.389-5.389-10.779-10.779-43.116-5.389-91.621 16.168-134.737-37.726 10.779-75.453 32.337-102.4 59.284-10.779 10.779-21.558 10.779-26.947 5.389-43.116-16.168-86.232-21.558-129.347-26.947-5.389 86.232-53.895 167.074-118.568 220.968h291.032c10.779 0 21.558 10.779 21.558 21.558s-10.779 21.558-21.558 21.558h-355.705c-53.895 26.947-107.789 43.116-167.074 43.116 10.779 150.905 156.295 269.474 334.147 269.474 188.632 0 344.926-134.737 344.926-291.032-5.389-64.674-32.337-129.347-80.842-177.853zM571.284 383.38h-280.253c-10.779 0-21.558-10.779-21.558-21.558s10.779-21.558 21.558-21.558c0 0 0 0 0 0h280.253c10.779 0 21.558 10.779 21.558 21.558-5.389 10.779-10.779 21.558-21.558 21.558zM571.284 248.643h-371.874c-10.779 0-21.558-10.779-21.558-21.558s10.779-21.558 21.558-21.558c0 0 0 0 0 0h366.484c10.779 0 21.558 10.779 21.558 21.558 5.389 10.779-5.389 21.558-16.168 21.558 0 0 0 0 0 0zM937.768 739.085h-280.253c-10.779 0-21.558-10.779-21.558-21.558s10.779-21.558 21.558-21.558c0 0 0 0 0 0h280.253c10.779 0 21.558 10.779 21.558 21.558 5.389 10.779-5.389 21.558-21.558 21.558 0 0 0 0 0 0z" />
<glyph unicode="&#xe960;" glyph-name="star" horiz-adv-x="1069" d="M1069.343 574.583c-3.779 15.114-18.893 26.45-34.007 26.45l-321.181 45.343-143.587 290.952c-7.557 15.114-18.893 22.672-37.786 22.672-15.114 0-30.229-7.557-37.786-22.672l-139.808-290.952-321.181-49.122c-15.114-3.779-26.45-11.336-34.007-26.45-3.779-15.114 0-30.229 11.336-41.565l234.273-226.716-52.9-321.181c0-11.336 0-22.672 7.557-30.229 3.779-3.779 15.114-11.336 26.45-11.336 3.779 0 3.779 0 7.557 0 7.557 0 11.336 0 18.893 3.779l287.173 151.144 287.173-151.144c3.779-3.779 7.557-3.779 15.114-3.779 22.672 0 41.565 18.893 41.565 41.565 0 3.779 0 7.557 0 7.557l-56.679 317.402 230.494 226.716c11.336 11.336 15.114 26.45 11.336 41.565zM328.738 313.86c3.779 11.336-3.779 26.45-11.336 34.007l-188.93 185.151 260.723 37.786c11.336 3.779 22.672 11.336 30.229 22.672l117.137 238.052 117.137-234.273c7.557-11.336 18.893-18.893 30.229-22.672l260.723-37.786-188.93-185.151c-11.336-7.557-15.114-22.672-11.336-34.007l45.343-260.723-234.273 120.915c-11.336 7.557-26.45 7.557-37.786 0l-234.273-124.694 45.343 260.723z" />
<glyph unicode="&#xe961;" glyph-name="tick" horiz-adv-x="1300" d="M1255.513 692.87l-587.687-587.687-133.565-124.661c-62.33-62.33-160.278-62.33-222.609 0l-267.13 276.035c-62.33 62.33-62.33 160.278 0 222.609s160.278 62.33 222.609 0c0 0 0 0 0 0l169.183-169.183 605.496 605.496c62.33 62.33 160.278 53.426 222.609 0 53.426-62.33 53.426-160.278-8.904-222.609v0z" />
<glyph unicode="&#xe962;" glyph-name="time_left" horiz-adv-x="1035" d="M620.767 20.891c-10.611 0-15.917-5.306-26.528-5.306-21.223-5.306-37.14-26.528-31.834-47.751s26.528-37.14 47.751-31.834c10.611 0 21.223 5.306 31.834 5.306 21.223 5.306 37.14 26.528 31.834 47.751-10.611 26.528-31.834 37.14-53.057 31.834zM928.497 577.99c5.306-21.223 31.834-31.834 53.057-26.528s31.834 31.834 26.528 53.057c-5.306 10.611-5.306 21.223-10.611 31.834-10.611 21.223-31.834 31.834-53.057 21.223s-31.834-31.834-21.223-53.057v0c0-10.611 0-15.917 5.306-26.528zM753.409 84.56c-5.306-5.306-15.917-10.611-21.223-15.917-21.223-10.611-26.528-37.14-15.917-58.363s37.14-26.528 58.363-15.917v0c10.611 5.306 15.917 10.611 26.528 15.917 21.223 10.611 26.528 37.14 10.611 58.363s-37.14 26.528-58.363 15.917v0 0zM1034.611 461.264c0 21.223-21.223 42.446-42.446 42.446s-42.446-21.223-42.446-42.446v0c0-10.611 0-15.917 0-26.528 0-21.223 15.917-42.446 42.446-42.446s42.446 15.917 42.446 42.446c0 5.306 0 15.917 0 26.528zM923.192 190.674c-15.917 15.917-42.446 10.611-58.363-10.611 0 0 0 0 0 0-5.306-5.306-10.611-15.917-15.917-21.223-15.917-15.917-10.611-42.446 5.306-58.363 0 0 0 0 5.306 0 15.917-10.611 42.446-10.611 53.057 5.306 5.306 5.306 15.917 15.917 21.223 26.528 10.611 21.223 5.306 47.751-10.611 58.363zM981.554 339.233c-21.223 5.306-47.751-5.306-53.057-26.528 0 0 0 0 0 0 0-10.611-5.306-15.917-10.611-26.528-10.611-21.223 0-47.751 26.528-53.057 21.223-10.611 47.751 0 53.057 26.528 5.306 10.611 5.306 21.223 10.611 31.834 5.306 21.223-5.306 42.446-26.528 47.751zM440.373 15.585c-37.14 5.306-74.28 15.917-106.114 31.834v0c-10.611 10.611-15.917 10.611-26.528 15.917v0c-15.917 5.306-26.528 15.917-42.446 26.528-196.311 137.948-238.756 408.539-100.808 604.85 26.528 42.446 63.668 79.585 106.114 106.114v0c148.56 100.808 339.565 100.808 488.124 5.306l-31.834-47.751c-10.611-10.611-5.306-21.223 10.611-21.223l137.948 10.611c15.917 0 26.528 10.611 26.528 26.528 0 0 0 5.306 0 5.306l-37.14 137.948c-5.306 15.917-15.917 15.917-26.528 5.306l-31.834-47.751c-111.42 74.28-244.062 100.808-376.705 79.585-15.917 0-26.528-5.306-37.14-10.611v0 0c-116.725-31.834-217.534-95.503-286.508-191.005 0 0 0 0 0 0 0-5.306-5.306-5.306-5.306-10.611-10.611-5.306-15.917-10.611-15.917-15.917 0 0 0 0 0 0-58.363-95.503-90.197-196.311-84.891-307.731 0 0 0 0 0 0 0-10.611 0-21.223 0-31.834 0 0 0 0 0 0 0-10.611 0-21.223 5.306-31.834 15.917-106.114 68.974-201.617 143.254-275.896v0 0c21.223-21.223 42.446-37.14 63.668-53.057 63.668-42.446 132.642-74.28 206.922-84.891 21.223-5.306 42.446 10.611 47.751 31.834 10.611 15.917-5.306 42.446-26.528 42.446v0zM493.43 779.606c-21.223 0-37.14-15.917-37.14-31.834v-334.259l307.731-159.171c15.917-5.306 37.14 0 42.446 15.917s0 31.834-15.917 42.446l-265.285 137.948v297.119c0 15.917-15.917 31.834-31.834 31.834z" />
<glyph unicode="&#xe963;" glyph-name="wallet" horiz-adv-x="895" d="M854.871 784.721l-307.508 166.054c-33.826 18.45-76.877 3.075-98.402-30.751l-175.279-325.958h-215.255c0 0 0 0 0 0-15.375 0-30.751-6.15-39.976-15.375-12.3-12.3-18.45-27.676-18.45-43.051v-541.213c0-30.751 24.601-58.426 58.426-58.426h698.042c0 0 0 0 0 0 15.375 0 30.751 6.15 39.976 15.375 12.3 12.3 18.45 24.601 18.45 43.051v116.853h12.3c0 0 0 0 0 0 15.375 0 27.676 12.3 27.676 27.676v144.529c0 15.375-12.3 27.676-27.676 27.676h-12.3v132.228c0 24.601-15.375 43.051-33.826 52.276l101.477 187.58c18.45 39.976 6.15 83.027-27.676 101.477zM224.48 504.889h-166.054c0 0 0 0-3.075 0v27.676c0 0 0 0 3.075 3.075h181.429l-15.375-30.751zM624.24 246.583v-67.652c0-36.901 30.751-67.652 67.652-67.652h64.577v-116.853c0 0 0-3.075-3.075-3.075h-694.967c0 0-3.075 0-3.075 3.075v452.036c0 0 0 3.075 3.075 3.075h698.042c0 0 3.075 0 3.075-3.075v-132.228h-64.577c-39.976 0-70.727-30.751-70.727-67.652zM682.667 178.931v67.652c0 3.075 0 6.15 3.075 6.15 3.075 3.075 3.075 3.075 6.15 3.075h107.628v-86.102h-107.628c0 0 0 0 0 0-3.075 0-6.15 0-6.15 3.075-3.075 0-3.075 3.075-3.075 6.15zM501.237 895.423c3.075 6.15 12.3 9.225 18.45 6.15l21.526-12.3-206.030-384.384h-46.126l212.18 390.535zM399.76 504.889l193.73 356.709 24.601-12.3-184.505-341.333h-33.826zM498.162 504.889l169.129 313.658 156.829-86.102c6.15-3.075 9.225-9.225 6.15-15.375l-113.778-212.18h-218.33zM771.844 738.595l-9.225 6.15c-30.751 15.375-64.577 6.15-83.027-24.601l-12.3-21.526c-9.225-15.375-9.225-30.751-3.075-46.126 3.075-15.375 15.375-27.676 30.751-36.901l9.225-6.15c9.225-3.075 18.45-6.15 27.676-6.15 21.526 0 43.051 12.3 55.351 30.751l12.3 24.601c9.225 27.676 0 61.502-27.676 79.952zM744.168 680.168l-12.3-21.526c0-3.075-3.075-3.075-6.15-3.075l-9.225 6.15c0 0-3.075 3.075-3.075 6.15l12.3 21.526c0 3.075 3.075 3.075 6.15 3.075 0 0 0 0 0 0l9.225-3.075c3.075-3.075 3.075-6.15 3.075-9.225z" />
<glyph unicode="&#xe964;" glyph-name="favico" horiz-adv-x="751" d="M55.634 502.29c-0.132 4.46-0.224 8.941-0.224 13.443 0 209.185 143.378 378.755 320.26 378.755s320.25-169.57 320.25-378.755c0-3.961-0.071-7.903-0.173-11.823 18.035-20.693 34.981-41.153 50.562-60.828 3.183 21.761 5 46.884 5 72.432 0 0.077 0 0.154 0 0.231v-0.012c0 245.358-168.185 444.268-375.649 444.268s-375.649-198.91-375.649-444.268c0-0.066 0-0.145 0-0.223 0-26.179 1.91-51.912 5.599-77.068l-0.344 2.857c15.571 19.695 32.446 40.216 50.369 60.991zM393.96 356.967h86.766v-86.766h-86.766v86.766zM270.502 356.967h86.766v-86.766h-86.766v86.766zM393.96 390.726h86.766v28.8c-0.125 51.088-37.358 93.442-86.165 101.542l-0.601 0.082zM357.268 521.15c-49.408-8.182-86.641-50.536-86.766-101.611v-28.813h86.766zM746.431 443.54c-94.261 119.568-239.319 269.707-372.299 319.893-132.827-50.196-275.074-200.325-369.335-319.893 0 0 89.291-325.443 353.377-497.305l17.394-10.184 17.394 10.184c276.693 182.891 353.469 497.305 353.469 497.305zM375.609 30.22c-178.654 128.917-261.479 284.413-299.037 413.319 0 0 206.639 218.33 297.55 254.35 91.033-36.020 300.524-254.35 300.524-254.35-37.578-128.917-120.372-284.403-299.037-413.329z" />
<glyph unicode="&#xe965;" glyph-name="logo" horiz-adv-x="2276" d="M1580.635 502.29c-0.132 4.46-0.224 8.941-0.224 13.443 0 209.185 143.378 378.755 320.26 378.755s320.249-169.57 320.249-378.755c0-3.961-0.071-7.903-0.173-11.823 18.035-20.693 34.981-41.153 50.562-60.828 3.183 21.761 5 46.884 5 72.432 0 0.077 0 0.154 0 0.231v-0.012c0 245.358-168.185 444.268-375.649 444.268s-375.649-198.91-375.649-444.268c0-0.066 0-0.145 0-0.223 0-26.179 1.91-51.912 5.599-77.068l-0.344 2.857c15.571 19.695 32.446 40.216 50.369 60.991zM1918.961 356.967h86.766v-86.766h-86.766v86.766zM1795.503 356.967h86.766v-86.766h-86.766v86.766zM1918.961 390.726h86.766v28.8c-0.125 51.088-37.358 93.442-86.165 101.542l-0.601 0.082zM1882.269 521.15c-49.408-8.182-86.641-50.536-86.766-101.611v-28.813h86.766zM2271.432 443.54c-94.261 119.568-239.319 269.707-372.299 319.893-132.827-50.196-275.074-200.325-369.335-319.893 0 0 89.291-325.443 353.377-497.305l17.394-10.184 17.394 10.184c276.693 182.891 353.469 497.305 353.469 497.305zM1900.61 30.22c-178.654 128.917-261.479 284.413-299.037 413.319 0 0 206.639 218.33 297.55 254.35 91.033-36.020 300.523-254.35 300.523-254.35-37.578-128.917-120.372-284.403-299.037-413.329zM191.944 527.546h9.165q61.49 0 95.392-67.814c3.466-11.109 5.922-24.036 6.873-37.378l0.032-0.557c-0.368-17.223-4.573-33.38-11.79-47.765l0.293 0.644h67.814c1.538-0.193 2.302-0.967 2.302-2.302v-55.166c0.013-0.086 0.020-0.184 0.020-0.285 0-1.125-0.912-2.037-2.037-2.037-0.1 0-0.199 0.007-0.296 0.021l0.011-0.001h-274.697q-24.441 0-27.588-34.482v-66.663c0.013-0.086 0.020-0.184 0.020-0.285 0-1.125-0.912-2.037-2.037-2.037-0.1 0-0.199 0.007-0.296 0.021l0.011-0.001h-26.478q-28.739 3.167-28.739 28.739v62.050q0 46.265 56.316 70.115c8.257 1.409 17.802 2.243 27.532 2.301h17.297v1.151c-6.468 12.361-10.287 26.991-10.347 42.508v4.612q0 66.093 68.965 98.844c9.577 3.383 20.628 5.47 32.125 5.761l0.137 0.003zM149.416 420.616q0-33.606 37.935-45.98 9.165 0 9.165-1.151 39.941 0 48.281 48.271 0 30.755-33.332 44.809c-2.634 1.449-5.773 2.302-9.112 2.302-0.019 0-0.038 0-0.057 0h-10.344q-29.889 0-42.527-40.226zM356.595 373.526h385.039q26.478-5.764 26.478-26.478v-29.879c0.013-0.086 0.020-0.184 0.020-0.285 0-1.125-0.912-2.037-2.037-2.037-0.1 0-0.199 0.007-0.296 0.021l0.011-0.001h-409.174c-0.086-0.013-0.184-0.020-0.285-0.020-1.125 0-2.037 0.912-2.037 2.037 0 0.1 0.007 0.199 0.021 0.296l-0.001-0.011v53.974q0.234 2.383 2.261 2.383zM882.71 526.537h6.894q59.483 0 93.1-63.211c5.708-13.223 9.069-28.611 9.165-44.772v-49.459h36.203c1.528-0.193 2.302-0.967 2.302-2.302v-55.176c0.013-0.086 0.020-0.184 0.020-0.285 0-1.125-0.912-2.037-2.037-2.037-0.1 0-0.199 0.007-0.296 0.021l0.011-0.001h-44.249q-5.754-28.443-40.226-66.663c-22.764-21.794-53.342-35.588-87.127-36.777l-0.229-0.006h-94.22c-0.086-0.013-0.184-0.020-0.285-0.020-1.125 0-2.037 0.912-2.037 2.037 0 0.1 0.007 0.199 0.021 0.296l-0.001-0.011v31.030q4.308 26.478 33.332 26.478h34.482q62.936 0 93.1 42.527v1.151h-22.995q-90.809 0-113.783 88.497l-2.302 20.683q0 68.109 68.965 102.296c9.556 3.329 20.581 5.392 32.044 5.7l0.147 0.003zM840.183 417.347c-0.008-0.315-0.012-0.685-0.012-1.057 0-20.442 13.385-37.758 31.868-43.662l0.324-0.089c2.637-1.449 5.779-2.302 9.119-2.302 0.016 0 0.032 0 0.049 0h10.344q27.293 0 41.377 37.935 0 9.481 1.151 10.337-8.055 48.281-45.98 48.281h-3.442q-34.472 0-44.809-42.527zM1194.181 520.784h9.165q57.172 0 90.799-59.769c6.5-11.981 10.328-26.23 10.347-41.371v-9.171q0-55.746-58.618-90.799c-12.406-6.219-26.986-10.001-42.413-10.345l-0.114-0.002h-176.424c-0.085-0.013-0.183-0.020-0.283-0.020-1.125 0-2.037 0.912-2.037 2.037 0 0.097 0.007 0.192 0.020 0.285l-0.001-0.011v53.974q0.275 2.291 2.302 2.302h76.378c-7.138 14.071-11.368 30.663-11.487 48.232v0.039q0 60.624 62.060 95.402c11.809 5.63 25.638 9.005 40.234 9.215l0.073 0.001zM1150.503 415.045c0.213-16.989 9.273-31.815 22.777-40.107l0.208-0.119c5.552-3.655 12.196-6.12 19.35-6.878l0.193-0.017h8.045q32.751 0 44.809 39.085v10.337q0 32.761-39.075 44.809h-13.789q-22.985 0-39.085-29.889z" />
</font>
</defs>
</svg>
