<svg xmlns="http://www.w3.org/2000/svg" width="42.357" height="49.741" viewBox="0 0 42.357 49.741">
  <g id="Group_1052" data-name="Group 1052" transform="translate(-806.799 -915.53)">
    <g id="shield" transform="translate(806.798 915.53)">
      <path id="Path_941" data-name="Path 941" d="M40.621,33.217a25.1,25.1,0,0,1-6.01,9.363,31.461,31.461,0,0,1-11.746,6.96,3.594,3.594,0,0,1-1.142.2H21.68a3.645,3.645,0,0,1-.7-.069,3.8,3.8,0,0,1-.482-.131,31.458,31.458,0,0,1-11.76-6.956,25.047,25.047,0,0,1-6.009-9.361C.3,26.636.439,19.378.55,13.546l0-.09c.022-.482.037-.987.045-1.546A5.272,5.272,0,0,1,5.561,6.746,20.457,20.457,0,0,0,19.484.877l.033-.03a3.186,3.186,0,0,1,4.326,0l.032.03A20.461,20.461,0,0,0,37.8,6.746a5.272,5.272,0,0,1,4.964,5.165c.008.562.022,1.067.045,1.546v.038C42.92,19.338,43.057,26.609,40.621,33.217Zm0,0" transform="translate(-0.5 0)" fill="#fff"/>
    </g>
    <g id="shield-2" data-name="shield" transform="translate(809.357 918.535)">
      <path id="Path_941-2" data-name="Path 941" d="M35.773,29.2a22.063,22.063,0,0,1-5.284,8.232,27.659,27.659,0,0,1-10.327,6.119,3.16,3.16,0,0,1-1,.177h-.038a3.2,3.2,0,0,1-.616-.061,3.336,3.336,0,0,1-.423-.115A27.658,27.658,0,0,1,7.742,37.44a22.021,22.021,0,0,1-5.283-8.23C.325,23.418.446,17.037.544,11.91l0-.079c.02-.423.032-.868.039-1.359A4.635,4.635,0,0,1,4.949,5.931,17.985,17.985,0,0,0,17.19.771l.029-.027a2.8,2.8,0,0,1,3.8,0l.028.027a17.988,17.988,0,0,0,12.242,5.16,4.635,4.635,0,0,1,4.364,4.541c.007.494.02.939.039,1.359v.033C37.795,17,37.915,23.394,35.773,29.2Zm0,0" transform="translate(-0.5 0)" fill="#0578de"/>
      <path id="Subtraction_21" data-name="Subtraction 21" d="M10.936,21.8H10.9A10.9,10.9,0,0,1,10.9,0h.038a10.9,10.9,0,0,1,0,21.8ZM6.686,10.832a1.276,1.276,0,0,0-.907.374,1.292,1.292,0,0,0,0,1.817L8.062,15.3a1.282,1.282,0,0,0,1.812,0l1.061-1.062,4.908-4.906a1.282,1.282,0,0,0-1.813-1.814l-5.06,5.062L7.6,11.205A1.285,1.285,0,0,0,6.686,10.832Z" transform="translate(7.722 10.965)" fill="#fff"/>
    </g>
  </g>
</svg>

