<svg xmlns="http://www.w3.org/2000/svg" width="48.723" height="57.215" viewBox="0 0 48.723 57.215">
  <g id="Group_881" data-name="Group 881" transform="translate(-806.799 -915.531)">
    <g id="shield" transform="translate(806.798 915.53)">
      <path id="Path_941" data-name="Path 941" d="M46.649,38.207a28.865,28.865,0,0,1-6.914,10.77,36.188,36.188,0,0,1-13.511,8.005,4.134,4.134,0,0,1-1.313.232h-.049a4.192,4.192,0,0,1-.806-.079,4.365,4.365,0,0,1-.554-.151,36.185,36.185,0,0,1-13.527-8A28.811,28.811,0,0,1,3.063,38.215C.271,30.637.429,22.29.557,15.581l0-.1C.585,14.925.6,14.343.611,13.7a6.064,6.064,0,0,1,5.71-5.94C12.9,7.393,17.988,5.247,22.336,1.009l.038-.035a3.665,3.665,0,0,1,4.976,0l.037.035C31.736,5.247,36.825,7.393,43.4,7.76a6.064,6.064,0,0,1,5.71,5.94c.009.647.026,1.228.052,1.778v.044C49.293,22.243,49.451,30.607,46.649,38.207Zm0,0" transform="translate(-0.5 0)" fill="#fff"/>
    </g>
    <g id="shield-2" data-name="shield" transform="translate(809.742 918.986)">
      <path id="Path_941-2" data-name="Path 941" d="M41.073,33.591a25.378,25.378,0,0,1-6.078,9.469A31.815,31.815,0,0,1,23.116,50.1a3.634,3.634,0,0,1-1.154.2h-.043a3.685,3.685,0,0,1-.708-.07,3.838,3.838,0,0,1-.487-.133A31.813,31.813,0,0,1,8.83,43.065,25.33,25.33,0,0,1,2.753,33.6C.3,26.936.438,19.6.55,13.7l0-.091c.023-.487.037-1,.045-1.563a5.331,5.331,0,0,1,5.02-5.223A20.688,20.688,0,0,0,19.7.887l.033-.031a3.222,3.222,0,0,1,4.375,0l.033.031A20.691,20.691,0,0,0,38.219,6.822a5.331,5.331,0,0,1,5.02,5.223c.008.569.023,1.08.045,1.563v.038C43.4,19.556,43.537,26.909,41.073,33.591Zm0,0" transform="translate(-0.5 0)" fill="#1fae6c"/>
      <path id="Path_943" data-name="Path 943" d="M115.967,140.934a12.552,12.552,0,0,1-12.492,12.537h-.044a12.536,12.536,0,1,1,0-25.073h.044A12.552,12.552,0,0,1,115.967,140.934Zm0,0" transform="translate(-82.014 -115.784)" fill="#fff"/>
      <path id="Path_945" data-name="Path 945" d="M166.187,214.5l-5.646,5.647-1.22,1.22a1.477,1.477,0,0,1-2.088,0l-2.623-2.624a1.476,1.476,0,0,1,2.087-2.087l1.58,1.58,5.823-5.823a1.476,1.476,0,0,1,2.087,2.087Zm0,0" transform="translate(-139.08 -191.154)" fill="#1fae6c"/>
    </g>
  </g>
</svg>
