<svg xmlns="http://www.w3.org/2000/svg" width="24.236" height="28.46" viewBox="0 0 24.236 28.46">
  <g id="Group_881" data-name="Group 881" transform="translate(0)">
    <g id="shield" transform="translate(0 0)">
      <path id="Path_941" data-name="Path 941" d="M23.456,19.006a14.359,14.359,0,0,1-3.439,5.357A18,18,0,0,1,13.3,28.345a2.056,2.056,0,0,1-.653.115h-.025a2.086,2.086,0,0,1-.4-.04,2.171,2.171,0,0,1-.276-.075,18,18,0,0,1-6.729-3.98A14.332,14.332,0,0,1,1.775,19.01C.386,15.24.465,11.088.529,7.751V7.7c.013-.276.021-.565.026-.885A3.016,3.016,0,0,1,3.4,3.86,11.7,11.7,0,0,0,11.362.5l.019-.017a1.823,1.823,0,0,1,2.475,0L13.875.5A11.707,11.707,0,0,0,21.842,3.86a3.016,3.016,0,0,1,2.84,2.955c0,.322.013.611.026.885v.022C24.772,11.065,24.85,15.225,23.456,19.006Zm0,0" transform="translate(-0.5 0)" fill="#fff"/>
    </g>
    <g id="shield-2" data-name="shield" transform="translate(1.464 1.719)">
      <path id="Path_941-2" data-name="Path 941" d="M20.683,16.71a12.624,12.624,0,0,1-3.024,4.71,15.826,15.826,0,0,1-5.909,3.5,1.808,1.808,0,0,1-.574.1h-.022a1.833,1.833,0,0,1-.352-.035,1.91,1.91,0,0,1-.242-.066,15.825,15.825,0,0,1-5.916-3.5,12.6,12.6,0,0,1-3.023-4.709C.4,13.4.469,9.748.525,6.815V6.769c.011-.242.019-.5.023-.778a2.652,2.652,0,0,1,2.5-2.6,10.291,10.291,0,0,0,7-2.952l.017-.015a1.6,1.6,0,0,1,2.176,0l.016.015a10.293,10.293,0,0,0,7,2.952,2.652,2.652,0,0,1,2.5,2.6c0,.283.011.537.023.778v.019C21.839,9.728,21.908,13.386,20.683,16.71Zm0,0" transform="translate(-0.5 0)" fill="#1fae6c"/>
      <path id="Path_943" data-name="Path 943" d="M103.367,134.634a6.244,6.244,0,0,1-6.214,6.236h-.022a6.236,6.236,0,1,1,0-12.472h.022A6.244,6.244,0,0,1,103.367,134.634Zm0,0" transform="translate(-86.477 -122.123)" fill="#fff"/>
      <path id="Path_945" data-name="Path 945" d="M160.152,213.233l-2.809,2.809-.607.607a.735.735,0,0,1-1.039,0l-1.3-1.305a.734.734,0,0,1,1.038-1.038l.786.786,2.9-2.9a.734.734,0,1,1,1.038,1.038Zm0,0" transform="translate(-146.667 -201.62)" fill="#1fae6c"/>
    </g>
  </g>
</svg>
