<?xml version="1.0" encoding="utf-8"?>
<!-- Generator: Adobe Illustrator 23.0.3, SVG Export Plug-In . SVG Version: 6.00 Build 0)  -->
<svg version="1.1" id="Layer_1" xmlns="http://www.w3.org/2000/svg" xmlns:xlink="http://www.w3.org/1999/xlink" x="0px" y="0px"
	 viewBox="0 0 70.4 64.7" style="enable-background:new 0 0 70.4 64.7;" xml:space="preserve">
<style type="text/css">
	.st0{fill:#585858;}
	.st1{fill:#0389FF;}
</style>
<g>
	<path class="st0" d="M30.1,16.6c-6.6,0-12,5.4-12,12s5.4,12,12,12s12-5.4,12-12S36.7,16.6,30.1,16.6z M30.1,37.7
		c-5,0-9.1-4.1-9.1-9.1c0-5,4.1-9.1,9.1-9.1c5,0,9.1,4.1,9.1,9.1C39.2,33.6,35.1,37.7,30.1,37.7z"/>
	<path class="st0" d="M54.1,7.3h-9.9L42.7,4c-1.1-2.4-3.5-4-6.2-4H23.7c-2.7,0-5.1,1.6-6.2,4L16,7.3H6.8C3.1,7.3,0,10.4,0,14.2v30.9
		c0,3.8,3.1,6.8,6.8,6.8h35.9v-2.7H6.8c-2.3,0-4.1-1.8-4.1-4.1V14.2c0-2.3,1.8-4.1,4.1-4.1h10c0.5,0,1-0.3,1.2-0.8L20,5.1
		c0.7-1.5,2.1-2.4,3.7-2.4h12.7c1.6,0,3.1,0.9,3.7,2.4L42,9.3c0.2,0.5,0.7,0.8,1.2,0.8h10.8c2.3,0,4.1,1.8,4.1,4.1v14.1h2.7V14.2
		C60.9,10.4,57.8,7.3,54.1,7.3z"/>
</g>
<path class="st1" d="M66.8,40.5h-9.5V31c0-0.8-0.7-1.5-1.5-1.5s-1.5,0.7-1.5,1.5v9.5h-9.5c-0.8,0-1.5,0.7-1.5,1.5s0.7,1.5,1.5,1.5
	h9.5V53c0,0.8,0.7,1.5,1.5,1.5s1.5-0.7,1.5-1.5v-9.5h9.5c0.8,0,1.5-0.7,1.5-1.5S67.7,40.5,66.8,40.5z"/>
</svg>
