<?xml version="1.0" encoding="utf-8"?>
<!-- Generator: Adobe Illustrator 23.0.3, SVG Export Plug-In . SVG Version: 6.00 Build 0)  -->
<svg version="1.1" id="Layer_1" xmlns="http://www.w3.org/2000/svg" xmlns:xlink="http://www.w3.org/1999/xlink" x="0px" y="0px"
	 viewBox="0 0 28.5 34.9" style="enable-background:new 0 0 28.5 34.9;" xml:space="preserve">
<style type="text/css">
	.st0{fill:#585858;}
</style>
<g id="apple" transform="translate(0 0)">
	<path id="XMLID_229_" class="st0" d="M1.5,12.8c-2.9,5.1-1.1,12.9,2.2,17.6c1.6,2.4,3.3,4.5,5.5,4.5h0.1c0.9-0.1,1.8-0.3,2.6-0.7
		c0.9-0.5,2-0.7,3-0.7c1,0,2,0.2,2.9,0.7c0.9,0.4,1.8,0.7,2.8,0.7c2.5,0,4.1-2.3,5.5-4.3c1-1.5,1.8-3.2,2.4-4.9l0,0
		c0-0.1,0-0.3-0.2-0.3l0,0c-2.7-1.1-4.4-3.8-4.4-6.7c0-2.6,1.4-4.9,3.5-6.3l0,0c0.1-0.1,0.2-0.3,0.1-0.4c0,0,0,0,0,0
		C26,9.7,23.6,8.4,21,8.3c-0.2,0-0.4,0-0.6,0c-1.4,0.1-2.8,0.4-4.1,1c-0.6,0.3-1.3,0.5-2,0.6c-0.7-0.1-1.4-0.3-2-0.6
		c-1.1-0.5-2.3-0.8-3.6-0.9H8.8C5.7,8.5,3,10.2,1.5,12.8z"/>
	<path id="XMLID_230_" class="st0" d="M21.1,0c-2,0.2-3.9,1.2-5.3,2.7c-1.4,1.5-2,3.5-1.9,5.5c0,0.1,0.1,0.2,0.3,0.2
		c0.1,0,0.2,0,0.4,0c1.9-0.1,3.8-1,5-2.5c1.3-1.6,2-3.6,1.8-5.7C21.3,0.1,21.2,0,21.1,0z"/>
</g>
</svg>
