<?xml version="1.0" encoding="utf-8"?>
<!-- Generator: Adobe Illustrator 23.0.3, SVG Export Plug-In . SVG Version: 6.00 Build 0)  -->
<svg version="1.1" id="Layer_1" xmlns="http://www.w3.org/2000/svg" xmlns:xlink="http://www.w3.org/1999/xlink" x="0px" y="0px"
	 viewBox="0 0 35.6 17.3" style="enable-background:new 0 0 35.6 17.3;" xml:space="preserve">
<style type="text/css">
	.st0{fill:#585858;}
</style>
<path id="Path_1607" class="st0" d="M32.6,0.5c0.6-0.7,1.7-0.8,2.4-0.1c0.7,0.6,0.8,1.7,0.1,2.4c0,0-0.1,0.1-0.1,0.1L22.8,15.3
	c-2.8,2.8-7.2,2.8-10,0c0,0,0,0,0,0L0.5,2.9c-0.7-0.7-0.7-1.8,0-2.4c0.7-0.7,1.8-0.7,2.4,0l12.3,12.3c1.4,1.4,3.7,1.4,5.1,0
	L32.6,0.5z"/>
</svg>
