<svg xmlns="http://www.w3.org/2000/svg" xmlns:xlink="http://www.w3.org/1999/xlink" width="297.746" height="228.721" viewBox="0 0 297.746 228.721">
  <defs>
    <linearGradient id="linear-gradient" x1="0.5" y1="1" x2="0.5" gradientUnits="objectBoundingBox">
      <stop offset="0" stop-color="gray" stop-opacity="0.251"/>
      <stop offset="0.54" stop-color="gray" stop-opacity="0.122"/>
      <stop offset="1" stop-color="gray" stop-opacity="0.102"/>
    </linearGradient>
  </defs>
  <g id="Group_1257" data-name="Group 1257" transform="translate(-284.396 -1431.176)">
    <g id="Group_1253" data-name="Group 1253" transform="translate(7131 -14333)">
      <path id="Path_30" data-name="Path 30" d="M392.919,68.069a60.924,60.924,0,0,0-11.812-15.91L217.251,50.794,352.159,34.776a88.9,88.9,0,0,0-27.372-4.59C311.8,21.32,295.108,16,276.9,16a86.056,86.056,0,0,0-43.758,11.575,87.876,87.876,0,0,0-35.073-7.143c-36.407,0-66.743,21.317-73.549,49.587Z" transform="translate(-6947.536 15748.177)" fill="#0389ff" opacity="0.1"/>
      <path id="Path_31" data-name="Path 31" d="M332.747,241.046a51.908,51.908,0,0,0-5.106-22.376L43.658,243.87a55.212,55.212,0,0,0-6.653,14.2l87.941,11.082L35,277.236c2.706,32,35.158,57.273,74.8,57.273,19.954,0,38.085-6.4,51.521-16.845,13.478,10.64,31.783,17.182,51.953,17.182,29.925,0,55.755-14.405,67.784-35.232,24.131-6.477,42.876-22.734,49.292-43.073L219.137,241.96h113.61Z" transform="translate(-6881.604 15598.908)" fill="#0389ff" opacity="0.1"/>
    </g>
    <ellipse id="Ellipse_46" data-name="Ellipse 46" cx="76.408" cy="3.41" rx="76.408" ry="3.41" transform="translate(339.73 1653.078)" fill="#0389ff" opacity="0.1"/>
    <path id="Path_32" data-name="Path 32" d="M536.773,746.039v2.06H475.84v-1.673a20.025,20.025,0,0,0,1.378-36.986h59.141a20.025,20.025,0,0,0,.414,36.6Z" transform="translate(-75.285 904.453)" fill="#c8cad7"/>
    <path id="Path_33" data-name="Path 33" d="M540.218,709.44a20.054,20.054,0,0,0-11.067,13.277H492.147A20.059,20.059,0,0,0,481.08,709.44Z" transform="translate(-79.145 904.453)" opacity="0.1"/>
    <path id="Path_34" data-name="Path 34" d="M211,669.6v11.567c0,6.387,4.674,11.565,10.442,11.565H400.728c5.768,0,10.442-5.178,10.442-11.565V669.6Z" transform="translate(119.771 933.795)" fill="#c8cad7"/>
    <path id="Path_35" data-name="Path 35" d="M536.773,842.426v2.061H475.84v-1.673a20.026,20.026,0,0,0,4.7-2.5h52.5A20.137,20.137,0,0,0,536.773,842.426Z" transform="translate(-75.285 808.066)" opacity="0.1"/>
    <rect id="Rectangle_320" data-name="Rectangle 320" width="101.205" height="6.105" rx="3.053" transform="translate(380.418 1649.02)" fill="#c8cad7"/>
    <path id="Path_36" data-name="Path 36" d="M411.17,159.426A10.44,10.44,0,0,0,400.728,149H221.45A10.44,10.44,0,0,0,211,159.426v129H411.17Z" transform="translate(119.771 1317.221)" fill="#474157"/>
    <path id="Path_37" data-name="Path 37" d="M421.011,191.881V302.724a5.138,5.138,0,0,1-5.141,5.141H236.9a5.138,5.138,0,0,1-5.141-5.141V191.881a5.141,5.141,0,0,1,5.141-5.141H415.857a5.141,5.141,0,0,1,5.154,5.141Z" transform="translate(104.481 1289.426)" fill="#4c4c78"/>
    <ellipse id="Ellipse_47" data-name="Ellipse 47" cx="2.411" cy="2.411" rx="2.411" ry="2.411" transform="translate(428.447 1468.773)" fill="#fff"/>
    <ellipse id="Ellipse_48" data-name="Ellipse 48" cx="5.944" cy="5.944" rx="5.944" ry="5.944" transform="translate(424.914 1609.5)" fill="#fff"/>
    <path id="Path_38" data-name="Path 38" d="M271.75,196.5V315.053H236.9a5.138,5.138,0,0,1-5.141-5.141V199.069l.187-.7.5-1.871Z" transform="translate(104.481 1282.238)" fill="#fff"/>
    <path id="Path_39" data-name="Path 39" d="M241.222,187.65v10.671H196.76v-9.973l.187-.7Z" transform="translate(139.481 1292.957)" fill="#4c4c78"/>
    <path id="Path_40" data-name="Path 40" d="M421.011,191.888H231.76a5.138,5.138,0,0,1,5.141-5.138H415.857a5.138,5.138,0,0,1,5.154,5.138Z" transform="translate(104.481 1289.418)" fill="#c8cad7"/>
    <ellipse id="Ellipse_49" data-name="Ellipse 49" cx="1.286" cy="1.286" rx="1.286" ry="1.286" transform="translate(340.096 1477.451)" fill="#ededf4"/>
    <ellipse id="Ellipse_50" data-name="Ellipse 50" cx="1.286" cy="1.286" rx="1.286" ry="1.286" transform="translate(343.951 1477.451)" fill="#ededf4"/>
    <ellipse id="Ellipse_51" data-name="Ellipse 51" cx="1.286" cy="1.286" rx="1.286" ry="1.286" transform="translate(347.807 1477.451)" fill="#ededf4"/>
    <rect id="Rectangle_321" data-name="Rectangle 321" width="26.7" height="2.458" transform="translate(342.887 1485.305)" fill="#0389ff"/>
    <rect id="Rectangle_322" data-name="Rectangle 322" width="26.7" height="2.458" transform="translate(342.887 1497.295)" fill="#0389ff" opacity="0.5"/>
    <rect id="Rectangle_323" data-name="Rectangle 323" width="26.7" height="2.458" transform="translate(342.887 1505.771)" fill="#0389ff" opacity="0.5"/>
    <rect id="Rectangle_324" data-name="Rectangle 324" width="26.7" height="2.458" transform="translate(342.887 1514.248)" fill="#0389ff" opacity="0.5"/>
    <rect id="Rectangle_325" data-name="Rectangle 325" width="26.7" height="2.458" transform="translate(342.887 1522.723)" fill="#0389ff" opacity="0.5"/>
    <rect id="Rectangle_326" data-name="Rectangle 326" width="26.7" height="2.458" transform="translate(342.887 1531.199)" fill="#0389ff" opacity="0.5"/>
    <rect id="Rectangle_327" data-name="Rectangle 327" width="26.7" height="2.458" transform="translate(342.887 1539.676)" fill="#0389ff" opacity="0.5"/>
    <rect id="Rectangle_328" data-name="Rectangle 328" width="26.7" height="2.458" transform="translate(342.887 1548.148)" fill="#0389ff" opacity="0.5"/>
    <rect id="Rectangle_329" data-name="Rectangle 329" width="118.311" height="0.395" transform="translate(398.091 1494.348)" fill="#dce0ed" opacity="0.5"/>
    <rect id="Rectangle_330" data-name="Rectangle 330" width="118.311" height="0.395" transform="translate(398.091 1503.523)" fill="#dce0ed" opacity="0.5"/>
    <rect id="Rectangle_331" data-name="Rectangle 331" width="118.311" height="0.395" transform="translate(398.091 1512.703)" fill="#dce0ed" opacity="0.5"/>
    <rect id="Rectangle_332" data-name="Rectangle 332" width="118.311" height="0.395" transform="translate(398.091 1521.881)" fill="#dce0ed" opacity="0.5"/>
    <rect id="Rectangle_333" data-name="Rectangle 333" width="118.311" height="0.395" transform="translate(398.091 1531.059)" fill="#dce0ed" opacity="0.5"/>
    <path id="Path_41" data-name="Path 41" d="M549.4,292.531H430.94V274.482l10.864,5.354,11.243,1.523,9.865-2.975,11.9-9.23L480.8,265.7l4.377-.843,4.187.224,6.888,3.4,9.359,5.963,7.346.946,5.826-2.008,12.345-10.113,6.3-2.248,6.6,1.02,5.373,3.1Z" transform="translate(-32.994 1238.92)" fill="#0389ff" opacity="0.5"/>
    <path id="Path_42" data-name="Path 42" d="M486.587,297.153c-10.666,0-20.526-6.524-20.647-6.608l.292-.437c.153.1,15.325,10.142,28.217,5.112,4.706-1.831,8.047-4.685,11.293-7.441,3.381-2.88,6.574-5.6,10.924-6.782a16.343,16.343,0,0,1,14.592,3.278c3.541,2.912,10.6,7.589,18.052,6.189,3.8-.711,7-3.489,10.395-6.427,6.492-5.639,13.227-11.459,24.845-3.1l-.308.427c-11.291-8.113-17.854-2.427-24.2,3.072-3.447,2.988-6.7,5.8-10.642,6.548-7.668,1.436-14.872-3.331-18.484-6.3a15.821,15.821,0,0,0-14.118-3.175c-4.24,1.149-7.378,3.831-10.721,6.672-3.27,2.785-6.653,5.668-11.436,7.533A22.1,22.1,0,0,1,486.587,297.153Z" transform="translate(-67.994 1223.133)" fill="#0389ff"/>
    <ellipse id="Ellipse_52" data-name="Ellipse 52" cx="2.933" cy="2.933" rx="2.933" ry="2.933" transform="translate(452.088 1500.789)" fill="#0389ff"/>
    <path id="Path_43" data-name="Path 43" d="M302.213,473.689a46.542,46.542,0,0,0-5.533-2.883l-.082-.058a3.336,3.336,0,0,1-1.012-1.278v-.237a6.056,6.056,0,0,1,1.758-3.3l2.108-2.479a2.422,2.422,0,0,0,.543-.88,1.974,1.974,0,0,0,.058-.527v-.216c0-.617-.029-1.233-.05-1.844-.021-.54-.158-1.217-.7-1.317-.279-.058-.648.042-.79-.2a.443.443,0,0,1-.037-.319v.024a.131.131,0,0,1,0-.029,7.288,7.288,0,0,0,.2-1.267,1.819,1.819,0,0,0-.087-.64c-.314-.893-1.386-1.259-2.335-1.428a4.1,4.1,0,0,1-2.609-1.054,8.634,8.634,0,0,0-.527-.714,2.076,2.076,0,0,0-.972-.48,5.46,5.46,0,0,0-3.526.308,3.175,3.175,0,0,1-1.423.451c-.5-.029-.97-.4-1.486-.482a2.122,2.122,0,0,0-2.042,1.2,2.9,2.9,0,0,0-.377,1.41v.082h0a2.071,2.071,0,0,0,.543,1.439c.358.374.893.63,1.054,1.12.061.2.047.416.1.617a.284.284,0,0,0,.024.076l-.029.034a6.263,6.263,0,0,0-1.317,3.852,6.392,6.392,0,0,0,4.479,6.06v.19a2.724,2.724,0,0,1-.87,2.121l-5.686,2.282s-3.425-.406-4.659,4.6a8.474,8.474,0,0,0-.211,2.537,7.45,7.45,0,0,1-.938,3.8c-1.4,2.751-1.086,9.061,1.786,9.686a9.367,9.367,0,0,0,3.884.316v.111c-.045,1.186-.474,11.4-2.037,12.648-.435.34-.353.572,0,.727v.184a12.7,12.7,0,0,1-1.336,5.212c-1.2,1.868-1.065,12.671-1.065,12.671l-.827,6.374s.509,3.937,0,4.624c-.456.614-1.054,15.18-1.191,18.336h-.053a1.536,1.536,0,0,0-1.228.748,21.73,21.73,0,0,1-3.025,3.1c-.509.725-2.4,1.418-3.391,1.744a2.169,2.169,0,0,0-.385.166,2.024,2.024,0,0,0-.856.9.964.964,0,0,0-.09.751c.263.624,5.552,1.054,6.89.437a45.805,45.805,0,0,1,6.961-1.391,1.428,1.428,0,0,0,1.238-1.239.817.817,0,0,0-.158-.619h0a5.6,5.6,0,0,1-.58-2.266,1.543,1.543,0,0,0,.39-.232,16.625,16.625,0,0,1,.956-6.687c1.275-3.373,1.66-9.623,1.341-13.686,0,0,3.892-16.75,6.956-18.313h0c.047.058,1.534,1.966,1.723,7.873a23.875,23.875,0,0,0,2.358,9.936s-.956,10.187,0,14l-1.257,6.005a1.96,1.96,0,0,1-.15-.137s.037.169.09.435l-.026.126.053.013a11.619,11.619,0,0,1,.263,2.83c-.05.44-.171,1.038-.263,1.628-.132.925-.169,1.823.319,2.018.79.322,5.489.761,6.287-.263a1.478,1.478,0,0,0,.232-1.544,1.581,1.581,0,0,0-.232-.393s-1.246-2.037-.893-3.473a1.054,1.054,0,0,0-.15-.822,42.442,42.442,0,0,1,1.094-6.743c.79-3.006,2.482-9.6,1.244-13.936h0c-.047-.169-.1-.337-.158-.5a18.709,18.709,0,0,1-.7-7.312,14.865,14.865,0,0,1,0-6.374c.759-3.5,1.294-6.922,1.294-6.922a43.915,43.915,0,0,0,.053-7.459l-.024-.182.2-.045s-1.083-4.811-1.468-7.873c-.09-.725-.208-1.639-.337-2.616a6.917,6.917,0,0,0,1.041-.263c3.446-1.188,4.529-11.939,4.529-11.939v-3.41S306.234,476.01,302.213,473.689Zm-25.672,83-.169-.09h0Z" transform="translate(79.313 1093.764)" fill="url(#linear-gradient)"/>
    <path id="Path_44" data-name="Path 44" d="M326.093,683.215c1.494,4.3-.263,11.272-1.054,14.387a43.661,43.661,0,0,0-1.054,6.851,14.489,14.489,0,0,1-5.481-.127l1.317-6.413c-.933-3.8,0-13.952,0-13.952a24.384,24.384,0,0,1-2.3-9.9c-.184-5.884-1.634-7.786-1.681-7.847h0c-3.012,1.565-6.8,18.252-6.8,18.252.311,4.047-.063,10.276-1.318,13.641a16.876,16.876,0,0,0-.935,6.664,2.056,2.056,0,0,1-1.694.324,11.608,11.608,0,0,1-3.91-1.821s.685-18.181,1.183-18.871,0-4.608,0-4.608l.809-6.353s-.124-10.774,1.054-12.648a12.882,12.882,0,0,0,1.3-5.193v-.184l1.8-2.158s17.441-1.318,18.748,0a3.681,3.681,0,0,1,.638,1.971,44.814,44.814,0,0,1-.053,7.433s-.527,3.425-1.27,6.911a15.124,15.124,0,0,0,0,6.353,18.971,18.971,0,0,0,.7,7.294Z" transform="translate(53.354 946.266)" fill="#65617d"/>
    <path id="Path_45" data-name="Path 45" d="M373.229,850.7c-.777,1.028-5.354.593-6.134.263-.477-.2-.44-1.091-.311-2.013.082-.588.2-1.186.248-1.62a14.837,14.837,0,0,0-.371-3.4s1.028,1.091,1.275,0a1.186,1.186,0,0,1,.888-.843,2.329,2.329,0,0,1,1.618.1c.809.351,2.158,1.1,1.916,2.108-.343,1.431.872,3.46.872,3.46a1.565,1.565,0,0,1,.227.393A1.494,1.494,0,0,1,373.229,850.7Z" transform="translate(5.127 806.091)" fill="#a27772"/>
    <path id="Path_46" data-name="Path 46" d="M373.34,867.36c-.777,1.028-5.354.593-6.134.263-.477-.2-.44-1.091-.311-2.013a5.278,5.278,0,0,0,2.719.293,7.606,7.606,0,0,1,.98-.032,22.417,22.417,0,0,0,2.972-.058A1.494,1.494,0,0,1,373.34,867.36Z" transform="translate(5.016 789.433)" opacity="0.1"/>
    <path id="Path_47" data-name="Path 47" d="M319.967,718.968c.311,4.047-.063,10.276-1.317,13.641a16.877,16.877,0,0,0-.935,6.664,2.055,2.055,0,0,1-1.694.324c.377-2.635,1.976-13.947,3-22.887a37.424,37.424,0,0,1,6.632-17.19l1.091,1.2C323.756,702.281,319.967,718.968,319.967,718.968Z" transform="translate(42.424 911.759)" opacity="0.1"/>
    <path id="Path_48" data-name="Path 48" d="M349.02,504.013l-.761,3.736-3.723,6.261-4.593-1.963s-6.245-6.54-2.321-7.473a3.459,3.459,0,0,0,1.3-.58,2.7,2.7,0,0,0,1.017-2.253,6.926,6.926,0,0,0-.638-2.68l8.034-2.522a12.784,12.784,0,0,0-.577,3.254c-.061,2.187.751,3.267,1.418,3.781A2.389,2.389,0,0,0,349.02,504.013Z" transform="translate(27.467 1061.255)" fill="#fbbebe"/>
    <path id="Path_49" data-name="Path 49" d="M355.664,496.54a12.788,12.788,0,0,0-.577,3.254,6.35,6.35,0,0,1-6.819,1.947,6.927,6.927,0,0,0-.638-2.68Z" transform="translate(19.143 1061.255)" opacity="0.1"/>
    <path id="Path_50" data-name="Path 50" d="M346.1,474.883a6.337,6.337,0,1,1-1.856-4.5A6.353,6.353,0,0,1,346.1,474.883Z" transform="translate(29.63 1081.885)" fill="#fbbebe"/>
    <path id="Path_51" data-name="Path 51" d="M349.02,523.677l-.761,3.736-3.723,6.261-4.593-1.963s-6.245-6.54-2.321-7.473a3.46,3.46,0,0,0,1.3-.58c-.709,1.947,2.216,6,2.216,6,.34.5,1.123.187,1.123.187,1.881-.285,5.352-5.7,5.915-6.6A2.388,2.388,0,0,0,349.02,523.677Z" transform="translate(27.467 1041.591)" opacity="0.1"/>
    <path id="Path_52" data-name="Path 52" d="M338.905,655.274c-1.107.263-7.225,1.6-9.544,1.267-2.553-.374-7.52-.622-7.52-.622s-3.162.169-4.132-.263v-.184l1.8-2.158s17.441-1.318,18.747,0A3.483,3.483,0,0,1,338.905,655.274Z" transform="translate(41.179 946.222)" opacity="0.1"/>
    <path id="Path_53" data-name="Path 53" d="M315.314,529.983s-3.286-4.551-2.047-6.324l-5.552,2.276s-3.341-.406-4.545,4.58a8.7,8.7,0,0,0-.208,2.532,7.533,7.533,0,0,1-.914,3.786c-1.37,2.74-1.054,9.032,1.744,9.654s3.8.311,3.8.311-.374,11.4-1.992,12.706,4.129,1,4.129,1,4.964.264,7.517.624,9.715-1.317,9.715-1.317-1.054-4.8-1.433-7.847-1.244-9.549-1.244-9.549l6.353-8.606s1.12-5.2-2.8-7.5a44.985,44.985,0,0,0-5.4-2.872s-3.952,6.421-6,6.732C316.434,530.167,315.654,530.484,315.314,529.983Z" transform="translate(53.295 1041.45)" fill="#ff748e"/>
    <path id="Path_54" data-name="Path 54" d="M323.987,555.16a9.335,9.335,0,0,0,.314,2.864c.374.809,1.742,5.294,1.742,5.294H322.93s1.681-1.8,1.557-2.677S323.987,555.16,323.987,555.16Z" transform="translate(37.334 1018.081)" opacity="0.1"/>
    <path id="Path_55" data-name="Path 55" d="M334.186,589.6s-6.877-1.681-7.517-3.112-2.408-4.64-2.408-4.64l.725-.978,3.346,2.635s3.987,3.162,5.855,3.489S334.186,589.6,334.186,589.6Z" transform="translate(36.354 999.146)" fill="#fbbebe"/>
    <path id="Path_56" data-name="Path 56" d="M334.186,589.6s-6.877-1.681-7.517-3.112-2.408-4.64-2.408-4.64l.725-.978,3.346,2.635s3.987,3.162,5.855,3.489S334.186,589.6,334.186,589.6Z" transform="translate(36.354 999.146)" opacity="0.05"/>
    <path id="Path_57" data-name="Path 57" d="M349.766,583.18v3.731h-.6A17.453,17.453,0,0,0,340.7,589.1l-1.123.622-.3.169-1.931-4.348,1.808-1.62h.092a10.9,10.9,0,0,0,3.162-.071,5.133,5.133,0,0,1,3.989-.511c1.117.285,2.068,1.536,3.162,1.146Z" transform="translate(26.721 997.474)" fill="#fbbebe"/>
    <path id="Path_58" data-name="Path 58" d="M369.4,545.677l1.246,1.4v3.394s-1.054,10.714-4.421,11.9-9.367-.685-9.367-.685-1.552-4.11-.827-4.361,6.413-1.75,6.413-1.75-.082-6.284,1.165-8.152c0,0-.809-5.855,1.992-5.979S369.4,545.677,369.4,545.677Z" transform="translate(13.097 1028.186)" opacity="0.1"/>
    <path id="Path_59" data-name="Path 59" d="M370.091,545.677l1.246,1.4v3.394s-1.054,10.714-4.424,11.9-9.365-.685-9.365-.685-1.552-4.11-.827-4.361,6.411-1.75,6.411-1.75-.079-6.284,1.167-8.152c0,0-.812-5.855,1.992-5.979S370.091,545.677,370.091,545.677Z" transform="translate(12.588 1028.186)" fill="#ff748e"/>
    <path id="Path_60" data-name="Path 60" d="M347.99,477.554a2.454,2.454,0,0,0-.142-1.212.93.93,0,0,0-.985-.569c-.527.124-.764.817-1.286.983a1.021,1.021,0,0,1-1.133-.582,2.977,2.977,0,0,1-.216-1.354v-1.562a2.574,2.574,0,0,0-.369-1.623,2.881,2.881,0,0,0-2.134-.772,1.81,1.81,0,0,0-1.22.49,1.581,1.581,0,0,1-1.283.459,1.109,1.109,0,0,1-.893-.775.064.064,0,0,1,0-.021,6.353,6.353,0,1,1,9.449,8.432A17.6,17.6,0,0,0,347.99,477.554Z" transform="translate(25.994 1081.912)" opacity="0.1"/>
    <path id="Path_61" data-name="Path 61" d="M334.609,460.817a1.117,1.117,0,0,1-.9-.775c-.05-.2-.037-.416-.1-.614-.145-.49-.667-.746-1.017-1.117a2.5,2.5,0,0,1-.161-2.864,2.07,2.07,0,0,1,1.995-1.191c.5.09.938.448,1.449.48a2.941,2.941,0,0,0,1.389-.448,5.228,5.228,0,0,1,3.441-.306,1.992,1.992,0,0,1,.949.477,8.074,8.074,0,0,1,.506.711,3.952,3.952,0,0,0,2.545,1.054c.925.169,1.974.527,2.277,1.425a3.74,3.74,0,0,1-.108,1.844.527.527,0,0,0,.024.382c.145.24.506.14.79.195.527.111.659.79.677,1.317q.037.917.05,1.844a2.37,2.37,0,0,1-.053.682,2.416,2.416,0,0,1-.527.856l-2.058,2.471c-.912,1.1-1.879,2.371-1.7,3.786A.879.879,0,0,1,343,470.4a2.792,2.792,0,0,1,.068-1.4,17.218,17.218,0,0,0,.324-2.432,2.461,2.461,0,0,0-.142-1.215.933.933,0,0,0-.988-.569c-.527.124-.762.817-1.283.983a1.018,1.018,0,0,1-1.133-.582,3.012,3.012,0,0,1-.216-1.354v-1.562a2.574,2.574,0,0,0-.369-1.623,2.877,2.877,0,0,0-2.134-.772,1.81,1.81,0,0,0-1.22.49A1.581,1.581,0,0,1,334.609,460.817Z" transform="translate(30.604 1092.717)" fill="#7c5c5c"/>
    <path id="Path_62" data-name="Path 62" d="M347.15,554.57l1.952,8.01S350.639,562.572,347.15,554.57Z" transform="translate(19.496 1018.516)" opacity="0.1"/>
    <path id="Path_63" data-name="Path 63" d="M367.45,549.48s-2.556,4.184-1.557,8.508l.474.034S365.519,556.02,367.45,549.48Z" transform="translate(5.861 1022.265)" opacity="0.1"/>
    <path id="Path_64" data-name="Path 64" d="M378.59,638.688s3.135-1.038,3.365,1.37C381.955,640.058,381.362,638.406,378.59,638.688Z" transform="translate(-3.66 956.726)" opacity="0.1"/>
    <path id="Path_65" data-name="Path 65" d="M329.227,586.83s-.622,4.361.5,6.105a13.687,13.687,0,0,1-5.481.746l-.374-6.851Z" transform="translate(36.642 994.756)" opacity="0.1"/>
    <path id="Path_66" data-name="Path 66" d="M339.574,591.919l-.3.169-1.931-4.348,1.808-1.62h.092C339.211,586.331,338.708,590.075,339.574,591.919Z" transform="translate(26.721 995.279)" opacity="0.1"/>
    <path id="Path_67" data-name="Path 67" d="M324.182,586.12s-.622,4.361.5,6.1a13.685,13.685,0,0,1-5.481.746l-2.179-6.851Z" transform="translate(41.687 995.279)" fill="#ff748e"/>
    <path id="Path_68" data-name="Path 68" d="M282.476,847.669a1.407,1.407,0,0,1-1.209,1.233,45.1,45.1,0,0,0-6.793,1.386c-1.317.624-6.477.187-6.727-.435a.988.988,0,0,1,.09-.751,2.052,2.052,0,0,1,1.209-1.054c.975-.327,2.814-1.014,3.309-1.736a21.18,21.18,0,0,0,2.946-3.091,1.491,1.491,0,0,1,1.2-.746c.545-.026,1.151.25,1.4,1.444,0,0,2.988,1.7,3.8.211a8.209,8.209,0,0,0,.619,2.925h0A.825.825,0,0,1,282.476,847.669Z" transform="translate(78.004 806.473)" fill="#a27772"/>
    <path id="Path_69" data-name="Path 69" d="M282.476,860.452a1.407,1.407,0,0,1-1.209,1.233,45.114,45.114,0,0,0-6.793,1.386c-1.317.624-6.477.187-6.727-.435a.988.988,0,0,1,.09-.751,1.994,1.994,0,0,1,.835-.9c.843.559,2.714,1.107,6.83.464a30.218,30.218,0,0,0,6.817-1.623h0A.825.825,0,0,1,282.476,860.452Z" transform="translate(78.004 793.689)" opacity="0.1"/>
    <g id="Group_12" data-name="Group 12" transform="translate(362.67 1549.49)" opacity="0.1">
      <path id="Path_70" data-name="Path 70" d="M388.2,471.634a.137.137,0,0,0,0-.032,5.676,5.676,0,0,0,.192-1.412,8.936,8.936,0,0,1-.192,1.133A.689.689,0,0,0,388.2,471.634Z" transform="translate(-373.395 -468.828)"/>
      <path id="Path_71" data-name="Path 71" d="M343.232,473.655a1.845,1.845,0,0,1,.153.711,2.137,2.137,0,0,0-.153-.991.935.935,0,0,0-.988-.572c-.527.124-.762.819-1.283.985a1.022,1.022,0,0,1-1.133-.585,2.944,2.944,0,0,1-.216-1.354v-1.56a2.574,2.574,0,0,0-.369-1.623,2.885,2.885,0,0,0-2.137-.775,1.8,1.8,0,0,0-1.217.493,1.581,1.581,0,0,1-1.283.456,1.1,1.1,0,0,1-.9-.775c-.053-.2-.037-.414-.1-.614-.145-.49-.667-.743-1.017-1.115a2.05,2.05,0,0,1-.527-1.317,2.132,2.132,0,0,0,.527,1.6c.35.372.872.627,1.017,1.117.061.2.045.414.1.614a1.115,1.115,0,0,0,.9.775,1.581,1.581,0,0,0,1.283-.458,1.826,1.826,0,0,1,1.215-.487,2.875,2.875,0,0,1,2.137.775,2.587,2.587,0,0,1,.369,1.623v1.56a2.949,2.949,0,0,0,.216,1.357,1.021,1.021,0,0,0,1.133.582c.527-.166.751-.859,1.283-.986A.941.941,0,0,1,343.232,473.655Z" transform="translate(-332.06 -465.02)"/>
      <path id="Path_72" data-name="Path 72" d="M381.861,490.153a2.45,2.45,0,0,1-.527.859q-1.033,1.233-2.058,2.469c-.864,1.041-1.781,2.245-1.715,3.573a6.086,6.086,0,0,1,1.715-3.291l2.058-2.472a2.441,2.441,0,0,0,.527-.856,2.373,2.373,0,0,0,.053-.685A1.711,1.711,0,0,1,381.861,490.153Z" transform="translate(-365.569 -483.234)"/>
      <path id="Path_73" data-name="Path 73" d="M373.317,514.955a1.471,1.471,0,0,1-.063-.335,1.668,1.668,0,0,0,.063.614.878.878,0,0,0,1.086.632c0-.092-.018-.185-.021-.264A.889.889,0,0,1,373.317,514.955Z" transform="translate(-362.395 -501.551)"/>
    </g>
    <path id="Path_74" data-name="Path 74" d="M295,847.42s.651,1.144,3.012.134" transform="translate(57.904 802.829)" opacity="0.1"/>
    <path id="Path_75" data-name="Path 75" d="M370.65,848.46s2.037,2.4,4.6.79" transform="translate(2.188 802.063)" opacity="0.1"/>
    <path id="Path_76" data-name="Path 76" d="M388.97,740.94s-1.439.9-1.486,1.412.743-.374.743-.374Z" transform="translate(-10.209 881.253)" opacity="0.1"/>
    <path id="Path_77" data-name="Path 77" d="M388.067,767.08a2.986,2.986,0,0,1-1.771.69c-1.075.047-.985,1.449-.282,1.028A17.7,17.7,0,0,0,388.067,767.08Z" transform="translate(-8.739 862)" opacity="0.1"/>
    <path id="Path_78" data-name="Path 78" d="M392.822,770.49s-.69,3.388-1.252,2.735" transform="translate(-13.22 859.489)" opacity="0.1"/>
    <g id="Group_13" data-name="Group 13" transform="translate(408.547 1552.016)" opacity="0.5">
      <rect id="Rectangle_334" data-name="Rectangle 334" width="17.391" height="3.689" fill="#dce0ed"/>
      <rect id="Rectangle_335" data-name="Rectangle 335" width="17.391" height="3.689" transform="translate(39.932)" fill="#dce0ed"/>
      <rect id="Rectangle_336" data-name="Rectangle 336" width="17.391" height="3.689" transform="translate(79.865)" fill="#dce0ed"/>
    </g>
    <ellipse id="Ellipse_53" data-name="Ellipse 53" cx="7.096" cy="1.199" rx="7.096" ry="1.199" transform="translate(528.338 1641.098)" fill="#7e37b5" opacity="0.1"/>
    <ellipse id="Ellipse_54" data-name="Ellipse 54" cx="7.096" cy="1.199" rx="7.096" ry="1.199" transform="translate(307.66 1656.236)" fill="#0389ff" opacity="0.1"/>
    <ellipse id="Ellipse_55" data-name="Ellipse 55" cx="10.595" cy="1.792" rx="10.595" ry="1.792" transform="translate(509.309 1653.354)" fill="#0389ff"/>
    <path id="Path_79" data-name="Path 79" d="M918.023,841.24a3.066,3.066,0,0,0,1.009-1.526,1.353,1.353,0,0,0-.7-1.552,1.985,1.985,0,0,0-1.868.656,2.49,2.49,0,0,1-1.813.875,2.767,2.767,0,0,0,.854-2.585,1.074,1.074,0,0,0-.237-.527c-.361-.385-1.012-.221-1.444.082-1.37.964-1.752,2.825-1.76,4.5a8.454,8.454,0,0,1-.024-1.844,1.905,1.905,0,0,0-.7-1.642,2.109,2.109,0,0,0-1.054-.248,2.19,2.19,0,0,0-1.723.487,1.7,1.7,0,0,0,.066,2.108,6.859,6.859,0,0,0,1.784,1.428,3.987,3.987,0,0,1,1.275,1.215,1.273,1.273,0,0,1,.092.219h3.863A10.828,10.828,0,0,0,918.023,841.24Z" transform="translate(-393.74 810.978)" fill="#0389ff"/>
    <path id="Path_80" data-name="Path 80" d="M140.311,807.19s1.449,1.894-.667,4.743-3.86,5.27-3.162,7.054c0,0,3.194-5.309,5.8-5.383S143.17,810.384,140.311,807.19Z" transform="translate(174.769 832.459)" fill="#0389ff"/>
    <path id="Path_81" data-name="Path 81" d="M140.55,807.19a2.372,2.372,0,0,1,.3.6c2.535,2.977,3.884,5.757,1.447,5.826-2.269.066-4.991,4.124-5.644,5.149a2.432,2.432,0,0,0,.076.234s3.194-5.309,5.8-5.383S143.409,810.384,140.55,807.19Z" transform="translate(174.53 832.459)" opacity="0.1"/>
    <path id="Path_82" data-name="Path 82" d="M160.732,815.144c0,.667-.074,1.207-.166,1.207s-.166-.527-.166-1.207.092-.353.184-.353S160.732,814.477,160.732,815.144Z" transform="translate(157.039 826.919)" fill="#ffd037"/>
    <path id="Path_83" data-name="Path 83" d="M161.98,818.089c-.585.319-1.1.511-1.138.43s.393-.406.978-.725.356-.087.4,0S162.565,817.77,161.98,818.089Z" transform="translate(156.715 824.77)" fill="#ffd037"/>
    <path id="Path_84" data-name="Path 84" d="M113.348,807.19s-1.449,1.894.667,4.743,3.86,5.27,3.162,7.054c0,0-3.191-5.309-5.8-5.383S110.489,810.384,113.348,807.19Z" transform="translate(194.089 832.459)" fill="#0389ff"/>
    <path id="Path_85" data-name="Path 85" d="M113.332,807.19a2.371,2.371,0,0,0-.3.6c-2.535,2.977-3.884,5.757-1.447,5.826,2.269.066,4.991,4.124,5.644,5.149a1.885,1.885,0,0,1-.079.234s-3.191-5.309-5.8-5.383S110.473,810.384,113.332,807.19Z" transform="translate(194.105 832.459)" opacity="0.1"/>
    <path id="Path_86" data-name="Path 86" d="M112.22,815.144c0,.667.076,1.207.169,1.207s.166-.527.166-1.207-.092-.353-.184-.353S112.22,814.477,112.22,815.144Z" transform="translate(192.523 826.919)" fill="#ffd037"/>
    <path id="Path_87" data-name="Path 87" d="M107.723,818.089c.585.319,1.093.511,1.138.43s-.393-.406-.978-.725-.356-.087-.4,0S107.138,817.77,107.723,818.089Z" transform="translate(196.098 824.77)" fill="#ffd037"/>
    <path id="Path_88" data-name="Path 88" d="M114,844.934s4.047-.126,5.27-.993,6.226-1.908,6.529-.514,6.081,6.927,1.512,6.964-10.616-.711-11.833-1.452S114,844.934,114,844.934Z" transform="translate(191.213 806.271)" fill="#a8a8a8"/>
    <path id="Path_89" data-name="Path 89" d="M127.361,856.007c-4.569.037-10.619-.712-11.836-1.452-.925-.567-1.3-2.593-1.418-3.526h-.137s.263,3.262,1.476,4.005,7.265,1.489,11.833,1.452c1.317,0,1.773-.479,1.75-1.175C128.844,855.739,128.341,856,127.361,856.007Z" transform="translate(191.234 800.171)" opacity="0.2"/>
    <path id="Path_90" data-name="Path 90" d="M494.65,538.9a9.573,9.573,0,0,1,9.77-9.523h.076V526.93h-.076A12.025,12.025,0,0,0,492.2,538.9a12.19,12.19,0,0,0,4.188,9.2l1.735-1.737A9.749,9.749,0,0,1,494.65,538.9Z" transform="translate(-87.334 1038.873)" fill="#0389ff"/>
    <path id="Path_91" data-name="Path 91" d="M517.115,526.94v2.451a9.768,9.768,0,1,1-6.374,17.224L509,548.351a12.216,12.216,0,1,0,8.11-21.411Z" transform="translate(-99.708 1038.865)" fill="#0389ff" opacity="0.5"/>
    <path id="Path_92" data-name="Path 92" d="M818.1,528.91a9.573,9.573,0,0,1,9.523,9.77v.076h2.45v-.076A12.027,12.027,0,0,0,818.1,526.46a12.184,12.184,0,0,0-9.2,4.187l1.736,1.736a9.749,9.749,0,0,1,7.46-3.473Z" transform="translate(-320.586 1039.219)" fill="#0389ff" opacity="0.5"/>
    <path id="Path_93" data-name="Path 93" d="M820.963,551.39h-2.451a9.768,9.768,0,1,1-17.224-6.374l-1.729-1.736a12.216,12.216,0,1,0,21.411,8.11Z" transform="translate(-311.483 1026.831)" fill="#0389ff"/>
    <path id="Path_94" data-name="Path 94" d="M662.654,529.66l-.487,2.44a9.565,9.565,0,0,1,5.879,9.059,9.768,9.768,0,1,1-13.683-8.946l-1.086-2.2a12.216,12.216,0,1,0,17.23,11.146A12.019,12.019,0,0,0,662.654,529.66Z" transform="translate(-200.663 1036.862)" fill="#0389ff" opacity="0.5"/>
    <path id="Path_95" data-name="Path 95" d="M679.6,528.841a8.53,8.53,0,0,1,3.4.706l.487-2.437a10.775,10.775,0,0,0-3.889-.719,12.166,12.166,0,0,0-5.007,1.078l1.1,2.195A9.667,9.667,0,0,1,679.6,528.841Z" transform="translate(-221.665 1039.271)" fill="#0389ff"/>
  </g>
</svg>
