<?xml version="1.0" encoding="utf-8"?>
<!-- Generator: Adobe Illustrator 23.0.3, SVG Export Plug-In . SVG Version: 6.00 Build 0)  -->
<svg version="1.1" id="Layer_1" xmlns="http://www.w3.org/2000/svg" xmlns:xlink="http://www.w3.org/1999/xlink" x="0px" y="0px"
	 viewBox="0 0 288.9 212.4" style="enable-background:new 0 0 288.9 212.4;" xml:space="preserve">
<style type="text/css">
	.st0{enable-background:new    ;}
	.st1{fill:#0389FF;}
	.st2{opacity:0.1;fill:#0389FF;enable-background:new    ;}
	.st3{opacity:0.9;}
	.st4{fill:#3A3768;}
	.st5{fill:#E6E8EC;}
	.st6{opacity:0.1;enable-background:new    ;}
	.st7{fill:#FFD037;}
	.st8{fill:#A8A8A8;}
	.st9{opacity:0.2;enable-background:new    ;}
	.st10{opacity:0.3;fill:#3A3768;enable-background:new    ;}
	.st11{fill:#FFFFFF;}
	.st12{fill:#514E7F;}
	.st13{fill:#464353;}
	.st14{fill:#A1616A;}
	.st15{fill:#FBBEBE;}
	.st16{opacity:5.000000e-02;enable-background:new    ;}
	.st17{fill:#3F3D56;}
	.st18{fill:url(#Path_164_1_);}
	.st19{fill:#2D293D;}
	.st20{opacity:5.000000e-02;}
	.st21{fill:#FFCDD3;}
	.st22{fill:#DCE6F2;}
	.st23{fill:#575988;}
	.st24{opacity:0.1;}
</style>
<g id="Group_1256" transform="translate(-801.527 -1439.35)">
	<g id="Group_1254" transform="translate(7131 -14333)">
		<g class="st0">
			<path class="st1" d="M-6155.7,15912.6c-0.2,0-0.5,0.1-0.7,0.3c-0.2,0.1-0.4,0.3-0.6,0.4c-0.1,0.1-0.2,0.3-0.3,0.5
				c0,0.2-0.1,0.3,0,0.5c0,0.2,0.1,0.3,0.2,0.5c0.1,0.2,0.2,0.3,0.3,0.4c0.1,0.1,0.3,0.2,0.4,0.3c0.2,0.1,0.3,0.1,0.5,0.2
				c0.2,0,0.4,0,0.6-0.1s0.4-0.2,0.6-0.4c0.1-0.1,0.3-0.3,0.5-0.5c0.2-0.2,0.4-0.4,0.5-0.6c0.2-0.2,0.4-0.4,0.6-0.6
				c0.2-0.2,0.4-0.4,0.6-0.6c0.2-0.2,0.5-0.5,0.7-0.8c0.2-0.3,0.5-0.5,0.7-0.8l0.8,0.5c-0.3,0.3-0.5,0.6-0.8,0.8
				c-0.3,0.3-0.5,0.5-0.7,0.8l-1.2,1.3c-0.1,0.1-0.1,0.1-0.1,0.2c0,0.1-0.1,0.2-0.1,0.2c0,0.1,0,0.2,0,0.2c0,0.1,0.1,0.2,0.2,0.2
				l0,0l-0.6,0.6l0,0c-0.1-0.1-0.2-0.2-0.2-0.3c-0.1-0.1-0.1-0.2-0.1-0.3l0,0c-0.2,0.2-0.4,0.4-0.6,0.5c-0.2,0.1-0.4,0.2-0.6,0.2
				c-0.2,0-0.4,0-0.6,0c-0.2,0-0.4-0.1-0.6-0.1c-0.2-0.1-0.3-0.2-0.5-0.3c-0.1-0.1-0.3-0.2-0.4-0.3c-0.1-0.1-0.2-0.2-0.3-0.4
				c-0.1-0.1-0.2-0.3-0.2-0.5c-0.1-0.2-0.1-0.3-0.1-0.5c0-0.2,0-0.4,0-0.6c0-0.2,0.1-0.4,0.2-0.6c0.1-0.2,0.2-0.4,0.4-0.5
				c0,0,0,0,0,0c0.1-0.1,0.2-0.2,0.3-0.3c0.1-0.1,0.2-0.2,0.4-0.3c0.1-0.1,0.3-0.1,0.4-0.2c0.1-0.1,0.3-0.1,0.4-0.1L-6155.7,15912.6
				z"/>
			<path class="st1" d="M-6151,15917.7l-0.6,0.6l0,0c-0.2-0.2-0.3-0.3-0.3-0.5c-0.1-0.2-0.1-0.3-0.1-0.5c-0.1,0-0.3,0-0.4-0.1
				c-0.1-0.1-0.3-0.2-0.4-0.3s-0.3-0.2-0.4-0.4c-0.1-0.1-0.3-0.3-0.4-0.4l-0.1-0.1l0.6-0.6l0.1,0.1c0.2,0.2,0.4,0.3,0.5,0.5
				s0.3,0.2,0.4,0.2c0.1,0,0.2,0,0.3,0s0.2-0.1,0.3-0.2c0.1-0.1,0.1-0.1,0.2-0.3c0.1-0.1,0.2-0.3,0.3-0.5l0.8,0.4
				c0,0.1-0.1,0.2-0.1,0.2c0,0.1-0.1,0.1-0.1,0.2c0,0.1-0.1,0.1-0.2,0.2s-0.1,0.2-0.2,0.2c0,0.1-0.1,0.1-0.1,0.2
				c0,0.1-0.1,0.2-0.1,0.2s0,0.2,0,0.3C-6151.2,15917.5-6151.1,15917.6-6151,15917.7L-6151,15917.7z M-6149.9,15914.4h-0.8l0-0.8
				l0.8,0V15914.4z M-6149,15915.4l-0.8,0v-0.8h0.8L-6149,15915.4z"/>
			<path class="st1" d="M-6151.1,15917.6L-6151.1,15917.6c0.1,0.1,0.2,0.2,0.2,0.2c0,0,0.1,0.1,0.1,0.1c0,0,0.1,0.1,0.1,0.1
				s0.1,0.1,0.2,0.1c0-0.2,0.1-0.4,0.2-0.5c0.1-0.2,0.2-0.3,0.3-0.4c0.1-0.1,0.2-0.2,0.3-0.2c0.1-0.1,0.2-0.1,0.3-0.2
				c0.1,0,0.2-0.1,0.4-0.1c0.1,0,0.3,0,0.4,0c0,0,0,0,0-0.1c0,0,0-0.1-0.1-0.2l1-0.2c0,0,0,0,0,0.1c0,0.1,0,0.1,0.1,0.2
				s0.1,0.2,0.1,0.3c0,0.1,0.1,0.2,0.1,0.4c0,0.1,0.1,0.3,0.1,0.4s0.1,0.2,0.1,0.3c0.1,0.2,0.2,0.4,0.2,0.6s0.1,0.3,0.2,0.5
				c0,0.1,0.1,0.3,0.1,0.4c0,0.1,0,0.3,0,0.4c0,0.2-0.1,0.4-0.2,0.6c-0.1,0.1-0.1,0.2-0.2,0.3c-0.1,0.1-0.2,0.1-0.3,0.2
				c-0.1,0.1-0.3,0.1-0.5,0.2c-0.2,0-0.4,0-0.7,0c-0.1,0-0.2-0.1-0.2-0.1s-0.2-0.1-0.3-0.2c-0.1-0.1-0.2-0.1-0.3-0.2
				c-0.1-0.1-0.1-0.1-0.2-0.2c-0.1-0.1-0.1-0.1-0.2-0.2c-0.1-0.1-0.2-0.2-0.2-0.3s-0.1-0.2-0.2-0.3c-0.1-0.1-0.1-0.2-0.1-0.3
				c-0.2-0.1-0.4-0.3-0.7-0.4s-0.5-0.4-0.7-0.7l0,0L-6151.1,15917.6z M-6148.4,15917.7
				C-6148.4,15917.7-6148.4,15917.7-6148.4,15917.7c-0.1-0.1-0.2-0.1-0.3-0.1c-0.1,0-0.2,0-0.3,0c-0.1,0-0.2,0.1-0.3,0.1
				c-0.1,0-0.2,0.1-0.2,0.2c0,0,0,0,0,0.1c0,0.1-0.1,0.1-0.1,0.2c0,0.1-0.1,0.2-0.1,0.2c0,0.1,0,0.2,0,0.2c0,0.1,0,0.1,0.1,0.2
				c0.1,0.1,0.2,0.1,0.3,0.1c0.1,0,0.2,0,0.3,0s0.2,0,0.3-0.1c0.1,0,0.2-0.1,0.3-0.2c0,0,0.1,0,0.1-0.1c0.1-0.1,0.1-0.1,0.1-0.2
				c0-0.1,0-0.2,0-0.2c0-0.1,0-0.2,0-0.3C-6148.3,15917.8-6148.3,15917.7-6148.4,15917.7z M-6147.8,15919.2
				c-0.2,0.2-0.3,0.3-0.5,0.4s-0.4,0.2-0.6,0.2c0,0,0,0.1,0.1,0.1c0,0,0,0.1,0.1,0.1c0.1,0.1,0.2,0.2,0.3,0.3
				c0.1,0.1,0.2,0.1,0.3,0.1c0.1,0,0.2,0,0.3,0c0.1,0,0.2-0.1,0.2-0.1c0.1-0.1,0.1-0.1,0.1-0.2c0-0.1,0-0.2,0-0.3c0-0.1,0-0.2,0-0.3
				c0-0.1-0.1-0.2-0.1-0.4C-6147.6,15919.1-6147.7,15919.1-6147.8,15919.2C-6147.7,15919.2-6147.8,15919.2-6147.8,15919.2z"/>
		</g>
		<path id="Path_96" class="st2" d="M-6160.4,15801.7c-17.1-0.6-33.3-6.1-48.8-12.1s-30.9-12.7-47.5-15.9
			c-10.7-2.1-22.9-2.3-31.6,3.4c-8.3,5.5-11,15.1-12.4,23.9c-1.1,6.7-1.7,13.7,1.2,19.9c2.1,4.3,5.7,8,8.3,12.1
			c8.8,14.4,2.6,32.2-7,46.3c-4.5,6.6-9.7,12.9-13.1,19.9c-3.5,7-5.1,15.1-2,22.3c3,7.1,10.1,12.4,17.9,16.2
			c15.7,7.6,34.3,9.8,52.3,11c40,2.7,80.2,1.6,120.3,0.4c14.8-0.4,29.8-0.9,44.4-3.2c8.1-1.3,16.5-3.3,22.4-8.2
			c7.5-6.2,9.3-16.7,4.3-24.5c-8.4-13-31.6-16.3-37.5-30.3c-3.2-7.7,0.1-16.3,4.8-23.4c10.1-15.3,27-28.8,27.9-46.3
			c0.6-12-7.5-24.1-20.1-29.8c-13.2-6-31.4-5.2-41.1,4.7C-6127.7,15798.3-6145.3,15802.2-6160.4,15801.7z"/>
		<g id="Group_14" transform="translate(-6220.463 15801.897)" class="st3">
			<path id="Rectangle_337" class="st4" d="M78.8,36L78.8,36c0.6,0,1.2,0.5,1.2,1.2v16.9c0,0.6-0.5,1.2-1.2,1.2h0
				c-0.6,0-1.2-0.5-1.2-1.2V37.2C77.6,36.5,78.2,36,78.8,36z"/>
			<path id="Rectangle_338" class="st4" d="M0.7,20.9L0.7,20.9c0.4,0,0.7,0.3,0.7,0.7v5c0,0.4-0.3,0.7-0.7,0.7l0,0
				C0.3,27.3,0,27,0,26.6v-5C0,21.2,0.3,20.9,0.7,20.9z"/>
			<path id="Rectangle_339" class="st4" d="M0.7,32.5L0.7,32.5c0.4,0,0.7,0.3,0.7,0.7v9.5c0,0.4-0.3,0.7-0.7,0.7l0,0
				c-0.4,0-0.7-0.3-0.7-0.7v-9.5C0,32.9,0.3,32.5,0.7,32.5z"/>
			<path id="Rectangle_340" class="st4" d="M0.7,47.4L0.7,47.4c0.4,0,0.7,0.3,0.7,0.7v9.7c0,0.4-0.3,0.7-0.7,0.7l0,0
				c-0.4,0-0.7-0.3-0.7-0.7v-9.7C0,47.7,0.3,47.4,0.7,47.4z"/>
			<path id="Rectangle_341" class="st4" d="M10.8,0h58.1c5.5,0,10,4.5,10,10v138.7c0,5.5-4.5,10-10,10H10.8c-5.5,0-10-4.5-10-10V10
				C0.8,4.5,5.3,0,10.8,0z"/>
			<path id="Rectangle_342" class="st5" d="M33.4,4.7h8.7c0.6,0,1.1,0.5,1.1,1.1l0,0c0,0.6-0.5,1.1-1.1,1.1h-8.7
				c-0.6,0-1.1-0.5-1.1-1.1l0,0C32.3,5.2,32.8,4.7,33.4,4.7z"/>
			<ellipse id="Ellipse_56" class="st5" cx="46.1" cy="5.8" rx="1.3" ry="1.3"/>
		</g>
		<ellipse id="Ellipse_57" class="st2" cx="-6237.5" cy="15964.5" rx="52.7" ry="5.4"/>
		<ellipse id="Ellipse_58" class="st2" cx="-6149.6" cy="15982.2" rx="24.7" ry="2.5"/>
		<ellipse id="Ellipse_59" class="st2" cx="-6065.2" cy="15969.5" rx="24.7" ry="2.5"/>
		<path id="Path_97" class="st1" d="M-6152.6,15806h-8.9v1.1c0,2.8-2.3,5.1-5.1,5.1l0,0h-28.5c-2.8,0-5.1-2.3-5.1-5.1c0,0,0,0,0,0
			v-1.1h-8.4c-3.4,0-6.2,2.8-6.2,6.2c0,0,0,0,0,0v138.1c0,3.4,2.8,6.2,6.2,6.2l0,0h56c3.4,0,6.2-2.8,6.2-6.2l0,0v-138.1
			C-6146.4,15808.8-6149.2,15806-6152.6,15806C-6152.6,15806-6152.6,15806-6152.6,15806z"/>
		<path id="Path_98" class="st1" d="M-6114.5,15794.9c0,0-22.2-1.3-19.6,14.2c-0.3,1.6,0.5,3.2,2,4c0,0,0-1.2,2.3-0.8
			c0.8,0.1,1.6,0.2,2.4,0.1c1.1-0.1,2.1-0.5,2.9-1.2l0,0c0,0,6.2-2.6,8.7-12.8c0,0,1.8-2.2,1.7-2.8l-3.7,1.6c0,0,1.3,2.7,0.3,4.9
			c0,0-0.1-4.8-0.8-4.7c-0.1,0-1.9,0.9-1.9,0.9s2.2,4.7,0.5,8.1c0,0,0.6-5.8-1.2-7.8l-2.6,1.5c0,0,2.6,4.9,0.8,8.8
			c0,0,0.4-6.1-1.4-8.5l-2.4,1.9c0,0,2.4,4.8,0.9,8.1c0,0-0.2-7.1-1.5-7.6c-0.9,0.8-1.7,1.6-2.4,2.6c0,0,1.7,3.5,0.6,5.3
			c0,0-0.6-4.7-1.1-4.7c0,0-2.1,3.1-2.3,5.3c0.1-2,0.7-3.9,1.8-5.6c-1.2,0.2-2.3,0.8-3.2,1.6c0,0,0.3-2.2,3.7-2.4
			c0.6-0.9,1.4-1.8,2.2-2.5c-1.8-0.2-3.7,0.1-5.4,0.6c0,0,1.8-2.1,6-1.1l2.4-1.9c0,0-4.4-0.6-6.3,0.1c0,0,2.2-1.8,6.9-0.5l2.6-1.5
			c-2-0.4-4-0.6-6-0.5c0,0,2.4-1.3,6.8,0.1l1.8-0.8c0,0-2.8-0.5-3.6-0.6c-0.8-0.1-0.9-0.3-0.9-0.3c1.8-0.3,3.6-0.1,5.2,0.6
			C-6118.4,15796.6-6114.5,15795.2-6114.5,15794.9z"/>
		<path id="Path_99" class="st1" d="M-6137.3,15788c0,0-10-0.6-8.8,6.4c-0.1,0.7,0.2,1.5,0.9,1.8c0,0,0-0.5,1-0.3
			c0.4,0.1,0.7,0.1,1.1,0.1c0.5,0,1-0.2,1.3-0.5l0,0c0,0,2.8-1.2,3.9-5.8c0,0,0.8-1,0.8-1.3l-1.7,0.7c0.3,0.7,0.4,1.5,0.1,2.2
			c0,0-0.1-2.2-0.4-2.1c-0.1,0-0.9,0.4-0.9,0.4s1,2.1,0.2,3.7c0,0,0.3-2.6-0.6-3.5l-1.2,0.7c0,0,1.2,2.2,0.4,4c0,0,0.2-2.7-0.6-3.8
			l-1.1,0.8c0,0,1.1,2.2,0.4,3.6c0,0-0.1-3.2-0.7-3.4c-0.4,0.3-0.8,0.7-1.1,1.2c0,0,0.7,1.6,0.3,2.4c0,0-0.3-2.1-0.5-2.1
			c-0.5,0.7-0.8,1.5-1,2.4c0-0.9,0.3-1.8,0.8-2.5c-0.5,0.1-1,0.4-1.4,0.7c0,0,0.1-1,1.7-1.1c0.3-0.4,0.6-0.8,1-1.1
			c-0.8-0.1-1.7,0-2.4,0.3c0.7-0.6,1.8-0.9,2.7-0.5l1.1-0.9c-0.9-0.1-1.9-0.1-2.8,0c0,0,1-0.8,3.1-0.2l1.2-0.7
			c-0.9-0.2-1.8-0.3-2.7-0.2c1-0.4,2.1-0.4,3.1,0l0.8-0.4c0,0-1.2-0.2-1.6-0.3c-0.4,0-0.4-0.1-0.4-0.1c0.8-0.1,1.6,0,2.3,0.3
			C-6138.4,15788.6-6137.8,15788.3-6137.3,15788z"/>
		<ellipse id="Ellipse_60" class="st1" cx="-6318.9" cy="15951.1" rx="10.6" ry="1.8"/>
		<path id="Path_100" class="st1" d="M-6314.5,15948.2c0.5-0.4,0.8-0.9,1-1.5c0.2-0.6-0.1-1.3-0.7-1.6c-0.6-0.3-1.3,0.2-1.9,0.7
			c-0.5,0.5-1.1,0.9-1.8,0.9c0.7-0.7,1-1.6,0.8-2.6c0-0.2-0.1-0.4-0.2-0.5c-0.4-0.4-1-0.2-1.4,0.1c-1.4,1-1.8,2.8-1.8,4.5
			c-0.1-0.6-0.1-1.2,0-1.8c0.1-0.6-0.2-1.2-0.7-1.6c-0.3-0.2-0.7-0.3-1.1-0.3c-0.6-0.1-1.2,0.1-1.7,0.5c-0.5,0.6-0.4,1.5,0.1,2.1
			c0.5,0.6,1.1,1.1,1.8,1.4c0.5,0.3,0.9,0.7,1.3,1.2c0,0.1,0.1,0.1,0.1,0.2h3.9C-6316,15949.4-6315.2,15948.9-6314.5,15948.2z"/>
		<path id="Path_101" class="st1" d="M-6110.6,15926.1c0,0,2.3,3-1.1,7.5s-6.1,8.3-5,11.1c0,0,5-8.4,9.1-8.5
			C-6103.4,15936.1-6106.1,15931.1-6110.6,15926.1z"/>
		<path id="Path_102" class="st6" d="M-6110.6,15926.1c0.2,0.3,0.4,0.6,0.5,0.9c4,4.7,6.1,9.1,2.3,9.2c-3.6,0.1-7.9,6.5-8.9,8.1
			c0,0.1,0.1,0.2,0.1,0.4c0,0,5-8.4,9.1-8.5C-6103.4,15936.1-6106.1,15931.1-6110.6,15926.1z"/>
		<path id="Path_103" class="st7" d="M-6106.4,15929.9c0,1.1-0.1,1.9-0.3,1.9s-0.3-0.9-0.3-1.9s0.1-0.6,0.3-0.6
			S-6106.4,15928.9-6106.4,15929.9z"/>
		<path id="Path_104" class="st7" d="M-6104.9,15931.2c-0.9,0.5-1.7,0.8-1.8,0.7c-0.1-0.1,0.6-0.6,1.5-1.1c0.9-0.5,0.6-0.1,0.6,0
			C-6104.5,15930.8-6104,15930.6-6104.9,15931.2z"/>
		<path id="Path_105" class="st1" d="M-6122.7,15926.1c0,0-2.3,3,1.1,7.5s6.1,8.3,5,11.1c0,0-5-8.4-9.1-8.5
			C-6129.9,15936.1-6127.2,15931.1-6122.7,15926.1z"/>
		<path id="Path_106" class="st6" d="M-6122.7,15926.1c-0.2,0.3-0.4,0.6-0.5,0.9c-4,4.7-6.1,9.1-2.3,9.2c3.6,0.1,7.9,6.5,8.9,8.1
			c0,0.1-0.1,0.2-0.1,0.4c0,0-5-8.4-9.1-8.5C-6129.9,15936.1-6127.2,15931.1-6122.7,15926.1z"/>
		<path id="Path_107" class="st7" d="M-6126.9,15929.9c0,1.1,0.1,1.9,0.3,1.9s0.3-0.9,0.3-1.9s-0.1-0.6-0.3-0.6
			S-6126.9,15928.9-6126.9,15929.9z"/>
		<path id="Path_108" class="st7" d="M-6128.4,15931.2c0.9,0.5,1.7,0.8,1.8,0.7c0.1-0.1-0.6-0.6-1.5-1.1c-0.9-0.5-0.6-0.1-0.6,0
			S-6129.3,15930.6-6128.4,15931.2z"/>
		<path id="Path_109" class="st8" d="M-6126.2,15944.3c0,0,6.4-0.2,8.3-1.6s9.8-3,10.3-0.8c0.5,2.2,9.6,10.9,2.4,11
			s-16.7-1.1-18.6-2.3S-6126.2,15944.3-6126.2,15944.3z"/>
		<path id="Path_110" class="st9" d="M-6105.1,15952.1c-7.2,0.1-16.7-1.1-18.6-2.3c-1.5-0.9-2-4.1-2.2-5.6h-0.2c0,0,0.4,5.1,2.3,6.3
			c1.9,1.2,11.4,2.3,18.6,2.3c2.1,0,2.8-0.8,2.8-1.8C-6102.8,15951.7-6103.5,15952.1-6105.1,15952.1z"/>
		<rect id="Rectangle_343" x="-6175.5" y="15900.9" class="st10" width="20.6" height="20.6"/>
		<rect id="Rectangle_344" x="-6205.8" y="15873.8" class="st10" width="20.6" height="20.6"/>
		<rect id="Rectangle_345" x="-6203.8" y="15927.6" class="st10" width="20.6" height="20.6"/>
		<rect id="Rectangle_346" x="-6208.4" y="15823.3" class="st11" width="20.6" height="20.6"/>
		
			<rect id="Rectangle_347" x="-6170" y="15897.7" transform="matrix(0.7417 -0.6707 0.6707 0.7417 -12261.0322 -22.5036)" class="st11" width="20.6" height="20.6"/>
		<rect id="Rectangle_348" x="-6175.8" y="15848.1" class="st11" width="20.6" height="20.6"/>
		<rect id="Rectangle_349" x="-6201.8" y="15871" class="st11" width="20.6" height="20.6"/>
		<path id="Path_117" class="st1" d="M-6073.4,15965.4c1.2,0.2,2.4,0.2,3.6-0.1c0.2-0.1,0.4-0.2,0.4-0.4c0-0.1,0-0.1-0.1-0.2
			c-0.4-0.6-0.8-1.3-1.1-2.1c0,0,0-0.1-0.1-0.1c0,0-0.1,0-0.1,0c-0.5,0.1-1,0.5-1.5,0.6c-0.3,0.1-0.5,0.1-0.8,0.1
			c-0.2,0-0.6-0.2-0.8-0.2C-6073.8,15963.8-6073.5,15964.6-6073.4,15965.4z"/>
		<path id="Path_118" class="st1" d="M-6050.8,15963.4c0.8-0.5,1.5-1.1,2.1-1.9c0,0,0.1-0.1,0.1-0.2c0-0.1,0-0.1-0.1-0.2
			c-0.4-0.7-1-1.3-1.7-1.8c-0.3,0.2-0.7,0.5-0.9,0.9c-0.2,0.2-0.7,0.6-0.8,0.9c0,0.2,0.2,0.4,0.3,0.5c0.1,0.2,0.3,0.4,0.4,0.6
			C-6051.1,15962.5-6050.9,15962.9-6050.8,15963.4z"/>
		<path id="Path_119" class="st12" d="M-6068.7,15967.8c0,0.2,0,0.4-0.1,0.5c-0.1,0.1-0.2,0.1-0.3,0.2c-1.7,0.6-3.6-0.1-5.3,0.4
			c-0.3,0.1-0.7,0.3-1,0.4c-0.4,0.1-0.8,0.2-1.3,0.2c-0.6,0.1-1.2,0.1-1.8,0.1c-0.4,0-0.9,0-1.3-0.1c-0.4-0.1-0.8-0.4-1-0.8
			c-0.1-0.2-0.1-0.4-0.1-0.6c0-0.1,0.1-0.1,0.1-0.2c0.1-0.1,0.3-0.2,0.4-0.3l0.6-0.4c0.3-0.2,0.6-0.4,0.9-0.5
			c0.2-0.1,0.5-0.1,0.7-0.2c0.8-0.3,1.6-0.9,2.1-1.6l0.8-0.9c0.1-0.1,0.2-0.2,0.3-0.2c0.1,0,0.2-0.1,0.4,0c0.8,0.1,1.6,0.3,2.3,0.8
			c0.2,0.1,0.4,0.2,0.6,0.3c0.5,0.2,1.1,0.1,1.6-0.2c0.2-0.1,0.2-0.2,0.3-0.4c0.1-0.2,0.3-0.3,0.5-0.1c0.1,0.1,0.1,0.1,0.1,0.2
			c0.1,0.6,0.2,1.2,0.1,1.9c0,0.1,0,0.2,0,0.3c0,0.1,0.1,0.2,0.2,0.3c0,0,0,0,0,0.1C-6068.7,15967.2-6068.7,15967.5-6068.7,15967.8z
			"/>
		<path id="Path_120" class="st13" d="M-6068.7,15967.8c0,0.2,0,0.4-0.1,0.5c-0.1,0.1-0.2,0.1-0.3,0.2c-1.7,0.6-3.6-0.2-5.3,0.4
			c-0.3,0.1-0.7,0.3-1,0.4c-0.4,0.1-0.8,0.2-1.3,0.2c-0.6,0.1-1.2,0.1-1.8,0.1c-0.4,0-0.9,0-1.3-0.1c-0.4-0.1-0.8-0.4-1-0.8
			c-0.1-0.2-0.1-0.4-0.1-0.6c0-0.1,0.1-0.1,0.1-0.2c0.1,0.2,0.2,0.5,0.2,0.6c0.2,0.3,0.5,0.5,0.8,0.6c0.2,0,0.5,0,0.7-0.1
			c1.5-0.2,3.1-0.5,4.6-1c0.5-0.2,1-0.4,1.5-0.6c0.5-0.1,1.1-0.1,1.6-0.1c0.9-0.1,1.7-0.3,2.5-0.5
			C-6068.7,15967.2-6068.7,15967.5-6068.7,15967.8L-6068.7,15967.8z"/>
		<path id="Path_121" class="st12" d="M-6046.9,15963.3c-0.1,0.6-0.4,1.2-0.9,1.6c-0.5,0.4-0.9,0.9-1.3,1.4c-0.3,0.7-0.7,1.4-1.2,2
			c-0.2,0.2-0.5,0.4-0.7,0.5c-0.3,0.2-0.6,0.3-0.9,0.4c-0.9,0.2-1.8,0.3-2.6,0.1c-0.3,0-0.6-0.1-0.8-0.2c-0.1-0.1-0.2-0.1-0.4-0.2
			c-0.2-0.1-0.4-0.3-0.5-0.5c-0.1-0.1-0.1-0.3-0.1-0.4c0.1-0.1,0.1-0.3,0.3-0.4c0.2-0.2,0.4-0.4,0.6-0.6c0.3-0.2,0.6-0.4,0.8-0.7
			c0.1-0.2,0.3-0.5,0.3-0.7c0.1-0.5,0.2-0.9,0.2-1.4c0-0.3,0-0.6,0.1-0.9c0.1-0.5,0.5-0.9,0.4-1.4c0-0.1,0-0.1,0-0.2
			c0,0,0.1-0.1,0.2-0.1c0.3-0.1,0.6-0.2,0.9-0.2c0.3,0,0.6,0.1,0.8,0.3c0.1,0.1,0.2,0.4,0.4,0.4c0.1,0,0.2,0,0.3,0
			c0.4,0,0.9-0.1,1.3-0.4c0.3-0.3,0.5-0.7,0.5-1.2c0-0.2-0.1-0.3,0.2-0.4c0.2,0,0.3,0.2,0.4,0.3c0.4,0.4,0.7,1,0.8,1.5
			c0.1,0,0.1,0,0.2,0c0.2,0,0.4,0.1,0.6,0.3C-6046.9,15962.7-6046.9,15963-6046.9,15963.3L-6046.9,15963.3z"/>
		<path id="Path_122" class="st13" d="M-6046.9,15963.3c-0.1,0.6-0.4,1.2-0.9,1.6c-0.5,0.4-0.9,0.9-1.3,1.4c-0.3,0.7-0.7,1.4-1.2,2
			c-0.2,0.2-0.5,0.4-0.7,0.5c-0.3,0.2-0.6,0.3-0.9,0.4c-0.9,0.2-1.8,0.3-2.6,0.1c-0.3,0-0.6-0.1-0.8-0.2c-0.1-0.1-0.2-0.1-0.4-0.2
			c-0.2-0.1-0.4-0.3-0.5-0.5c0.2-0.1,0.4-0.1,0.5-0.1c0.4,0,0.7,0.4,1.1,0.5c0.5,0.2,1.1-0.2,1.6-0.3c0.4-0.1,0.7-0.1,1.1-0.2
			c0.3-0.1,0.6-0.3,0.8-0.5c0.3-0.2,0.6-0.5,0.8-0.8c0.2-0.3,0.4-0.6,0.5-1c0.3-0.7,0.6-1.3,1-1.9c0.1-0.1,0.1-0.2,0.2-0.3
			c0.1-0.1,0.2-0.1,0.3-0.2c0.3-0.3,0.6-0.7,0.6-1.2c0-0.1,0.1-0.3,0.1-0.4c0.2,0,0.4,0.1,0.6,0.3
			C-6047,15962.7-6046.9,15963-6046.9,15963.3z"/>
		<path id="Path_123" class="st14" d="M-6084.8,15907c0.4,0.3,0.8,0.8,1.1,1.3c0.7,1.6,1.3,3.2,1.6,4.9c0.5-0.5,2.4-0.6,2.8-1
			c0.2-0.2,1.3-1.2,1.4-1.4c0.2-0.2,1.4-0.7,1.5-1c0.5-0.9-3.5-4.2-3-5.1c0,0,0-0.1,0-0.1c0,0,0-0.1-0.1-0.1
			c-0.4-0.3-0.7-0.6-1.2-0.8c-0.4-0.2-0.7-0.6-0.9-1.1c-0.4,0.2-0.7,0.4-1,0.7c-0.7,0.6-1.4,1.3-2.2,1.9c-0.3,0.3-0.8,0.6-0.9,1
			C-6085.6,15906.5-6085.1,15906.8-6084.8,15907z"/>
		<path id="Path_124" class="st12" d="M-6078.3,15905.6c-0.6,0.4-1.2,0.9-1.7,1.4c-0.5,0.5-0.9,1.1-1.1,1.7c0,0.3,0,0.5-0.1,0.8
			c-0.2,1.2-1.2,2-1.7,3.2c-0.1,0.3-0.2,0.7-0.3,1.1c-0.1,0.7-0.2,1.4-0.2,2.1c0,0.7,0.6,1.1,0.9,1.8c0.2,0.6,0.3,1.3,0.4,1.9
			c0.3,1.2,0.6,2.4,1.1,3.6c0.9,2.5,3.8,9.3,4.7,11.7c2.7-0.7,10-2.3,12.4-3.7c0.8-0.5-5.6-5.9-4.7-6.3c0.1,0,0.2-0.1,0.2-0.2
			c0-0.1,0-0.2,0-0.3c-0.9-3.8-3.6-6.9-4.8-10.5c-0.5-1.2-1.1-2.4-1.8-3.6c-0.5-1.1-0.8-2.3-1.4-3.3c-0.1-0.2-0.3-0.4-0.5-0.6
			c-0.2-0.1-0.3-0.2-0.5-0.3C-6077.7,15905.8-6078,15905.7-6078.3,15905.6z"/>
		<ellipse id="Ellipse_61" class="st14" cx="-6084.6" cy="15902.3" rx="4.3" ry="4.3"/>
		<path id="Path_125" class="st13" d="M-6080.3,15904.3c0.4-0.4,1.1-0.5,1.6-0.2c0.3,0.1,0.5,0.4,0.5,0.8l2.1,0c0.3,0,0.7,0,1,0.1
			c0.3,0.1,0.6,0.3,0.8,0.5c0,0,0.1,0.1,0.1,0.1c0,0,0.1,0,0.1,0c0.3-0.2,0.7-0.2,1.1-0.2c1.1,0.1,2.2,0.6,3.1,1.4
			c0.2,0.1,0.3,0.3,0.4,0.5c0.1,0.2,0,0.5,0.2,0.7c0.2,2,0.5,3.9,1.1,5.8c0.1,0.3,0.4,0.7,0.6,0.9c0.3,0.3,0.5,0.6,0.7,1
			c0.4,1-0.1,2.2,0.2,3.2c0.2,0.4,0.4,0.8,0.7,1.1c0.3,0.4,0.6,0.9,0.6,1.5c0,0.2,0,0.5,0,0.7c0,0.3,0.1,0.6,0.2,1
			c0.2,0.6,0.3,1.2,0.5,1.7c0.2,1,0.7,1.8,1.5,2.5c-2,0.3-4.2,0.7-6.1,0c-0.3-0.1-0.5-0.2-0.8-0.4c-0.6-0.6-1.1-1.3-1.3-2.2
			c-0.4-0.9-0.6-1.8-0.7-2.8c0-0.3,0-0.6-0.1-0.9c-0.3-0.5-0.7-0.9-1.2-1.1c-0.5-0.3-1-0.7-1.4-1.1c-0.4-0.5-0.6-1.1-0.6-1.7
			c0-0.3,0.2-0.6,0.2-0.9c0-0.3-0.1-0.6-0.4-0.7c-1.5-0.4-2.2-2.2-2.5-3.7c-0.1-0.8-0.2-1.6-0.2-2.4l0-1.5c-0.4-0.4-0.7-0.9-0.7-1.5
			c0-0.2,0-0.3,0-0.5c-0.1-0.2-0.2-0.4-0.3-0.5C-6079.8,15905.1-6080.1,15904.7-6080.3,15904.3z"/>
		<path id="Path_126" class="st13" d="M-6084.8,15909.2c0,0.5,0,1,0,1.4c0,0.2-0.1,0.3-0.2,0.5c-0.2,0.7-0.1,1.4,0.2,2
			c0.3,0.6,0.6,1.2,1,1.8c0.1,0.2,0.2,0.4,0.3,0.6c0.1,0.2,0.1,0.5,0.1,0.7c0.1,1,0.3,1.9,0.5,2.8c0.2,0.8,0.5,1.6,1,2.3
			c0.1,0.1,0.2,0.2,0.4,0.3c0.1,0,0.2,0,0.3-0.1l1.1-0.4c0.1,0,0.2-0.1,0.3-0.1c0.1-0.1,0.2-0.3,0.2-0.4c0-0.9-0.1-1.8-0.5-2.6
			c-1-2.5-1.9-5-2.6-7.5c-0.1-0.9-0.3-1.7-0.8-2.4c-0.2-0.2-0.1-0.1-0.4,0c-0.1,0.1-0.3,0.1-0.4,0.2
			C-6084.6,15908.4-6084.8,15908.8-6084.8,15909.2L-6084.8,15909.2z"/>
		<path id="Path_127" class="st13" d="M-6064,15924.8"/>
		<path id="Path_128" class="st1" d="M-6081.6,15913.9c0.3,1.5,0.6,3.1,0.9,4.6l4.2-1.1c0-0.4-0.2-0.9-0.4-1.3c-0.4-1-0.4-2-0.7-3
			c-0.2-0.8-0.6-1.5-0.9-2.2c-0.1-0.4-0.2-0.9-0.3-1.4c-0.1-0.4-0.3-0.9-0.5-1.3c-0.2-0.6-0.5-1.2-0.9-1.7c-0.6,0.1-1.1,0.5-1.4,0.9
			c-0.2,0.3-0.3,0.6-0.3,0.9c-0.1,1,0.3,1.9,0.2,2.9C-6081.8,15912.1-6081.7,15913.1-6081.6,15913.9L-6081.6,15913.9z"/>
		<path id="Path_129" class="st13" d="M-6076.4,15934.4c0.1,0.9,0,1.9-0.4,2.7c-0.4,1.3-0.7,2.7-0.9,4.1c0,0.4-0.1,0.7-0.2,1.1
			c-0.2,0.3-0.3,0.6-0.5,0.8c-0.4,0.8-0.5,1.7-0.3,2.5c0.1,0.6,0.2,1.1,0.3,1.7c0.2,0.7,0.2,1.4,0.1,2.1c0.3-0.1,0.6,0.4,0.6,0.7
			s-0.1,0.7,0,1c0.4,0.1,0.4,0.7,0.4,1.2c0,0.8,0.1,1.5,0.3,2.3c0.6,3,1.3,6,2,9c1.5,0.5,3.3,1,4.8,0.3c0.3-0.1,0.5-0.3,0.6-0.6
			c0-0.2,0-0.3-0.1-0.5l-0.7-2.5c-0.2-0.6-0.3-1.2-0.2-1.8c0.1-0.5,0.3-1,0-1.4c-0.1-0.1-0.2-0.3-0.3-0.4c-0.4-0.5-0.2-1.2-0.1-1.9
			c0-0.1,0-0.3,0-0.4c0-0.2-0.1-0.3-0.2-0.5c-0.6-1.1-0.8-2.3-0.8-3.6c0-0.2,0-0.3-0.1-0.5c0-0.1-0.1-0.1-0.1-0.2c0-0.1,0-0.2,0-0.3
			c-0.2-0.2-0.4-0.3-0.6-0.5c0.4-0.2,0.5-0.7,0.2-1.1c0,0-0.1-0.1-0.1-0.1c0.2,0,0.4-0.3,0.3-0.5c0-0.1-0.1-0.2-0.1-0.2
			c-0.1-0.1-0.2-0.1-0.3-0.2c-0.1-0.1,0-0.3,0.1-0.5l0.4-0.8c0.3-0.6,0.4-1.3,0.7-1.8c0.5-0.8,0.8-1.7,1.1-2.5l1.2-3.3l0.8,0.7
			c0.3,0.2,0.5,0.5,0.7,0.8c0.1,0.3,0.2,0.6,0.2,0.9c0.3,1.8,1.4,3.4,1.9,5.2c0.1,0.4,0.2,0.8,0.4,1.2c0.1,0.1,0.2,0.2,0.2,0.3
			c0.1,0.2,0.1,0.4,0.1,0.6c0.1,0.7,0.5,1.4,1.1,1.8c0.4,0.3,0.9,0.5,1.1,0.9c0,0.1,0.1,0.3,0.2,0.4c0.2,0.2,0.6,0.3,0.7,0.6
			c0,0.2,0,0.4,0.1,0.5c0.1,0.1,0.1,0.1,0.2,0.1l1.2,0.6c1.3,0.7,2,2.2,3,3.3c0.3,0.4,0.6,0.7,0.9,1.2c0.4,0.7,0.6,1.7,1.3,2.2
			c0.2,0.1,0.4,0.2,0.5,0.4c0.2,0.3,0.1,0.7,0.2,1.1s0.3,0.8,0.7,0.7c-0.1,0.4-0.1,0.9,0,1.4c1.5-0.1,3-0.7,4.2-1.7
			c0.4-0.3,0.6-0.7,0.7-1.1c0-0.1,0-0.2-0.1-0.2c-0.1-0.1-0.2-0.2-0.3-0.2c-1.1-0.6-1.4-2-2-3.1c-0.5-1-1.2-1.9-1.8-2.8
			c-1.3-2-2.2-4.4-4.2-5.7c-0.5-0.2-0.9-0.6-1.2-1c-0.1-0.3-0.2-0.6-0.2-0.8c-0.1-0.3-0.3-0.5-0.6-0.5c0.1-0.4,0.2-0.9,0.1-1.3
			c0-0.2,0-0.4-0.1-0.6c-0.1-0.2-0.2-0.4-0.3-0.6c-0.5-0.9-0.8-1.9-0.7-2.9c0.1-0.5,0.1-1-0.1-1.6c-0.1-0.3-0.2-0.5-0.3-0.7
			c-0.1-0.4-0.2-0.9-0.2-1.4l-0.1-1.7c0-0.6-0.1-1.2-0.2-1.7c-0.4-1.3-0.7-7-2-7.6c-1.2-0.6-3.4,3.7-4.7,3.8c-0.6,0-1.2,0.1-1.8,0.3
			c-0.9,0.4-1.7,1-2.5,1.6l-2.6,2.2C-6075.3,15933.7-6075.8,15934.1-6076.4,15934.4L-6076.4,15934.4z"/>
		<path id="Path_130" class="st13" d="M-6088.6,15897.5c0.6-0.8,1.5-1.2,2.5-1.2c1,0,1.9,0.2,2.7,0.7c0.2,0.1,0.5,0.3,0.8,0.3
			c0.5,0.1,1,0,1.4,0.2c0.5,0.4,0.7,1,0.6,1.6c-0.1,0.6-0.1,1.2,0.2,1.8c0.1,0.2,0.2,0.3,0.3,0.5c0.1,0.3,0.1,0.7,0,1
			c-0.2-0.2-0.4-0.4-0.5-0.7c-0.2-0.2-0.5-0.3-0.7-0.2c-0.2,0.2-0.2,0.4-0.2,0.7c0,0.3-0.1,0.6-0.3,0.6c-0.2,0-0.4,0-0.5-0.2
			c-0.4-0.5-0.2-1.3-0.7-1.8c-0.2-0.3-0.6-0.4-0.8-0.7c-0.2-0.2-0.2-0.5-0.4-0.8s-0.5-0.4-0.7-0.3c-0.1,0.1-0.1,0.2-0.2,0.3
			c-0.3,0.4-0.8,0.6-1.3,0.4c-0.2-0.1-0.4-0.2-0.6-0.2c-0.3,0-0.5,0.1-0.7,0.4c-0.1,0.2-0.2,0.5-0.2,0.8c0.1,0.4,0,0.7-0.1,1
			c-0.1,0.1-0.2,0.2-0.3,0.3c-0.3,0.2-0.7,0.3-1,0.1c-0.2-0.2-0.3-0.4-0.2-0.7c0.1-0.3,0.1-0.5,0.2-0.7c0.2-0.6,0-1.2,0.1-1.7
			C-6089.2,15898.4-6089,15898-6088.6,15897.5z"/>
		<path id="Path_131" class="st1" d="M-6086.4,15910.3c0,0.1,0,0.3,0,0.4c0.1,0.1,0.1,0.2,0.2,0.2c0.6,0.4,1.3,0.6,2,0.7
			c0.1,0,0.2,0,0.3,0.1c0.2,0.1,0.2,0.4,0.1,0.6c-0.1,0.2-0.1,0.4-0.1,0.6c0.1,0.4,0.5,0.5,0.9,0.6c0.5,0.1,1.1,0,1.5-0.3
			c0.3-0.3,0.5-0.6,0.6-0.9c1-2.4,1.4-5,2.4-7.4c0.1-0.2,0.1-0.3,0.2-0.5c0-0.2-0.1-0.4-0.2-0.5c-0.2-0.1-0.5-0.1-0.6-0.2
			c-0.1-0.1-0.1-0.2-0.1-0.3c-0.1-0.2-0.4-0.2-0.7-0.3c-0.2-0.1-0.3-0.3-0.5-0.3c-0.2,0-0.4,0.1-0.5,0.2c-0.6,0.6-1,1.4-1.3,2.2
			c-0.5,1.2-1.1,2.3-1.8,3.4c-0.1-0.4-0.3-0.8-0.6-1.1c-0.3-0.1-0.7,0.5-0.9,0.7C-6085.9,15908.6-6086.3,15909.4-6086.4,15910.3z"/>
		<rect id="Rectangle_350" x="-6084.2" y="15913.7" class="st11" width="20.6" height="20.6"/>
		<path id="Path_133" class="st14" d="M-6063.8,15925c-0.4,0.3-0.7,0.7-1,1c-0.3,0.4-0.5,0.8-0.4,1.3c0,0.1,0,0.3,0.1,0.4
			c0.1,0.1,0.2,0.2,0.4,0.1c0.1,0,0.1-0.1,0.2-0.2c0.2-0.2,0.4-0.5,0.6-0.7c0.1-0.1,0.2-0.2,0.3-0.1c0,0,0.1,0,0.1,0.1
			c0.1,0.1,0.2,0.2,0.3,0.4c0,0.3-0.1,0.6-0.3,0.8c-0.2,0.2-0.4,0.4-0.5,0.7c0,0.1,0,0.2,0,0.2c0,0.1,0.1,0.1,0.1,0.1
			c0.5,0.3,1.1,0.3,1.7,0.1c0.4-0.1,0.7-0.4,1.1-0.5c0.2,0,0.3-0.1,0.5-0.2c0.2-0.1,0.4-0.4,0.4-0.6c0-0.3,0.1-0.5,0-0.8
			c0-1-0.3-2-0.6-2.9c0-0.1-0.1-0.1-0.1-0.2c-0.1,0-0.1,0-0.2,0c-0.5-0.1-1.1-0.2-1.7-0.1c-0.2,0.1-0.3,0.2-0.4,0.3
			C-6063.3,15924.4-6063.8,15924.9-6063.8,15925z"/>
		<path id="Path_134" class="st13" d="M-6064,15924.6c0-0.4-0.5-1.5,0.3-1.6c0-0.5-0.7-0.8-0.5-1.3c0-0.2,0.2-0.3,0.2-0.5
			c0.1-0.5-0.8-0.7-0.7-1.2c0.1-0.2,0.2-0.3,0.3-0.5c0.1-0.4-0.6-0.6-0.7-1c0-0.1,0.1-0.3,0.1-0.4c0-0.2-0.2-0.3-0.2-0.5
			c-0.2-0.4-0.1-1-0.5-1.2c0.3,0,0.4-0.4,0.3-0.6c-0.1-0.2-0.3-0.5-0.3-0.7c0-0.1,0-0.2,0-0.3c-0.1-0.3-0.5-0.3-0.6-0.5
			c0-0.1,0-0.2,0-0.3c0-0.2-0.2-0.3-0.4-0.4c-0.2,0-0.4-0.1-0.6-0.2c-0.1-0.1-0.3-0.3-0.4-0.2c0,0-0.1,0.1-0.1,0.1
			c-0.2,0.2-0.5,0.1-0.7,0c-0.6-0.5-0.9-1.1-1-1.9c-0.1-0.7-0.1-1.5-0.3-2.2c0-0.2-0.1-0.4-0.2-0.6c-0.1-0.2-0.2-0.4-0.3-0.6
			c0-0.4,0.8-0.1,1.2-0.1c0.3,0,0.6,0.1,0.9,0.2c0.3,0.1,0.6,0.3,1,0.4c1.3,0.6,2.9,0.6,3.9,1.6c0.3,0.4,0.7,0.7,1.1,0.9
			c0.2,0,0.4,0.1,0.6,0.2c0.5,0.2,0.6,0.9,0.8,1.4c0.1,0.1,0.2,0.3,0.2,0.4c0.1,0.2,0.1,0.3,0.1,0.5l0,1.3c0.1,2.1,0.1,4.2-0.1,6.3
			c-0.1,0.7-0.1,1.4,0,2.1c0.1,0.2,0.1,0.3,0.2,0.5c0,0.2,0.1,0.4,0.1,0.7l0,0.8c0,0.1,0,0.2-0.1,0.2c0,0-0.1,0-0.1,0
			c-1.1-0.1-2.3-0.7-3.3-0.4"/>
		<path id="Path_135" class="st14" d="M-6085,15921.3c0,0-0.1,0.1-0.1,0.1c-0.2,0.3-0.2,0.8,0,1.1c0,0,0,0.1,0.1,0.1
			c0,0.1,0,0.1,0,0.2c-0.1,0.2-0.1,0.5,0.1,0.7c0.1,0.1,0.2,0.1,0.2,0.2c0.1,0.2,0,0.3,0,0.5c0,0.2,0.3,0.3,0.5,0.4
			c0.2,0,0.4,0,0.5-0.1c0.1-0.1,0.1-0.3,0-0.5c-0.1-0.1-0.2-0.3-0.3-0.3c0.3,0,0.5-0.2,0.5-0.5c0-0.3-0.1-0.5-0.3-0.7
			c0,0-0.1-0.1-0.1-0.1c0-0.1,0.1-0.1,0.1-0.2c0.3-0.3,0.5-0.9,0-1.1c-0.2,0-0.4,0-0.5,0c-0.1,0-0.1,0.1-0.2,0.2
			C-6084.8,15921.2-6084.9,15921.2-6085,15921.3z"/>
		<path id="Path_136" class="st6" d="M-6079.8,15903.1c-0.3,0-0.5,0.1-0.7,0.3c-0.2,0.3-0.3,0.6-0.3,0.9c-0.2,1-0.5,2-1.1,2.9"/>
		<path id="Path_137" class="st6" d="M-6078.9,15903.8c-0.4,0-0.7,0.2-0.9,0.5c-0.1,0.3-0.2,0.6-0.2,0.9c-0.2,0.7-0.5,1.3-0.9,1.9"
			/>
		<path id="Path_138" class="st15" d="M-6248.9,15920.6c0.2,1.7-1.1,3.3-0.7,4.9c0.1,0.3,0.2,0.7,0.3,1c0,1-0.3,1.9-1,2.7l-4.7,6.9
			c-0.2,0.3-0.4,0.6-0.7,0.8c-0.9,0.8-2.3,0.7-3.4,1c-0.8,0.2-1.6,0.5-2.3,1c-0.1,0-0.1,0.1,0,0.2c0.4,0.5,1,0.8,1.7,0.8
			c0.1,0.2,0,0.4-0.2,0.5c-0.3,0.2-0.6,0.2-0.7,0.7c0,0.1,0,0.3,0.1,0.4c0.2,0.3,0.5,0.5,0.8,0.6c1.6,0.5,3.4-0.4,4.6-1.6
			s2.1-2.7,3.3-3.9c0.7-0.7,1.4-1.3,2.1-1.9c1.3-1.4,2.5-2.9,3.5-4.5c0.3-0.5,0.6-1,0.7-1.5c0.1-0.5,0.1-1.1,0.2-1.7
			c0.3-0.7,0.6-1.3,1.1-1.8c0.9-1.1,1.3-2.6,1.3-4c-0.1-1.5-1-2.7-2.3-3.3c-0.4-0.2-0.9-0.2-1.3-0.1c-0.5,0.2-1,0.6-1.3,1.1l-0.9,1
			c-0.2,0.2-0.4,0.5-0.5,0.8c-0.1,0.3,0,0.7,0.2,0.9"/>
		<path id="Path_139" class="st16" d="M-6248.9,15920.6c0.2,1.7-1.1,3.3-0.7,4.9c0.1,0.3,0.2,0.7,0.3,1c0,1-0.3,1.9-1,2.7l-4.7,6.9
			c-0.2,0.3-0.4,0.6-0.7,0.8c-0.9,0.8-2.3,0.7-3.4,1c-0.8,0.2-1.6,0.5-2.3,1c-0.1,0-0.1,0.1,0,0.2c0.4,0.5,1,0.8,1.7,0.8
			c0.1,0.2,0,0.4-0.2,0.5c-0.3,0.2-0.6,0.2-0.7,0.7c0,0.1,0,0.3,0.1,0.4c0.2,0.3,0.5,0.5,0.8,0.6c1.6,0.5,3.4-0.4,4.6-1.6
			s2.1-2.7,3.3-3.9c0.7-0.7,1.4-1.3,2.1-1.9c1.3-1.4,2.5-2.9,3.5-4.5c0.3-0.5,0.6-1,0.7-1.5c0.1-0.5,0.1-1.1,0.2-1.7
			c0.3-0.7,0.6-1.3,1.1-1.8c0.9-1.1,1.3-2.6,1.3-4c-0.1-1.5-1-2.7-2.3-3.3c-0.4-0.2-0.9-0.2-1.3-0.1c-0.5,0.2-1,0.6-1.3,1.1l-0.9,1
			c-0.2,0.2-0.4,0.5-0.5,0.8c-0.1,0.3,0,0.7,0.2,0.9"/>
		<path id="Path_142" class="st17" d="M-6244.9,15958.9c-1.1,0.6-2.3,0.7-3.5,0.5c-0.2,0-0.4,0-0.5,0.1c-0.2,0.2,0,0.5,0.3,0.7
			c0.7,0.5,1.5,0.9,2.4,1c0.8,0.1,1.6,0.2,2.4,0.2c2.2,0.1,4.3,0,6.5-0.2c0.1,0,0.2,0,0.4-0.1c0.1-0.1,0.2-0.2,0.3-0.4
			c0.1-0.6-0.1-1.2-0.6-1.5c-0.4-0.4-1-0.6-1.5-0.8l-1.9-0.7c-0.5-0.3-1.1-0.5-1.6-0.6
			C-6243.3,15957.1-6244.2,15958.5-6244.9,15958.9z"/>
		<path id="Path_143" class="st17" d="M-6240.2,15963.4c-0.9,0.8-2,1.2-3.1,1.2c-0.3,0-0.7,0.1-0.7,0.3c0,0.1,0,0.2,0.1,0.2
			c0.4,0.6,0.9,1.1,1.6,1.3c0.6,0.2,1.3,0.2,2,0.1l1.9-0.1c0.4,0,0.7,0,1.1-0.1c0.4,0,0.8-0.1,1.1-0.2c0.9-0.1,1.9-0.2,2.8-0.1
			c0.2,0,0.5,0,0.7-0.2c0.2-0.2,0.1-0.5,0-0.8c-0.1-0.6,0-1.1-0.1-1.7c-0.3-1-1-1.8-2-2.1c-0.9-0.3-2.4-0.7-3.2-0.2
			C-6238.8,15961.8-6239.5,15962.5-6240.2,15963.4z"/>
		<path id="Path_144" class="st13" d="M-6244,15938.5c-0.9,0.9-1.4,2.2-1.4,3.5c0.2,0.7,0.4,1.3,0.8,1.9c0.4,0.9,0.6,1.8,0.8,2.7
			c0.3,1.4,0.6,2.7,0.8,4.1c0.2,1.6,0.3,3.1,0.2,4.7c0,0.4-0.1,0.8-0.3,1.1c-0.1,0.1-0.2,0.2-0.3,0.3c0,0.1,0,0.3,0.1,0.4
			c0.5,1,1.3,1.8,2.3,2.2c1,0.4,2.1,0.6,3.2,0.6c0.1,0,0.3,0,0.4-0.1c0.1-0.1,0.3-0.2,0.3-0.4c0.8-1.5,0.4-3.3,0.4-5
			c0-1.4,0.3-2.8,0.3-4.2c0-1.1-0.4-2.2-0.5-3.4c-0.1-1.9,0.1-3.7,0.5-5.5c0.3-1.4,0.5-2.8,0.9-4.2c0.2-0.9,0.5-1.7,0.9-2.4
			c0.4-0.6,0.9-1.1,1.3-1.6c1.2-1.5,1.7-3.5,1.4-5.4c-1,0.1-2,0.4-2.9,0.8c-1,0.4-1.9,1-2.6,1.7c-0.6,0.6-1.1,1.3-1.7,2
			c-0.8,0.9-1.5,1.9-2.3,2.8C-6242.3,15936.3-6243.2,15937.4-6244,15938.5z"/>
		<path id="Path_145" class="st16" d="M-6244,15938.5c-0.9,0.9-1.4,2.2-1.4,3.5c0.2,0.7,0.4,1.3,0.8,1.9c0.4,0.9,0.6,1.8,0.8,2.7
			c0.3,1.4,0.6,2.7,0.8,4.1c0.2,1.6,0.3,3.1,0.2,4.7c0,0.4-0.1,0.8-0.3,1.1c-0.1,0.1-0.2,0.2-0.3,0.3c0,0.1,0,0.3,0.1,0.4
			c0.5,1,1.3,1.8,2.3,2.2c1,0.4,2.1,0.6,3.2,0.6c0.1,0,0.3,0,0.4-0.1c0.1-0.1,0.3-0.2,0.3-0.4c0.8-1.5,0.4-3.3,0.4-5
			c0-1.4,0.3-2.8,0.3-4.2c0-1.1-0.4-2.2-0.5-3.4c-0.1-1.9,0.1-3.7,0.5-5.5c0.3-1.4,0.5-2.8,0.9-4.2c0.2-0.9,0.5-1.7,0.9-2.4
			c0.4-0.6,0.9-1.1,1.3-1.6c1.2-1.5,1.7-3.5,1.4-5.4c-1,0.1-2,0.4-2.9,0.8c-1,0.4-1.9,1-2.6,1.7c-0.6,0.6-1.1,1.3-1.7,2
			c-0.8,0.9-1.5,1.9-2.3,2.8C-6242.3,15936.3-6243.2,15937.4-6244,15938.5z"/>
		<path id="Path_146" class="st13" d="M-6238.3,15930.5c0.2,0.8,1,1.4,1,2.2c-0.1,0.7-0.4,1.3-0.8,1.8c-0.3,0.6-0.6,1.2-0.8,1.8
			c-0.6,1.6-1.4,3.2-2.4,4.7c-0.5,0.7-0.8,1.5-0.9,2.3c0.1,0.4,0.2,0.8,0.4,1.1l1.4,2.7c0.3,0.5,0.5,1.1,0.7,1.7
			c0.1,0.5,0.1,1.1,0.2,1.6c0.2,1.6,1,3.3,0.5,4.9c0,0.1-0.2,0.3-0.3,0.2c0.5,0.8,0.8,1.7,0.8,2.6c-0.1,0.5-0.1,1,0,1.5
			c0.1,0.2,0.2,0.4,0.2,0.6c0,0.1-0.1,0.3-0.1,0.4c0,0.4,0.3,0.7,0.7,0.8c0.4,0.1,0.8,0.1,1.1,0.2c0.7,0.3,1.3,0.7,1.8,1.2
			c0.6,0.4,1.3,0.7,2.1,0.7c0.1,0,0.2,0,0.3-0.1c0.1-0.1,0.2-0.2,0.2-0.4c0.1-0.7-0.2-1.4-0.7-1.8c-0.1-0.1-0.2-0.2-0.3-0.3
			c0-0.1,0-0.2,0-0.3c0.1-1.5,0.1-3-0.1-4.4c-0.1-0.5-0.1-0.9-0.1-1.4c0.1-0.4,0.1-0.8,0.1-1.2c-0.1-0.4-0.2-0.8-0.4-1.1
			c-0.2-0.7-0.2-1.4-0.2-2.1c-0.1-1.2-0.3-2.4-0.6-3.6c-0.1-0.5-0.3-0.9-0.6-1.3c-0.3-0.3-0.7-0.6-0.6-1c0.1-0.1,0.1-0.3,0.3-0.4
			c0.3-0.3,0.4-0.8,0.3-1.2c0.2,0.1,0.5-0.1,0.6-0.3c2.2-1.1,4-3.1,4.8-5.4c0-0.2,0.1-0.3,0.2-0.5c0.2-0.3,0.5-0.5,0.9-0.6
			c0.9-0.6,1.7-1.4,2.3-2.3c0.4-0.5,0.7-1.1,0.9-1.7c0.1-0.4,0.1-0.8,0.1-1.2l0.1-2.1c0-0.1,0-0.3,0-0.4c-0.1-0.1-0.1-0.2-0.2-0.3
			c-0.6-0.6-1.4-1.1-2.3-1.2c-0.6-0.1-1.2-0.1-1.8-0.1c-1.1-0.2-2.3-0.3-3.4-0.4c-1.8,0.2-3.4,1.3-4.2,2.9
			C-6237.3,15930-6237.6,15930.4-6238.3,15930.5z"/>
		<rect id="Rectangle_351" x="-6277" y="15933.7" class="st11" width="20.6" height="20.6"/>
		<ellipse id="Ellipse_63" class="st15" cx="-6252.7" cy="15911.2" rx="4.4" ry="4.4"/>
		<path id="Path_159" class="st15" d="M-6248.7,15911c0.8,1.3,2.1,2.2,3.6,2.5l-0.3,1.2c-0.6,2.1-1.2,4.2-2.8,5.7
			c0.1-0.7,0-1.5-0.4-2.1c-0.4-0.6-0.9-1.1-1.5-1.6l-2.5-2.2c-0.1-0.1-0.1-0.1-0.2-0.2c-0.1-0.2-0.1-0.3,0-0.5
			c0.4-0.9,1.1-1.7,2-2.3c0.4-0.3,0.7-0.7,1-1.2C-6249.4,15909.7-6249,15910.5-6248.7,15911z"/>
		<path id="Path_160" class="st17" d="M-6248.2,15916.7c0,0.3,0,0.7-0.1,1c-0.1,0.3-0.5,0.5-0.8,0.4c0.1-0.2-0.1-0.4-0.4-0.4
			c-0.2,0.1-0.4,0.2-0.5,0.4c-0.2,0.3-0.2,0.6-0.1,1c0.1,0.4,0.2,0.8,0.2,1.2c0,0.3-0.3,0.7-0.2,1c0.1,0.1,0.2,0.3,0.3,0.4
			c0.4,0.5,0.3,1.1-0.1,1.5l3.4,0.1c-0.1,0.6,0.1,1.2,0.4,1.7c1.7,2.8,4.5,4.7,7.8,5.1c-0.3,0.2-0.4,0.6-0.2,0.9c0,0,0,0.1,0.1,0.1
			c0.3,0.3,0.8,0.3,1.1,0.1c0.3-0.2,0.6-0.4,0.9-0.7c0.6-0.4,1.2-0.6,1.9-0.5c0.4,0,0.8,0.2,1.3,0.2c1.3,0.1,2.4-0.8,3.6-1.2
			c0.9-0.1,1.8-0.4,2.6-0.8c0.3-0.2,0.5-0.6,0.5-1c-0.1-0.2-0.2-0.4-0.4-0.6c-0.4-0.6-0.7-1.2-1-1.8c-0.6-1.2-1.4-2.4-2.5-3.3
			c-0.8-0.7-1.6-1.3-2.4-1.9c-0.2-0.2-0.4-0.3-0.7-0.4c-0.3-0.1-0.6-0.2-0.9-0.4c-0.4-0.3-0.7-0.7-0.9-1.1c-0.8-0.7-1.6-1.3-2.6-1.8
			c-0.5-0.5-1.1-0.9-1.7-1.2c-0.3-0.1-0.7-0.1-1-0.2c-0.7-0.2-1.3-0.9-2-1.1c-0.6-0.1-1.2-0.2-1.8-0.2c-0.7-0.1-1.3-0.3-1.9-0.7
			c-0.2-0.1-0.4-0.3-0.6-0.4c-0.9-0.3-1,1.4-1.1,2C-6248,15914.9-6248.1,15915.8-6248.2,15916.7z"/>
		<path id="Path_161" class="st15" d="M-6247.3,15922.4c0.2,1.7-1.1,3.3-0.7,4.9c0.1,0.3,0.2,0.7,0.3,1c0,1-0.3,1.9-1,2.7l-4.7,6.9
			c-0.2,0.3-0.4,0.6-0.7,0.8c-0.9,0.8-2.3,0.7-3.4,1c-0.8,0.2-1.6,0.5-2.3,1c-0.1,0-0.1,0.1,0,0.2c0.4,0.5,1,0.8,1.7,0.8
			c0.1,0.2,0,0.4-0.2,0.5c-0.3,0.2-0.6,0.2-0.7,0.7c0,0.1,0,0.3,0.1,0.4c0.2,0.3,0.5,0.5,0.8,0.6c1.6,0.5,3.4-0.4,4.6-1.6
			s2.1-2.7,3.3-3.9c0.7-0.7,1.4-1.3,2.1-1.9c1.3-1.4,2.5-2.9,3.5-4.5c0.3-0.5,0.6-1,0.7-1.5c0.1-0.5,0.1-1.1,0.2-1.6
			c0.3-0.7,0.6-1.3,1.1-1.8c0.9-1.1,1.3-2.6,1.3-4c-0.1-1.5-1-2.7-2.3-3.3c-0.4-0.2-0.9-0.2-1.3-0.1c-0.5,0.2-1,0.6-1.3,1.1l-0.9,1
			c-0.2,0.2-0.4,0.5-0.5,0.8c-0.1,0.3,0,0.7,0.2,0.9"/>
		<path id="Path_162" class="st17" d="M-6244.9,15915.6c-0.6,0-1.2,0.2-1.7,0.5c-0.2,0.2-0.3,0.4-0.4,0.7c-0.5,0.8-0.8,1.8-0.9,2.7
			c0,0.8,0.1,1.5,0.3,2.3c0,0.6-0.1,1.3-0.2,1.9c0.9-0.2,1.7-0.6,2.5-1c0.5-0.3,0.9-0.6,1.5-0.8c0.9-0.1,1.9,0.1,2.7,0.5
			c0-0.5-0.3-1.4-0.3-1.8c0-0.2,0-0.4,0.1-0.6c0.1-0.2,0.2-0.4,0.4-0.6c0.6-0.9,0.5-2-0.2-2.8c-0.7-0.7-1.6-1-2.5-1.1
			c-0.6-0.1-1.2-0.1-1.8-0.1"/>
		<path id="Path_163" class="st13" d="M-6258.4,15906.8l-0.1-0.8c0.7,0.2,1.3-0.4,1.8-1c0.4-0.6,0.9-1.3,1.5-1.6
			c0.9-0.2,1.8,0.1,2.5,0.6c0.9,0.5,1.8,0.8,2.8,0.9c0.2,0,0.3,0,0.5,0.1c0.5,0.3,0.8,0.8,0.8,1.4c0,0.6,0.1,1.2,0.3,1.7
			c0.2,0.4,0.5,0.7,0.7,1.1c0.5,1,0,2.5,0.6,3.5l-1.4-1.3c-0.1-0.1-0.3-0.2-0.5-0.1c-0.1,0.1-0.1,0.3-0.2,0.4
			c-0.2,0.4-0.6,0.5-1,0.4c0,0,0,0,0,0c-0.4-0.2-0.7-0.5-0.9-0.8c-0.6-0.7-1.4-1.3-2.2-1.7c-0.8-0.3-1.6-0.2-2.4,0.1
			c-0.7,0.4-1.1,1.2-1.9,1.3c-1.1,0-1.6-2-2.1-2.8c0.4-0.3,0.5-0.8,0.3-1.2C-6259.2,15906.7-6258.5,15906.6-6258.4,15906.8z"/>
		
			<linearGradient id="Path_164_1_" gradientUnits="userSpaceOnUse" x1="-6485.6641" y1="16270.7002" x2="-6485.6641" y2="16271.7002" gradientTransform="matrix(37.3629 0 0 -79.1858 236164.4688 1304391.375)">
			<stop  offset="0" style="stop-color:#808080;stop-opacity:0.251"/>
			<stop  offset="0.54" style="stop-color:#808080;stop-opacity:0.122"/>
			<stop  offset="1" style="stop-color:#808080;stop-opacity:0.102"/>
		</linearGradient>
		<path id="Path_164" class="st18" d="M-6140.2,15981.4c-0.2-0.9-0.3-1.7-0.3-1.7c0-0.6-0.1-1.2-0.4-1.7v-0.2l0,0v-1.8
			c0.1-0.3,0.3-0.6,0.5-1c0.2-0.9,0.2-1.8,0-2.7c0,0-1.2-2.9-0.9-4.8s-2.5-8.3-2.5-8.3c0-0.6,0.1-1.2,0.3-1.8c0-0.1,0-0.3,0-0.4
			c0,0,0,0,0,0v0c-0.2-1.2-0.5-2.4-1-3.5l0.1-4.4c0.4-2,0.2-4.1-0.4-6.1c-0.4-1.2-0.6-2.2-0.7-2.9c0-0.1,0-0.2,0-0.2
			c2.1-0.3,3.7-0.6,3.7-0.6s-1.2-5.1-2-6c-0.8-0.9-1.5-3.7-1.5-3.7s-0.4-3.6,0.3-4.6c0.5-0.9,0.7-1.9,0.8-2.9c0,0,1.6-1.1,1.8-1.6
			c0.3-0.7,0.5-1.5,0.5-2.3c0-0.6-0.2-1.1-0.1-1.5c0.1-0.3-0.5-1.5-0.2-2.1c0.1-0.2,0.1-0.4,0.1-0.6c0,0,0,0,0,0l0,0
			c0-0.5,0-1-0.1-1.5c-0.5-0.4-1-0.7-1.6-0.8l0-0.1l-0.1-0.4c0,0-0.1-0.1-0.2-0.1v-0.7l0.2-1.2c0.5-2-2.2-2.3-2.2-2.3
			c-0.2-0.3-0.4-0.5-0.8-0.7c-0.5-0.2-0.1,3,0.2,3.2c0.4,0.5,0.8,1.1,1.1,1.7l0,0l0,0.1c0,0-0.1,0.1-0.1,0.1l0.1,0.7l0,0.1
			c-0.2,0.2-0.3,0.5-0.4,0.7c0.3,0.3,0.4,0.7,0.4,1.1c0,0.5,0,0.9,0.2,1.4c0,0-0.4-0.4-0.7-0.3c-0.3,0.1-1.3,0.4-1.3,0.4
			s-0.7,0.1-0.7,0.3c0.1,0.2-0.5,0.9-0.5,0.9l-1.9-1.8c0-0.1,0-0.1-0.1-0.2c-0.1-0.3-0.1-0.5-0.2-0.8c0.2-0.1,0.4-0.1,0.6-0.2
			c0.2-0.1,0.4-0.2,0.5-0.3c0.2-0.3,0.3-0.5,0.3-0.8c0.2-0.6,0.4-1.1,0.7-1.6c0.4-0.9,0.5-1.9,0.4-2.9c0-0.3-0.1-0.6-0.3-0.8
			c-0.3-0.4-0.9-0.6-1.3-1c-0.4-0.3-0.7-0.9-1.2-1.1c-0.5-0.2-1-0.2-1.5-0.1c-1,0.2-1.9,0.5-2.7,1c-0.3,0.2-0.6,0.3-0.9,0.3
			c-0.3-0.1-0.5-0.3-0.7-0.5c0,0,0,0,0,0l0,0c-0.2,0.5-0.3,1-0.3,1.4v0.3c0,0,0,0,0,0.1l0,0c0,0,0,0.1,0,0.1c0,0.1-0.1,0.2-0.2,0.3
			c-0.1,0.1-0.1,0.1-0.2,0.2c0,0,0-0.1,0-0.1c-0.1,0.2-0.2,0.4-0.2,0.6c0,0.2,0,0.3,0.1,0.4c0.1,0.1,0.2,0.2,0.3,0.3
			c0,0.2-0.1,0.4-0.1,0.6c0,1.3,0.7,2.5,1.8,3.2l0.1,0.2c0.3,0.7,0.4,1.4,0.4,2.1c0,0.1,0,0.1,0,0.2l-0.1,0.1l0,0c0,0-3.2,0-4-0.7
			c-0.8-0.7-1.9,1.7-1.9,1.7s-1.1,0.2-1.4,0c-0.2-0.2-1.6,0-1.6,0c-0.6-0.5-1.3-0.7-2-0.7c-0.4-0.3-0.9-0.6-1.5-0.8l0,0l0,0l0,0
			c-0.2-0.1-0.5-0.1-0.7-0.1c-0.7-0.6-1.4-1.3-2-2c-0.4-0.7-2.6-3.3-2.7-3.3v-0.1l0-0.4c-0.1,0-0.1,0-0.2,0c0,0,0-0.1,0-0.1
			c-0.1-0.4-0.3-0.7-0.5-1.1c0,0,0-0.5,0.1-0.6c0.1-0.6,0-1.2-0.1-1.9c0,0-1.4-3.3-2.7-0.8c0,0-2.4,1.6-0.4,3.5c0,0,0.8,0.4,0.9,0.7
			c0.1,0.2,0.3,0.8,0.5,1.1l0.1,0.2l0,0l0,0.3v0.1c-0.4,0.2-0.6,0.4-0.6,0.6c0.1,0.3,0.2,0.6,0.2,0.9c0,0,2.8,3.5,3.1,5
			c0,0,7.5,4.4,9.9,4.8l-0.4,2.2c-0.1,0.6-0.1,1.2-0.1,1.8c0,0.5-0.3,2.6-0.3,2.6c-0.1,1.2-0.4,2.4-0.8,3.6
			c-0.3,0.8-0.4,1.6-0.3,2.3c-0.1,0.9-0.2,1.8-0.5,2.7c-0.2,0.9-0.2,1.8-0.1,2.7c0,0-1.2,2.9,1.7,0.9c0,0,1.5-0.1,3.2-0.1v0.9
			c0,1.6,0,3.9,0,5.6c0.1,3,1.1,9,1.1,9v3c-0.1,0.3-0.1,0.6-0.1,0.9c0,1.1,0.3,2.1,0.8,3l0.2,2c0.3,0.7,0.5,1.4,0.5,2.1
			c0,0.1,0,0.1,0,0.2c0,0.1,0,0.2,0,0.3c0.1,1,0.3,2.1,0.5,3.1c0,0,0,2.2,0.4,2.3c0.3,0.1-0.4,1.3-0.6,1.6c0,0,0,0,0-0.1
			c0,0,0,0.1,0,0.1c-0.1,0.2-0.1,0.4-0.1,0.6c0,0.3,0.1,0.6,0.4,0.8c0.6,0.4,1,0.7,0.4,0.8c-0.2,0-0.4,0.1-0.6,0.1c0,0,0,0,0-0.1
			c-0.1,0.1-0.2,0.2-0.2,0.4c0,0.3,0.1,0.5,0.2,0.7c0.2,0.6,0.5,1.1,0.9,1.6l0.3,0c0,0.1-0.1,0.2-0.1,0.3c-0.1,0.1-0.2,0.3-0.4,0.3
			c-0.1,0.1-0.3,0.1-0.4,0.2c-0.4,0-0.7,0.2-0.9,0.5c-0.4,0.4-0.4,1,0,1.4c0,0,0.1,0.1,0.2,0.1l2.3,0.8c0,0,4,0.5,3.8-0.4
			s-0.3-1.7-0.3-1.7c0-0.6-0.1-1.1-0.3-1.6c0-0.1-0.1-0.2-0.1-0.2l0.1,0c0.1-0.8,0.3-1.6,0.7-2.4c0.1-0.1,0.1-0.2,0.1-0.2
			c0-0.1-0.1-0.2-0.2-0.2l0,0.1c-0.1,0-0.3,0-0.4,0c0,0-0.1-1.1,0.3-1.4c0.1-0.1,0.1-0.2,0.1-0.3c0-0.1,0-0.3,0-0.4l0,0
			c-0.2-0.8-0.6-1.7-0.9-2.5c0-0.5,0.1-0.9,0.2-1.3c0.3-0.4,0-5.2,0-5.2c0.1-1.1,0-2.3-0.2-3.4c-0.1-0.8,0-1.6,0.4-2.3v-0.1
			c0,0,0-0.1,0-0.4v0c-0.1-0.6-0.2-1.7-0.3-2.2c-0.1-0.7,0-4.2,0-4.2l0.6-1.5l1.1,2.6l1.1,3.4c0.3,0.4,0.5,0.9,0.6,1.5v0.1
			c0,0.1,0,0.2,0,0.2c0,0.4,0.1,0.9,0.3,1.2c0.1,0.7,0.4,1.4,0.8,2c0.3,0.3,0.5,0.8,0.5,1.2c0.2,0.9,0.5,1.9,0.8,2.8
			c0.2,0.5,0.3,1,0.2,1.6l0,0v0.1c0,0,0.1,0.8,0.1,1.5v0.2c0,0.2,0,0.4-0.1,0.6v-0.1c-0.1,0.5-0.2,1-0.2,1.5
			c-0.1,0.9,0.1,1.7,0.6,2.4c0.9,1,1.4,0.9,1.4,0.9s-0.4,1.3-1,1.5c0,0,0,0-0.1,0c0,0,0-0.1,0-0.1c-0.1,0.1-0.2,0.3-0.2,0.5
			c0,0.7,0.2,1.3,0.6,1.9c0.1,0.1,0.3,0.2,0.4,0.3l-0.1,0c-0.1,0-0.1,0.1-0.2,0.1c-0.1,0-0.2,0.1-0.3,0.1c-0.4,0-0.7,0.2-0.9,0.5
			c-0.4,0.4-0.4,1,0,1.4c0,0,0.1,0.1,0.2,0.1l2.3,0.8C-6144,15981.8-6140,15982.3-6140.2,15981.4z"/>
		<path id="Path_165" class="st19" d="M-6155.6,15982.9l-2.3-0.8c-0.4-0.3-0.5-0.9-0.2-1.4c0,0,0.1-0.1,0.1-0.1
			c0.2-0.3,0.5-0.4,0.9-0.5c0.2,0,0.3-0.1,0.4-0.2c0.1-0.1,0.3-0.2,0.4-0.3c0.2-0.3,0.3-0.6,0.3-0.9c0,0,2.5-0.7,3.2,0
			c0.1,0.1,0.2,0.3,0.3,0.4c0.2,0.5,0.3,1,0.3,1.6c0,0,0.1,0.8,0.3,1.7C-6151.7,15983.5-6155.6,15982.9-6155.6,15982.9z"/>
		<path id="Path_166" class="st19" d="M-6144.5,15981.8l-2.3-0.8c-0.4-0.3-0.5-0.9-0.2-1.4c0,0,0.1-0.1,0.1-0.1
			c0.2-0.3,0.5-0.4,0.9-0.5c0.1,0,0.2,0,0.3-0.1c0.1,0,0.1-0.1,0.2-0.1c0.4-0.3,0.6-0.7,0.6-1.2c0,0,2.5-0.7,3.2,0
			c0.1,0.1,0.2,0.2,0.2,0.3c0.3,0.5,0.4,1.1,0.4,1.7c0,0,0.1,0.8,0.3,1.7C-6140.6,15982.3-6144.5,15981.8-6144.5,15981.8z"/>
		<path id="Path_167" class="st6" d="M-6152.8,15978.8c0.1,0.1,0.2,0.3,0.3,0.4l0,0l-3.7,0.4c0.2-0.3,0.3-0.6,0.3-0.9
			C-6156,15978.8-6153.5,15978.1-6152.8,15978.8z"/>
		<path id="Path_168" class="st6" d="M-6141.5,15978v0.7c-0.6,1-3.4,0.7-4.2,0.3c0.1,0,0.1-0.1,0.2-0.1c0.4-0.3,0.6-0.7,0.6-1.2
			c0,0,2.5-0.7,3.2,0C-6141.6,15977.8-6141.5,15977.9-6141.5,15978z"/>
		<path id="Path_169" class="st13" d="M-6141,15975c-0.2,0.3-0.3,0.6-0.4,1v2.5c-0.6,1.1-3.9,0.7-4.4,0.1c-0.4-0.6-0.9-2.1-0.4-2.3
			s0.9-1.5,0.9-1.5s-0.5,0.1-1.4-0.9c-0.9-1-0.6-3.3-0.4-3.8c0.1-0.8,0.1-1.6,0-2.3c0-0.6,0-1.1-0.2-1.7c-0.3-0.9-0.6-1.8-0.8-2.8
			c0-0.4-0.2-0.9-0.4-1.2c-0.4-0.6-0.6-1.3-0.7-2c-0.3-0.4-0.4-0.9-0.3-1.4c0-0.6-0.2-1.2-0.5-1.7l-1.1-3.4l-1-2.6l-0.6,1.5
			c0,0-0.2,3.5,0,4.2c0.1,0.7,0.3,2.7,0.3,2.7c-0.4,0.7-0.5,1.5-0.3,2.3c0.2,1.1,0.2,2.3,0.2,3.4c0,0,0.3,4.8,0,5.2
			c-0.2,0.4-0.2,0.9-0.2,1.3c0,0,1.3,2.8,0.9,3.2c-0.4,0.4-0.3,1.4-0.3,1.4s0.9,0,0.5,0.4c-0.4,0.7-0.6,1.5-0.7,2.4l-3.8,0.5
			c-0.3-0.5-0.6-1-0.9-1.6c-0.5-1.2,0.1-1.1,0.6-1.2c0.5-0.1,0.2-0.4-0.4-0.8c-0.6-0.4-0.3-1.2-0.3-1.2s0.9-1.6,0.6-1.7
			c-0.3-0.1-0.3-2.3-0.3-2.3c-0.3-1.1-0.4-2.2-0.5-3.3c0-0.8-0.2-1.6-0.5-2.4l-0.2-2c-0.7-1.1-0.9-2.5-0.7-3.8v-3.1c0,0-0.9-6-1-9
			c-0.1-1.9-0.1-4.6,0-6.2c0-0.9,0-1.5,0-1.5l13.7-1.4c0,0.7,0.1,1.4,0.3,2c0.1,0.8,0.4,1.7,0.7,2.9c0.6,2,0.7,4.1,0.4,6.1l-0.1,4.4
			c0,0,1.2,2.9,1,4c-0.2,0.6-0.2,1.2-0.3,1.8c0,0,2.7,6.4,2.4,8.3c-0.3,1.9,0.9,4.8,0.9,4.8
			C-6140.9,15973.2-6140.9,15974.1-6141,15975z"/>
		<path id="Path_170" class="st16" d="M-6148.9,15958.5l4.2-0.6C-6144.7,15957.9-6147.1,15960.3-6148.9,15958.5z"/>
		<path id="Path_171" class="st6" d="M-6145.3,15953.9c0,0,0.1,1.5-0.8,2C-6146.1,15955.9-6144.4,15955.6-6145.3,15953.9z"/>
		<path id="Path_172" class="st6" d="M-6145.6,15949.2c0,0-3.5,2.9-4.7,2.6C-6151.6,15951.6-6145.6,15949.2-6145.6,15949.2z"/>
		<path id="Path_173" class="st6" d="M-6154,15959.8c0,0-2.6,0.6-2.7,1.7C-6156.8,15962.6-6154,15959.8-6154,15959.8z"/>
		<path id="Path_174" class="st16" d="M-6153.4,15973.1c0,0-3.7,0.7-2.7,1.2c0.9,0.4,1.8,0.6,2.8,0.9
			C-6153.3,15975.1-6152.1,15975.1-6153.4,15973.1z"/>
		<g id="Group_15" transform="translate(-6159.998 15939.261)" class="st20">
			<path id="Path_175" d="M3.1,35.7c-0.2-0.1-0.3-0.3-0.3-0.5l0,0.1c0,0-0.3,0.9,0.3,1.2c0.1,0,0.1,0.1,0.2,0.1c0.1,0,0.2,0,0.3-0.1
				C4,36.4,3.7,36.1,3.1,35.7z"/>
			<path id="Path_176" d="M7.9,35.5C8,35.4,8,35.1,8,34.8c-0.2,0.3-0.2,0.6-0.2,0.9C7.8,35.6,7.9,35.5,7.9,35.5z"/>
			<path id="Path_177" d="M7.4,19.7c-0.1,0.4-0.2,0.8-0.3,1.2c0.1-0.3,0.2-0.5,0.3-0.8C7.4,19.9,7.4,19.8,7.4,19.7z"/>
			<path id="Path_178" d="M15.9,18c0-0.1,0-0.2,0-0.3c0,0.2-0.1,0.5-0.1,0.7C15.9,18.2,15.9,18.1,15.9,18z"/>
			<path id="Path_179" d="M7.3,31c0.1-0.2,0.1-0.5,0.1-0.7c-0.1,0.3-0.2,0.6-0.2,0.9C7.2,31.1,7.2,31,7.3,31z"/>
			<path id="Path_180" d="M8.1,36.9c-0.2,0.6-0.3,1.3-0.4,1.9l-3.8,0.4c-0.3-0.5-0.6-1-0.9-1.6c0-0.1-0.1-0.2-0.1-0.3
				c-0.2,0.1-0.3,0.3,0,1.1c0.2,0.6,0.5,1.1,0.9,1.6l3.8-0.4c0.1-0.8,0.3-1.6,0.7-2.4C8.3,37.1,8.2,37,8.1,36.9z"/>
			<path id="Path_181" d="M3,31.2c0,0,0,2.2,0.3,2.3l0,0c0.2-0.4,0.3-0.7,0.1-0.8c-0.3-0.1-0.3-2.3-0.3-2.3
				c-0.3-1.1-0.4-2.2-0.5-3.3c0-0.8-0.2-1.6-0.5-2.4l-0.2-2C1.2,21.7,1,20.3,1.2,19V16c0,0-0.9-6-1-9c-0.1-1.9-0.1-4.6,0-6.2V0H0.1
				c0,0,0,0.6,0,1.5c0,1.6,0,4.3,0,6.2c0.1,3,1,9,1,9v3.1c-0.2,1.3,0,2.7,0.7,3.8l0.2,2c0.3,0.8,0.5,1.6,0.5,2.4
				C2.5,29.1,2.7,30.2,3,31.2z"/>
			<path id="Path_182" d="M14.3,38.5c-0.3-0.5-0.5-1-0.6-1.5c-0.4,0.4,0.1,1.7,0.5,2.3s3.7,0.9,4.4-0.1v-0.6
				C17.7,39.4,14.7,39,14.3,38.5z"/>
			<path id="Path_183" d="M19.1,34.9c-0.2,0.3-0.3,0.6-0.4,1v0.4c0.1-0.2,0.2-0.4,0.3-0.6C19.1,35.4,19.1,35.1,19.1,34.9L19.1,34.9z
				"/>
			<path id="Path_184" d="M14.5,35.4c0.1-0.2,0.2-0.5,0.3-0.8c0,0-0.5,0.1-1.4-0.9c-0.5-0.9-0.7-2-0.6-3c-0.2,0.5-0.4,2.8,0.4,3.8
				C13.5,34.9,14,35.2,14.5,35.4z"/>
			<path id="Path_185" d="M12.8,28.4c0.1,0.6,0.1,1.3,0.1,1.9c0-0.1,0-0.2,0.1-0.3c0.1-0.8,0.1-1.6,0-2.3c0-0.6,0-1.1-0.2-1.7
				c-0.3-0.9-0.6-1.8-0.8-2.8c0-0.4-0.2-0.9-0.4-1.2c-0.4-0.6-0.6-1.3-0.7-2c-0.3-0.4-0.4-0.9-0.3-1.4c0-0.6-0.2-1.2-0.5-1.6
				l-1.1-3.4l-1-2.6l-0.6,1.5c0,0,0,0.2,0,0.5l0.5-1.2l1,2.6l1.1,3.4c0.4,0.5,0.5,1.1,0.5,1.6c0,0.5,0.1,1,0.3,1.3
				c0.1,0.7,0.4,1.4,0.7,2c0.3,0.3,0.4,0.8,0.4,1.2c0.2,0.9,0.5,1.9,0.8,2.8C12.8,27.2,12.8,27.8,12.8,28.4z"/>
		</g>
		<path id="Path_186" class="st21" d="M-6144.5,15909.3l-0.2,1.2l0,0.5v0.4l-1.3,0.1l-0.1-0.3l0,0c-0.3-0.6-0.6-1.1-1-1.7
			c-0.2-0.2-0.7-3.4-0.2-3.2c0.3,0.1,0.6,0.4,0.7,0.7C-6146.7,15907-6144.1,15907.3-6144.5,15909.3z"/>
		<path id="Path_187" class="st6" d="M-6144.7,15911.3l-1.3,0.1l-0.1-0.3l0,0c0.4-0.4,1-0.5,1.5-0.2L-6144.7,15911.3z"/>
		<path id="Path_188" class="st22" d="M-6144.4,15912l-1.7,0.4l0-0.3l-0.1-0.7c0.4-0.5,1.2-0.6,1.7-0.2c0,0,0,0,0,0l0.1,0.4
			L-6144.4,15912z"/>
		<path id="Path_189" class="st21" d="M-6172.7,15909.4l-1.9,1l-0.2-0.4c-0.2-0.4-0.4-0.9-0.5-1.1c-0.1-0.3-0.9-0.7-0.9-0.7
			c-2-1.9,0.4-3.5,0.4-3.5c1.2-2.5,2.6,0.8,2.6,0.8c0.1,0.6,0.1,1.2,0.1,1.9c-0.1,0.1-0.1,0.6-0.1,0.6c0.2,0.3,0.3,0.7,0.5,1.1
			C-6172.7,15909.3-6172.7,15909.4-6172.7,15909.4z"/>
		<path id="Path_190" class="st6" d="M-6172.7,15909.4l-1.9,1l-0.2-0.4c0.3-0.2,1.2-1,1.5-0.9c0.1,0,0.3,0,0.4,0
			C-6172.7,15909.3-6172.7,15909.4-6172.7,15909.4z"/>
		<path id="Path_191" class="st22" d="M-6172.5,15910l-2.1,1l0-0.5l0-0.3c0,0,1.2-1,1.6-1c0.2,0,0.4,0,0.5,0l0,0.4L-6172.5,15910z"
			/>
		<path id="Path_192" class="st21" d="M-6149.6,15917c0,0-9.1,1-7.4,0.5c0.9-0.2,1.7-1,1.8-2c0-0.7-0.1-1.4-0.3-2.1
			c-0.2-0.6-0.5-1.1-0.8-1.6c0,0,7-3.8,5.6-0.3c-0.2,0.5-0.4,1.1-0.4,1.7c0,0.6,0,1.1,0.2,1.7
			C-6150.8,15915.6-6150.3,15916.4-6149.6,15917z"/>
		<path id="Path_193" class="st6" d="M-6150.8,15911.4c-0.2,0.5-0.4,1.1-0.4,1.7c-0.7,0.5-1.5,0.6-2.3,0.5c-0.7,0.1-1.4,0.1-2.1-0.2
			c-0.2-0.6-0.5-1.1-0.8-1.6C-6156.4,15911.7-6149.4,15907.9-6150.8,15911.4z"/>
		<ellipse id="Ellipse_64" class="st21" cx="-6153.6" cy="15910" rx="3.8" ry="3.8"/>
		<path id="Path_194" class="st6" d="M-6149.6,15917c0,0-9.1,1-7.4,0.5c0.9-0.2,1.7-1,1.8-2c0.6-0.5,1.2-0.8,2-1
			c0.5-0.2,1.1-0.2,1.7,0c0.2,0.1,0.4,0.1,0.6,0.3C-6150.8,15915.6-6150.3,15916.4-6149.6,15917z"/>
		<path id="Path_195" class="st6" d="M-6144.4,15912l-1.7,0.4l0-0.3c0.4-0.5,1.1-0.8,1.7-0.6L-6144.4,15912z"/>
		<path id="Path_196" class="st6" d="M-6172.5,15910l-2.1,1l0-0.5c0.7-0.4,1.4-0.7,2.1-0.9L-6172.5,15910z"/>
		<path id="Path_197" class="st6" d="M-6146,15940c-3.5,0.6-8.6,1.3-9.4,1c-1.5-0.2-3.1-0.2-4.6-0.1c0-0.9,0-1.5,0-1.5l13.7-1.4
			C-6146.2,15938.6-6146.1,15939.3-6146,15940z"/>
		<path id="Path_198" class="st17" d="M-6142.5,15939.1c0,0-11.6,2-12.9,1.6s-7.7,0-7.7,0c-2.9,1.9-1.7-0.9-1.7-0.9
			c-0.1-0.9-0.1-1.8,0.1-2.7c0.2-0.9,0.4-1.8,0.5-2.7c-0.1-0.8,0-1.6,0.3-2.3c0.4-1.2,0.6-2.4,0.8-3.6c0,0,0.3-2.2,0.3-2.6
			c0-0.5,0.1-1.8,0.1-1.8l0.4-2.2c-2.4-0.3-9.6-4.8-9.6-4.8c-0.3-1.5-3-5-3-5c0-0.3-0.1-0.6-0.2-0.9c-0.2-0.5,2.7-1.5,2.7-1.5
			s2.1,2.6,2.6,3.3c0.6,0.7,1.2,1.4,2,2c0.2,0,0.5,0,0.7,0.1h0c0.5,0.2,1,0.5,1.4,0.8c0.7,0,1.4,0.2,1.9,0.7c0,0,1.3-0.2,1.5,0
			s1.3,0,1.3,0s1.1-2.3,1.8-1.7s3.8,0.7,3.8,0.7c0.6-0.6,1.3-0.9,2-1.1c0.5-0.2,1.1-0.2,1.7,0c0.2,0.1,0.5,0.2,0.7,0.3l1.9,1.8
			c0,0,0.5-0.7,0.5-0.9s0.6-0.3,0.6-0.3s0.9-0.3,1.3-0.4c0.3-0.1,0.7,0.3,0.7,0.3c-0.1-0.5-0.2-0.9-0.2-1.4c0-0.4-0.1-0.8-0.4-1.1
			c1.1-2.7,3.6-0.4,3.6-0.4c0.1,0.7,0.2,1.4,0,2.1c-0.3,0.6,0.3,1.8,0.2,2.1c0,0.5,0.1,1,0.1,1.5c-0.1,0.8-0.2,1.5-0.5,2.3
			c-0.2,0.5-1.7,1.6-1.7,1.6c-0.1,1-0.3,2-0.8,2.9c-0.7,1-0.3,4.6-0.3,4.6c0.3,1.3,0.8,2.5,1.4,3.7
			C-6143.6,15934.1-6142.5,15939.1-6142.5,15939.1z"/>
		<path id="Path_199" class="st6" d="M-6159.4,15918.3c0,0-0.3-1.1-0.7-1.1c-0.3-0.1-0.6-0.3-0.9-0.4l0.2-0.4c0,0,1.2,0.3,1.4,0.7
			C-6159.3,15917.4-6159.3,15917.9-6159.4,15918.3z"/>
		<path id="Path_200" class="st6" d="M-6165.8,15916c-0.1,0.3-2.9,0.6-2.9,0.6l1.4-1.4l0,0l0,0l0,0
			C-6166.7,15915.4-6166.2,15915.6-6165.8,15916z"/>
		<ellipse id="Ellipse_65" class="st23" cx="-6174" cy="15911.6" rx="0.3" ry="0.3"/>
		<ellipse id="Ellipse_66" class="st23" cx="-6173.6" cy="15912.1" rx="0.3" ry="0.3"/>
		<ellipse id="Ellipse_67" class="st23" cx="-6173.3" cy="15912.6" rx="0.3" ry="0.3"/>
		<ellipse id="Ellipse_68" class="st23" cx="-6173" cy="15913.1" rx="0.3" ry="0.3"/>
		<ellipse id="Ellipse_69" class="st23" cx="-6143.1" cy="15913.1" rx="0.2" ry="0.2"/>
		<ellipse id="Ellipse_70" class="st23" cx="-6143.1" cy="15913.5" rx="0.2" ry="0.2"/>
		<ellipse id="Ellipse_71" class="st23" cx="-6143" cy="15914" rx="0.2" ry="0.2"/>
		<path id="Path_201" class="st6" d="M-6159.4,15926.9c0,0,7.1,9,12.7,3.8C-6146.7,15930.6-6155.5,15931.8-6159.4,15926.9z"/>
		<path id="Path_202" class="st6" d="M-6163.5,15931.6c0,0,4.3,0.1,4.7,1.3v1.3c-0.2,0.1-0.5,0.1-0.8,0c-0.4-0.2-3-1.5-3.9-0.9
			L-6163.5,15931.6z"/>
		<path id="Path_203" class="st17" d="M-6163.4,15931.6c0,0,4.1,0.1,4.5,1.3v1.2c-0.2,0.1-0.5,0.1-0.8,0c-0.4-0.2-2.9-1.5-3.8-0.9
			L-6163.4,15931.6z"/>
		<path id="Path_204" class="st6" d="M-6161.2,15922.3c0.4,1,1,2,1.7,2.8c0.7,1,1.6,1.8,2.6,2.5
			C-6156.9,15927.6-6161.1,15922.9-6161.2,15922.3z"/>
		<path id="Path_205" class="st6" d="M-6162.6,15917.3c0,0,0.7,3.1,2.6,4.1L-6162.6,15917.3z"/>
		<path id="Path_206" class="st6" d="M-6163.7,15917.6c0-0.1-0.6,2.4,2.4,3.8C-6161.3,15921.4-6162.6,15921-6163.7,15917.6z"/>
		<path id="Path_207" class="st6" d="M-6145,15915.6c0.7,0.4,1.3,0.9,1.9,1.4C-6143.1,15917-6144.1,15915.5-6145,15915.6z"/>
		<path id="Path_208" class="st19" d="M-6154.7,15913.4c0,0.2,0.1,0.4,0.3,0.5c0.1,0.1,0.2,0.1,0.4,0.1c1.2,0.2,2.3,0,3.4-0.3
			c0.2-0.1,0.4-0.2,0.5-0.3c0.2-0.3,0.2-0.5,0.3-0.8c0.2-0.5,0.4-1.1,0.7-1.6c0.4-0.9,0.5-1.9,0.4-2.9c0-0.3-0.1-0.6-0.3-0.8
			c-0.3-0.4-0.9-0.6-1.3-1c-0.4-0.3-0.7-0.9-1.1-1.1c-0.4-0.2-0.9-0.2-1.4-0.1c-0.9,0.2-1.8,0.5-2.7,1c-0.2,0.2-0.6,0.3-0.9,0.3
			c-0.3-0.1-0.5-0.3-0.7-0.5c-0.2,0.5-0.3,1.1-0.3,1.6c0.1,0.2,0,0.4-0.2,0.5c-0.3,0.3-0.4,0.8-0.2,1.2c0.1,0.1,0.3,0.2,0.4,0.4
			c0.2,0.3,0.1,0.6,0.1,1c0,0.1,0,0.2,0.1,0.3c0.1,0.1,0.3,0.2,0.5,0.1c0.2,0,0.3-0.1,0.5,0c0.2,0.1,0.3,0.2,0.4,0.3
			C-6155.2,15911.9-6154.8,15912.6-6154.7,15913.4z"/>
		<g id="Group_16" transform="translate(-6157.832 15905.737)" class="st24">
			<path id="Path_209" d="M7.9,7.3C7.7,7.5,7.5,7.6,7.3,7.7C6.2,8,5.1,8.1,3.9,8C3.8,8,3.7,8,3.6,7.9C3.4,7.8,3.3,7.6,3.3,7.4
				c-0.2-0.8-0.5-1.6-1-2.2C2.2,5,2,4.9,1.9,4.8c-0.2,0-0.3,0-0.5,0c-0.2,0-0.3,0-0.5-0.1C0.8,4.7,0.8,4.6,0.8,4.4
				c0-0.3,0.1-0.7-0.1-1C0.6,3.3,0.4,3.2,0.3,3.1C0.1,2.9,0.1,2.6,0.2,2.3C0,2.6-0.1,3,0.1,3.3c0.1,0.1,0.3,0.2,0.4,0.4
				c0.2,0.3,0.1,0.6,0.1,1c0,0.1,0,0.2,0.1,0.3c0.1,0.1,0.3,0.2,0.5,0.1c0.2,0,0.3-0.1,0.5,0c0.2,0.1,0.3,0.2,0.4,0.3
				c0.5,0.7,0.8,1.4,1,2.2c0,0.2,0.1,0.4,0.3,0.5c0.1,0.1,0.2,0.1,0.4,0.1c1.2,0.2,2.3,0,3.4-0.3c0.2-0.1,0.4-0.2,0.5-0.3
				C7.8,7.5,7.9,7.4,7.9,7.3C7.9,7.3,7.9,7.3,7.9,7.3z"/>
			<path id="Path_210" d="M0.5,1.8c0.1-0.1,0.1-0.1,0.1-0.2c0-0.1,0-0.2,0-0.2c0-0.5,0-0.9,0.2-1.4l0,0C0.6,0.5,0.5,1.1,0.5,1.6
				C0.5,1.7,0.5,1.8,0.5,1.8z"/>
		</g>
		<path id="Path_211" class="st6" d="M-6155.3,15915.7c0,0,4.7,0.6,5.1-0.1"/>
		<path id="Path_212" class="st6" d="M-6146.2,15913.8c0,0,2.6,0,3.2,1"/>
		<g class="st0">
			<path class="st1" d="M-6165.5,15859.2v0.9h-0.2c-0.3,0-0.5-0.1-0.6-0.2s-0.3-0.3-0.4-0.5c-0.2,0.2-0.4,0.4-0.6,0.5
				c-0.2,0.1-0.5,0.2-0.7,0.3c-0.3,0.1-0.5,0.1-0.8,0.1c0,0-0.1,0-0.1,0c-0.2,0-0.5,0-0.7,0l0.2-0.9c0.1,0,0.2,0,0.3,0
				c0.1,0,0.2,0,0.3,0c0,0,0.1,0,0.1,0c0,0,0.1,0,0.1,0c0.1,0,0.1,0,0.2,0c0-0.2-0.1-0.4-0.1-0.6c-0.1-0.2-0.1-0.4-0.2-0.6
				c-0.1-0.2-0.2-0.4-0.3-0.6c-0.1-0.2-0.2-0.4-0.3-0.6c-0.1-0.2-0.2-0.3-0.3-0.5c-0.1-0.1-0.2-0.3-0.3-0.4s-0.1-0.2-0.2-0.3
				s-0.1-0.1-0.1-0.1l0.7-0.7c0.3,0.4,0.5,0.8,0.8,1.2c0.2,0.4,0.4,0.8,0.6,1.1c0.2,0.4,0.3,0.7,0.4,1c0.1,0.3,0.2,0.5,0.2,0.7
				c0.1,0,0.2-0.1,0.3-0.2c0.1-0.1,0.2-0.2,0.2-0.3c0.1-0.1,0.1-0.2,0.1-0.4c0-0.1,0-0.1,0-0.2c0-0.1,0-0.1,0-0.2l-0.5-3l0.9-0.2
				l0.4,3.3c0,0.2,0,0.3,0.1,0.5c0,0.2,0.1,0.3,0.1,0.4c0,0.1,0.1,0.2,0.2,0.3C-6165.8,15859.2-6165.7,15859.2-6165.5,15859.2
				L-6165.5,15859.2z"/>
			<path class="st1" d="M-6165.7,15859.2h0.7c0.1,0,0.2,0,0.4,0c0.1,0,0.2,0,0.4-0.1c0.1,0,0.2-0.1,0.3-0.2c0.1-0.1,0.1-0.2,0.1-0.3
				c0-0.1,0-0.1,0-0.3c0-0.1-0.1-0.2-0.1-0.4c0-0.1-0.1-0.3-0.1-0.4c-0.1-0.1-0.1-0.3-0.2-0.4l0.8-0.4c0.1,0.1,0.1,0.3,0.2,0.4
				c0.1,0.1,0.1,0.3,0.2,0.5s0.1,0.3,0.1,0.5c0,0.2,0,0.3,0,0.5c0,0.3,0,0.5-0.1,0.7c-0.1,0.2-0.2,0.3-0.4,0.5
				c-0.2,0.1-0.4,0.2-0.6,0.3s-0.5,0.1-0.7,0.1h-0.7V15859.2z M-6164.4,15861.1l-0.6,0.6l-0.6-0.6l0.6-0.6L-6164.4,15861.1z
				 M-6163.1,15861.1l-0.6,0.6l-0.6-0.6l0.6-0.6L-6163.1,15861.1z"/>
			<path class="st1" d="M-6162.5,15861.7c0.3-0.1,0.6-0.2,0.9-0.3c0.3-0.1,0.5-0.2,0.7-0.4c0.2-0.1,0.4-0.3,0.5-0.4
				c0.1-0.2,0.2-0.3,0.3-0.5c-0.2,0-0.4,0-0.5,0s-0.3,0-0.5-0.1c-0.2,0-0.3-0.1-0.4-0.1s-0.2-0.1-0.3-0.2c-0.1-0.1-0.2-0.2-0.2-0.4
				c-0.1-0.1-0.1-0.3-0.1-0.5c0-0.1,0-0.3,0-0.4c0-0.1,0.1-0.3,0.1-0.4c0.1-0.1,0.1-0.3,0.2-0.4s0.2-0.2,0.3-0.3
				c0.1-0.1,0.2-0.2,0.3-0.2c0.1-0.1,0.3-0.1,0.4-0.1c0.4,0,0.7,0.2,1,0.5c0.1,0.1,0.2,0.3,0.3,0.4c0.1,0.1,0.2,0.3,0.2,0.5
				c0.1,0.2,0.1,0.3,0.1,0.5c0,0.2,0,0.4,0,0.6c0,0.3,0,0.6-0.1,0.8c-0.1,0.3-0.2,0.5-0.3,0.7c-0.1,0.2-0.3,0.4-0.5,0.6
				c-0.2,0.2-0.4,0.3-0.6,0.5c-0.2,0.1-0.5,0.2-0.7,0.3c-0.3,0.1-0.5,0.2-0.8,0.2L-6162.5,15861.7z M-6160.9,15857.8
				c-0.1,0-0.1,0-0.2,0.1c-0.1,0.1-0.1,0.1-0.2,0.2c-0.1,0.1-0.1,0.2-0.1,0.3s-0.1,0.2-0.1,0.3c0,0.1,0,0.2,0.1,0.2
				c0,0.1,0.1,0.1,0.2,0.2c0.1,0,0.2,0.1,0.2,0.1c0.1,0,0.2,0,0.3,0c0,0,0.1,0,0.2,0c0.1,0,0.1,0,0.2,0s0.1,0,0.2,0s0.1,0,0.2,0
				c0-0.1,0-0.2,0-0.3c0-0.1-0.1-0.2-0.1-0.3c0-0.1-0.1-0.2-0.1-0.3c-0.1-0.1-0.1-0.2-0.2-0.3c-0.1-0.1-0.1-0.1-0.2-0.2
				C-6160.7,15857.9-6160.8,15857.8-6160.9,15857.8z"/>
		</g>
		<g class="st0">
			<path class="st1" d="M-6196.5,15883.6c-0.1,0-0.2,0-0.4,0c-0.1,0-0.2,0-0.4-0.1c-0.1,0-0.2-0.1-0.3-0.1c-0.1-0.1-0.2-0.1-0.3-0.2
				c-0.1-0.1-0.1-0.2-0.2-0.3c0-0.1-0.1-0.2-0.1-0.4c0-0.1,0-0.3,0.1-0.4c0.1-0.1,0.1-0.3,0.2-0.4c0.1-0.1,0.2-0.2,0.3-0.3
				s0.2-0.2,0.4-0.3c0.1-0.1,0.3-0.2,0.4-0.2c0.1-0.1,0.3-0.1,0.4-0.2l0-0.5l0.9-0.2c0,0,0,0.1,0,0.1c0,0.1,0,0.2,0,0.3
				c0,0.1,0,0.2,0,0.3c0,0.1,0,0.2,0,0.3c0,0.1,0,0.2,0,0.3c0,0.1,0,0.1,0,0.1c0,0.3,0.1,0.5,0.1,0.7c0,0.2,0.1,0.3,0.1,0.4
				c0,0.1,0,0.2,0.1,0.2s0,0.1,0,0.1c0,0.1,0.1,0.1,0.1,0.1c0,0,0.1,0.1,0.1,0.1s0.1,0,0.1,0c0.1,0,0.1,0,0.2,0h0.1v0.9h-0.1
				c-0.1,0-0.2,0-0.3,0s-0.2,0-0.3-0.1c-0.1,0-0.2-0.1-0.3-0.2c-0.1-0.1-0.2-0.2-0.3-0.3c-0.1,0-0.3,0-0.4,0
				C-6196.3,15883.6-6196.4,15883.6-6196.5,15883.6z M-6196.1,15882.7c0-0.1,0-0.1,0-0.2c0-0.1,0-0.2,0-0.3s0-0.2,0-0.3
				c0-0.1,0-0.2,0-0.3c-0.1,0-0.1,0.1-0.2,0.1c-0.1,0-0.2,0.1-0.2,0.1c-0.1,0-0.2,0.1-0.2,0.2c-0.1,0.1-0.1,0.1-0.2,0.2
				c-0.1,0.1-0.1,0.1-0.1,0.2c0,0.1-0.1,0.1-0.1,0.2c0,0.1,0,0.1,0.1,0.1c0.1,0,0.1,0.1,0.2,0.1c0.1,0,0.2,0,0.3,0
				c0.1,0,0.2,0,0.3,0c0.1,0,0.1,0,0.2,0S-6196.2,15882.7-6196.1,15882.7z"/>
			<path class="st1" d="M-6194.7,15883.2h0.6c0.1,0,0.2,0,0.3,0c0.1,0,0.2,0,0.3-0.1c0.1,0,0.2-0.1,0.2-0.2c0.1-0.1,0.1-0.2,0.1-0.3
				c0-0.1,0-0.1,0-0.3c0-0.1-0.1-0.2-0.1-0.4c0-0.1-0.1-0.3-0.1-0.4c-0.1-0.1-0.1-0.3-0.2-0.4l0.8-0.4c0.1,0.1,0.1,0.3,0.2,0.4
				c0.1,0.1,0.1,0.3,0.2,0.5c0,0.2,0.1,0.3,0.1,0.5c0,0.2,0,0.3,0,0.5c0,0.3,0,0.5-0.1,0.7c-0.1,0.2-0.2,0.3-0.4,0.5
				s-0.3,0.2-0.6,0.3c-0.2,0.1-0.5,0.1-0.7,0.1h-0.6V15883.2z M-6192.9,15879.6l-0.7,0.7l-0.7-0.7l0.7-0.7L-6192.9,15879.6z"/>
			<path class="st1" d="M-6189.9,15884.1h-0.1c-0.5,0-0.8-0.1-1.1-0.4c-0.2-0.2-0.4-0.6-0.4-1.1c0-0.1,0-0.2,0-0.4
				c0-0.2,0-0.4,0-0.6c0-0.1,0-0.3,0-0.5s0-0.3,0-0.5c0-0.2,0-0.4,0-0.5c0-0.2,0-0.3,0-0.5c0-0.2,0-0.3,0-0.5s0-0.3-0.1-0.4l0.9-0.3
				c0,0.1,0,0.3,0.1,0.5c0,0.2,0,0.4,0.1,0.6c0,0.2,0,0.4,0,0.7c0,0.2,0,0.4,0,0.6c0,0.1,0,0.3,0,0.4c0,0.1,0,0.3,0,0.4
				c0,0.1,0,0.2,0,0.2c0,0.1,0,0.2,0,0.2c0,0.1,0,0.1,0,0.2c0,0.1,0,0.1,0,0.2c0,0,0,0,0,0.1c0,0.1,0,0.2,0,0.2c0,0.1,0,0.1,0.1,0.2
				c0,0,0.1,0.1,0.2,0.1s0.1,0,0.2,0h0.2V15884.1z"/>
			<path class="st1" d="M-6190,15883.2h0.8c0.3,0,0.6,0,0.9-0.1c0.3-0.1,0.6-0.1,0.9-0.2c0.3-0.1,0.6-0.2,0.9-0.3
				c0.3-0.1,0.5-0.2,0.8-0.4c-0.2,0-0.4-0.1-0.6-0.2c-0.2-0.1-0.3-0.1-0.5-0.2c-0.2-0.1-0.3-0.1-0.4-0.2c-0.1-0.1-0.3-0.1-0.4-0.1
				c-0.1,0-0.2,0-0.2,0c-0.1,0-0.1,0.1-0.2,0.1c-0.1,0-0.1,0.1-0.2,0.1c0,0.1-0.1,0.1-0.1,0.2c0,0-0.1,0.1-0.1,0.1c0,0,0,0.1,0,0.1
				l-0.7-0.5c0.1-0.1,0.2-0.3,0.3-0.4c0.1-0.1,0.2-0.2,0.4-0.4s0.3-0.2,0.4-0.2s0.3-0.1,0.5-0.1c0.2,0,0.4,0,0.5,0.1
				c0.2,0,0.4,0.1,0.5,0.2s0.3,0.2,0.5,0.2c0.2,0.1,0.3,0.2,0.5,0.2c0.2,0.1,0.4,0.1,0.5,0.2c0.2,0.1,0.4,0.1,0.6,0.1l-0.1,0.9
				c-0.3,0.2-0.7,0.3-1,0.5s-0.7,0.3-1.1,0.5c-0.4,0.1-0.8,0.3-1.2,0.4c-0.4,0.1-0.9,0.2-1.3,0.2h-0.8V15883.2z M-6187.1,15879.6
				l-0.7,0.7l-0.7-0.7l0.7-0.7L-6187.1,15879.6z"/>
		</g>
		<g class="st0">
			<path class="st1" d="M-6269.5,15947.1c-0.1,0-0.3,0-0.4,0c-0.1,0-0.2-0.1-0.3-0.1s-0.2-0.1-0.3-0.2c-0.1-0.1-0.1-0.2-0.2-0.3
				c-0.5,0.4-1.2,0.7-2.1,0.7c-0.5,0-1-0.1-1.4-0.2c-0.4-0.1-0.6-0.3-0.8-0.6c-0.1-0.1-0.1-0.3-0.2-0.4c0-0.1,0-0.2,0-0.3
				c0,0,0-0.1,0-0.2c0-0.1,0-0.2,0.1-0.3s0.1-0.3,0.2-0.4l0.5,0.3c-0.1,0.1-0.1,0.2-0.1,0.3c0,0.1-0.1,0.2-0.1,0.3c0,0,0,0.1,0,0.1
				c0,0.1,0,0.1,0,0.2c0,0.1,0,0.1,0.1,0.2c0,0.1,0.1,0.2,0.2,0.2c0.1,0.1,0.2,0.1,0.4,0.1c0.1,0,0.3,0.1,0.5,0.1c0.2,0,0.4,0,0.6,0
				c0.2,0,0.4,0,0.5,0s0.3,0,0.5-0.1c0.1,0,0.3-0.1,0.4-0.1s0.2-0.1,0.3-0.2c0.1-0.1,0.1-0.1,0.2-0.2s0.1-0.2,0.1-0.2
				s0.1-0.2,0.1-0.3c0-0.1,0-0.2,0.1-0.3l0.6,0.2c0,0.1-0.1,0.2-0.1,0.3c0,0.1,0,0.2,0,0.3c0,0,0,0,0,0.1s0,0.1,0,0.2
				s0.1,0.1,0.1,0.2c0.1,0.1,0.1,0.1,0.2,0.1c0.1,0,0.2,0,0.3,0h0.1L-6269.5,15947.1L-6269.5,15947.1z M-6272.7,15944.4l-0.4,0.4
				l-0.4-0.4l0.4-0.4L-6272.7,15944.4z M-6271.7,15944.4l-0.4,0.4l-0.4-0.4l0.4-0.4L-6271.7,15944.4z"/>
			<path class="st1" d="M-6269.3,15946.4c0.1,0,0.3,0,0.4,0c0.1,0,0.2,0,0.3-0.1s0.2-0.1,0.2-0.2c0.1-0.1,0.1-0.2,0.1-0.3
				c0-0.1,0-0.2,0-0.3c0-0.1,0-0.1,0-0.2c0-0.1,0-0.1-0.1-0.2l0.6-0.2c0,0.1,0,0.2,0.1,0.2c0,0.1,0,0.1,0,0.2c0,0.1,0,0.1,0,0.2
				c0,0.1,0,0.1,0,0.2c0,0.1,0,0.1,0,0.2c0,0.1,0,0.1,0.1,0.2c0,0.1,0.1,0.1,0.1,0.1s0.1,0.1,0.2,0.1h0.5c0.1,0,0.2,0,0.3,0
				s0.2,0,0.3,0c0.1,0,0.2,0,0.2-0.1s0.1-0.1,0.2-0.1c0,0,0-0.1,0-0.2c0-0.1,0-0.1,0-0.2c0-0.1,0-0.2-0.1-0.2c0-0.1-0.1-0.2-0.1-0.2
				s-0.1-0.2-0.1-0.2c0-0.1-0.1-0.1-0.1-0.2l0.6-0.3c0,0.1,0.1,0.2,0.1,0.3c0,0.1,0.1,0.2,0.1,0.4c0,0.1,0.1,0.2,0.1,0.4
				c0,0.1,0,0.2,0,0.3c0,0.2,0,0.3-0.1,0.5c-0.1,0.2-0.2,0.3-0.3,0.4s-0.3,0.2-0.4,0.2c-0.1,0-0.1,0-0.2,0c-0.1,0-0.2,0-0.2,0
				c-0.1,0-0.2,0-0.2,0s-0.1,0-0.2,0h-0.5c-0.2,0-0.3,0-0.4-0.1s-0.2-0.1-0.3-0.2c-0.1,0.1-0.2,0.1-0.3,0.1s-0.2,0.1-0.3,0.1
				c-0.1,0-0.2,0-0.4,0.1c-0.1,0-0.2,0-0.4,0h-0.2v-0.7H-6269.3z M-6268.6,15948.1l-0.4,0.4l-0.4-0.4l0.4-0.4L-6268.6,15948.1z
				 M-6267.6,15948.1l-0.4,0.4l-0.4-0.4l0.4-0.4L-6267.6,15948.1z M-6266.2,15947.9l-0.4,0.4l-0.4-0.4l0.4-0.4L-6266.2,15947.9z
				 M-6265.2,15947.9l-0.4,0.4l-0.4-0.4l0.4-0.4L-6265.2,15947.9z"/>
			<path class="st1" d="M-6264.6,15948.3c0.3,0,0.5-0.1,0.7-0.2c0.2-0.1,0.4-0.2,0.5-0.3c0.2-0.1,0.3-0.2,0.4-0.3
				c0.1-0.1,0.2-0.2,0.2-0.4c-0.1,0-0.3,0-0.4,0c-0.1,0-0.3,0-0.4-0.1c-0.1,0-0.2-0.1-0.3-0.1s-0.2-0.1-0.3-0.2
				c-0.1-0.1-0.1-0.2-0.2-0.3c0-0.1-0.1-0.2-0.1-0.4c0-0.1,0-0.2,0-0.3c0-0.1,0.1-0.2,0.1-0.3s0.1-0.2,0.1-0.3
				c0.1-0.1,0.1-0.2,0.2-0.2c0.1-0.1,0.2-0.1,0.2-0.2s0.2-0.1,0.3-0.1c0.3,0,0.5,0.1,0.7,0.4c0.1,0.1,0.1,0.2,0.2,0.3
				c0.1,0.1,0.1,0.2,0.2,0.3c0,0.1,0.1,0.2,0.1,0.4s0,0.3,0.1,0.4h0.2v0.7h-0.2c-0.1,0.3-0.2,0.5-0.3,0.7c-0.1,0.2-0.3,0.4-0.5,0.5
				c-0.2,0.2-0.4,0.3-0.7,0.4c-0.2,0.1-0.5,0.2-0.8,0.2L-6264.6,15948.3z M-6263.4,15945.4c0,0-0.1,0-0.1,0.1
				c-0.1,0-0.1,0.1-0.1,0.1c0,0.1-0.1,0.1-0.1,0.2c0,0.1,0,0.1,0,0.2c0,0.1,0,0.1,0.1,0.2c0,0,0.1,0.1,0.1,0.1
				c0.1,0,0.1,0.1,0.2,0.1c0.1,0,0.1,0,0.2,0c0,0,0.1,0,0.1,0s0.1,0,0.1,0c0,0,0.1,0,0.1,0c0,0,0.1,0,0.1,0c0-0.1,0-0.1,0-0.2
				c0-0.1,0-0.2-0.1-0.2c0-0.1-0.1-0.2-0.1-0.2s-0.1-0.1-0.1-0.2c0-0.1-0.1-0.1-0.1-0.1
				C-6263.3,15945.4-6263.4,15945.4-6263.4,15945.4z"/>
			<path class="st1" d="M-6262,15946.4c0.1,0,0.2,0,0.3-0.1s0.1-0.1,0.2-0.2c0.1-0.1,0.1-0.1,0.2-0.2s0.1-0.2,0.1-0.3
				c0-0.1,0.1-0.2,0.1-0.3c0-0.1,0-0.2,0.1-0.2l0.7,0.1c0,0,0,0.1-0.1,0.2c0,0.1-0.1,0.2-0.1,0.2c0,0.1,0,0.2-0.1,0.3
				c0,0.1,0,0.1,0,0.2c0,0,0,0,0,0.1c0,0,0,0.1,0.1,0.1s0.1,0.1,0.2,0.1c0.1,0,0.1,0,0.2-0.1c0.1,0,0.1-0.1,0.2-0.2
				c0-0.1,0.1-0.2,0.1-0.2c0-0.1,0.1-0.2,0.1-0.3c0-0.1,0-0.2,0.1-0.3c0-0.1,0-0.2,0-0.2l0.6,0.1c0,0,0,0.1,0,0.1c0,0.1,0,0.1,0,0.2
				c0,0.1,0,0.1,0,0.2c0,0.1,0,0.1,0,0.2c0,0,0,0,0,0c0,0,0,0.1,0,0.1c0,0,0,0.1,0.1,0.1c0,0,0.1,0.1,0.1,0.1c0,0,0.1,0,0.2,0
				c0.1,0,0.2,0,0.3-0.1s0.1-0.2,0.1-0.3c0-0.1,0-0.2,0-0.3c0-0.1-0.1-0.2-0.1-0.3s-0.1-0.2-0.1-0.3c0-0.1-0.1-0.2-0.1-0.2l0.6-0.3
				c0,0,0,0.1,0.1,0.1c0,0,0.1,0.1,0.1,0.2c0,0.1,0.1,0.2,0.1,0.2c0,0.1,0.1,0.2,0.1,0.3c0,0.1,0,0.2,0.1,0.3c0,0.1,0,0.2,0,0.3
				c0,0.2,0,0.3-0.1,0.4c0,0.1-0.1,0.2-0.2,0.3c-0.1,0.1-0.2,0.2-0.4,0.2c-0.1,0-0.3,0.1-0.5,0.1c0,0,0,0,0,0s0,0,0,0
				c-0.1,0-0.2,0-0.2,0s-0.1-0.1-0.2-0.1c-0.1,0-0.1-0.1-0.2-0.1c0-0.1-0.1-0.1-0.1-0.2c0,0.1-0.1,0.1-0.1,0.2c0,0-0.1,0.1-0.2,0.1
				c-0.1,0-0.1,0.1-0.2,0.1c-0.1,0-0.2,0-0.3,0c0,0,0,0,0,0c-0.1,0-0.2,0-0.2,0c-0.1,0-0.1,0-0.2-0.1c-0.1,0-0.1-0.1-0.2-0.1
				c0-0.1-0.1-0.1-0.1-0.2c0,0-0.1,0.1-0.1,0.1s-0.1,0.1-0.2,0.1c-0.1,0-0.1,0.1-0.2,0.1s-0.2,0-0.3,0h-0.1v-0.7H-6262z"/>
		</g>
		<g class="st0">
			<path class="st1" d="M-6077.4,15921.7l-0.1-2.1c0,0,0,0,0-0.1c0,0,0-0.1,0-0.1c0,0,0-0.1,0.1-0.1c0-0.1,0.1-0.1,0.1-0.1
				c0,0,0,0,0.1,0s0.1,0,0.1,0c0,0,0.1,0,0.1,0c0,0,0.1,0,0.1,0c0-0.1,0.1-0.1,0.1-0.2s0.1-0.1,0.1-0.2c0-0.1,0.1-0.1,0.1-0.2
				c0.1-0.1,0.1-0.1,0.2-0.2s0.1-0.1,0.2-0.1c0.1,0,0.1,0,0.2,0c0,0,0,0,0,0c0.1,0,0.3,0,0.4,0.1c0.1,0.1,0.2,0.1,0.3,0.2
				s0.1,0.2,0.2,0.3c0,0.1,0.1,0.2,0.1,0.4c0,0.1,0,0.2,0,0.3s0,0.2-0.1,0.3c0,0.1-0.1,0.2-0.2,0.2s-0.1,0.1-0.2,0.1c0,0,0,0-0.1,0
				c0,0-0.1,0-0.1,0s-0.1,0-0.2,0c-0.1,0-0.2-0.1-0.2-0.1c-0.1,0-0.2-0.1-0.3-0.1s-0.2-0.1-0.3-0.1s-0.2-0.1-0.2-0.1l0.1,2
				L-6077.4,15921.7z M-6076.3,15919c0,0,0,0.1-0.1,0.1c0,0,0,0.1,0,0.1c0,0,0.1,0,0.2,0.1c0.1,0,0.1,0.1,0.2,0.1
				c0.1,0,0.1,0,0.2,0.1c0.1,0,0.1,0,0.2,0.1c0,0,0,0,0-0.1c0,0,0-0.1,0-0.1c0,0,0-0.1,0-0.1c0,0,0-0.1,0-0.1c0-0.1,0-0.1,0-0.2
				c0-0.1-0.1-0.1-0.1-0.1c0,0-0.1-0.1-0.1-0.1c0,0-0.1,0-0.1,0c0,0,0,0,0,0c0,0,0,0-0.1,0s-0.1,0-0.1,0.1c0,0-0.1,0.1-0.1,0.1
				C-6076.3,15918.9-6076.3,15918.9-6076.3,15919z"/>
			<path class="st1" d="M-6074.8,15921c0.2,0,0.4-0.1,0.6-0.2s0.3-0.1,0.4-0.2c0.1-0.1,0.2-0.2,0.3-0.3c0.1-0.1,0.1-0.2,0.2-0.3
				c-0.1,0-0.2,0-0.3,0c-0.1,0-0.2,0-0.3,0c-0.1,0-0.2-0.1-0.3-0.1c-0.1,0-0.2-0.1-0.2-0.2c-0.1-0.1-0.1-0.1-0.1-0.2
				c0-0.1-0.1-0.2-0.1-0.3c0-0.1,0-0.2,0-0.3s0-0.2,0.1-0.3c0-0.1,0.1-0.2,0.1-0.2c0-0.1,0.1-0.1,0.2-0.2c0.1-0.1,0.1-0.1,0.2-0.1
				s0.2,0,0.2,0c0.2,0,0.4,0.1,0.6,0.3c0.1,0.1,0.1,0.1,0.2,0.2c0,0.1,0.1,0.2,0.1,0.3s0.1,0.2,0.1,0.3s0,0.2,0,0.3h0.1v0.6h-0.2
				c0,0.2-0.1,0.4-0.3,0.6c-0.1,0.2-0.3,0.3-0.4,0.4c-0.2,0.1-0.3,0.2-0.5,0.3c-0.2,0.1-0.4,0.1-0.6,0.2L-6074.8,15921z
				 M-6073.8,15918.7c0,0-0.1,0-0.1,0c0,0-0.1,0.1-0.1,0.1c0,0-0.1,0.1-0.1,0.2c0,0.1,0,0.1,0,0.2c0,0.1,0,0.1,0,0.2
				c0,0,0.1,0.1,0.1,0.1c0,0,0.1,0,0.1,0.1c0.1,0,0.1,0,0.2,0c0,0,0.1,0,0.1,0c0,0,0.1,0,0.1,0c0,0,0.1,0,0.1,0c0,0,0.1,0,0.1,0
				c0-0.1,0-0.1,0-0.2c0-0.1,0-0.1-0.1-0.2s-0.1-0.1-0.1-0.2c0-0.1-0.1-0.1-0.1-0.2c0,0-0.1-0.1-0.1-0.1
				S-6073.8,15918.7-6073.8,15918.7z"/>
			<path class="st1" d="M-6072.7,15919.5h0.3c0.1,0,0.1,0,0.2,0c0.1,0,0.1,0,0.2-0.1c0.1,0,0.1-0.1,0.1-0.1s0.1-0.1,0.1-0.2
				c0,0,0-0.1,0-0.2c0-0.1,0-0.1-0.1-0.2c0-0.1-0.1-0.2-0.1-0.3c0-0.1-0.1-0.2-0.1-0.2l0.5-0.2c0,0.1,0.1,0.2,0.1,0.3
				s0.1,0.2,0.1,0.3s0.1,0.2,0.1,0.3s0,0.2,0,0.3c0,0.2,0,0.3-0.1,0.4c-0.1,0.1-0.1,0.2-0.2,0.3c-0.1,0.1-0.2,0.1-0.4,0.2
				c-0.1,0-0.3,0.1-0.5,0.1h-0.3V15919.5z M-6071.6,15920.8l-0.4,0.4l-0.4-0.4l0.4-0.4L-6071.6,15920.8z"/>
		</g>
		<g class="st0">
			<path class="st1" d="M-6075.8,15926.1c0.1,0,0.1,0,0.2,0c0,0,0,0,0.1,0c0,0,0.1,0,0.2,0c0.1,0,0.1,0,0.2,0s0.1,0,0.2,0.1
				l-0.2,0.5c-0.1,0-0.2-0.1-0.2-0.1c0,0-0.1,0-0.1,0c0,0-0.1,0-0.1,0c0,0-0.1,0-0.2,0c-0.1,0-0.1,0.1-0.2,0.1
				c-0.1,0-0.1,0.1-0.2,0.1s-0.1,0.1-0.1,0.2c0,0.1-0.1,0.1-0.1,0.2c0,0.1,0,0.1,0,0.2c0,0.1,0,0.1,0,0.1c0,0,0.1,0.1,0.1,0.1
				c0.1,0,0.1,0,0.2,0.1c0.1,0,0.1,0,0.2,0c0.1,0,0.2,0,0.3,0.1c0.1,0,0.2,0.1,0.2,0.1c0.1,0,0.1,0.1,0.2,0.2c0,0.1,0.1,0.1,0.1,0.2
				c0,0,0,0,0,0c0,0.2,0,0.3-0.1,0.4c-0.1,0.1-0.1,0.2-0.2,0.3c-0.1,0.1-0.2,0.2-0.3,0.2c-0.1,0.1-0.3,0.1-0.4,0.1
				c-0.1,0-0.3,0.1-0.4,0.1c-0.1,0-0.3,0-0.4,0c-0.3,0-0.5,0-0.7-0.1s-0.4-0.2-0.5-0.3c-0.1-0.1-0.3-0.3-0.3-0.5
				c0-0.1-0.1-0.3-0.1-0.4c0-0.1,0-0.2,0-0.3c0-0.1,0-0.2,0-0.3s0-0.2,0.1-0.3c0-0.1,0-0.2,0.1-0.3s0-0.2,0.1-0.2
				c0-0.1,0-0.1,0.1-0.2c0,0,0-0.1,0-0.1l0.5,0.2c0,0.1-0.1,0.2-0.1,0.3c0,0.1-0.1,0.2-0.1,0.3c0,0.1,0,0.2-0.1,0.3
				c0,0.1,0,0.2,0,0.3c0,0,0,0.1,0,0.1c0,0.1,0,0.2,0.1,0.3s0.1,0.2,0.2,0.3s0.2,0.1,0.4,0.2c0.1,0,0.3,0.1,0.5,0.1
				c0.2,0,0.4,0,0.5,0c0.2,0,0.3-0.1,0.4-0.1c0.1,0,0.2-0.1,0.3-0.2c0.1-0.1,0.1-0.1,0.1-0.2c0,0,0,0,0,0c0,0-0.1,0-0.1,0
				c0,0-0.1,0-0.1,0s-0.1,0-0.1,0c-0.1,0-0.2-0.1-0.3-0.1c-0.1,0-0.2-0.1-0.3-0.2c-0.1-0.1-0.1-0.1-0.2-0.2c0-0.1-0.1-0.2-0.1-0.4
				c0-0.2,0-0.3,0.1-0.5c0.1-0.2,0.1-0.3,0.2-0.4s0.2-0.2,0.4-0.3C-6076.1,15926.2-6075.9,15926.2-6075.8,15926.1z"/>
			<path class="st1" d="M-6074.5,15927.2c0.1,0,0.1,0.1,0.2,0.1s0.2,0.1,0.2,0.1c0.1,0,0.2,0.1,0.2,0.1c0.1,0,0.2,0,0.2,0
				c0,0,0.1,0,0.1,0c0,0,0.1,0,0.1,0c0,0,0.1,0,0.1,0c0,0,0.1,0,0.1,0c0,0,0.1,0,0.1-0.1c0,0,0-0.1,0-0.1c0,0,0,0,0,0
				c0-0.1,0-0.1,0-0.2s-0.1-0.2-0.1-0.2s-0.1-0.2-0.2-0.2c-0.1-0.1-0.2-0.2-0.2-0.2c-0.1-0.1-0.2-0.1-0.2-0.2
				c-0.1-0.1-0.2-0.1-0.2-0.2l0.3-0.5c0.1,0.1,0.3,0.2,0.4,0.3c0.1,0.1,0.2,0.2,0.4,0.4c0.1,0.1,0.2,0.3,0.3,0.4s0.1,0.3,0.2,0.4
				c0,0.1,0,0.2,0,0.2c0,0.1,0,0.2,0,0.3c0,0.1-0.1,0.2-0.2,0.3c-0.1,0.1-0.2,0.2-0.4,0.2c-0.1,0-0.3,0.1-0.4,0.1c0,0,0,0-0.1,0
				c-0.1,0-0.2,0-0.3,0c-0.1,0-0.2,0-0.3-0.1c-0.1,0-0.2-0.1-0.3-0.1s-0.2-0.1-0.2-0.1L-6074.5,15927.2z"/>
			<path class="st1" d="M-6070.6,15928.1L-6070.6,15928.1c-0.1,0-0.2,0-0.2,0c-0.1,0-0.1,0-0.2-0.1c0,0.2-0.1,0.4-0.2,0.5
				c-0.1,0.2-0.2,0.3-0.3,0.5c-0.1,0.1-0.3,0.3-0.5,0.4c-0.2,0.1-0.4,0.2-0.5,0.3l-0.2-0.5c0.1-0.1,0.2-0.1,0.3-0.2s0.2-0.1,0.3-0.2
				c0.1-0.1,0.2-0.1,0.3-0.2c0.1-0.1,0.2-0.2,0.2-0.2c0.1-0.1,0.1-0.2,0.1-0.3c0-0.1,0.1-0.2,0.1-0.3c0-0.1,0-0.1,0-0.2
				s0-0.2-0.1-0.2c0-0.1-0.1-0.2-0.1-0.3s-0.1-0.2-0.1-0.3l0.5-0.2c0.1,0.2,0.1,0.3,0.2,0.4c0,0.1,0.1,0.2,0.1,0.3s0.1,0.1,0.1,0.1
				s0.1,0,0.2,0h0.1L-6070.6,15928.1z"/>
			<path class="st1" d="M-6070.7,15927.5h0.3c0.1,0,0.1,0,0.2,0c0.1,0,0.1,0,0.2,0s0.1,0,0.2,0s0.1,0,0.2-0.1c0,0,0.1-0.1,0.1-0.1
				c0-0.1,0-0.1,0-0.2c0-0.1,0-0.2-0.1-0.3s-0.1-0.2-0.2-0.3c-0.1-0.1-0.2-0.2-0.3-0.4c-0.1-0.1-0.2-0.2-0.4-0.4l0.1-0.5l1.7-0.8
				l0.2,0.5l-1.4,0.6c0.1,0.1,0.1,0.1,0.2,0.2s0.1,0.1,0.2,0.2c0.1,0.1,0.2,0.2,0.3,0.3c0.1,0.1,0.1,0.2,0.2,0.3
				c0,0.1,0.1,0.2,0.1,0.3s0,0.2,0,0.3c0,0.2,0,0.3-0.1,0.4c-0.1,0.1-0.1,0.2-0.2,0.3c-0.1,0.1-0.2,0.2-0.3,0.2
				c-0.1,0-0.3,0.1-0.4,0.1h-0.7V15927.5z M-6068.8,15924.2l-1.7,0.7l0-0.3l1.6-0.7L-6068.8,15924.2z"/>
		</g>
		<g class="st0">
			<path class="st1" d="M-6166.9,15905.1c-0.2,0-0.5,0.1-0.7,0.3c-0.2,0.1-0.4,0.3-0.6,0.4c-0.1,0.1-0.2,0.3-0.3,0.5
				c0,0.2-0.1,0.3,0,0.5c0,0.2,0.1,0.3,0.2,0.5c0.1,0.2,0.2,0.3,0.3,0.4c0.1,0.1,0.3,0.2,0.4,0.3c0.2,0.1,0.3,0.1,0.5,0.2
				c0.2,0,0.4,0,0.6-0.1c0.2-0.1,0.4-0.2,0.6-0.4c0.1-0.1,0.3-0.3,0.4-0.5c0.2-0.2,0.4-0.4,0.5-0.6c0.2-0.2,0.4-0.4,0.6-0.6
				c0.2-0.2,0.4-0.4,0.6-0.6c0.2-0.2,0.5-0.5,0.7-0.8c0.2-0.3,0.5-0.5,0.7-0.8l0.8,0.5c-0.3,0.3-0.5,0.6-0.8,0.8
				c-0.3,0.3-0.5,0.5-0.7,0.8l-1.2,1.3c-0.1,0.1-0.1,0.1-0.1,0.2c0,0.1-0.1,0.2-0.1,0.2c0,0.1,0,0.2,0,0.2c0,0.1,0.1,0.2,0.2,0.2
				l0,0l-0.6,0.6l0,0c-0.1-0.1-0.2-0.2-0.2-0.3c-0.1-0.1-0.1-0.2-0.1-0.3l0,0c-0.2,0.2-0.4,0.4-0.6,0.5c-0.2,0.1-0.4,0.2-0.6,0.2
				c-0.2,0-0.4,0-0.6,0c-0.2,0-0.4-0.1-0.6-0.1c-0.2-0.1-0.3-0.2-0.5-0.3c-0.1-0.1-0.3-0.2-0.4-0.3c-0.1-0.1-0.2-0.2-0.3-0.4
				c-0.1-0.1-0.2-0.3-0.2-0.5c-0.1-0.2-0.1-0.3-0.1-0.5s0-0.4,0-0.6c0-0.2,0.1-0.4,0.2-0.6c0.1-0.2,0.2-0.4,0.4-0.5c0,0,0,0,0,0
				c0.1-0.1,0.2-0.2,0.3-0.3c0.1-0.1,0.3-0.2,0.4-0.3s0.3-0.1,0.4-0.2c0.1-0.1,0.3-0.1,0.4-0.1L-6166.9,15905.1z"/>
			<path class="st1" d="M-6162.2,15910.3l-0.6,0.6l0,0c-0.2-0.2-0.3-0.3-0.3-0.5c-0.1-0.2-0.1-0.3-0.1-0.5c-0.1,0-0.3,0-0.4-0.1
				c-0.1-0.1-0.3-0.2-0.4-0.3s-0.3-0.2-0.4-0.4c-0.1-0.1-0.3-0.3-0.4-0.4l-0.1-0.1l0.6-0.6l0.1,0.1c0.2,0.2,0.4,0.3,0.5,0.5
				s0.3,0.2,0.4,0.2c0.1,0,0.2,0,0.3,0s0.2-0.1,0.3-0.2c0.1-0.1,0.1-0.1,0.2-0.3c0.1-0.1,0.2-0.3,0.3-0.5l0.8,0.4
				c-0.1,0.1-0.1,0.2-0.1,0.2c0,0.1-0.1,0.1-0.1,0.2c0,0.1-0.1,0.1-0.2,0.2c-0.1,0.1-0.1,0.2-0.2,0.2c0,0.1-0.1,0.1-0.1,0.2
				c0,0.1-0.1,0.2-0.1,0.2c0,0.1,0,0.2,0,0.3C-6162.4,15910.1-6162.3,15910.2-6162.2,15910.3L-6162.2,15910.3z M-6161.1,15907h-0.8
				l0-0.8l0.8,0V15907z M-6160.2,15907.9l-0.8,0l0-0.8h0.8L-6160.2,15907.9z"/>
			<path class="st1" d="M-6162.3,15910.2L-6162.3,15910.2c0.1,0.1,0.2,0.2,0.2,0.2s0.1,0.1,0.1,0.1s0.1,0.1,0.1,0.1s0.1,0.1,0.2,0.1
				c0-0.2,0.1-0.4,0.2-0.5c0.1-0.2,0.2-0.3,0.3-0.4c0.1-0.1,0.2-0.2,0.3-0.2c0.1-0.1,0.2-0.1,0.3-0.2c0.1,0,0.2-0.1,0.4-0.1
				c0.1,0,0.3,0,0.4,0c0,0,0,0,0-0.1s0-0.1-0.1-0.2l1-0.2c0,0,0,0,0,0.1c0,0.1,0,0.1,0.1,0.2s0.1,0.2,0.1,0.3c0,0.1,0.1,0.2,0.1,0.4
				c0,0.1,0.1,0.3,0.1,0.4c0,0.1,0.1,0.2,0.1,0.3c0.1,0.2,0.2,0.4,0.2,0.6c0.1,0.2,0.1,0.3,0.2,0.5c0,0.1,0.1,0.3,0.1,0.4
				c0,0.1,0,0.3,0,0.4c0,0.2-0.1,0.4-0.2,0.6c-0.1,0.1-0.1,0.2-0.2,0.3c-0.1,0.1-0.2,0.1-0.3,0.2s-0.3,0.1-0.5,0.2
				c-0.2,0-0.4,0-0.6,0c-0.1,0-0.2-0.1-0.2-0.1c-0.1,0-0.2-0.1-0.3-0.2c-0.1-0.1-0.2-0.1-0.3-0.2c-0.1-0.1-0.1-0.1-0.2-0.2
				c-0.1-0.1-0.1-0.1-0.2-0.2c-0.1-0.1-0.2-0.2-0.2-0.3s-0.1-0.2-0.2-0.3c-0.1-0.1-0.1-0.2-0.1-0.3c-0.2-0.1-0.4-0.3-0.7-0.4
				c-0.2-0.2-0.5-0.4-0.7-0.7l0,0L-6162.3,15910.2z M-6159.5,15910.3C-6159.6,15910.2-6159.6,15910.2-6159.5,15910.3
				c-0.1-0.1-0.2-0.1-0.3-0.1c-0.1,0-0.2,0-0.3,0c-0.1,0-0.2,0.1-0.3,0.1c-0.1,0-0.2,0.1-0.2,0.2c0,0,0,0,0,0.1
				c0,0.1-0.1,0.1-0.1,0.2c0,0.1-0.1,0.2-0.1,0.2c0,0.1,0,0.2,0,0.2c0,0.1,0,0.1,0.1,0.2c0.1,0.1,0.2,0.1,0.3,0.1s0.2,0,0.3,0
				c0.1,0,0.2,0,0.3-0.1s0.2-0.1,0.3-0.2c0,0,0.1,0,0.1-0.1c0.1-0.1,0.1-0.1,0.1-0.2s0-0.2,0-0.2c0-0.1,0-0.2,0-0.3
				C-6159.5,15910.4-6159.5,15910.3-6159.5,15910.3z M-6159,15911.8c-0.2,0.2-0.3,0.3-0.5,0.4c-0.2,0.1-0.4,0.2-0.6,0.2
				c0,0,0,0.1,0.1,0.1s0,0.1,0.1,0.1c0.1,0.1,0.2,0.2,0.3,0.3c0.1,0.1,0.2,0.1,0.3,0.1c0.1,0,0.2,0,0.3,0s0.2-0.1,0.2-0.1
				c0.1-0.1,0.1-0.1,0.1-0.2c0-0.1,0-0.2,0-0.3c0-0.1,0-0.2,0-0.3c0-0.1-0.1-0.2-0.1-0.4
				C-6158.8,15911.6-6158.9,15911.7-6159,15911.8C-6158.9,15911.7-6159,15911.7-6159,15911.8z"/>
		</g>
	</g>
</g>
</svg>
