<?xml version="1.0" encoding="utf-8"?>
<!-- Generator: Adobe Illustrator 23.0.3, SVG Export Plug-In . SVG Version: 6.00 Build 0)  -->
<svg version="1.1" id="Layer_1" xmlns="http://www.w3.org/2000/svg" xmlns:xlink="http://www.w3.org/1999/xlink" x="0px" y="0px"
	 viewBox="0 0 17.1 20.1" style="enable-background:new 0 0 17.1 20.1;" xml:space="preserve">
<style type="text/css">
	.st0{fill:#585858;}
</style>
<g>
	<path class="st0" d="M8.5,10.9h0.1c0,0,0.1,0,0.1,0c1.1,0,2.2-0.5,2.9-1.3c1.6-1.8,1.4-4.9,1.3-5.2c0.1-1.6-0.7-3-2.1-3.8
		C10.2,0.2,9.4,0,8.6,0H8.5c0,0,0,0,0,0C7.7,0,7,0.2,6.3,0.6C4.9,1.4,4.1,2.9,4.2,4.4c0,0.3-0.3,3.4,1.3,5.2
		C6.3,10.5,7.3,11,8.5,10.9z M5.6,4.4c0.2-2.7,2.1-3,3-3h0c1.3,0,2.8,0.6,3,3.1c0,0,0,0.1,0,0.1c0,0.5,0.2,2.9-1,4.1
		c-0.5,0.6-1.2,0.9-2,0.8h0c-0.8,0-1.5-0.3-2-0.8c-1.2-1.4-1-4.1-1-4.1L5.6,4.4L5.6,4.4z"/>
	<path class="st0" d="M17,15.8l0.2,0l0-0.1c0-0.8-0.1-2.8-2-3.4l0,0c-1.2-0.3-2.3-0.8-3.3-1.5c-0.3-0.2-0.7-0.2-1,0.1
		c-0.2,0.3-0.2,0.7,0.1,1c0,0,0.1,0,0.1,0.1c1.2,0.8,2.4,1.4,3.8,1.7c0.9,0.3,1,1.2,1,2.1c0,0,0,0.1,0,0.1c0,0.4,0,0.8-0.1,1.2
		c-2.2,1.1-4.6,1.7-7.1,1.6c-2.5,0-4.9-0.5-7.1-1.6c-0.1-0.4-0.1-0.8-0.1-1.2v-0.1c0-0.9,0.1-1.8,1-2.2c1.3-0.4,2.6-1,3.8-1.7
		c0.2-0.1,0.3-0.2,0.3-0.4c0-0.2,0-0.4-0.1-0.5c-0.1-0.2-0.2-0.3-0.4-0.3c-0.2,0-0.4,0-0.5,0.1c0,0-0.1,0-0.1,0.1
		c-1,0.7-2.2,1.2-3.4,1.5l0,0c-1.9,0.6-1.9,2.6-2,3.5c0,0,0,0.1,0,0.1c0,0.6,0,1.3,0.2,1.9c0.1,0.1,0.1,0.3,0.3,0.3
		c2.3,1.3,5,2,7.6,2c0.1,0,0.3,0,0.4,0c2.8,0.1,5.6-0.6,8.1-2c0.1-0.1,0.2-0.2,0.3-0.3c0.2-0.6,0.2-1.3,0.2-1.9L17,15.8L17,15.8z"/>
</g>
</svg>
