<?xml version="1.0" encoding="utf-8"?>
<!-- Generator: Adobe Illustrator 23.0.3, SVG Export Plug-In . SVG Version: 6.00 Build 0)  -->
<svg version="1.1" id="Layer_1" xmlns="http://www.w3.org/2000/svg" xmlns:xlink="http://www.w3.org/1999/xlink" x="0px" y="0px"
	 viewBox="0 0 28.4 19.3" style="enable-background:new 0 0 28.4 19.3;" xml:space="preserve">
<style type="text/css">
	.st0{fill:#585858;}
</style>
<g>
	<path class="st0" d="M26.3,5.7H11.4c0,0-0.1,0-0.1,0c-1.1,0-2,0.9-2,2.1V16c0,1.1,0.9,2.1,2.1,2.1h2.9h12h0c0,0,0,0,0.1,0
		c1.1,0,2-0.9,2-2.1V9V8.1V7.7C28.4,6.6,27.4,5.7,26.3,5.7z M27.5,10.2h-3.9H23H10.2V9h17.3V10.2z M11.4,17.2
		c-0.7,0-1.2-0.6-1.2-1.2v-0.8h0V11H23h0.7h3.9v5c0,0.7-0.6,1.2-1.2,1.2H11.4z M10.2,8.1V7.7c0-0.7,0.6-1.2,1.2-1.2h14.9
		c0.7,0,1.2,0.6,1.2,1.2v0.4H10.2z"/>
	<rect x="11.4" y="15.2" class="st0" width="5.4" height="0.8"/>
	<rect x="11.4" y="13.1" class="st0" width="3.3" height="0.8"/>
	<path class="st0" d="M26.3,13.1c0-0.2-0.2-0.4-0.4-0.4h-2.5c-0.2,0-0.4,0.2-0.4,0.4v2.5c0,0.2,0.2,0.4,0.4,0.4h2.5
		c0.2,0,0.4-0.2,0.4-0.4V13.1z M25.5,15.2h-1.7v-1.7h1.7V15.2z"/>
	<path class="st0" d="M8.3,17.8L8.3,17.8c-0.7-0.1-1.4-0.3-2-0.6l0,0C6.1,17.1,6,17,5.8,16.9c-0.3-0.1-0.5-0.3-0.8-0.5
		C1.3,13.8,0.5,8.7,3,5c0.5-0.8,1.2-1.5,2-2l0,0c2.8-1.9,6.4-1.9,9.2-0.1l-0.6,0.9c-0.2,0.2-0.1,0.4,0.2,0.4L16.5,4
		C16.8,4,17,3.8,17,3.5c0,0,0-0.1,0-0.1l-0.7-2.6c-0.1-0.3-0.3-0.3-0.5-0.1l-0.6,0.9c-2.1-1.4-4.6-1.9-7.1-1.5
		c-0.3,0-0.5,0.1-0.7,0.2l0,0c-2.1,0.5-4,1.8-5.3,3.6c0,0,0,0,0,0c0,0.1-0.1,0.1-0.1,0.2C1.7,4.2,1.6,4.3,1.6,4.4c0,0,0,0,0,0
		C0.5,6.2-0.1,8.1,0,10.2c0,0,0,0,0,0c0,0.2,0,0.4,0,0.6c0,0,0,0,0,0c0,0.2,0,0.4,0.1,0.6c0.3,2,1.3,3.8,2.7,5.2l0,0
		c0.4,0.4,0.8,0.7,1.2,1c1.2,0.8,2.5,1.4,3.9,1.6c0.4,0.1,0.8-0.2,0.9-0.6C9,18.3,8.7,17.8,8.3,17.8z"/>
</g>
</svg>
