<?xml version="1.0" encoding="utf-8"?>
<!-- Generator: Adobe Illustrator 23.0.3, SVG Export Plug-In . SVG Version: 6.00 Build 0)  -->
<svg version="1.1" id="Layer_1" xmlns="http://www.w3.org/2000/svg" xmlns:xlink="http://www.w3.org/1999/xlink" x="0px" y="0px"
	 viewBox="0 0 20.8 13.4" style="enable-background:new 0 0 20.8 13.4;" xml:space="preserve">
<style type="text/css">
	.st0{fill:#8B8B8B;}
</style>
<path class="st0" d="M20.8,6.7C20.8,6.7,20.8,6.7,20.8,6.7c0-0.3-0.1-0.6-0.3-0.8l-5.6-5.6c-0.4-0.4-1-0.4-1.4,0s-0.4,1,0,1.4l4,4H1
	c-0.6,0-1,0.4-1,1s0.4,1,1,1h16.4l-3.9,4c-0.4,0.4-0.4,1,0,1.4c0.2,0.2,0.4,0.3,0.7,0.3c0.3,0,0.5-0.1,0.7-0.3l5.4-5.5
	C20.6,7.4,20.8,7.1,20.8,6.7z"/>
</svg>
