<?xml version="1.0" encoding="utf-8"?>
<!-- Generator: Adobe Illustrator 23.0.3, SVG Export Plug-In . SVG Version: 6.00 Build 0)  -->
<svg version="1.1" id="Layer_1" xmlns="http://www.w3.org/2000/svg" xmlns:xlink="http://www.w3.org/1999/xlink" x="0px" y="0px"
	 viewBox="0 0 27 27" style="enable-background:new 0 0 27 27;" xml:space="preserve">
<style type="text/css">
	.st0{fill:#585858;}
</style>
<g>
	<path class="st0" d="M13.5,0C6.1,0,0,6.1,0,13.5S6.1,27,13.5,27S27,21,27,13.5S21,0,13.5,0z M13.5,25C7.2,25,2,19.9,2,13.5
		S7.2,2,13.5,2S25,7.2,25,13.5S19.9,25,13.5,25z"/>
	<path class="st0" d="M14,9c-0.4-0.4-1-0.4-1.4,0l-3.9,3.8c-0.4,0.4-0.4,1,0,1.4c0.2,0.2,0.5,0.3,0.7,0.3c0.3,0,0.5-0.1,0.7-0.3
		l2.1-2.1V17c0,0.6,0.4,1,1,1s1-0.4,1-1v-5l2.1,2.1c0.4,0.4,1,0.4,1.4,0c0.4-0.4,0.4-1,0-1.4L14,9z"/>
</g>
</svg>
