<?xml version="1.0" encoding="utf-8"?>
<!-- Generator: Adobe Illustrator 23.0.3, SVG Export Plug-In . SVG Version: 6.00 Build 0)  -->
<svg version="1.1" id="Layer_1" xmlns="http://www.w3.org/2000/svg" xmlns:xlink="http://www.w3.org/1999/xlink" x="0px" y="0px"
	 viewBox="0 0 27 27" style="enable-background:new 0 0 27 27;" xml:space="preserve">
<style type="text/css">
	.st0{fill:none;}
	.st1{fill:#585858;}
</style>
<g id="Group_406" transform="translate(-814 -704)">
	<g id="Rectangle_31_Copy_2" transform="translate(814 704)">
		<path class="st0" d="M13.5,0L13.5,0C21,0,27,6,27,13.5l0,0C27,21,21,27,13.5,27l0,0C6,27,0,21,0,13.5l0,0C0,6,6,0,13.5,0z"/>
		<path class="st1" d="M13.5,27C6.1,27,0,21,0,13.5S6.1,0,13.5,0S27,6.1,27,13.5S21,27,13.5,27z M13.5,2C7.2,2,2,7.2,2,13.5
			S7.2,25,13.5,25S25,19.9,25,13.5S19.9,2,13.5,2z"/>
	</g>
	<path class="st1" d="M832.4,716.9c-0.4-0.4-1-0.4-1.4,0l-2.1,2.1V714c0-0.6-0.4-1-1-1s-1,0.4-1,1v5l-2.1-2.1c-0.4-0.4-1-0.4-1.4,0
		c-0.4,0.4-0.4,1,0,1.4l3.8,3.8c0.2,0.2,0.5,0.3,0.7,0.3c0.3,0,0.5-0.1,0.7-0.3l3.9-3.8C832.8,717.9,832.8,717.3,832.4,716.9z"/>
</g>
</svg>
