<svg xmlns="http://www.w3.org/2000/svg" width="27.186" height="25.372" viewBox="0 0 27.186 25.372">
    <g data-name="Group 911">
        <path d="M25.826 13.592h-.453V4.078A4.061 4.061 0 0 0 21.295 0a3.633 3.633 0 0 0-3.609 3.666 2.239 2.239 0 0 0-1.828 2.224.428.428 0 0 0 .453.453h3.625a.428.428 0 0 0 .453-.453A2.239 2.239 0 0 0 18.6 3.672 2.742 2.742 0 0 1 21.3.906a3.152 3.152 0 0 1 3.172 3.172v9.515H10.83a2.239 2.239 0 0 0-2.222-1.812 2.365 2.365 0 0 0-1.808-.907 2.24 2.24 0 0 0-2 1.223 2.691 2.691 0 0 0-1.178-.317A2.239 2.239 0 0 0 1.4 13.592h-.041a1.359 1.359 0 0 0 0 2.718H1.9l1.223 4.848a3.2 3.2 0 0 0 3.081 2.4h.366l-.589 1.178a.4.4 0 0 0 .181.589.272.272 0 0 0 .181.045.476.476 0 0 0 .408-.227l.793-1.586h12.573l.77 1.54a.435.435 0 0 0 .408.272c.091 0 .136 0 .181-.091a.477.477 0 0 0 .181-.589l-.568-1.135a3.208 3.208 0 0 0 2.969-2.354l1.234-4.893h.533a1.359 1.359 0 1 0 0-2.718zm-6.389-8.159h-2.582a1.378 1.378 0 0 1 1.314-.906 1.32 1.32 0 0 1 1.268.906zM3.625 12.686a1.522 1.522 0 0 1 1.087.5.41.41 0 0 0 .453.136.439.439 0 0 0 .317-.362 1.4 1.4 0 0 1 1.359-1.178 1.266 1.266 0 0 1 1.178.68.456.456 0 0 0 .5.227h.136a1.32 1.32 0 0 1 1.269.906H2.356a1.32 1.32 0 0 1 1.269-.909zm19.618 8.247a2.325 2.325 0 0 1-2.22 1.722H6.253a2.325 2.325 0 0 1-2.221-1.722l-1.178-4.622h21.477zm2.583-5.528H1.359a.453.453 0 1 1 0-.906h24.467a.453.453 0 1 1 0 .906z" data-name="Path 1300"/>
        <path d="M16.311 8.382a.428.428 0 0 0 .453-.453v-.227a.453.453 0 1 0-.906 0v.227a.428.428 0 0 0 .453.453z" data-name="Path 1301"/>
        <path d="M16.311 10.467a.454.454 0 0 0 .453-.453v-.5a.453.453 0 0 0-.906 0v.5a.428.428 0 0 0 .453.453z" data-name="Path 1302"/>
        <path d="M16.311 12.234a.428.428 0 0 0 .453-.453v-.227a.453.453 0 0 0-.906 0v.227a.428.428 0 0 0 .453.453z" data-name="Path 1303"/>
        <path d="M18.123 8.382a.428.428 0 0 0 .453-.453v-.227a.453.453 0 1 0-.906 0v.227a.428.428 0 0 0 .453.453z" data-name="Path 1304"/>
        <path d="M17.67 10.013a.428.428 0 0 0 .453.453.454.454 0 0 0 .453-.453v-.5a.453.453 0 1 0-.906 0z" data-name="Path 1305"/>
        <path d="M17.67 11.78a.453.453 0 1 0 .906 0v-.227a.453.453 0 1 0-.906 0z" data-name="Path 1306"/>
        <path d="M19.936 8.382a.428.428 0 0 0 .453-.453v-.227a.453.453 0 1 0-.906 0v.227a.428.428 0 0 0 .453.453z" data-name="Path 1307"/>
        <path d="M19.483 10.013a.428.428 0 0 0 .453.453.454.454 0 0 0 .453-.453v-.5a.453.453 0 0 0-.906 0v.5z" data-name="Path 1308"/>
        <path d="M19.483 11.78a.453.453 0 0 0 .906 0v-.227a.453.453 0 0 0-.906 0z" data-name="Path 1309"/>
    </g>
</svg>
