<?xml version="1.0" encoding="utf-8"?>
<!-- Generator: Adobe Illustrator 23.0.3, SVG Export Plug-In . SVG Version: 6.00 Build 0)  -->
<svg version="1.1" id="bed" xmlns="http://www.w3.org/2000/svg" xmlns:xlink="http://www.w3.org/1999/xlink" x="0px" y="0px"
	 viewBox="0 0 48.6 28.2" style="enable-background:new 0 0 48.6 28.2;" xml:space="preserve">
<style type="text/css">
	.st0{fill:#585858;}
</style>
<path id="Path_910" class="st0" d="M47.8,26.6h-4.7v-2.4h0.8c0.4,0,0.8-0.4,0.8-0.8l0,0v-7.8c0,0,0,0,0,0c0-0.1,0-0.2,0-0.2
	c0,0,0,0,0,0c0-0.1-0.1-0.1-0.1-0.2l-4.5-5.3v-6C39.9,1.8,38.2,0,36,0H12.5c-2.2,0-3.9,1.8-3.9,3.9v6l-4.5,5.3
	C4.1,15.2,4,15.3,4,15.4c0,0,0,0,0,0c0,0.1,0,0.2,0,0.2c0,0,0,0,0,0v7.8c0,0.4,0.4,0.8,0.8,0.8c0,0,0,0,0,0h0.8v2.4H0.8
	C0.4,26.6,0,27,0,27.4c0,0.4,0.4,0.8,0.8,0.8h47c0.4,0,0.8-0.4,0.8-0.8C48.6,27,48.2,26.6,47.8,26.6L47.8,26.6z M41.5,25.8h-1.6
	v-1.6h1.6V25.8z M43.1,22.7H5.5v-6.3h37.6L43.1,22.7z M10.2,3.9c0-1.3,1.1-2.3,2.4-2.3l0,0H36c1.3,0,2.3,1.1,2.3,2.3v5.5h-1.6V7
	c0-1.3-1.1-2.3-2.3-2.3h-6.3c-1.3,0-2.4,1.1-2.4,2.3l0,0v2.4h-3.1V7c0-1.3-1.1-2.3-2.4-2.3l0,0h-6.3c-1.3,0-2.4,1.1-2.4,2.3l0,0v2.4
	h-1.6L10.2,3.9z M35.2,10.2c0,0.4-0.4,0.8-0.8,0.8l0,0h-6.3c-0.4,0-0.8-0.4-0.8-0.8v0V7c0-0.4,0.4-0.8,0.8-0.8c0,0,0,0,0,0h6.3
	c0.4,0,0.8,0.4,0.8,0.8c0,0,0,0,0,0L35.2,10.2z M21.1,10.2c0,0.4-0.4,0.8-0.8,0.8h-6.3c-0.4,0-0.8-0.4-0.8-0.8l0,0V7
	c0-0.4,0.4-0.8,0.8-0.8l0,0h6.3c0.4,0,0.8,0.4,0.8,0.8c0,0,0,0,0,0L21.1,10.2z M9.8,11h2.1c0.3,0.9,1.2,1.6,2.2,1.6h6.3
	c1,0,1.9-0.6,2.2-1.6H26c0.3,0.9,1.2,1.6,2.2,1.6h6.3c1,0,1.9-0.6,2.2-1.6h2.1l3.4,3.9H6.4L9.8,11z M8.6,24.3v1.6H7.1v-1.6H8.6z
	 M10.2,26.6v-2.4h28.2v2.4H10.2z"/>
<path id="Path_911" class="st0" d="M39.9,21.1h1.6c0.4,0,0.8-0.4,0.8-0.8c0-0.4-0.4-0.8-0.8-0.8h-1.6c-0.4,0-0.8,0.4-0.8,0.8
	C39.2,20.8,39.5,21.1,39.9,21.1z"/>
<path id="Path_912" class="st0" d="M32.9,21.1h4.7c0.4,0,0.8-0.4,0.8-0.8c0-0.4-0.4-0.8-0.8-0.8h-4.7c-0.4,0-0.8,0.4-0.8,0.8
	C32.1,20.8,32.5,21.1,32.9,21.1z"/>
<path id="Path_913" class="st0" d="M11.7,3.9h2.3c0.4,0,0.8-0.4,0.8-0.8c0-0.4-0.4-0.8-0.8-0.8h-2.3c-0.4,0-0.8,0.4-0.8,0.8
	C11,3.6,11.3,3.9,11.7,3.9L11.7,3.9z"/>
</svg>
