<?xml version="1.0" encoding="utf-8"?>
<!-- Generator: Adobe Illustrator 23.0.3, SVG Export Plug-In . SVG Version: 6.00 Build 0)  -->
<svg version="1.1" id="Layer_1" xmlns="http://www.w3.org/2000/svg" xmlns:xlink="http://www.w3.org/1999/xlink" x="0px" y="0px"
	 viewBox="0 0 22 28.8" style="enable-background:new 0 0 22 28.8;" xml:space="preserve">
<style type="text/css">
	.st0{fill:#FF7171;}
</style>
<path class="st0" d="M22,5.3c0.1-2.9-2.2-5.2-5-5.3H5C3.7,0,2.5,0.5,1.6,1.5C0.5,2.5,0,3.9,0,5.3c0,5.6,0.1,17.7,0.1,21
	c0,0.8,0.4,1.6,1,2.1c0.4,0.3,0.9,0.4,1.4,0.4c0.3,0,0.5,0,0.8-0.1c0.1,0,0.2-0.1,0.3-0.2c3-2.5,6.4-5.3,7.5-6.1
	c1.1,0.8,4.5,3.4,7.4,5.9c0.1,0.1,0.2,0.1,0.3,0.2c0.7,0.2,1.5,0.1,2.1-0.3c0.6-0.5,1-1.2,1-2C22,24,22,10.9,22,5.3z"/>
</svg>
