<?xml version="1.0" encoding="utf-8"?>
<!-- Generator: Adobe Illustrator 23.0.3, SVG Export Plug-In . SVG Version: 6.00 Build 0)  -->
<svg version="1.1" id="Layer_1" xmlns="http://www.w3.org/2000/svg" xmlns:xlink="http://www.w3.org/1999/xlink" x="0px" y="0px"
	 viewBox="0 0 22 28.8" style="enable-background:new 0 0 22 28.8;" xml:space="preserve">
<style type="text/css">
	.st0{fill:#D5D5D5;}
	.st1{opacity:0.31;fill:#D5D5D5;enable-background:new    ;}
</style>
<g id="Group_1181" transform="translate(-0.001)">
	<g id="Group_578">
		<path id="Path_52" class="st0" d="M2.5,28.8c-0.5,0-1-0.2-1.4-0.4c-0.7-0.5-1-1.3-1-2.1C0.1,23,0,10.9,0,5.3
			c0-1.4,0.5-2.8,1.6-3.9C2.5,0.5,3.7,0,5,0H17c2.9,0.1,5.1,2.4,5,5.3c0,5.6,0,18.7,0,20.9c0,0.8-0.4,1.5-1,2
			c-0.6,0.4-1.4,0.6-2.1,0.3c-0.1,0-0.2-0.1-0.3-0.2c-3-2.4-6.3-5.1-7.4-5.9c-1.2,0.8-4.5,3.6-7.5,6.1c-0.1,0.1-0.2,0.1-0.3,0.2
			C3,28.8,2.8,28.8,2.5,28.8z M5,1.9c-0.8,0-1.6,0.3-2.1,0.9c-0.7,0.7-1,1.6-1,2.5C1.9,10.9,2,23,2,26.3c0,0.2,0.1,0.4,0.2,0.5
			c0.1,0.1,0.2,0.1,0.3,0.1c7.8-6.5,8.2-6.5,8.6-6.5c0.4,0,0.7,0,8.4,6.3l0,0c0.1,0,0.2,0,0.3-0.1c0.2-0.1,0.2-0.3,0.2-0.5l0,0
			c0-2.1,0-15.3,0-20.8C20.2,3.5,18.8,2,17,1.9L5,1.9z"/>
	</g>
	<path id="Path_907" class="st1" d="M19.7,1.9c0,0-16-1.5-17.1,0S1.1,5.5,1.5,15.4s0,11.6,0,11.6c1.1,0.1,2.3-0.2,3.2-0.9
		c1.3-1,4.5-4.2,5.7-4.5s9.4,5.3,9.4,5.3s0.7,0.5,0.9-0.9s0-22.7,0-22.7L19.7,1.9z"/>
</g>
</svg>
