<svg xmlns="http://www.w3.org/2000/svg" width="21.995" height="28.833" viewBox="0 0 21.995 28.833">
  <g id="Group_813" data-name="Group 813" transform="translate(-0.001)">
    <path id="Path_907" data-name="Path 907" d="M11426.212,2462.253s-16.04-1.505-17.078,0-1.558,3.686-1.194,13.548,0,11.576,0,11.576a5.12,5.12,0,0,0,3.187-.882c1.349-1.038,4.528-4.246,5.671-4.454s9.415,5.336,9.415,5.336.674.519.883-.882,0-22.685,0-22.685Z" transform="translate(-11406.467 -2460.393)" fill="#4d4d4d" opacity="0.31"/>
    <g id="Group_578" data-name="Group 578">
      <path id="Path_52" data-name="Path 52" d="M518.191,394.546a2.338,2.338,0,0,1-1.368-.446,2.539,2.539,0,0,1-1.041-2.067c0-3.292-.058-15.409-.092-20.981a5.465,5.465,0,0,1,1.558-3.87,4.884,4.884,0,0,1,3.481-1.469h11.915a5.182,5.182,0,0,1,5.04,5.3c0,5.555.007,18.706-.034,20.853a2.541,2.541,0,0,1-1.042,2.016,2.334,2.334,0,0,1-2.081.333.958.958,0,0,1-.314-.171c-2.973-2.431-6.284-5.064-7.431-5.875-1.155.831-4.516,3.562-7.531,6.082a.958.958,0,0,1-.306.173A2.361,2.361,0,0,1,518.191,394.546Zm2.539-26.923a2.989,2.989,0,0,0-2.127.905,3.549,3.549,0,0,0-1,2.512c.034,5.575.095,17.7.092,20.995a.611.611,0,0,0,.246.514.429.429,0,0,0,.267.087c7.832-6.544,8.172-6.537,8.588-6.536.392.005.73.009,8.447,6.314h0a.436.436,0,0,0,.257-.087.613.613,0,0,0,.245-.5h0c.041-2.13.037-15.267.034-20.816a3.272,3.272,0,0,0-3.13-3.388Z" transform="translate(-515.691 -365.713)" fill="#fff"/>
    </g>
  </g>
</svg>
