<?xml version="1.0" encoding="utf-8"?>
<!-- Generator: Adobe Illustrator 23.0.3, SVG Export Plug-In . SVG Version: 6.00 Build 0)  -->
<svg version="1.1" id="Layer_1" xmlns="http://www.w3.org/2000/svg" xmlns:xlink="http://www.w3.org/1999/xlink" x="0px" y="0px"
	 viewBox="0 0 17.8 17.8" style="enable-background:new 0 0 17.8 17.8;" xml:space="preserve">
<style type="text/css">
	.st0{fill:#585858;}
</style>
<g id="call-answer" transform="translate(17.822 14.892) rotate(169)">
	<g id="Group_978" transform="translate(0 0)">
		<g id="Group_977" transform="translate(0 0)">
			<path id="Path_1534" class="st0" d="M14.9,3.2l-2.3,2.3C12,6,11.3,6,10.8,5.5L9.6,4.3L9.4,4.4c-1,0.5-2,1.2-2.8,2.1
				C5.7,7.3,5,8.3,4.5,9.3c0,0.1-0.1,0.2-0.1,0.2l0.8,0.8l0.4,0.4C6,11.2,6,12,5.6,12.5l-2.3,2.3c-0.5,0.5-1.3,0.5-1.7,0l-0.7-0.7
				l0,0c-0.2-0.3-0.4-0.6-0.5-1c-0.1-0.3-0.2-0.6-0.2-1c-0.3-2.6,0.9-4.9,4.1-8.1c4.4-4.4,8-4.1,8.1-4.1c0.3,0,0.7,0.1,1,0.2
				c0.3,0.1,0.7,0.3,1,0.5l0,0l0.7,0.7C15.3,1.9,15.3,2.7,14.9,3.2z"/>
		</g>
	</g>
</g>
</svg>
