<svg xmlns="http://www.w3.org/2000/svg" width="28.93" height="28.885" viewBox="0 0 28.93 28.885">
  <g id="call-answer" transform="translate(4.774 -0.387) rotate(11)">
    <g id="Group_978" data-name="Group 978" transform="translate(0 0.394)">
      <g id="Group_977" data-name="Group 977" transform="translate(0)">
        <path id="Path_1534" data-name="Path 1534" d="M24.13,19.873l-3.812-3.812a1.988,1.988,0,0,0-2.8.053L15.6,18.034l-.379-.211A19.112,19.112,0,0,1,10.6,14.482,19.218,19.218,0,0,1,7.249,9.854c-.071-.129-.139-.253-.207-.37L8.331,8.2l.634-.634a1.986,1.986,0,0,0,.051-2.8L5.2.947A1.986,1.986,0,0,0,2.4,1L1.327,2.08l.029.029A6.213,6.213,0,0,0,.471,3.671,6.474,6.474,0,0,0,.078,5.255c-.5,4.173,1.4,7.987,6.579,13.162C13.81,25.569,19.574,25.029,19.823,25a6.441,6.441,0,0,0,1.588-.4,6.191,6.191,0,0,0,1.556-.881l.023.021,1.088-1.066A1.989,1.989,0,0,0,24.13,19.873Z" transform="translate(0 -0.394)" fill="#0389ff"/>
      </g>
    </g>
  </g>
</svg>
