<?xml version="1.0" encoding="utf-8"?>
<!-- Generator: Adobe Illustrator 23.0.3, SVG Export Plug-In . SVG Version: 6.00 Build 0)  -->
<svg version="1.1" id="Layer_1" xmlns="http://www.w3.org/2000/svg" xmlns:xlink="http://www.w3.org/1999/xlink" x="0px" y="0px"
	 viewBox="0 0 17.4 24.8" style="enable-background:new 0 0 17.4 24.8;" xml:space="preserve">
<style type="text/css">
	.st0{fill:#585858;}
</style>
<g>
	<path class="st0" d="M16.4,11l-4-5v-4c0-1.1-0.9-2.1-2.1-2.1H2.1C0.9,0,0,0.9,0,2.1v14.9C0,18.1,0.9,19,2.1,19h3.7v1.1
		c0,2.6,2.1,4.7,4.7,4.7h6.5c0.2,0,0.4-0.2,0.4-0.4V13.8C17.4,12.8,17,11.8,16.4,11z M10.3,0.8c0.7,0,1.2,0.6,1.2,1.2v10.8l-1.7-1.8
		V0.8H10.3z M9.1,10.3L8.4,9.5C8.2,9.4,8,9.2,7.8,9.1V0.8h1.2V10.3z M0.8,16.9V2.1c0-0.7,0.6-1.2,1.2-1.2h5v8.1
		c-0.5,0-1,0.2-1.3,0.5l0,0c-0.7,0.7-0.8,1.8-0.1,2.6L7,13.8v4.3h-5C1.4,18.2,0.8,17.6,0.8,16.9z M9.1,18.2H7.8v-3.4l1.2,1.5v1.3
		C9.1,17.8,9.1,18,9.1,18.2z M16.5,24h-6c-2.1,0-3.9-1.7-3.9-3.9V19h2.7c0.5,1.7,1.7,3.1,3.4,3.7l0.3-0.8c-1.8-0.7-3-2.4-3-4.4v-1.4
		c0-0.1,0-0.2-0.1-0.3l-3.7-4.3c-0.4-0.4-0.3-1.1,0.1-1.5C6.5,9.8,6.7,9.7,7,9.7c0.3,0,0.6,0.1,0.8,0.3l5.6,5.9l0.6-0.6l-1.5-1.6
		V7.4l3.3,4.1c0.5,0.7,0.8,1.5,0.8,2.3V24z"/>
	<rect x="2.1" y="2.1" class="st0" width="0.8" height="5.4"/>
	<rect x="4.1" y="2.1" class="st0" width="0.8" height="3.3"/>
	<path class="st0" d="M5,13.6H2.5c-0.2,0-0.4,0.2-0.4,0.4v2.5c0,0.2,0.2,0.4,0.4,0.4H5c0.2,0,0.4-0.2,0.4-0.4V14
		C5.4,13.8,5.2,13.6,5,13.6z M4.5,16.1H2.9v-1.7h1.7V16.1z"/>
</g>
</svg>
