<?xml version="1.0" encoding="utf-8"?>
<!-- Generator: Adobe Illustrator 23.0.3, SVG Export Plug-In . SVG Version: 6.00 Build 0)  -->
<svg version="1.1" id="Layer_1" xmlns="http://www.w3.org/2000/svg" xmlns:xlink="http://www.w3.org/1999/xlink" x="0px" y="0px"
	 viewBox="0 0 53 26" style="enable-background:new 0 0 53 26;" xml:space="preserve">
<style type="text/css">
	.st0{fill:#585858;}
</style>
<g id="Group_1233" transform="translate(-530.5 -1941.536)">
	<path id="Path_1597" class="st0" d="M582.4,1947.7l-13.8,13.8l-3,3c-1.4,1.4-3.7,1.4-5.1,0c0,0,0,0,0,0l-6.4-6.4
		c-1.4-1.4-1.5-3.7-0.1-5.1c1.4-1.4,3.7-1.5,5.1-0.1c0,0,0.1,0.1,0.1,0.1l3.9,3.9l14.2-14.2c1.4-1.4,3.7-1.5,5.1-0.1
		c1.4,1.4,1.5,3.7,0.1,5.1C582.5,1947.6,582.5,1947.7,582.4,1947.7L582.4,1947.7z"/>
	<path class="st0" d="M554.5,1947.5h-22c-1.1,0-2-0.9-2-2s0.9-2,2-2h22c1.1,0,2,0.9,2,2S555.6,1947.5,554.5,1947.5z"/>
	<path class="st0" d="M546.5,1957.5h-14c-1.1,0-2-0.9-2-2s0.9-2,2-2h14c1.1,0,2,0.9,2,2S547.6,1957.5,546.5,1957.5z"/>
	<path class="st0" d="M552.5,1967.5h-20c-1.1,0-2-0.9-2-2s0.9-2,2-2h20c1.1,0,2,0.9,2,2S553.6,1967.5,552.5,1967.5z"/>
</g>
</svg>
