<?xml version="1.0" encoding="utf-8"?>
<!-- Generator: Adobe Illustrator 23.0.3, SVG Export Plug-In . SVG Version: 6.00 Build 0)  -->
<svg version="1.1" id="Layer_1" xmlns="http://www.w3.org/2000/svg" xmlns:xlink="http://www.w3.org/1999/xlink" x="0px" y="0px"
	 viewBox="0 0 15.4 15.4" style="enable-background:new 0 0 15.4 15.4;" xml:space="preserve">
<style type="text/css">
	.st0{fill:#7D7D7D;}
</style>
<path class="st0" d="M9.3,7.7l5.3-5.3c0.4-0.4,0.4-1.2,0-1.6c-0.4-0.4-1.2-0.4-1.6,0L7.7,6.1L2.4,0.8c-0.4-0.4-1.2-0.4-1.6,0
	c-0.4,0.4-0.4,1.2,0,1.6l5.3,5.3L0.8,13c-0.4,0.4-0.4,1.2,0,1.6C1,14.9,1.3,15,1.6,15s0.6-0.1,0.8-0.3l5.3-5.3l5.3,5.3
	c0.2,0.2,0.5,0.3,0.8,0.3s0.6-0.1,0.8-0.3c0.4-0.4,0.4-1.2,0-1.6L9.3,7.7z"/>
</svg>
