<svg xmlns="http://www.w3.org/2000/svg" width="32.209" height="32.208" viewBox="0 0 32.209 32.208">
  <g id="Group_1053" data-name="Group 1053" transform="translate(-240.817 -74.739)">
    <path id="Path_1543" data-name="Path 1543" d="M244.462,93.2a10.723,10.723,0,1,1,19.853-5.469A10.914,10.914,0,0,1,253.3,98.293h-9.9l1.042-1.769A3.224,3.224,0,0,0,244.462,93.2Z" transform="translate(-1.263 -1.302)" fill="#fff"/>
    <path id="Path_1544" data-name="Path 1544" d="M286.844,117.29a10.722,10.722,0,0,0-7.7-16.245,10.785,10.785,0,0,1,.107,1.585,10.914,10.914,0,0,1-11.014,10.562h-1.118a10.968,10.968,0,0,0,10.891,9.191h9.9l-1.042-1.77A3.225,3.225,0,0,1,286.844,117.29Z" transform="translate(-16.197 -16.202)" fill="#0389ff" opacity="0.14"/>
    <g id="Group_1053-2" data-name="Group 1053" transform="translate(240.817 74.739)">
      <path id="Path_1545" data-name="Path 1545" d="M271.322,104.022a2.444,2.444,0,0,1,0-2.527,11.489,11.489,0,0,0-7.659-17.31A11.514,11.514,0,1,0,242.548,92.3a2.444,2.444,0,0,1,0,2.527L241.483,96.6a.766.766,0,0,0,.659,1.157h8.149a11.756,11.756,0,0,0,11.488,9.191h9.926a.766.766,0,0,0,.659-1.156Zm-27.841-7.8.368-.62a3.977,3.977,0,0,0,0-4.113,9.957,9.957,0,1,1,18.435-5.078,10.148,10.148,0,0,1-10.248,9.811Zm18.328,9.191a10.227,10.227,0,0,1-9.957-7.659h.184a11.687,11.687,0,0,0,11.78-11.32V85.77a9.957,9.957,0,0,1,6.2,14.912,3.975,3.975,0,0,0,0,4.113l.368.621Z" transform="translate(-240.817 -74.739)" fill="#0389ff"/>
      <path id="Path_1546" data-name="Path 1546" d="M265.113,94.985h0c0,.766-.72,1.256-2.566,1.333l-.076.076.337,2.374h1.532l.161-.9c1.562-.275,2.826-1.041,2.826-2.918h0c0-1.945-1.432-3.063-3.546-3.063a4.6,4.6,0,0,0-3.584,1.585l1.348,1.478a3.017,3.017,0,0,1,2.2-1.011C264.615,93.943,265.113,94.326,265.113,94.985Z" transform="translate(-252.752 -85.302)" fill="#0389ff" opacity="0.91"/>
      <rect id="Rectangle_1161" data-name="Rectangle 1161" width="2.374" height="2.344" transform="translate(9.573 14.628)" fill="#0389ff" opacity="0.91"/>
    </g>
  </g>
</svg>
