<?xml version="1.0" encoding="utf-8"?>
<!-- Generator: Adobe Illustrator 23.0.3, SVG Export Plug-In . SVG Version: 6.00 Build 0)  -->
<svg version="1.1" id="Layer_1" xmlns="http://www.w3.org/2000/svg" xmlns:xlink="http://www.w3.org/1999/xlink" x="0px" y="0px"
	 viewBox="0 0 18 21.1" style="enable-background:new 0 0 18 21.1;" xml:space="preserve">
<style type="text/css">
	.st0{fill:#585858;}
</style>
<g id="Group_625" transform="translate(-966.607 -363.18)">
	<path id="Path_19" class="st0" d="M983.9,366.5h-4.7c-0.3-2.2-2.4-3.6-4.5-3.3c-1.7,0.3-3,1.6-3.3,3.3h-4.2c-0.3,0-0.6,0.3-0.7,0.6
		c0,0.3,0.3,0.6,0.6,0.7c0,0,0,0,0.1,0h16.7c0.3,0,0.6-0.3,0.7-0.6C984.6,366.8,984.3,366.5,983.9,366.5
		C984,366.5,983.9,366.5,983.9,366.5L983.9,366.5z M975.3,364.4c1.3,0,2.3,0.9,2.6,2.1h-5.3C973,365.3,974,364.4,975.3,364.4
		L975.3,364.4z"/>
	<path id="Path_20" class="st0" d="M982.4,368.5c-0.3,0-0.7,0.2-0.7,0.6c0,0,0,0,0,0l-1,11.3c0,0,0,0,0,0.1c0,1.4-1.2,2.6-2.6,2.6
		h-5c-1.4,0-2.6-1.2-2.6-2.6c0,0,0,0,0-0.1l-1-11.3c0-0.3-0.3-0.6-0.7-0.6s-0.6,0.3-0.6,0.7l1,11.3c0,2.1,1.8,3.8,3.9,3.9h5
		c2.1,0,3.9-1.7,3.9-3.9l1-11.3C983,368.9,982.8,368.6,982.4,368.5C982.4,368.5,982.4,368.5,982.4,368.5z"/>
	<path id="Path_21" class="st0" d="M974.1,377.3v-5.9c0-0.3-0.3-0.6-0.6-0.7c-0.3,0-0.6,0.3-0.7,0.6c0,0,0,0,0,0.1v5.9
		c0,0.3,0.3,0.6,0.6,0.7C973.8,378,974.1,377.7,974.1,377.3C974.1,377.4,974.1,377.4,974.1,377.3z"/>
	<path id="Path_22" class="st0" d="M978.4,379.9V374c0-0.3-0.3-0.6-0.6-0.6s-0.6,0.3-0.6,0.6l0,0v5.9c0,0.3,0.3,0.6,0.6,0.6
		S978.4,380.3,978.4,379.9z"/>
</g>
</svg>
