<?xml version="1.0" encoding="utf-8"?>
<!-- Generator: Adobe Illustrator 23.0.3, SVG Export Plug-In . SVG Version: 6.00 Build 0)  -->
<svg version="1.1" id="door-handle" xmlns="http://www.w3.org/2000/svg" xmlns:xlink="http://www.w3.org/1999/xlink" x="0px"
	 y="0px" viewBox="0 0 30.9 41.2" style="enable-background:new 0 0 30.9 41.2;" xml:space="preserve">
<style type="text/css">
	.st0{fill:#585858;}
</style>
<path id="Path_914" class="st0" d="M6.2,4.8h1.4c0.4,0,0.7-0.3,0.7-0.7S7.9,3.4,7.6,3.4H6.2c-0.4,0-0.7,0.3-0.7,0.7S5.8,4.8,6.2,4.8
	z"/>
<path id="Path_915" class="st0" d="M9.6,4.8H11c0.4,0,0.7-0.3,0.7-0.7S11.4,3.4,11,3.4H9.6c-0.4,0-0.7,0.3-0.7,0.7S9.2,4.8,9.6,4.8
	L9.6,4.8z"/>
<path id="Path_916" class="st0" d="M13.1,4.8h1.4c0.4,0,0.7-0.3,0.7-0.7s-0.3-0.7-0.7-0.7h-1.4c-0.4,0-0.7,0.3-0.7,0.7
	S12.7,4.8,13.1,4.8z"/>
<path id="Path_917" class="st0" d="M6.2,7.6h1.4c0.4,0,0.7-0.3,0.7-0.7c0-0.4-0.3-0.7-0.7-0.7H6.2c-0.4,0-0.7,0.3-0.7,0.7
	C5.5,7.3,5.8,7.6,6.2,7.6z"/>
<path id="Path_918" class="st0" d="M9.6,7.6H11c0.4,0,0.7-0.3,0.7-0.7c0-0.4-0.3-0.7-0.7-0.7H9.6c-0.4,0-0.7,0.3-0.7,0.7
	C8.9,7.3,9.2,7.6,9.6,7.6L9.6,7.6z"/>
<path id="Path_919" class="st0" d="M13.1,7.6h1.4c0.4,0,0.7-0.3,0.7-0.7c0-0.4-0.3-0.7-0.7-0.7h-1.4c-0.4,0-0.7,0.3-0.7,0.7
	C12.4,7.3,12.7,7.6,13.1,7.6z"/>
<path id="Path_920" class="st0" d="M6.2,10.3h1.4c0.4,0,0.7-0.3,0.7-0.7c0-0.4-0.3-0.7-0.7-0.7H6.2c-0.4,0-0.7,0.3-0.7,0.7
	C5.5,10,5.8,10.3,6.2,10.3z"/>
<path id="Path_921" class="st0" d="M9.6,10.3H11c0.4,0,0.7-0.3,0.7-0.7c0-0.4-0.3-0.7-0.7-0.7H9.6c-0.4,0-0.7,0.3-0.7,0.7
	C8.9,10,9.2,10.3,9.6,10.3L9.6,10.3z"/>
<path id="Path_922" class="st0" d="M13.1,10.3h1.4c0.4,0,0.7-0.3,0.7-0.7c0-0.4-0.3-0.7-0.7-0.7h-1.4c-0.4,0-0.7,0.3-0.7,0.7
	C12.4,10,12.7,10.3,13.1,10.3z"/>
<path id="Path_923" class="st0" d="M6.2,13.1h1.4c0.4,0,0.7-0.3,0.7-0.7c0-0.4-0.3-0.7-0.7-0.7H6.2c-0.4,0-0.7,0.3-0.7,0.7
	C5.5,12.7,5.8,13.1,6.2,13.1C6.2,13.1,6.2,13.1,6.2,13.1z"/>
<path id="Path_924" class="st0" d="M9.6,13.1H11c0.4,0,0.7-0.3,0.7-0.7c0-0.4-0.3-0.7-0.7-0.7H9.6c-0.4,0-0.7,0.3-0.7,0.7
	C8.9,12.7,9.2,13.1,9.6,13.1L9.6,13.1z"/>
<path id="Path_925" class="st0" d="M13.1,13.1h1.4c0.4,0,0.7-0.3,0.7-0.7c0-0.4-0.3-0.7-0.7-0.7c0,0,0,0,0,0h-1.4
	c-0.4,0-0.7,0.3-0.7,0.7C12.4,12.7,12.7,13.1,13.1,13.1z"/>
<path id="Path_926" class="st0" d="M27.5,26.8h-6.9V5.5c0-1.5-1.2-2.7-2.7-2.7V2.1c0-1.1-0.9-2.1-2.1-2.1h-11C3.7,0,2.8,0.9,2.7,2.1
	v0.7C1.2,2.8,0,4,0,5.5v33c0,1.5,1.2,2.7,2.7,2.7h15.1c1.5,0,2.7-1.2,2.7-2.7v-4.8h6.9c1.9,0,3.4-1.5,3.4-3.4
	C30.9,28.3,29.4,26.8,27.5,26.8C27.5,26.8,27.5,26.8,27.5,26.8L27.5,26.8z M4.1,2.1c0-0.4,0.3-0.7,0.7-0.7h11c0.4,0,0.7,0.3,0.7,0.7
	v11c0,3.4-2.8,6.2-6.2,6.2s-6.2-2.8-6.2-6.2L4.1,2.1z M19.2,38.5c0,0.8-0.6,1.4-1.4,1.4H2.7c-0.8,0-1.4-0.6-1.4-1.4v-33
	c0-0.8,0.6-1.4,1.4-1.4v8.9c0,4.2,3.5,7.5,7.6,7.5c4.1,0,7.4-3.4,7.5-7.5V4.1c0.8,0,1.4,0.6,1.4,1.4v21.3h-3.8
	c-1.9-2.8-5.7-3.6-8.6-1.7C4,27,3.2,30.8,5.1,33.7s5.7,3.6,8.6,1.7c0.7-0.5,1.3-1,1.7-1.7h3.8V38.5z M10.3,33.7h3.4
	c-1.9,1.9-4.9,1.8-6.8-0.1C5,31.7,5,28.7,6.9,26.8c1.9-1.8,4.9-1.8,6.7,0h-3.4c-1.9,0-3.4,1.5-3.4,3.4C6.9,32.1,8.4,33.7,10.3,33.7
	C10.3,33.7,10.3,33.7,10.3,33.7z M27.5,32.3H10.3c-1.1,0-2.1-0.9-2.1-2c0-1.1,0.9-2.1,2-2.1c0,0,0.1,0,0.1,0h17.2
	c1.1,0,2.1,0.9,2.1,2C29.6,31.3,28.7,32.3,27.5,32.3C27.5,32.3,27.5,32.3,27.5,32.3z"/>
<path id="Path_927" class="st0" d="M12.4,29.6h-2.1c-0.4,0-0.7,0.3-0.7,0.7c0,0.4,0.3,0.7,0.7,0.7c0,0,0,0,0,0h2.1
	c0.4,0,0.7-0.3,0.7-0.7C13.1,29.9,12.7,29.6,12.4,29.6z"/>
</svg>
