<svg xmlns="http://www.w3.org/2000/svg" width="22.348" height="29.797" viewBox="0 0 22.348 29.797">
  <g id="door-handle" transform="translate(0)">
    <path id="Path_914" data-name="Path 914" d="M68.762,43.661h.993a.5.5,0,0,0,0-.993h-.993a.5.5,0,1,0,0,.993Zm0,0" transform="translate(-64.293 -40.185)" fill="#585858"/>
    <path id="Path_915" data-name="Path 915" d="M111.43,43.661h.993a.5.5,0,0,0,0-.993h-.993a.5.5,0,0,0,0,.993Zm0,0" transform="translate(-104.478 -40.185)" fill="#585858"/>
    <path id="Path_916" data-name="Path 916" d="M154.1,43.661h.993a.5.5,0,1,0,0-.993H154.1a.5.5,0,0,0,0,.993Zm0,0" transform="translate(-144.663 -40.185)" fill="#585858"/>
    <path id="Path_917" data-name="Path 917" d="M68.762,77.794h.993a.5.5,0,0,0,0-.993h-.993a.5.5,0,1,0,0,.993Zm0,0" transform="translate(-64.293 -72.331)" fill="#585858"/>
    <path id="Path_918" data-name="Path 918" d="M111.43,77.794h.993a.5.5,0,0,0,0-.993h-.993a.5.5,0,0,0,0,.993Zm0,0" transform="translate(-104.478 -72.331)" fill="#585858"/>
    <path id="Path_919" data-name="Path 919" d="M154.1,77.794h.993a.5.5,0,1,0,0-.993H154.1a.5.5,0,0,0,0,.993Zm0,0" transform="translate(-144.663 -72.331)" fill="#585858"/>
    <path id="Path_920" data-name="Path 920" d="M68.762,111.927h.993a.5.5,0,0,0,0-.993h-.993a.5.5,0,1,0,0,.993Zm0,0" transform="translate(-64.293 -104.478)" fill="#585858"/>
    <path id="Path_921" data-name="Path 921" d="M111.43,111.927h.993a.5.5,0,0,0,0-.993h-.993a.5.5,0,0,0,0,.993Zm0,0" transform="translate(-104.478 -104.478)" fill="#585858"/>
    <path id="Path_922" data-name="Path 922" d="M154.1,111.927h.993a.5.5,0,1,0,0-.993H154.1a.5.5,0,0,0,0,.993Zm0,0" transform="translate(-144.663 -104.478)" fill="#585858"/>
    <path id="Path_923" data-name="Path 923" d="M68.762,146.06h.993a.5.5,0,0,0,0-.993h-.993a.5.5,0,1,0,0,.993Zm0,0" transform="translate(-64.293 -136.624)" fill="#585858"/>
    <path id="Path_924" data-name="Path 924" d="M111.43,146.06h.993a.5.5,0,0,0,0-.993h-.993a.5.5,0,0,0,0,.993Zm0,0" transform="translate(-104.478 -136.624)" fill="#585858"/>
    <path id="Path_925" data-name="Path 925" d="M154.1,146.06h.993a.5.5,0,1,0,0-.993H154.1a.5.5,0,0,0,0,.993Zm0,0" transform="translate(-144.663 -136.624)" fill="#585858"/>
    <path id="Path_926" data-name="Path 926" d="M19.864,19.368H14.9V3.973a1.988,1.988,0,0,0-1.986-1.986v-.5A1.492,1.492,0,0,0,11.422,0H3.477a1.492,1.492,0,0,0-1.49,1.49v.5A1.988,1.988,0,0,0,0,3.973V27.81A1.988,1.988,0,0,0,1.987,29.8H12.912A1.988,1.988,0,0,0,14.9,27.81V24.334h4.966a2.483,2.483,0,1,0,0-4.966ZM2.98,1.49a.5.5,0,0,1,.5-.5h7.946a.5.5,0,0,1,.5.5V9.436a4.47,4.47,0,0,1-8.939,0ZM13.905,27.81a.994.994,0,0,1-.993.993H1.987a.994.994,0,0,1-.993-.993V3.973a.994.994,0,0,1,.993-.993V9.436a5.463,5.463,0,1,0,10.925,0V2.98a.994.994,0,0,1,.993.993V19.368H11.15a4.469,4.469,0,1,0,0,4.966h2.755ZM7.449,24.334H9.877a3.476,3.476,0,1,1,0-4.966H7.449a2.483,2.483,0,1,0,0,4.966Zm12.415-.993H7.449a1.49,1.49,0,1,1,0-2.98H19.864a1.49,1.49,0,1,1,0,2.98Zm0,0" transform="translate(0 0)" fill="#585858"/>
    <path id="Path_927" data-name="Path 927" d="M121.452,366.934h-1.49a.5.5,0,1,0,0,.993h1.49a.5.5,0,0,0,0-.993Zm0,0" transform="translate(-112.513 -345.58)" fill="#585858"/>
  </g>
</svg>
