<?xml version="1.0" encoding="utf-8"?>
<!-- Generator: Adobe Illustrator 23.0.3, SVG Export Plug-In . SVG Version: 6.00 Build 0)  -->
<svg version="1.1" id="Layer_1" xmlns="http://www.w3.org/2000/svg" xmlns:xlink="http://www.w3.org/1999/xlink" x="0px" y="0px"
	 viewBox="0 0 19.9 17.5" style="enable-background:new 0 0 19.9 17.5;" xml:space="preserve">
<style type="text/css">
	.st0{fill:#0389FF;}
</style>
<g>
	<path class="st0" d="M8.5,11.7l-2.4,2.3V8.6c0-0.6-0.4-1-1-1s-1,0.4-1,1v5.6l-2.4-2.4c-0.4-0.4-1-0.4-1.4,0s-0.4,1,0,1.4l4,4
		c0.2,0.2,0.5,0.3,0.7,0.3c0.3,0,0.5-0.1,0.7-0.3l4.2-4c0.4-0.4,0.4-1,0-1.4C9.6,11.4,8.9,11.3,8.5,11.7z"/>
	<path class="st0" d="M19.6,4.3l-4-4c-0.4-0.4-1-0.4-1.4,0l-4.2,4c-0.4,0.4-0.4,1,0,1.4C10.1,5.9,10.4,6,10.7,6
		c0.3,0,0.5-0.1,0.7-0.3l2.4-2.3v5.5c0,0.6,0.4,1,1,1s1-0.4,1-1V3.3l2.4,2.4c0.4,0.4,1,0.4,1.4,0S20,4.7,19.6,4.3z"/>
</g>
</svg>
