<?xml version="1.0" encoding="utf-8"?>
<!-- Generator: Adobe Illustrator 23.0.3, SVG Export Plug-In . SVG Version: 6.00 Build 0)  -->
<svg version="1.1" id="Layer_1" xmlns="http://www.w3.org/2000/svg" xmlns:xlink="http://www.w3.org/1999/xlink" x="0px" y="0px"
	 viewBox="0 0 44 51" style="enable-background:new 0 0 44 51;" xml:space="preserve">
<style type="text/css">
	.st0{fill:#585858;}
</style>
<g id="Group_72" transform="translate(-398 -672.604)">
	<path id="Path_33" class="st0" d="M442,699.9c-0.1-0.6-0.6-1.1-1.2-1.2c-0.9-10.8-10-19.2-20.9-19.1h0c0,0-0.1,0-0.1,0h0
		c0,0-0.1,0-0.1,0h0c-10.9,0.2-19.8,8.8-20.4,19.6c-0.8,0.2-1.3,1-1.1,1.8c0.1,0.6,0.6,1.1,1.2,1.2c6.5,1,13.2,1.5,19.8,1.4
		c7.3,0,14.6-0.6,21.7-1.9C441.6,701.5,442.1,700.8,442,699.9z M437.8,699.2c-3.2,0.5-6.4,0.9-9.4,1.1c0.1-1.5,0.3-10.6-4.7-17.3
		C431.4,684.6,437.2,691.2,437.8,699.2z M407.2,688c2.5-2.6,5.8-4.3,9.3-5c-3.3,5.2-5,11.3-4.9,17.4c-4.1-0.2-7.4-0.6-9.4-0.8
		C402.4,695.2,404.2,691.1,407.2,688z M414.6,700.5C414.6,700.5,414.6,700.5,414.6,700.5c-0.2-6.2,1.7-12.2,5.3-17.2
		c6,6.1,5.4,16.9,5.4,17c0,0.1,0,0.1,0,0.2C421.5,700.7,417.9,700.6,414.6,700.5L414.6,700.5z"/>
	<path id="Path_34" class="st0" d="M427,717.1c-0.8,0-1.5,0.7-1.5,1.5c0,0,0,0,0,0c0,1.1-0.8,1.9-1.9,1.9c0,0,0,0,0,0
		c-1.1,0-1.9-0.8-1.9-1.9l-0.1-11.4c0-0.8-0.7-1.5-1.5-1.5c-0.8,0-1.5,0.7-1.5,1.5c0,0,0,0,0,0l0.1,11.4c0,2.7,2.2,4.9,4.9,4.9h0.1
		c2.7,0,4.9-2.3,4.9-5C428.5,717.8,427.9,717.1,427,717.1C427,717.1,427,717.1,427,717.1z"/>
	<path id="Path_35" class="st0" d="M419.7,677.8L419.7,677.8c0.8,0,1.5-0.7,1.5-1.5l0-2.2c0-0.8-0.7-1.5-1.5-1.5h0
		c-0.8,0-1.5,0.7-1.5,1.5c0,0,0,0,0,0l0,2.2C418.2,677.1,418.9,677.8,419.7,677.8z"/>
</g>
</svg>
