<svg xmlns="http://www.w3.org/2000/svg" width="28.572" height="20.885" viewBox="0 0 28.572 20.885">
  <path id="_126-email-1" data-name="126-email-1" d="M25.046.492H2.926A2.93,2.93,0,0,0,0,3.418V17.849a2.929,2.929,0,0,0,2.926,2.926h22.12a2.929,2.929,0,0,0,2.926-2.926V3.418A2.929,2.929,0,0,0,25.046.492Zm-5.2,10.138L26.8,5.169V17.384ZM2.926,1.663h22.12A1.758,1.758,0,0,1,26.8,3.418v.263l-11.26,8.838a2.339,2.339,0,0,1-2.882,0L1.17,3.679V3.418A1.758,1.758,0,0,1,2.926,1.663Zm5.409,9L1.17,17.408V5.155ZM25.046,19.6H2.926a1.756,1.756,0,0,1-1.495-.836L9.275,11.39l2.667,2.052a3.507,3.507,0,0,0,4.32,0l2.652-2.081,7.629,7.405A1.756,1.756,0,0,1,25.046,19.6Zm0,0" transform="translate(0.3 -0.191)" fill="#585858" stroke="#585858" stroke-width="0.6"/>
</svg>
