<svg xmlns="http://www.w3.org/2000/svg" width="33.036" height="24.063" viewBox="0 0 33.036 24.063">
  <g id="Group_43" data-name="Group 43" transform="translate(-1075.443 -616.334)">
    <path id="Path_43" data-name="Path 43" d="M1122.775,634.64c.006-.01.011-.021.017-.031a.772.772,0,0,0,.056-.106c.006-.014.009-.03.014-.045a.759.759,0,0,0,.031-.1.724.724,0,0,0-.031-.417c-.005-.014-.008-.03-.014-.044a.783.783,0,0,0-.057-.107c-.006-.01-.01-.02-.016-.029a.773.773,0,0,0-.1-.12l-4.692-4.693a.793.793,0,0,0-1.122,1.122l3.338,3.339h-13.335a.793.793,0,0,0,0,1.587H1120.2l-3.338,3.338a.793.793,0,1,0,1.122,1.122l4.692-4.692A.77.77,0,0,0,1122.775,634.64Z" transform="translate(-14.431 -5.832)" fill="#585858"/>
    <path id="Path_44" data-name="Path 44" d="M1099.194,631.512a.783.783,0,0,0-.845.738c-.114,1.684-.3,3.413-1.219,4.423a6.124,6.124,0,0,1-3.553,1.534,33.21,33.21,0,0,1-6,.6,42.331,42.331,0,0,1-5.919-.57,4.173,4.173,0,0,1-3.489-2.219,12,12,0,0,1-1.042-4.624c-.053-.777-.075-1.575-.091-2.262-.041-1.814.063-3.588.17-5.083a7.874,7.874,0,0,1,.891-3.665,3.67,3.67,0,0,1,1.624-1.3,9.328,9.328,0,0,1,2.035-.588,30.967,30.967,0,0,1,9.912-.321l.35.043a9.722,9.722,0,0,1,4.489,1.293c.941.651,1.544,1.933,1.79,3.81a.793.793,0,1,0,1.573-.207c-.307-2.341-1.135-3.992-2.461-4.909a11.086,11.086,0,0,0-5.2-1.563l-.342-.041a32.536,32.536,0,0,0-10.409.336,10.82,10.82,0,0,0-2.385.7,5.278,5.278,0,0,0-2.3,1.872,9.15,9.15,0,0,0-1.152,4.43c-.109,1.533-.216,3.353-.173,5.233.016.7.038,1.524.094,2.334a13.419,13.419,0,0,0,1.22,5.254,5.819,5.819,0,0,0,4.662,3.051,43.735,43.735,0,0,0,6.142.586h.138a34.152,34.152,0,0,0,6.152-.629,7.5,7.5,0,0,0,4.445-2.028c1.259-1.387,1.495-3.42,1.628-5.383A.793.793,0,0,0,1099.194,631.512Z" fill="#585858"/>
  </g>
</svg>
