<svg xmlns="http://www.w3.org/2000/svg" width="26.257" height="14.883" viewBox="0 0 26.257 14.883">
  <g id="eye_1_" data-name="eye (1)" transform="translate(0.001 -110.897)">
    <g id="Group_466" data-name="Group 466" transform="translate(-0.002 110.897)">
      <g id="Group_465" data-name="Group 465" transform="translate(0 0)">
        <path id="Path_845" data-name="Path 845" d="M25.83,117.1a16.252,16.252,0,0,0-5.52-4.519,15.925,15.925,0,0,0-6.98-1.684c-.067,0-.338,0-.406,0a15.926,15.926,0,0,0-6.98,1.684A16.252,16.252,0,0,0,.424,117.1a2.007,2.007,0,0,0,0,2.472,16.251,16.251,0,0,0,5.52,4.519,15.925,15.925,0,0,0,6.98,1.684c.067,0,.338,0,.406,0a15.926,15.926,0,0,0,6.98-1.684,16.252,16.252,0,0,0,5.52-4.519A2.007,2.007,0,0,0,25.83,117.1ZM6.421,123.138a15.178,15.178,0,0,1-5.155-4.221.941.941,0,0,1,0-1.159,15.067,15.067,0,0,1,6.89-4.956,7.431,7.431,0,0,0,0,11.07A15.064,15.064,0,0,1,6.421,123.138Zm6.706,1.575a6.375,6.375,0,1,1,6.375-6.375A6.382,6.382,0,0,1,13.127,124.713Zm11.861-5.8a15.041,15.041,0,0,1-6.888,4.954,7.432,7.432,0,0,0,0-11.069,15.075,15.075,0,0,1,6.891,4.956A.941.941,0,0,1,24.988,118.918Z" transform="translate(0.002 -110.897)"/>
      </g>
    </g>
    <g id="Group_468" data-name="Group 468" transform="translate(10.399 115.61)">
      <g id="Group_467" data-name="Group 467" transform="translate(0 0)">
        <path id="Path_846" data-name="Path 846" d="M205.533,202.8a2.728,2.728,0,1,0,2.728,2.728A2.731,2.731,0,0,0,205.533,202.8Zm0,4.388a1.66,1.66,0,1,1,1.66-1.66A1.662,1.662,0,0,1,205.533,207.192Z" transform="translate(-202.805 -202.804)"/>
      </g>
    </g>
  </g>
</svg>
