<?xml version="1.0" encoding="utf-8"?>
<!-- Generator: Adobe Illustrator 23.0.3, SVG Export Plug-In . SVG Version: 6.00 Build 0)  -->
<svg version="1.1" id="Layer_1" xmlns="http://www.w3.org/2000/svg" xmlns:xlink="http://www.w3.org/1999/xlink" x="0px" y="0px"
	 viewBox="0 0 23 27" style="enable-background:new 0 0 23 27;" xml:space="preserve">
<style type="text/css">
	.st0{fill:#EBF6FF;}
	.st1{fill:#585858;}
	.st2{enable-background:new    ;}
</style>
<g id="Ellipse_504" transform="translate(494 799)">
	<circle class="st0" cx="-482.5" cy="-787.5" r="11.5"/>
	<path class="st1" d="M-482.5-776c-6.3,0-11.5-5.2-11.5-11.5c0-6.3,5.2-11.5,11.5-11.5c6.3,0,11.5,5.2,11.5,11.5
		C-471-781.2-476.2-776-482.5-776z M-482.5-798c-5.8,0-10.5,4.7-10.5,10.5c0,5.8,4.7,10.5,10.5,10.5c5.8,0,10.5-4.7,10.5-10.5
		C-472-793.3-476.7-798-482.5-798z"/>
</g>
<g class="st2">
	<path class="st1" d="M11.5,14.6c0-0.8-0.2-1.5-0.6-1.9L10,11.8c-0.9-0.9-1.3-1.9-1.3-2.9c0-1,0.3-1.8,0.9-2.3s1.4-0.8,2.4-0.8
		c1,0,1.8,0.3,2.5,0.8s0.9,1.3,1,2.2h-1.5c0-0.5-0.2-0.9-0.5-1.2C13,7.2,12.6,7.1,12,7.1c-0.6,0-1,0.2-1.3,0.5
		c-0.3,0.3-0.5,0.8-0.5,1.4c0,0.6,0.2,1.2,0.7,1.7l1.1,1.1c0.4,0.5,0.7,0.9,0.9,1.3c0.1,0.4,0.2,0.9,0.2,1.6H11.5z M12.9,17.8
		c-0.2,0.2-0.4,0.2-0.7,0.2c-0.3,0-0.5-0.1-0.7-0.2c-0.2-0.2-0.2-0.4-0.2-0.6s0.1-0.5,0.2-0.6c0.2-0.2,0.4-0.3,0.7-0.3
		c0.3,0,0.5,0.1,0.7,0.3c0.2,0.2,0.2,0.4,0.2,0.6C13.1,17.5,13.1,17.7,12.9,17.8z"/>
</g>
</svg>
