<?xml version="1.0" encoding="utf-8"?>
<!-- Generator: Adobe Illustrator 23.0.3, SVG Export Plug-In . SVG Version: 6.00 Build 0)  -->
<svg version="1.1" id="Layer_1" xmlns="http://www.w3.org/2000/svg" xmlns:xlink="http://www.w3.org/1999/xlink" x="0px" y="0px"
	 viewBox="0 0 19.1 19.1" style="enable-background:new 0 0 19.1 19.1;" xml:space="preserve">
<style type="text/css">
	.st0{fill:#FFFFFF;}
	.st1{fill:#585858;}
</style>
<g>
	<circle class="st0" cx="9.5" cy="9.5" r="9.5"/>
	<path class="st1" d="M9.5,19.1C4.3,19.1,0,14.8,0,9.5S4.3,0,9.5,0s9.5,4.3,9.5,9.5S14.8,19.1,9.5,19.1z M9.5,1C4.8,1,1,4.8,1,9.5
		s3.8,8.5,8.5,8.5s8.5-3.8,8.5-8.5S14.2,1,9.5,1z"/>
	<path class="st1" d="M9.5,1.3C5,1.3,1.3,5,1.3,9.5c0,4.5,3.7,8.2,8.2,8.2c4.5,0,8.2-3.7,8.2-8.2C17.7,5,14.1,1.3,9.5,1.3z M10,14.3
		l-0.9-0.9l0.9-0.9l0.9,0.9L10,14.3z M12,8.1h-1.2c0-0.9-0.3-1.3-1-1.3c-0.1,0-0.2,0-0.4,0.1C9.3,6.8,9.2,6.9,9.1,7
		C9,7,8.9,7.1,8.8,7.2C8.8,7.3,8.7,7.4,8.7,7.5c0,0,0,0,0,0c0,0.4,0.2,0.7,0.4,0.9c0.2,0.1,0.3,0.2,0.5,0.4C9.8,9,10,9.2,10.1,9.3
		c0.1,0.1,0.2,0.2,0.2,0.3c0.1,0.1,0.1,0.2,0.1,0.3c0,0.1,0.1,0.3,0.1,0.4c0,0.1,0,0.3,0,0.5v0.8H9.4v-0.8c0-0.2,0-0.3-0.1-0.4
		C9.2,10.2,9.1,10,9,9.9C8.8,9.7,8.7,9.6,8.5,9.5L8,9C7.8,8.9,7.7,8.6,7.6,8.4C7.5,8.1,7.5,7.9,7.5,7.6c0-0.3,0.1-0.6,0.2-0.8
		C7.8,6.5,8,6.3,8.2,6.1C8.4,5.9,8.7,5.8,9,5.7c0.3-0.1,0.5-0.2,0.8-0.2c0.3,0,0.7,0.1,1,0.2C11,5.9,11.3,6,11.4,6.3
		c0.2,0.2,0.3,0.5,0.4,0.8C11.9,7.4,12,7.7,12,8.1L12,8.1z"/>
</g>
<g>
	<g>
		<path d="M282.8,391c0.9,0,1.6,1.5,1.6,2.5c0,0.4,0,1-0.2,1.3c-0.2,0.4-0.9,0.9-1.6,0.9c-0.7,0-1.5-0.4-1.5-1.9
			C281.1,392.3,281.9,391,282.8,391z M284.1,393.9c0-0.3-0.4-2-1.3-2c-0.6,0-1.3,1-1.3,1.8c0,0.5,0.5,1.2,1.3,1.2
			C283.6,394.9,284.1,394.1,284.1,393.9z"/>
		<path d="M286.8,391.9c-0.3,1-0.9,3.1-1.4,4.2h-0.1c-0.2-0.3-0.3-0.5-0.4-0.7c0.6-1.1,1.2-2.8,1.5-4.3c0.2-0.2,0.4-0.4,0.5-0.5h0.1
			c0.3,1.4,0.9,3.2,1.9,4.9c-0.2,0.2-0.3,0.4-0.5,0.6h-0.1C287.8,395.1,287,392.9,286.8,391.9L286.8,391.9z"/>
		<path d="M291.3,391c0.9,0,1.6,1.5,1.6,2.5c0,0.4,0,1-0.2,1.3c-0.2,0.4-0.9,0.9-1.6,0.9c-0.7,0-1.5-0.4-1.5-1.9
			C289.5,392.3,290.4,391,291.3,391z M292.5,393.9c0-0.3-0.4-2-1.3-2c-0.6,0-1.3,1-1.3,1.8c0,0.5,0.5,1.2,1.3,1.2
			C292,394.9,292.5,394.1,292.5,393.9z"/>
		<path d="M295.3,391.9c-0.3,1-0.9,3.1-1.4,4.2h-0.1c-0.2-0.3-0.3-0.5-0.4-0.7c0.6-1.1,1.2-2.8,1.5-4.3c0.2-0.2,0.4-0.4,0.5-0.5h0.1
			c0.3,1.4,0.9,3.2,1.9,4.9c-0.2,0.2-0.3,0.4-0.5,0.6h-0.1C296.2,395.1,295.5,392.9,295.3,391.9L295.3,391.9z"/>
		<path d="M299.8,391c0.9,0,1.6,1.5,1.6,2.5c0,0.4,0,1-0.2,1.3c-0.2,0.4-0.9,0.9-1.6,0.9c-0.7,0-1.5-0.4-1.5-1.9
			C298,392.3,298.8,391,299.8,391z M301,393.9c0-0.3-0.4-2-1.3-2c-0.6,0-1.3,1-1.3,1.8c0,0.5,0.5,1.2,1.3,1.2
			C300.5,394.9,301,394.1,301,393.9z"/>
		<path d="M303.7,391.9c-0.3,1-0.9,3.1-1.4,4.2h-0.1c-0.2-0.3-0.3-0.5-0.4-0.7c0.6-1.1,1.2-2.8,1.5-4.3c0.2-0.2,0.4-0.4,0.5-0.5h0.1
			c0.3,1.4,0.9,3.2,1.9,4.9c-0.2,0.2-0.3,0.4-0.5,0.6h-0.1C304.7,395.1,303.9,392.9,303.7,391.9L303.7,391.9z"/>
	</g>
</g>
</svg>
