<?xml version="1.0" encoding="utf-8"?>
<!-- Generator: Adobe Illustrator 23.0.3, SVG Export Plug-In . SVG Version: 6.00 Build 0)  -->
<svg version="1.1" id="Layer_1" xmlns="http://www.w3.org/2000/svg" xmlns:xlink="http://www.w3.org/1999/xlink" x="0px" y="0px"
	 viewBox="0 0 463.2 313" style="enable-background:new 0 0 463.2 313;" xml:space="preserve">
<style type="text/css">
	.st0{opacity:0.1;}
	.st1{fill:#6C63FF;}
	.st2{fill:#535461;}
	.st3{opacity:0.25;enable-background:new    ;}
	.st4{opacity:0.1;fill:#6C63FF;enable-background:new    ;}
	.st5{opacity:0.46;fill:url(#Path_796_1_);enable-background:new    ;}
	.st6{fill:#FDC2CC;}
	.st7{opacity:3.000000e-02;enable-background:new    ;}
	.st8{opacity:0.1;enable-background:new    ;}
	.st9{opacity:0.15;fill:#FFFFFF;enable-background:new    ;}
	.st10{fill:#865A61;}
	.st11{fill:#FFFFFF;}
	.st12{fill:#3F3D56;}
</style>
<g id="undraw_forgot_password_gi2d" transform="translate(40.179 0.02)">
	<g id="Group_449" transform="translate(322.694 184.038)" class="st0">
		<path id="Path_767" class="st1" d="M16,37.7c0,0-30.2-3.9-7.7,45c0,0,20.5-8.8,21.3-28.6c0.3-8-5.3-15-13.2-16.3L16,37.7z"/>
		<path class="st2" d="M8.7,83L8,82.4C22.6,65,16,38,16,37.8l1-0.2C17,37.8,23.7,65.2,8.7,83z"/>
		<path class="st2" d="M8.9,85.6L7,84.8c0.5-1.1,11.3-27.3,31.7-37.3c8.3-4,15.2-10.7,19.5-18.9c2-3.9,3.7-8.1,4.9-12.3l1.9,0.6
			c-1.3,4.4-3,8.6-5.1,12.7c-4.4,8.6-11.7,15.6-20.4,19.8C19.8,59,9,85.3,8.9,85.6z"/>
		<path id="Path_770" class="st1" d="M76.8,10.3c-2.1,2.7-13.1,6.6-13.1,6.6S65,5.3,67.1,2.6c2-2.8,5.8-3.5,8.6-1.5
			c2.8,2,3.5,5.8,1.5,8.6C77.1,9.9,77,10.1,76.8,10.3L76.8,10.3z"/>
		<path id="Path_771" class="st1" d="M73,31.4c-3.2,1.1-14.5-1.6-14.5-1.6s7.4-9,10.6-10.1c3.2-1.3,6.8,0.2,8,3.4
			c1.3,3.2-0.2,6.8-3.4,8C73.5,31.2,73.3,31.3,73,31.4z"/>
		<path id="Path_772" class="st1" d="M52.6,56.3c-3.3-0.7-11.7-8.7-11.7-8.7s10.9-4,14.2-3.3c3.3,0.9,5.2,4.3,4.3,7.6
			C58.6,54.8,55.7,56.7,52.6,56.3L52.6,56.3z"/>
		<path id="Path_773" class="st1" d="M33,71.6c-3.4-0.1-13-6.6-13-6.6s10.1-5.8,13.5-5.7c3.4,0.4,5.8,3.4,5.5,6.8
			C38.6,69.2,36,71.5,33,71.6L33,71.6z"/>
		<path id="Path_774" class="st1" d="M48,22.2c0.4,3.4,7.8,12.4,7.8,12.4s4.8-10.6,4.4-13.9c-0.2-3.4-3.2-6-6.6-5.8
			c-3.4,0.2-6,3.2-5.8,6.6C47.9,21.7,47.9,21.9,48,22.2L48,22.2z"/>
		<path id="Path_775" class="st1" d="M25.2,40.5c1.4,3.1,11.1,9.5,11.1,9.5s1.5-11.5,0-14.6c-1.2-3.2-4.8-4.8-8-3.5
			c-3.2,1.2-4.8,4.8-3.5,8C25,40,25.1,40.3,25.2,40.5L25.2,40.5z"/>
		<path id="Path_776" class="st1" d="M5.5,61.3c0.9,3.3,9.4,11.2,9.4,11.2s3.4-11.1,2.5-14.4c-0.7-3.3-3.9-5.5-7.3-4.8
			s-5.5,3.9-4.8,7.3C5.3,60.8,5.4,61,5.5,61.3L5.5,61.3z"/>
		<path id="Path_777" class="st3" d="M76.8,10.3c-2.1,2.7-13.1,6.6-13.1,6.6S65,5.3,67.1,2.6c2-2.8,5.8-3.5,8.6-1.5
			c2.8,2,3.5,5.8,1.5,8.6C77.1,9.9,77,10.1,76.8,10.3L76.8,10.3z"/>
		<path id="Path_778" class="st3" d="M73,31.4c-3.2,1.1-14.5-1.6-14.5-1.6s7.4-9,10.6-10.1c3.2-1.3,6.8,0.2,8,3.4
			c1.3,3.2-0.2,6.8-3.4,8C73.5,31.2,73.3,31.3,73,31.4z"/>
		<path id="Path_779" class="st3" d="M52.6,56.3c-3.3-0.7-11.7-8.7-11.7-8.7s10.9-4,14.2-3.3c3.3,0.9,5.2,4.3,4.3,7.6
			C58.6,54.8,55.7,56.7,52.6,56.3L52.6,56.3z"/>
		<path id="Path_780" class="st3" d="M33,71.6c-3.4-0.1-13-6.6-13-6.6s10.1-5.8,13.5-5.7c3.4,0.4,5.8,3.4,5.5,6.8
			C38.6,69.2,36,71.5,33,71.6L33,71.6z"/>
		<path id="Path_781" class="st3" d="M48,22.2c0.4,3.4,7.8,12.4,7.8,12.4s4.8-10.6,4.4-13.9c-0.2-3.4-3.2-6-6.6-5.8
			c-3.4,0.2-6,3.2-5.8,6.6C47.9,21.7,47.9,21.9,48,22.2L48,22.2z"/>
		<path id="Path_782" class="st3" d="M25.2,40.5c1.4,3.1,11.1,9.5,11.1,9.5s1.5-11.5,0-14.6c-1.2-3.2-4.8-4.8-8-3.5
			c-3.2,1.2-4.8,4.8-3.5,8C25,40,25.1,40.3,25.2,40.5L25.2,40.5z"/>
		<path id="Path_783" class="st3" d="M5.5,61.3c0.9,3.3,9.4,11.2,9.4,11.2s3.4-11.1,2.5-14.4c-0.7-3.3-3.9-5.5-7.3-4.8
			s-5.5,3.9-4.8,7.3C5.3,60.8,5.4,61,5.5,61.3L5.5,61.3z"/>
		<path class="st2" d="M23.4,97.8L21.5,97c0.5-1.1,11.3-27.3,31.7-37.3c8.3-4,15.2-10.7,19.4-18.9c2-3.9,3.7-8.1,4.9-12.3l1.9,0.6
			c-1.3,4.4-3,8.6-5.1,12.7C70,50.3,62.7,57.4,54.1,61.5C34.3,71.2,23.5,97.5,23.4,97.8z"/>
		<path id="Path_785" class="st1" d="M91.2,22.5C89.1,25.1,78.2,29,78.2,29s1.3-11.6,3.4-14.2c2.3-2.5,6.2-2.7,8.7-0.5
			C92.6,16.4,93,19.9,91.2,22.5L91.2,22.5z"/>
		<path id="Path_786" class="st1" d="M87.5,43.5C84.3,44.6,73,41.9,73,41.9s7.4-9,10.6-10.1c3.3-0.9,6.7,1.1,7.5,4.4
			C91.9,39.2,90.4,42.4,87.5,43.5z"/>
		<path id="Path_787" class="st1" d="M67.1,68.5c-3.3-0.7-11.7-8.7-11.7-8.7s10.9-4,14.2-3.3c3.3,0.9,5.2,4.3,4.3,7.6
			C73.1,67,70.2,68.9,67.1,68.5L67.1,68.5z"/>
		<path id="Path_788" class="st1" d="M47.4,83.8c-3.4-0.1-13-6.6-13-6.6s10.1-5.8,13.5-5.7c3.4,0.4,5.8,3.4,5.5,6.8
			C53,81.4,50.5,83.7,47.4,83.8L47.4,83.8z"/>
		<path id="Path_789" class="st1" d="M62.4,34.4c0.4,3.4,7.8,12.4,7.8,12.4s4.8-10.6,4.4-13.9c-0.2-3.4-3.2-6-6.6-5.8
			c-3.4,0.2-6,3.2-5.8,6.6C62.4,33.9,62.4,34.1,62.4,34.4L62.4,34.4z"/>
		<path id="Path_790" class="st1" d="M39.7,52.7c1.4,3.1,11.1,9.5,11.1,9.5s1.5-11.5,0-14.6c-1.6-3-5.4-4.1-8.4-2.5
			C39.8,46.5,38.5,49.8,39.7,52.7L39.7,52.7z"/>
		<path id="Path_791" class="st1" d="M20,73.5c0.9,3.3,9.4,11.2,9.4,11.2s3.4-11.1,2.5-14.4c-1.1-3.2-4.6-5-7.8-3.9
			C21.1,67.4,19.4,70.4,20,73.5L20,73.5z"/>
	</g>
	<path id="Path_792" class="st4" d="M4.6,165.8c6.7,28.6,20.9,53.3,43.3,65.3c46.5,24.9,151.5,12.1,229.8-2.7
		c39.6-7.4,75.5-28,102-58.3L4.6,165.8z"/>
	<path id="Path_793" class="st4" d="M415.3,31.1h-43c-2.1,0-3.7-1.7-3.7-3.7c0-2.1,1.7-3.7,3.7-3.7h7.4c-2.1,0-3.7-1.7-3.7-3.7
		c0-2.1,1.7-3.7,3.7-3.7h-5.3c-2.1,0-3.7-1.7-3.7-3.7s1.7-3.7,3.7-3.7h22.4c-5.6-2.5-11.5-4.1-17.5-4.8c-61.2-7.9-83-2.7-90.7,2.7
		c-9.4,6.7-20.1,11.4-31.4,13.8c-37.7,7.8-108.3,17.1-172.3-3c-31.8-10-55.4,6.9-69.6,35.2h407.4c-0.4-7.7-2.1-15.3-5-22.5
		C417.1,30.8,416.2,31.1,415.3,31.1z"/>
	<path id="Path_794" class="st4" d="M0.9,106.1c-1.6,16.6-1.1,33.4,1.7,49.9L380,169.8c10.5-12.1,19.3-25.5,26.2-40L0.9,106.1z
		 M150.2,141.7h-7.4c2.1,0,3.7,1.7,3.7,3.7s-1.7,3.7-3.7,3.7c0,0,0,0,0,0h-43c-2.1,0-3.7-1.7-3.7-3.7s1.7-3.7,3.7-3.7c0,0,0,0,0,0
		h7.4c-2.1,0-3.7-1.7-3.7-3.7s1.7-3.7,3.7-3.7c0,0,0,0,0,0h-5.3c-2.1,0-3.7-1.7-3.7-3.7s1.7-3.7,3.7-3.7c0,0,0,0,0,0h43
		c2.1,0,3.7,1.7,3.7,3.7s-1.7,3.7-3.7,3.7c0,0,0,0,0,0h5.3c2.1,0,3.7,1.7,3.7,3.7S152.2,141.7,150.2,141.7
		C150.2,141.7,150.2,141.7,150.2,141.7L150.2,141.7z"/>
	<path id="Path_795" class="st4" d="M422.8,52.9l-412,10c-5.2,13.7-8.5,28-9.9,42.5h414.6c2.7-8.9,4.7-17.9,6-27.1
		C422.9,69.9,423.3,61.4,422.8,52.9z M84.6,85.8h-7.4c2.1,0,3.7,1.7,3.7,3.7s-1.7,3.7-3.7,3.7c0,0,0,0,0,0h-43
		c-2.1,0-3.7-1.7-3.7-3.7s1.7-3.7,3.7-3.7c0,0,0,0,0,0h7.4c-2.1,0-3.7-1.7-3.7-3.7c0-2,1.7-3.7,3.7-3.7h-5.3c-2.1,0-3.7-1.7-3.7-3.7
		s1.7-3.7,3.7-3.7c0,0,0,0,0,0h43c2.1,0,3.7,1.7,3.7,3.7s-1.7,3.7-3.7,3.7c0,0,0,0,0,0h5.3c2.1,0,3.7,1.7,3.7,3.7
		S86.7,85.8,84.6,85.8C84.6,85.8,84.6,85.8,84.6,85.8L84.6,85.8z"/>
	
		<linearGradient id="Path_796_1_" gradientUnits="userSpaceOnUse" x1="-112.4406" y1="552.1968" x2="-112.4406" y2="553.1968" gradientTransform="matrix(306.1453 0 0 -303.8664 34632.0117 168107.0625)">
		<stop  offset="0" style="stop-color:#808080;stop-opacity:0.251"/>
		<stop  offset="0.54" style="stop-color:#808080;stop-opacity:0.122"/>
		<stop  offset="1" style="stop-color:#808080;stop-opacity:0.102"/>
	</linearGradient>
	<path id="Path_796" class="st5" d="M361.9,312.8c0,0-17.2-94.2-49.9-109.5c-27.8-13-57.8-21.7-66.3-24.1c-1.3-2.1-2.7-4-4.4-5.7
		c-11.7-12.2-18.7-12-19.8-11.8c-0.5-2.4-0.9-4.9-1.2-7.3c0-0.4-0.1-0.7-0.1-1.1l0.1-0.1c-0.1-0.7-0.1-1.5-0.2-2.3
		c4.8-2.5,9.1-5.7,13-9.5c0,0.2,0.1,0.3,0.1,0.5c8.4-7.1,16.6-14.4,24.7-21.9c2.3-2.2,4.7-4.5,5.5-7.6c0.3-1,0.3-2.1,0.3-3.2
		c0.1-2.3-0.4-4.7-0.5-7c0-0.4,0-0.7,0.1-1.1c0.5-3.8,3.2-7,5.4-10.2c5.5-8.1,8.3-17.7,8.2-27.6c0.1-4.7-0.6-9.4-1.9-13.9
		c-1.7-5.7-5.3-11.7-11.2-13c-2.3-0.5-4.7-0.2-7-0.3c-9.7-0.6-16.9-8.5-24.6-14.2c-9.4-7-20.6-11.3-32.2-12.5
		c-3.6-0.5-7.3-0.3-10.9,0.7c-7.8,2.6-12.5,10.6-20,13.9c-5.5,2.4-12,2-17.7,3.9c-8.6,2.7-15.9,11.6-16.1,20.6v1.2
		c-0.1,4.6,1.5,9.3,1.7,13.9c0,0.4,0,0.8,0,1.3c0.1,5.1-0.8,10.1-2.5,14.9c-1,2.6-2.3,5.5-2.1,8.1c-0.2,1.5,0.3,3.1,1.3,4.2l1.9-1.6
		c-3.7,20,3.7,40.5,19.4,53.5c0.1,1.2,0.1,2.4,0.2,3.7c0.3,5.7,0.5,12.9,0.5,20.7l-18.2,16.7l-46.7,21.2c0,0-42.8,9-33.5,69.1
		l4.4,37.3h39l-0.1,0.2h57.9l0-0.2h137.8l0,0.2h5.4v-0.2L361.9,312.8z M221.8,162.6c1.2,2.4,2.1,5,2.8,7.6c-1.4-2.5-2.4-5.2-3-8.1
		l0.1,0.1L221.8,162.6z M155.6,170.3c0,0.7,0,1.5,0,2.2l-0.1,0.1C155.4,171.9,155.5,171.1,155.6,170.3L155.6,170.3z"/>
	<path id="Path_797" class="st6" d="M237.1,179.8l-7.7,73.6l-41.3,13.1c0,0-53.6-10-39.7-38.9c9.9-20.6,9.6-57.3,8.6-76.8
		c-0.4-7.9-0.9-13-0.9-13s70.2-61.3,64.4-6.2c-1,8.5-1.2,17-0.6,25.5C222.5,184.3,237.1,179.8,237.1,179.8z"/>
	<path id="Path_798" class="st7" d="M237.1,179.8l-7.7,73.6l-41.3,13.1c0,0-53.6-10-39.7-38.9c9.9-20.6,9.6-57.3,8.6-76.8
		c-0.4-7.9-0.9-13-0.9-13s70.2-61.3,64.4-6.2c-1,8.5-1.2,17-0.6,25.5C222.5,184.3,237.1,179.8,237.1,179.8z"/>
	<path id="Path_799" class="st8" d="M220.5,130.4c-1,8.5-1.2,17-0.6,25.5c-20.3,11.1-45.3,8.5-62.9-6.4c-0.4-7.9-0.9-13-0.9-13
		S226.3,75.3,220.5,130.4z"/>
	<circle id="Ellipse_468" class="st6" cx="193.1" cy="104.6" r="55.9"/>
	<circle id="Ellipse_469" class="st7" cx="193.1" cy="104.6" r="55.9"/>
	<path id="Path_800" class="st1" d="M356.6,312.8h-290l-4.2-36.6c-8.9-59,32.4-67.9,32.4-67.9l45.1-20.8l17.9-16.8
		c-5.8,22,38,67.7,38,67.7l0,0c0.3-0.3,0.5-0.5,0.8-0.8c1.2-1.3,4-4.5,10.6-12.5c2.4-2.9,5.2-6.3,8.6-10.6
		c16.5-20.3,8-44.2,5.5-49.2l-0.2-0.3c-0.1-0.2-0.2-0.3-0.2-0.4c0,0,0-0.1-0.1-0.1c0,0,0-0.1,0-0.1l21.2,16.6c0,0,0.8,0.2,2.3,0.6
		c8.3,2.3,37.2,10.9,64,23.7C340,220.3,356.6,312.8,356.6,312.8z"/>
	<path id="Path_801" class="st1" d="M257.9,224.5c-3.5-3.5-27-7.7-27-7.7c0.8,9.3-27.8,23.5-27.8,23.5l2.1,72.5h-13.7l-2.3-65.2
		l6.6-9.3l0,0l0.8-0.8c3.8-3.9,7.3-8.1,10.6-12.5c2.4-2.9,5.2-6.3,8.6-10.6c16.5-20.3,8-44.2,5.5-49.2l-0.2-0.3
		c-0.1-0.2-0.2-0.3-0.2-0.4c0,0,0-0.1-0.1-0.1c0,0,0-0.1,0-0.1l0,0c0,0,6.9-1.5,19.3,11.6c1.6,1.7,3,3.6,4.2,5.6
		C254.4,197.7,260.9,227.6,257.9,224.5z"/>
	<path id="Path_802" class="st8" d="M257.9,224.5c-3.5-3.5-27-7.7-27-7.7c0.8,9.3-27.8,23.5-27.8,23.5l2.1,72.5h-13.7l-2.3-65.2
		l6.6-9.3l0,0l0.8-0.8c3.8-3.9,7.3-8.1,10.6-12.5c2.4-2.9,5.2-6.3,8.6-10.6c16.5-20.3,8-44.2,5.5-49.2l-0.2-0.3
		c-0.1-0.2-0.2-0.3-0.2-0.4c0,0,0-0.1-0.1-0.1c0,0,0-0.1,0-0.1l0,0c0,0,6.9-1.5,19.3,11.6c1.6,1.7,3,3.6,4.2,5.6
		C254.4,197.7,260.9,227.6,257.9,224.5z"/>
	<path id="Path_803" class="st8" d="M100.9,254.2c0,0,18.1,37,19.1,58.8"/>
	<path id="Path_804" class="st8" d="M298.4,275.4l-5.2,37.6h5.2V275.4z"/>
	<path id="Path_805" class="st8" d="M105,313l28.7-65.4c0,0,8.1-15.4,10-30.8s12.3-39.7,12.3-39.7s25.8-32.8,37.8-28.1
		s-10.4,22-10.4,22s32.8,12.7,10.4,50.5s-22.8,30.8-22.8,30.8l-11,60.7L105,313z"/>
	<path id="Path_806" class="st6" d="M104.2,313l28.7-65.4c0,0,8.1-15.4,10-30.8c1.2-9.8,5.9-23.2,9.1-31.7c2.1-5.5,5.2-10.6,9.1-15
		c8.4-9.3,23.5-24.4,31.9-21.2c12,4.6-10.4,22-10.4,22s32.8,12.7,10.4,50.5s-22.7,30.8-22.7,30.8l-11,60.7L104.2,313z"/>
	<circle id="Ellipse_470" class="st9" cx="210.3" cy="73.2" r="1.2"/>
	<circle id="Ellipse_471" class="st9" cx="204.9" cy="75.5" r="1.2"/>
	<path id="Path_807" class="st8" d="M153.4,34.1c5.6-1.8,11.8-1.4,17.1-3.8c7.2-3.2,11.8-11.1,19.3-13.7c3.4-1,7-1.2,10.5-0.7
		c11.3,1.2,22.1,5.4,31.1,12.3c7.4,5.7,14.4,13.4,23.8,14c2.3,0.1,4.5-0.2,6.8,0.3c5.7,1.2,9.2,7.1,10.8,12.7
		c3.9,13.4,1.6,27.9-6,39.6c-2.1,3.2-4.7,6.3-5.2,10c-0.5,3.7,1.1,7.5,0.1,11.1c-0.8,3-3.1,5.3-5.3,7.4
		c-7.8,7.4-15.7,14.5-23.8,21.5c-4.2-13.4,2-27.8,1-41.9c-0.4-5.5-2.3-11.4-7.1-14c-4.5-2.4-10.3-1.2-14.8-3.5
		c-5.1-2.6-7.2-8.6-11-12.8c-6.6-7.2-17.9-8.1-27.1-4.9s-16.7,9.9-23.9,16.4l-13.2,11.8c-2.6-2.9-0.6-7.3,0.8-11
		c2.1-5.4,2.5-11.3,2.4-17.1c-0.1-4.6-1.7-9.2-1.6-13.7C138,45.5,145.1,36.8,153.4,34.1z"/>
	<path id="Path_808" class="st10" d="M153.4,33c5.6-1.8,11.8-1.4,17.1-3.8c7.2-3.2,11.8-11.1,19.3-13.7c3.4-1,7-1.2,10.5-0.7
		c11.3,1.2,22.1,5.4,31.1,12.3c7.4,5.7,14.4,13.4,23.8,14c2.3,0.1,4.5-0.2,6.8,0.3c5.7,1.2,9.2,7.1,10.8,12.7
		c3.9,13.4,1.6,27.9-6,39.6c-2.1,3.2-4.7,6.3-5.2,10c-0.5,3.7,1.1,7.5,0.1,11.1c-0.8,3-3.1,5.3-5.3,7.4
		c-7.8,7.4-15.7,14.5-23.8,21.5c-4.2-13.4,2-27.8,1-41.9c-0.4-5.5-2.3-11.4-7.1-14c-4.5-2.4-10.3-1.2-14.8-3.5
		c-5.1-2.6-7.2-8.6-11-12.8c-6.6-7.2-17.9-8.1-27.1-4.9s-16.7,9.9-23.9,16.4L136.3,95c-2.6-2.9-0.6-7.3,0.8-11
		c2.1-5.4,2.5-11.3,2.4-17.1c-0.1-4.6-1.7-9.2-1.6-13.7C138,44.4,145.1,35.7,153.4,33z"/>
	<g id="Group_450" transform="translate(-1015.257 -350.276)">
		<rect id="Rectangle_1079" x="975.1" y="463" class="st11" width="174.9" height="41.2"/>
		<rect id="Rectangle_1080" x="997.3" y="472.3" class="st12" width="129.9" height="21.9"/>
		<path id="Path_837" class="st11" d="M1027.5,482.8c-0.1-0.6-2.5-0.8-5.9-0.7c2-2.8,3.1-5,2.7-5.3c-0.4-0.3-2.1,1.1-4.2,3.4
			c-0.2-3.1-0.7-5.3-1.2-5.3c-0.6,0-1.1,2.6-1.2,6.1c-2.9-2.1-5.2-3.3-5.6-2.8c-0.3,0.4,1.2,2.3,3.7,4.5c-3.3,0.5-5.6,1.2-5.5,1.7
			c0.1,0.6,2.5,0.8,5.9,0.7c-2,2.8-3.1,5-2.7,5.3c0.4,0.3,2.1-1.1,4.2-3.4c0.2,3.1,0.7,5.3,1.2,5.3c0.6,0,1.1-2.6,1.2-6.1
			c2.9,2.1,5.2,3.3,5.6,2.8c0.3-0.4-1.2-2.3-3.7-4.5C1025.2,484,1027.5,483.3,1027.5,482.8z"/>
		<path id="Path_838" class="st11" d="M1049.3,482.8c-0.1-0.6-2.5-0.8-5.9-0.7c2-2.8,3.1-5,2.7-5.3c-0.4-0.3-2.1,1.1-4.2,3.4
			c-0.2-3.1-0.7-5.3-1.2-5.3c-0.6,0-1.1,2.6-1.2,6.1c-2.9-2.1-5.2-3.3-5.6-2.8c-0.3,0.4,1.2,2.3,3.7,4.5c-3.3,0.5-5.6,1.2-5.5,1.7
			s2.5,0.8,5.9,0.7c-2,2.8-3.1,5-2.7,5.3c0.4,0.3,2.1-1.1,4.2-3.4c0.2,3.1,0.7,5.3,1.2,5.3c0.6,0,1.1-2.6,1.2-6.1
			c2.9,2.1,5.2,3.3,5.6,2.8c0.3-0.4-1.2-2.3-3.7-4.5C1047.1,484,1049.4,483.3,1049.3,482.8z"/>
		<path id="Path_839" class="st11" d="M1071.2,482.8c-0.1-0.6-2.5-0.8-5.9-0.7c2-2.8,3.1-5,2.7-5.3c-0.4-0.3-2.1,1.1-4.2,3.4
			c-0.2-3.1-0.7-5.3-1.2-5.3c-0.6,0-1.1,2.6-1.2,6.1c-2.9-2.1-5.2-3.3-5.6-2.8c-0.3,0.4,1.2,2.3,3.7,4.5c-3.3,0.5-5.6,1.2-5.5,1.7
			s2.5,0.8,5.9,0.7c-2,2.8-3.1,5-2.7,5.3c0.4,0.3,2.1-1.1,4.2-3.4c0.2,3.1,0.7,5.3,1.2,5.3c0.6,0,1.1-2.6,1.2-6.1
			c2.9,2.1,5.2,3.3,5.6,2.8c0.3-0.4-1.2-2.3-3.7-4.5C1068.9,484,1071.2,483.3,1071.2,482.8z"/>
		<path id="Path_840" class="st11" d="M1093,482.8c-0.1-0.6-2.5-0.8-5.9-0.7c2-2.8,3.1-5,2.7-5.3c-0.4-0.3-2.1,1.1-4.2,3.4
			c-0.2-3.1-0.7-5.3-1.2-5.3c-0.6,0-1.1,2.6-1.2,6.1c-2.9-2.1-5.2-3.3-5.6-2.8c-0.3,0.4,1.2,2.3,3.7,4.5c-3.3,0.5-5.6,1.2-5.5,1.7
			s2.5,0.8,5.9,0.7c-2,2.8-3.1,5-2.7,5.3c0.4,0.3,2.1-1.1,4.2-3.4c0.2,3.1,0.7,5.3,1.2,5.3c0.6,0,1.1-2.6,1.2-6.1
			c2.9,2.1,5.2,3.3,5.6,2.8c0.3-0.4-1.2-2.3-3.7-4.5C1090.8,484,1093.1,483.3,1093,482.8z"/>
		<path id="Path_841" class="st11" d="M1114.9,482.8c-0.1-0.6-2.5-0.8-5.9-0.7c2-2.8,3.1-5,2.7-5.3c-0.4-0.3-2.1,1.1-4.2,3.4
			c-0.2-3.1-0.7-5.3-1.2-5.3c-0.6,0-1.1,2.6-1.2,6.1c-2.9-2.1-5.2-3.3-5.6-2.8c-0.3,0.4,1.2,2.3,3.7,4.5c-3.3,0.5-5.6,1.2-5.5,1.7
			s2.5,0.8,5.9,0.7c-2,2.8-3.1,5-2.7,5.3c0.4,0.3,2.1-1.1,4.2-3.4c0.2,3.1,0.7,5.3,1.2,5.3c0.6,0,1.1-2.6,1.2-6.1
			c2.9,2.1,5.2,3.3,5.6,2.8c0.3-0.4-1.2-2.3-3.7-4.5C1112.7,484,1115,483.3,1114.9,482.8z"/>
	</g>
</g>
</svg>
