<svg xmlns="http://www.w3.org/2000/svg" xmlns:xlink="http://www.w3.org/1999/xlink" width="463.198" height="313.033" viewBox="0 0 463.198 313.033">
  <defs>
    <linearGradient id="linear-gradient" x1="0.5" y1="1" x2="0.5" gradientUnits="objectBoundingBox">
      <stop offset="0" stop-color="gray" stop-opacity="0.251"/>
      <stop offset="0.54" stop-color="gray" stop-opacity="0.122"/>
      <stop offset="1" stop-color="gray" stop-opacity="0.102"/>
    </linearGradient>
  </defs>
  <g id="undraw_forgot_password_gi2d" transform="translate(40.179 0.02)">
    <g id="Group_449" data-name="Group 449" transform="translate(322.694 184.038)" opacity="0.1">
      <path id="Path_767" data-name="Path 767" d="M904.379,619.131s-30.2-3.921-7.677,44.955c0,0,20.525-8.8,21.342-28.634a15.786,15.786,0,0,0-13.237-16.26Z" transform="translate(-888.357 -581.412)" fill="#6c63ff"/>
      <path id="Path_768" data-name="Path 768" d="M918.157,619.06s6.836,27.253-8.1,45.032" transform="translate(-901.692 -581.415)" fill="none" stroke="#535461" stroke-miterlimit="10" stroke-width="1"/>
      <path id="Path_769" data-name="Path 769" d="M909,633.106s10.873-26.8,31.178-36.739a43.823,43.823,0,0,0,19.9-19.318,73.694,73.694,0,0,0,4.986-12.52" transform="translate(-901.041 -547.911)" fill="none" stroke="#535461" stroke-miterlimit="10" stroke-width="2"/>
      <path id="Path_770" data-name="Path 770" d="M1066.661,531.713c-2.117,2.661-13.071,6.555-13.071,6.555s1.319-11.568,3.436-14.209a6.169,6.169,0,1,1,9.64,7.665Z" transform="translate(-989.879 -521.428)" fill="#6c63ff"/>
      <path id="Path_771" data-name="Path 771" d="M1054.589,583.417c-3.224,1.084-14.529-1.612-14.529-1.612s7.384-8.976,10.608-10.06a6.169,6.169,0,1,1,3.921,11.672Z" transform="translate(-981.566 -552.061)" fill="#6c63ff"/>
      <path id="Path_772" data-name="Path 772" d="M1006.19,648.02c-3.328-.69-11.73-8.726-11.73-8.726s10.9-4.022,14.236-3.331a6.169,6.169,0,0,1-2.506,12.053Z" transform="translate(-953.549 -591.751)" fill="#6c63ff"/>
      <path id="Path_773" data-name="Path 773" d="M953.107,687.625c-3.4-.12-13.037-6.617-13.037-6.617s10.072-5.815,13.469-5.691a6.169,6.169,0,0,1-.432,12.3Z" transform="translate(-920.13 -615.979)" fill="#6c63ff"/>
      <path id="Path_774" data-name="Path 774" d="M1012.576,567.279c.436,3.374,7.8,12.366,7.8,12.366s4.847-10.565,4.415-13.939a6.169,6.169,0,1,0-12.212,1.573Z" transform="translate(-964.609 -545.081)" fill="#6c63ff"/>
      <path id="Path_775" data-name="Path 775" d="M952.514,611.933c1.423,3.085,11.14,9.466,11.14,9.466s1.465-11.533.042-14.617a6.169,6.169,0,1,0-11.182,5.155Z" transform="translate(-927.318 -571.442)" fill="#6c63ff"/>
      <path id="Path_776" data-name="Path 776" d="M902.095,667.379c.879,3.285,9.381,11.213,9.381,11.213s3.393-11.117,2.51-14.4a6.169,6.169,0,1,0-11.891,3.189Z" transform="translate(-896.595 -606.09)" fill="#6c63ff"/>
      <path id="Path_777" data-name="Path 777" d="M1066.661,531.713c-2.117,2.661-13.071,6.555-13.071,6.555s1.319-11.568,3.436-14.209a6.169,6.169,0,1,1,9.64,7.665Z" transform="translate(-989.879 -521.428)" opacity="0.25"/>
      <path id="Path_778" data-name="Path 778" d="M1054.589,583.417c-3.224,1.084-14.529-1.612-14.529-1.612s7.384-8.976,10.608-10.06a6.169,6.169,0,1,1,3.921,11.672Z" transform="translate(-981.566 -552.061)" opacity="0.25"/>
      <path id="Path_779" data-name="Path 779" d="M1006.19,648.02c-3.328-.69-11.73-8.726-11.73-8.726s10.9-4.022,14.236-3.331a6.169,6.169,0,0,1-2.506,12.053Z" transform="translate(-953.549 -591.751)" opacity="0.25"/>
      <path id="Path_780" data-name="Path 780" d="M953.107,687.625c-3.4-.12-13.037-6.617-13.037-6.617s10.072-5.815,13.469-5.691a6.169,6.169,0,0,1-.432,12.3Z" transform="translate(-920.13 -615.979)" opacity="0.25"/>
      <path id="Path_781" data-name="Path 781" d="M1012.576,567.279c.436,3.374,7.8,12.366,7.8,12.366s4.847-10.565,4.415-13.939a6.169,6.169,0,1,0-12.212,1.573Z" transform="translate(-964.609 -545.081)" opacity="0.25"/>
      <path id="Path_782" data-name="Path 782" d="M952.514,611.933c1.423,3.085,11.14,9.466,11.14,9.466s1.465-11.533.042-14.617a6.169,6.169,0,1,0-11.182,5.155Z" transform="translate(-927.318 -571.442)" opacity="0.25"/>
      <path id="Path_783" data-name="Path 783" d="M902.095,667.379c.879,3.285,9.381,11.213,9.381,11.213s3.393-11.117,2.51-14.4a6.169,6.169,0,1,0-11.891,3.189Z" transform="translate(-896.595 -606.09)" opacity="0.25"/>
      <path id="Path_784" data-name="Path 784" d="M946.56,664.72s10.873-26.8,31.178-36.739a43.822,43.822,0,0,0,19.888-19.322,73.679,73.679,0,0,0,4.986-12.52" transform="translate(-924.118 -567.332)" fill="none" stroke="#535461" stroke-miterlimit="10" stroke-width="2"/>
      <path id="Path_785" data-name="Path 785" d="M1104.171,564.248c-2.117,2.661-13.071,6.555-13.071,6.555s1.319-11.568,3.435-14.209a6.17,6.17,0,0,1,9.64,7.666Z" transform="translate(-1012.926 -541.78)" fill="#6c63ff"/>
      <path id="Path_786" data-name="Path 786" d="M1092.119,615.421c-3.224,1.083-14.529-1.612-14.529-1.612s7.384-8.977,10.608-10.06a6.169,6.169,0,0,1,3.921,11.672Z" transform="translate(-1004.625 -571.88)" fill="#6c63ff"/>
      <path id="Path_787" data-name="Path 787" d="M1043.719,679.66c-3.328-.69-11.729-8.726-11.729-8.726s10.9-4.022,14.236-3.331a6.169,6.169,0,0,1-2.506,12.053Z" transform="translate(-976.607 -611.191)" fill="#6c63ff"/>
      <path id="Path_788" data-name="Path 788" d="M990.627,719.221c-3.4-.12-13.037-6.617-13.037-6.617s10.072-5.807,13.469-5.687a6.169,6.169,0,0,1-.432,12.3Z" transform="translate(-943.183 -635.394)" fill="#6c63ff"/>
      <path id="Path_789" data-name="Path 789" d="M1050.1,598.92c.436,3.374,7.8,12.366,7.8,12.366s4.847-10.565,4.415-13.939a6.169,6.169,0,1,0-12.212,1.573Z" transform="translate(-987.662 -564.521)" fill="#6c63ff"/>
      <path id="Path_790" data-name="Path 790" d="M990.571,644.641c1.423,3.085,11.139,9.466,11.139,9.466s1.465-11.533.042-14.618a6.169,6.169,0,0,0-11.182,5.155Z" transform="translate(-950.905 -591.981)" fill="#6c63ff"/>
      <path id="Path_791" data-name="Path 791" d="M939.961,700.256c.879,3.285,9.381,11.213,9.381,11.213s3.393-11.116,2.51-14.4a6.169,6.169,0,0,0-11.891,3.189Z" transform="translate(-919.991 -626.775)" fill="#6c63ff"/>
    </g>
    <path id="Path_792" data-name="Path 792" d="M63.3,474.07c6.694,28.61,20.864,53.342,43.259,65.33,46.54,24.913,151.5,12.065,229.835-2.7a179.378,179.378,0,0,0,102-58.3Z" transform="translate(-58.735 -308.292)" fill="#6c63ff" opacity="0.1"/>
    <path id="Path_793" data-name="Path 793" d="M491.323,75.208H448.342a3.715,3.715,0,1,1,0-7.43h7.43a3.715,3.715,0,1,1,0-7.43h-5.306a3.715,3.715,0,0,1,0-7.43H472.9a59.362,59.362,0,0,0-17.5-4.824c-61.169-7.858-83.009-2.661-90.713,2.7a85.662,85.662,0,0,1-31.441,13.781c-37.745,7.777-108.326,17.147-172.3-3.008-31.8-10.025-55.428,6.91-69.59,35.2H498.784a66.39,66.39,0,0,0-5.047-22.456A3.694,3.694,0,0,1,491.323,75.208Z" transform="translate(-75.976 -44.1)" fill="#6c63ff" opacity="0.1"/>
    <path id="Path_794" data-name="Path 794" d="M52.367,319.2a189.345,189.345,0,0,0,1.67,49.918l377.364,13.8a177.368,177.368,0,0,0,26.22-39.985Zm149.252,35.609h-7.43a3.715,3.715,0,1,1,0,7.43H151.208a3.715,3.715,0,1,1,0-7.43h7.43a3.715,3.715,0,1,1,0-7.43h-5.306a3.715,3.715,0,1,1,0-7.43h42.981a3.715,3.715,0,1,1,0,7.43h5.306a3.715,3.715,0,1,1,0,7.43Z" transform="translate(-51.45 -213.138)" fill="#6c63ff" opacity="0.1"/>
    <path id="Path_795" data-name="Path 795" d="M475.849,181.38,63.856,191.405A164.609,164.609,0,0,0,54,233.947H468.631a176.009,176.009,0,0,0,5.988-27.118A128.493,128.493,0,0,0,475.849,181.38ZM137.641,214.22h-7.43a3.715,3.715,0,1,1,0,7.43H87.23a3.715,3.715,0,1,1,0-7.43h7.43a3.715,3.715,0,0,1,0-7.43H89.354a3.715,3.715,0,1,1,0-7.43h42.981a3.715,3.715,0,1,1,0,7.43h5.306a3.715,3.715,0,1,1,0,7.43Z" transform="translate(-53.021 -128.459)" fill="#6c63ff" opacity="0.1"/>
    <path id="Path_796" data-name="Path 796" d="M502.3,371.566s-17.182-94.237-49.945-109.529c-27.762-12.967-57.784-21.708-66.321-24.08a36.865,36.865,0,0,0-4.4-5.741c-11.668-12.181-18.678-11.953-19.811-11.8a59.313,59.313,0,0,1-1.157-7.326c-.035-.386-.069-.744-.1-1.126l.1-.05q-.1-1.093-.185-2.256a58.067,58.067,0,0,0,13.029-9.489c.05.166.093.332.147.5q12.612-10.661,24.7-21.9c2.314-2.163,4.743-4.511,5.529-7.561a11.1,11.1,0,0,0,.289-3.208c.1-2.314-.443-4.677-.536-7.021a8.04,8.04,0,0,1,.093-1.111c.54-3.837,3.208-6.987,5.4-10.206a48.129,48.129,0,0,0,8.186-27.554,46.658,46.658,0,0,0-1.928-13.881c-1.708-5.714-5.263-11.718-11.182-12.967-2.29-.482-4.669-.181-7.006-.332-9.674-.617-16.916-8.483-24.631-14.247a65.014,65.014,0,0,0-32.227-12.508,25.821,25.821,0,0,0-10.873.744c-7.785,2.591-12.512,10.592-20.012,13.881-5.545,2.445-11.953,2.047-17.737,3.883-8.61,2.738-15.917,11.568-16.11,20.64v1.176c-.1,4.585,1.542,9.254,1.673,13.947q0,.636.019,1.276a41.972,41.972,0,0,1-2.495,14.911c-.995,2.564-2.275,5.533-2.067,8.1a5.42,5.42,0,0,0,1.28,4.241l1.862-1.643a56.316,56.316,0,0,0,19.376,53.535q.108,1.731.208,3.709c.293,5.714.524,12.882.459,20.694l-18.184,16.715L231,265.184s-42.754,9.03-33.546,69.093l4.4,37.294h39.033l-.089.2h57.934l.035-.2H436.6l-.027.2h5.4v-.2ZM362.164,221.37A40.074,40.074,0,0,1,364.94,229a31.272,31.272,0,0,1-3-8.051l.058.1Zm-66.251,7.712q0,1.1-.039,2.225l-.093.131a18.9,18.9,0,0,1,.131-2.375Z" transform="translate(-140.36 -58.754)" opacity="0.46" fill="url(#linear-gradient)"/>
    <path id="Path_797" data-name="Path 797" d="M521.276,396.944l-7.712,73.647L472.307,483.7s-53.6-10.025-39.715-38.944c9.875-20.571,9.6-57.333,8.622-76.843-.386-7.92-.91-13-.91-13s70.176-61.308,64.393-6.169a130.482,130.482,0,0,0-.563,25.549C506.736,401.455,521.276,396.944,521.276,396.944Z" transform="translate(-284.223 -217.158)" fill="#fdc2cc"/>
    <path id="Path_798" data-name="Path 798" d="M521.276,396.944l-7.712,73.647L472.307,483.7s-53.6-10.025-39.715-38.944c9.875-20.571,9.6-57.333,8.622-76.843-.386-7.92-.91-13-.91-13s70.176-61.308,64.393-6.169a130.482,130.482,0,0,0-.563,25.549C506.736,401.455,521.276,396.944,521.276,396.944Z" transform="translate(-284.223 -217.158)" opacity="0.03"/>
    <path id="Path_799" data-name="Path 799" d="M520.643,345.746a130.488,130.488,0,0,0-.563,25.549,55.937,55.937,0,0,1-62.92-6.381c-.386-7.92-.91-13-.91-13S526.426,290.607,520.643,345.746Z" transform="translate(-300.17 -215.315)" opacity="0.1"/>
    <circle id="Ellipse_468" data-name="Ellipse 468" cx="55.91" cy="55.91" r="55.91" transform="translate(137.187 48.691)" fill="#fdc2cc"/>
    <circle id="Ellipse_469" data-name="Ellipse 469" cx="55.91" cy="55.91" r="55.91" transform="translate(137.187 48.691)" opacity="0.03"/>
    <path id="Path_800" data-name="Path 800" d="M505.461,618.893H215.5l-4.241-36.631c-8.868-58.995,32.389-67.863,32.389-67.863l45.113-20.822,17.93-16.773c-5.784,21.978,37.98,67.67,37.98,67.67h0a10.38,10.38,0,0,0,.8-.829c1.18-1.288,4-4.511,10.6-12.508,2.36-2.865,5.209-6.339,8.641-10.557,16.5-20.282,8.036-44.246,5.506-49.2l-.158-.309c-.1-.177-.17-.32-.227-.42a.631.631,0,0,0-.058-.1.617.617,0,0,1-.042-.077l21.207,16.58s.814.216,2.314.64c8.251,2.314,37.24,10.916,64.007,23.652C488.88,526.353,505.461,618.893,505.461,618.893Z" transform="translate(-148.876 -306.08)" fill="#6c63ff"/>
    <path id="Path_801" data-name="Path 801" d="M610.9,530.505c-3.47-3.47-26.991-7.712-26.991-7.712.771,9.254-27.762,23.521-27.762,23.521l2.121,72.49H544.584L542.27,553.64l6.555-9.254h0l.8-.829a127.253,127.253,0,0,0,10.6-12.508c2.36-2.865,5.209-6.339,8.641-10.557,16.5-20.282,8.036-44.246,5.506-49.2l-.158-.309c-.092-.181-.166-.32-.228-.42a.614.614,0,0,0-.058-.1.616.616,0,0,1-.042-.077h0s6.94-1.542,19.279,11.568A36.147,36.147,0,0,1,597.4,487.6C607.43,503.688,613.954,533.563,610.9,530.505Z" transform="translate(-353.022 -305.991)" fill="#6c63ff"/>
    <path id="Path_802" data-name="Path 802" d="M610.9,530.505c-3.47-3.47-26.991-7.712-26.991-7.712.771,9.254-27.762,23.521-27.762,23.521l2.121,72.49H544.584L542.27,553.64l6.555-9.254h0l.8-.829a127.253,127.253,0,0,0,10.6-12.508c2.36-2.865,5.209-6.339,8.641-10.557,16.5-20.282,8.036-44.246,5.506-49.2l-.158-.309c-.092-.181-.166-.32-.228-.42a.614.614,0,0,0-.058-.1.616.616,0,0,1-.042-.077h0s6.94-1.542,19.279,11.568A36.147,36.147,0,0,1,597.4,487.6C607.43,503.688,613.954,533.563,610.9,530.505Z" transform="translate(-353.022 -305.991)" opacity="0.1"/>
    <path id="Path_803" data-name="Path 803" d="M313.25,703.4s18.123,37.016,19.086,58.8" transform="translate(-212.308 -449.196)" opacity="0.1"/>
    <path id="Path_804" data-name="Path 804" d="M765.505,714.31,760.3,751.9h5.205Z" transform="translate(-467.144 -438.895)" opacity="0.1"/>
    <path id="Path_805" data-name="Path 805" d="M323.75,593.753,352.476,528.4s8.1-15.423,10.025-30.847,12.339-39.715,12.339-39.715,25.834-32.775,37.787-28.148-10.411,21.978-10.411,21.978,32.775,12.724,10.411,50.512-22.75,30.847-22.75,30.847l-10.989,60.73Z" transform="translate(-218.759 -280.748)" opacity="0.1"/>
    <path id="Path_806" data-name="Path 806" d="M321.75,593.74l28.726-65.357s8.1-15.423,10.025-30.847c1.226-9.805,5.88-23.2,9.108-31.653a48.531,48.531,0,0,1,9.146-15.038c8.352-9.347,23.521-24.419,31.872-21.18,11.953,4.627-10.411,21.978-10.411,21.978s32.775,12.724,10.411,50.512S387.878,533,387.878,533l-10.989,60.73Z" transform="translate(-217.531 -280.735)" fill="#fdc2cc"/>
    <circle id="Ellipse_470" data-name="Ellipse 470" cx="1.157" cy="1.157" r="1.157" transform="translate(209.098 72.019)" fill="#fff" opacity="0.15"/>
    <circle id="Ellipse_471" data-name="Ellipse 471" cx="1.157" cy="1.157" r="1.157" transform="translate(203.7 74.332)" fill="#fff" opacity="0.15"/>
    <path id="Path_807" data-name="Path 807" d="M420.007,103.329c5.579-1.8,11.772-1.415,17.124-3.813,7.237-3.247,11.8-11.1,19.31-13.65a24.8,24.8,0,0,1,10.492-.729,62.106,62.106,0,0,1,31.1,12.289c7.446,5.664,14.432,13.387,23.767,13.993,2.256.147,4.55-.15,6.759.324,5.722,1.226,9.15,7.122,10.8,12.724a47.913,47.913,0,0,1-6.038,39.561c-2.113,3.162-4.689,6.258-5.209,10.025-.509,3.694,1.064,7.523.147,11.14-.771,3-3.085,5.3-5.336,7.426q-11.664,11.032-23.841,21.5c-4.218-13.4,1.97-27.835,1.006-41.851-.386-5.46-2.313-11.421-7.129-14-4.507-2.406-10.268-1.157-14.83-3.47-5.09-2.564-7.18-8.637-11.028-12.84-6.555-7.172-17.934-8.1-27.1-4.858s-16.657,9.9-23.906,16.4l-13.175,11.818c-2.572-2.9-.621-7.349.771-10.974,2.074-5.433,2.529-11.29,2.391-17.058-.112-4.627-1.708-9.2-1.616-13.7C404.649,114.7,411.7,106.017,420.007,103.329Z" transform="translate(-266.63 -69.186)" opacity="0.1"/>
    <path id="Path_808" data-name="Path 808" d="M420.007,100.329c5.579-1.8,11.772-1.415,17.124-3.813,7.237-3.247,11.8-11.1,19.31-13.65a24.8,24.8,0,0,1,10.492-.729,62.106,62.106,0,0,1,31.1,12.289c7.446,5.664,14.432,13.388,23.767,13.993,2.256.147,4.55-.15,6.759.324,5.722,1.226,9.15,7.122,10.8,12.724a47.913,47.913,0,0,1-6.038,39.561c-2.113,3.162-4.689,6.258-5.209,10.025-.509,3.694,1.064,7.523.147,11.14-.771,3-3.085,5.3-5.336,7.426q-11.664,11.032-23.841,21.5c-4.218-13.4,1.97-27.835,1.006-41.851-.386-5.46-2.313-11.421-7.129-14-4.507-2.406-10.268-1.157-14.83-3.47-5.09-2.564-7.18-8.637-11.028-12.84-6.555-7.172-17.934-8.1-27.1-4.858s-16.657,9.9-23.906,16.4l-13.175,11.818c-2.572-2.9-.621-7.349.771-10.974,2.074-5.433,2.529-11.29,2.391-17.058-.112-4.627-1.708-9.2-1.616-13.7C404.649,111.7,411.7,103.017,420.007,100.329Z" transform="translate(-266.63 -67.343)" fill="#865a61"/>
    <g id="Group_450" data-name="Group 450" transform="translate(-1015.257 -350.276)">
      <rect id="Rectangle_1079" data-name="Rectangle 1079" width="174.922" height="41.158" transform="translate(975.078 463)" fill="#fff"/>
      <rect id="Rectangle_1080" data-name="Rectangle 1080" width="129.906" height="21.865" transform="translate(997.264 472.325)" fill="#3f3d56"/>
      <path id="Path_837" data-name="Path 837" d="M508.846,556.381c-.052-.561-2.532-.81-5.934-.67,1.972-2.777,3.114-4.992,2.672-5.341-.417-.329-2.122,1.094-4.2,3.406-.2-3.1-.652-5.276-1.183-5.276-.579,0-1.069,2.587-1.23,6.142-2.89-2.078-5.223-3.3-5.582-2.843-.343.434,1.219,2.267,3.7,4.46-3.277.486-5.585,1.172-5.534,1.723s2.532.81,5.934.67c-1.972,2.777-3.114,4.992-2.672,5.341.417.329,2.122-1.094,4.2-3.406.2,3.1.652,5.276,1.183,5.276.579,0,1.069-2.587,1.23-6.143,2.89,2.078,5.223,3.3,5.582,2.843.343-.434-1.219-2.267-3.7-4.46C506.589,557.617,508.9,556.931,508.846,556.381Z" transform="translate(518.606 -73.603)" fill="#fff"/>
      <path id="Path_838" data-name="Path 838" d="M542.846,556.381c-.052-.561-2.532-.81-5.934-.67,1.972-2.777,3.114-4.992,2.672-5.341-.417-.329-2.122,1.094-4.2,3.406-.2-3.1-.652-5.276-1.183-5.276-.579,0-1.069,2.587-1.23,6.142-2.89-2.078-5.223-3.3-5.582-2.843-.343.434,1.219,2.267,3.7,4.46-3.277.486-5.585,1.172-5.534,1.723s2.532.81,5.934.67c-1.972,2.777-3.114,4.992-2.672,5.341.417.329,2.122-1.094,4.2-3.406.2,3.1.652,5.276,1.183,5.276.579,0,1.069-2.587,1.23-6.143,2.89,2.078,5.223,3.3,5.582,2.843.343-.434-1.219-2.267-3.7-4.46C540.589,557.617,542.9,556.931,542.846,556.381Z" transform="translate(506.472 -73.603)" fill="#fff"/>
      <path id="Path_839" data-name="Path 839" d="M576.846,556.381c-.052-.561-2.532-.81-5.934-.67,1.972-2.777,3.114-4.992,2.672-5.341-.417-.329-2.122,1.094-4.2,3.406-.2-3.1-.652-5.276-1.183-5.276-.579,0-1.069,2.587-1.23,6.142-2.89-2.078-5.223-3.3-5.582-2.843-.343.434,1.219,2.267,3.7,4.46-3.277.486-5.585,1.172-5.534,1.723s2.532.81,5.934.67c-1.972,2.777-3.114,4.992-2.672,5.341.417.329,2.122-1.094,4.2-3.406.2,3.1.652,5.276,1.183,5.276.579,0,1.069-2.587,1.23-6.143,2.89,2.078,5.223,3.3,5.582,2.843.343-.434-1.219-2.267-3.7-4.46C574.589,557.617,576.9,556.931,576.846,556.381Z" transform="translate(494.337 -73.603)" fill="#fff"/>
      <path id="Path_840" data-name="Path 840" d="M610.846,556.381c-.052-.561-2.532-.81-5.934-.67,1.972-2.777,3.114-4.992,2.672-5.341-.417-.329-2.122,1.094-4.2,3.406-.2-3.1-.652-5.276-1.183-5.276-.579,0-1.069,2.587-1.23,6.142-2.89-2.078-5.223-3.3-5.582-2.843-.343.434,1.219,2.267,3.7,4.46-3.277.486-5.585,1.172-5.534,1.723s2.532.81,5.934.67c-1.972,2.777-3.114,4.992-2.672,5.341.417.329,2.122-1.094,4.2-3.406.2,3.1.652,5.276,1.183,5.276.579,0,1.069-2.587,1.23-6.143,2.89,2.078,5.223,3.3,5.582,2.843.343-.434-1.219-2.267-3.7-4.46C608.589,557.617,610.9,556.931,610.846,556.381Z" transform="translate(482.202 -73.603)" fill="#fff"/>
      <path id="Path_841" data-name="Path 841" d="M644.846,556.381c-.052-.561-2.532-.81-5.934-.67,1.972-2.777,3.114-4.992,2.672-5.341-.417-.329-2.122,1.094-4.2,3.406-.2-3.1-.652-5.276-1.183-5.276-.579,0-1.069,2.587-1.23,6.142-2.89-2.078-5.223-3.3-5.582-2.843-.343.434,1.219,2.267,3.7,4.46-3.277.486-5.585,1.172-5.534,1.723s2.532.81,5.934.67c-1.972,2.777-3.114,4.992-2.672,5.341.417.329,2.122-1.094,4.2-3.406.2,3.1.652,5.276,1.183,5.276.579,0,1.069-2.587,1.23-6.143,2.89,2.078,5.223,3.3,5.582,2.843.343-.434-1.219-2.267-3.7-4.46C642.589,557.617,644.9,556.931,644.846,556.381Z" transform="translate(470.068 -73.603)" fill="#fff"/>
    </g>
  </g>
</svg>
