<?xml version="1.0" encoding="utf-8"?>
<!-- Generator: Adobe Illustrator 23.0.3, SVG Export Plug-In . SVG Version: 6.00 Build 0)  -->
<svg version="1.1" id="Layer_1" xmlns="http://www.w3.org/2000/svg" xmlns:xlink="http://www.w3.org/1999/xlink" x="0px" y="0px"
	 viewBox="0 0 20 20" style="enable-background:new 0 0 20 20;" xml:space="preserve">
<style type="text/css">
	.st0{fill:#585858;}
</style>
<g id="google-plus" transform="translate(0 -96)">
	<g id="Group_108" transform="translate(0 96)">
		<g id="Group_107" transform="translate(0 0)">
			<path id="Path_487" class="st0" d="M10,8v4h5.7c-1.1,3.1-4.5,4.8-7.7,3.7C4.9,14.6,3.2,11.1,4.3,8C5.2,5.6,7.5,4,10,4
				c1.4,0,2.8,0.5,3.9,1.4l2.6-3C14.7,0.9,12.4,0,10,0C4.5,0,0,4.5,0,10c0,5.5,4.5,10,10,10s10-4.5,10-10V8L10,8z"/>
		</g>
	</g>
</g>
</svg>
