<svg xmlns="http://www.w3.org/2000/svg" width="32.078" height="34.223" viewBox="0 0 32.078 34.223">
  <g id="google-play" transform="translate(0 0)">
    <path id="Path_6" data-name="Path 6" d="M33.815,33.233,17.262,49.785A3.924,3.924,0,0,1,16.043,46.9V20.936a3.977,3.977,0,0,1,1.262-2.93Z" transform="translate(-16.043 -16.803)" fill="#2196f3"/>
    <path id="Path_7" data-name="Path 7" d="M296.27,160.231a4.059,4.059,0,0,1-2.16,3.571l-4.7,2.609-5.838-5.389-1.6-1.476,6.181-6.181,5.967,3.293A4.059,4.059,0,0,1,296.27,160.231Z" transform="translate(-264.191 -143.116)" fill="#ffc107"/>
    <path id="Path_8" data-name="Path 8" d="M51.433,16.43,34.923,1.2a4.258,4.258,0,0,1,.77-.577A4.305,4.305,0,0,1,40.056.561l17.558,9.688Z" transform="translate(-33.661 0)" fill="#4caf50"/>
    <path id="Path_9" data-name="Path 9" d="M58.278,252.711l-18.82,10.372a4.259,4.259,0,0,1-2.139.556,4.167,4.167,0,0,1-2.224-.62,3.894,3.894,0,0,1-.813-.62l16.553-16.553,1.6,1.476Z" transform="translate(-33.064 -229.416)" fill="#f44336"/>
  </g>
</svg>
