<svg xmlns="http://www.w3.org/2000/svg" width="17.923" height="23.494" viewBox="0 0 17.923 23.494">
  <g id="Group_582" data-name="Group 582" transform="translate(-1000.827 -445.203)">
    <g id="Group_578" data-name="Group 578" transform="translate(1000.828 445.203)">
      <path id="Path_52" data-name="Path 52" d="M517.728,389.207a1.905,1.905,0,0,1-1.115-.364,2.069,2.069,0,0,1-.848-1.684c0-2.682-.047-12.556-.075-17.1a4.453,4.453,0,0,1,1.27-3.153,3.98,3.98,0,0,1,2.836-1.2h9.709a4.223,4.223,0,0,1,4.107,4.316c0,4.526.006,15.243-.028,16.992a2.071,2.071,0,0,1-.849,1.643,1.9,1.9,0,0,1-1.7.271.78.78,0,0,1-.256-.139c-2.422-1.981-5.121-4.126-6.055-4.788-.941.677-3.68,2.9-6.137,4.956a.78.78,0,0,1-.249.141A1.925,1.925,0,0,1,517.728,389.207Zm2.069-21.938a2.436,2.436,0,0,0-1.733.738,2.892,2.892,0,0,0-.817,2.047c.027,4.543.077,14.422.075,17.108a.5.5,0,0,0,.2.419.35.35,0,0,0,.217.071c6.382-5.333,6.659-5.327,7-5.326.32,0,.595.007,6.883,5.145h0a.355.355,0,0,0,.209-.071.5.5,0,0,0,.2-.407h0c.033-1.736.03-12.44.027-16.962a2.666,2.666,0,0,0-2.55-2.761Z" transform="translate(-515.691 -365.713)" fill="#0389ff"/>
    </g>
  </g>
</svg>
