<svg xmlns="http://www.w3.org/2000/svg" width="39.398" height="45.16" viewBox="0 0 39.398 45.16">
  <g id="Group_56" data-name="Group 56" transform="translate(-624.52 -490.908)">
    <path id="Path_78" data-name="Path 78" d="M655.6,490.908H632.837a8.326,8.326,0,0,0-8.317,8.317v28.527a8.326,8.326,0,0,0,8.317,8.317H647.2a11.655,11.655,0,0,0,8.727-3.933L661,526.4a11.645,11.645,0,0,0,2.922-7.717V499.225A8.325,8.325,0,0,0,655.6,490.908ZM632.837,533.3a5.553,5.553,0,0,1-5.546-5.546V499.225a5.553,5.553,0,0,1,5.546-5.546H655.6a5.553,5.553,0,0,1,5.545,5.546v19.456a8.978,8.978,0,0,1-.1,1.292,1.375,1.375,0,0,0-.424-.073h-7.845a4.07,4.07,0,0,0-4.047,3.96l-.2,9.324a8.773,8.773,0,0,1-1.333.114Zm21.011-3a8.853,8.853,0,0,1-2.528,1.968l.179-8.348a1.284,1.284,0,0,1,1.277-1.249h7.42a8.868,8.868,0,0,1-1.276,1.892Z" transform="translate(0 0)" fill="#fff"/>
    <path id="Path_79" data-name="Path 79" d="M636.413,508.315h17.163a1.385,1.385,0,1,0,0-2.77H636.413a1.385,1.385,0,1,0,0,2.77Z" transform="translate(-0.804 -1.12)" fill="#fff"/>
    <path id="Path_80" data-name="Path 80" d="M636.413,514.845h17.163a1.385,1.385,0,0,0,0-2.77H636.413a1.385,1.385,0,0,0,0,2.77Z" transform="translate(-0.804 -1.62)" fill="#fff"/>
    <path id="Path_81" data-name="Path 81" d="M643.663,518.6h-7.25a1.385,1.385,0,0,0,0,2.77h7.25a1.385,1.385,0,0,0,0-2.77Z" transform="translate(-0.804 -2.12)" fill="#fff"/>
  </g>
</svg>
