<svg xmlns="http://www.w3.org/2000/svg" width="43.979" height="50.963" viewBox="0 0 43.979 50.963">
  <g id="Group_72" data-name="Group 72" transform="translate(-398 -672.604)">
    <path id="Path_33" data-name="Path 33" d="M441.951,699.94a1.5,1.5,0,0,0-1.2-1.187,20.827,20.827,0,0,0-20.864-19.12h-.009c-.048,0-.1-.006-.144-.005H419.7c-.028,0-.056.005-.084.005l-.029,0A20.8,20.8,0,0,0,399.19,699.27a1.5,1.5,0,0,0,.06,2.944,130.047,130.047,0,0,0,19.773,1.429,115.585,115.585,0,0,0,21.741-1.945A1.5,1.5,0,0,0,441.951,699.94Zm-4.179-.757c-3.189.528-6.364.883-9.446,1.107.074-1.523.281-10.637-4.721-17.288A17.854,17.854,0,0,1,437.772,699.183Zm-30.563-11.169a17.715,17.715,0,0,1,9.292-5.038,31.031,31.031,0,0,0-4.9,17.439c-4.075-.217-7.359-.563-9.429-.822A17.7,17.7,0,0,1,407.209,688.014Zm7.392,12.529c0-.006,0-.012,0-.018a28.2,28.2,0,0,1,5.318-17.212c6.038,6.131,5.409,16.867,5.4,16.982a1.5,1.5,0,0,0,.006.178C421.493,700.655,417.863,700.649,414.6,700.543Z" fill="#fff"/>
    <path id="Path_34" data-name="Path 34" d="M427.026,717.108a1.5,1.5,0,0,0-1.481,1.519,1.915,1.915,0,0,1-1.892,1.939,1.916,1.916,0,0,1-1.938-1.891l-.142-11.384a1.538,1.538,0,0,0-1.518-1.481,1.5,1.5,0,0,0-1.482,1.518l.142,11.384a4.92,4.92,0,0,0,4.914,4.854h.061a4.923,4.923,0,0,0,4.855-4.976A1.5,1.5,0,0,0,427.026,717.108Z" fill="#fff"/>
    <path id="Path_35" data-name="Path 35" d="M419.688,677.771h.019a1.5,1.5,0,0,0,1.481-1.518l-.027-2.167a1.5,1.5,0,0,0-1.5-1.482h-.018a1.5,1.5,0,0,0-1.482,1.519l.027,2.167A1.5,1.5,0,0,0,419.688,677.771Z" fill="#fff"/>
  </g>
</svg>
