<svg xmlns="http://www.w3.org/2000/svg" xmlns:xlink="http://www.w3.org/1999/xlink" width="288.908" height="212.367" viewBox="0 0 288.908 212.367">
  <defs>
    <linearGradient id="linear-gradient" x1="0.501" y1="1" x2="0.501" gradientUnits="objectBoundingBox">
      <stop offset="0" stop-color="gray" stop-opacity="0.251"/>
      <stop offset="0.54" stop-color="gray" stop-opacity="0.122"/>
      <stop offset="1" stop-color="gray" stop-opacity="0.102"/>
    </linearGradient>
  </defs>
  <g id="Group_1256" data-name="Group 1256" transform="translate(-801.527 -1439.35)">
    <g id="Group_1254" data-name="Group 1254" transform="translate(7131 -14333)">
      <text id="هتل" transform="translate(-6156.464 15913.364) rotate(45)" fill="#0389ff" font-size="8" font-family="IRANSansWebFaNum-Medium, IRANSansWebFaNum" font-weight="500"><tspan x="-13.586" y="0">هتل</tspan></text>
      <path id="Path_96" data-name="Path 96" d="M261.589,76.371c-17.053-.593-33.295-6.1-48.8-12.121s-30.871-12.7-47.526-15.889c-10.7-2.053-22.94-2.342-31.566,3.394-8.3,5.533-10.982,15.059-12.424,23.9-1.086,6.658-1.723,13.662,1.249,19.894,2.066,4.327,5.728,7.963,8.263,12.121,8.819,14.418,2.585,32.2-6.969,46.277-4.479,6.6-9.683,12.911-13.143,19.936s-5.059,15.085-2.032,22.255c3,7.114,10.147,12.447,17.891,16.2,15.728,7.625,34.254,9.81,52.332,11.046,40.006,2.738,80.223,1.552,120.335.366,14.845-.44,29.754-.885,44.356-3.18,8.11-1.275,16.482-3.3,22.368-8.168,7.475-6.2,9.328-16.7,4.319-24.473-8.4-13.04-31.619-16.281-37.5-30.275-3.23-7.7.087-16.284,4.785-23.427,10.076-15.327,26.963-28.771,27.851-46.29.611-12.031-7.507-24.081-20.06-29.775-13.156-5.968-31.4-5.217-41.1,4.661C294.212,72.98,276.647,76.893,261.589,76.371Z" transform="translate(-6421.946 15725.331)" fill="#0389ff" opacity="0.1"/>
      <g id="Group_14" data-name="Group 14" transform="translate(-6220.463 15801.897)" opacity="0.9">
        <rect id="Rectangle_337" data-name="Rectangle 337" width="2.335" height="19.24" rx="1.167" transform="translate(77.63 36.004)" fill="#3a3768"/>
        <rect id="Rectangle_338" data-name="Rectangle 338" width="1.31" height="6.334" rx="0.655" transform="translate(0.047 20.932)" fill="#3a3768"/>
        <rect id="Rectangle_339" data-name="Rectangle 339" width="1.476" height="11.025" rx="0.738" transform="translate(0 32.528)" fill="#3a3768"/>
        <rect id="Rectangle_340" data-name="Rectangle 340" width="1.404" height="11.119" rx="0.702" transform="translate(0.024 47.41)" fill="#3a3768"/>
        <rect id="Rectangle_341" data-name="Rectangle 341" width="78.099" height="158.725" rx="10" transform="translate(0.79)" fill="#3a3768"/>
        <rect id="Rectangle_342" data-name="Rectangle 342" width="10.906" height="2.213" rx="1.107" transform="translate(32.304 4.738)" fill="#e6e8ec"/>
        <ellipse id="Ellipse_56" data-name="Ellipse 56" cx="1.257" cy="1.257" rx="1.257" ry="1.257" transform="translate(44.86 4.59)" fill="#e6e8ec"/>
      </g>
      <ellipse id="Ellipse_57" data-name="Ellipse 57" cx="52.691" cy="5.37" rx="52.691" ry="5.37" transform="translate(-6290.194 15959.168)" fill="#0389ff" opacity="0.1"/>
      <ellipse id="Ellipse_58" data-name="Ellipse 58" cx="24.684" cy="2.516" rx="24.684" ry="2.516" transform="translate(-6174.275 15979.684)" fill="#0389ff" opacity="0.1"/>
      <ellipse id="Ellipse_59" data-name="Ellipse 59" cx="24.684" cy="2.516" rx="24.684" ry="2.516" transform="translate(-6089.932 15967.004)" fill="#0389ff" opacity="0.1"/>
      <path id="Path_97" data-name="Path 97" d="M549.03,174.84H540.1v1.078a5.106,5.106,0,0,1-5.106,5.106h-28.5a5.106,5.106,0,0,1-5.107-5.106V174.84h-8.39a6.2,6.2,0,0,0-6.2,6.2V319.094a6.2,6.2,0,0,0,6.2,6.2h56.04a6.2,6.2,0,0,0,6.2-6.2V181.043A6.2,6.2,0,0,0,549.03,174.84Z" transform="translate(-6701.638 15631.188)" fill="#0389ff"/>
      <path id="Path_98" data-name="Path 98" d="M812.19,132.649S790,131.311,792.62,146.857a3.778,3.778,0,0,0,1.971,3.995s.039-1.151,2.274-.762a10.128,10.128,0,0,0,2.411.116,5.007,5.007,0,0,0,2.948-1.215h0s6.234-2.577,8.661-12.769c0,0,1.794-2.224,1.723-2.8l-3.744,1.6s1.278,2.7.263,4.946c0,0-.121-4.848-.84-4.743-.148.021-1.947.935-1.947.935s2.2,4.7.527,8.123c0,0,.63-5.8-1.228-7.784L803,138.043s2.572,4.859.83,8.824c0,0,.445-6.081-1.383-8.45l-2.387,1.863s2.416,4.788.943,8.076c0,0-.2-7.077-1.462-7.612a14.676,14.676,0,0,0-2.408,2.6s1.655,3.478.63,5.312c0,0-.63-4.717-1.146-4.743,0,0-2.082,3.125-2.3,5.27a11.369,11.369,0,0,1,1.792-5.565,6.269,6.269,0,0,0-3.186,1.649s.324-2.208,3.689-2.4a14.412,14.412,0,0,1,2.182-2.514,13.669,13.669,0,0,0-5.4.622s1.792-2.084,6.013-1.136l2.356-1.926s-4.421-.6-6.3.063c0,0,2.161-1.844,6.935-.5l2.566-1.534a23.429,23.429,0,0,0-6.018-.527s2.372-1.278,6.769.108l1.844-.825s-2.764-.543-3.573-.63-.851-.308-.851-.308a9.578,9.578,0,0,1,5.225.6S812.256,132.894,812.19,132.649Z" transform="translate(-6926.727 15662.284)" fill="#0389ff"/>
      <path id="Path_99" data-name="Path 99" d="M756.147,106.454s-10.013-.6-8.843,6.421a1.714,1.714,0,0,0,.891,1.8s.018-.527,1.028-.345a4.614,4.614,0,0,0,1.088.053,2.271,2.271,0,0,0,1.333-.548h0s2.817-1.165,3.913-5.77c0,0,.812-1,.79-1.262l-1.692.722a3.031,3.031,0,0,1,.121,2.234s-.053-2.19-.379-2.14c-.066,0-.877.424-.877.424s.993,2.124.242,3.67c0,0,.285-2.619-.553-3.518l-1.191.7s1.162,2.195.374,3.987c0,0,.2-2.748-.624-3.818l-1.08.843s1.093,2.163.427,3.649c0,0-.087-3.2-.659-3.441a6.511,6.511,0,0,0-1.088,1.175s.746,1.581.282,2.4c0,0-.284-2.132-.527-2.142a7.1,7.1,0,0,0-1.038,2.371,5.128,5.128,0,0,1,.809-2.514,2.822,2.822,0,0,0-1.439.746s.145-1,1.671-1.086a6.58,6.58,0,0,1,.985-1.138,6.179,6.179,0,0,0-2.437.282,2.761,2.761,0,0,1,2.717-.527l1.054-.87a9.091,9.091,0,0,0-2.846.029s.978-.833,3.133-.227l1.159-.693a10.533,10.533,0,0,0-2.717-.235,4.168,4.168,0,0,1,3.057.047l.83-.372s-1.246-.245-1.613-.285-.385-.14-.385-.14a4.311,4.311,0,0,1,2.343.263A10.621,10.621,0,0,0,756.147,106.454Z" transform="translate(-6893.438 15681.565)" fill="#0389ff"/>
      <ellipse id="Ellipse_60" data-name="Ellipse 60" cx="10.595" cy="1.792" rx="10.595" ry="1.792" transform="translate(-6329.473 15949.355)" fill="#0389ff"/>
      <path id="Path_100" data-name="Path 100" d="M81.191,700.813a3.064,3.064,0,0,0,1.012-1.523,1.365,1.365,0,0,0-.706-1.552c-.648-.25-1.341.2-1.866.653a2.491,2.491,0,0,1-1.815.875,2.759,2.759,0,0,0,.846-2.585,1.054,1.054,0,0,0-.237-.527c-.358-.385-1.012-.219-1.444.084-1.37.964-1.752,2.825-1.758,4.5a8.3,8.3,0,0,1-.026-1.844,1.9,1.9,0,0,0-.7-1.639,2.107,2.107,0,0,0-1.054-.25,2.2,2.2,0,0,0-1.723.49,1.7,1.7,0,0,0,.069,2.108,6.887,6.887,0,0,0,1.781,1.428,3.931,3.931,0,0,1,1.275,1.215,1.16,1.16,0,0,1,.095.216H78.8A10.744,10.744,0,0,0,81.191,700.813Z" transform="translate(-6395.69 15247.402)" fill="#0389ff"/>
      <path id="Path_101" data-name="Path 101" d="M864.809,630.54s2.279,2.983-1.054,7.483-6.079,8.3-4.967,11.106c0,0,5.027-8.358,9.12-8.477S869.309,635.567,864.809,630.54Z" transform="translate(-6975.432 15295.563)" fill="#0389ff"/>
      <path id="Path_102" data-name="Path 102" d="M865.172,630.54a3.755,3.755,0,0,1,.466.935c3.992,4.69,6.118,9.069,2.279,9.177-3.573.1-7.863,6.5-8.888,8.108a3.013,3.013,0,0,0,.121.369s5.027-8.358,9.12-8.477S869.673,635.567,865.172,630.54Z" transform="translate(-6975.795 15295.563)" opacity="0.1"/>
      <path id="Path_103" data-name="Path 103" d="M896.947,643.121c0,1.054-.119,1.9-.263,1.9s-.263-.851-.263-1.9.148-.553.293-.553S896.947,642.067,896.947,643.121Z" transform="translate(-7003.333 15286.791)" fill="#ffd037"/>
      <path id="Path_104" data-name="Path 104" d="M898.91,647.706c-.922.5-1.723.806-1.794.677s.622-.638,1.544-1.141.556-.134.627,0S899.833,647.2,898.91,647.706Z" transform="translate(-7003.842 15283.449)" fill="#ffd037"/>
      <path id="Path_105" data-name="Path 105" d="M822.344,630.54s-2.279,2.983,1.054,7.483,6.079,8.3,4.969,11.106c0,0-5.027-8.358-9.119-8.477S817.844,635.567,822.344,630.54Z" transform="translate(-6945.009 15295.563)" fill="#0389ff"/>
      <path id="Path_106" data-name="Path 106" d="M822.339,630.54a3.652,3.652,0,0,0-.466.935c-3.992,4.69-6.118,9.069-2.282,9.177,3.576.1,7.863,6.5,8.89,8.108a3.554,3.554,0,0,1-.121.369s-5.027-8.358-9.119-8.477S817.839,635.567,822.339,630.54Z" transform="translate(-6945.004 15295.563)" opacity="0.1"/>
      <path id="Path_107" data-name="Path 107" d="M820.55,643.121c0,1.054.118,1.9.263,1.9s.263-.851.263-1.9-.148-.553-.292-.553S820.55,642.067,820.55,643.121Z" transform="translate(-6947.455 15286.791)" fill="#ffd037"/>
      <path id="Path_108" data-name="Path 108" d="M813.444,647.706c.92.5,1.723.806,1.792.677s-.619-.638-1.542-1.141-.559-.134-.627,0S812.532,647.2,813.444,647.706Z" transform="translate(-6941.811 15283.449)" fill="#ffd037"/>
      <path id="Path_109" data-name="Path 109" d="M823.31,689.981s6.374-.2,8.295-1.565,9.8-3,10.276-.806,9.578,10.911,2.371,10.969-16.721-1.122-18.637-2.29S823.31,689.981,823.31,689.981Z" transform="translate(-6949.487 15254.32)" fill="#a8a8a8"/>
      <path id="Path_110" data-name="Path 110" d="M844.4,707.422c-7.2.058-16.721-1.122-18.637-2.29-1.462-.888-2.042-4.079-2.237-5.552h-.213s.4,5.141,2.321,6.308,11.441,2.348,18.637,2.29c2.076-.018,2.8-.756,2.756-1.844C846.735,706.995,845.944,707.408,844.4,707.422Z" transform="translate(-6949.487 15244.714)" opacity="0.2"/>
      <rect id="Rectangle_343" data-name="Rectangle 343" width="20.56" height="20.56" transform="translate(-6175.453 15900.899)" fill="#3a3768" opacity="0.3"/>
      <rect id="Rectangle_344" data-name="Rectangle 344" width="20.56" height="20.56" transform="translate(-6205.755 15873.76)" fill="#3a3768" opacity="0.3"/>
      <rect id="Rectangle_345" data-name="Rectangle 345" width="20.56" height="20.56" transform="translate(-6203.779 15927.575)" fill="#3a3768" opacity="0.3"/>
      <rect id="Rectangle_346" data-name="Rectangle 346" width="20.56" height="20.56" transform="translate(-6208.366 15823.277)" fill="#fff"/>
      <rect id="Rectangle_347" data-name="Rectangle 347" width="20.56" height="20.56" transform="matrix(0.742, -0.671, 0.671, 0.742, -6174.26, 15907.282)" fill="#fff"/>
      <rect id="Rectangle_348" data-name="Rectangle 348" width="20.56" height="20.56" transform="translate(-6175.793 15848.054)" fill="#fff"/>
      <rect id="Rectangle_349" data-name="Rectangle 349" width="20.56" height="20.56" transform="translate(-6201.784 15870.977)" fill="#fff"/>
      <path id="Path_117" data-name="Path 117" d="M1022.144,771.729a8.017,8.017,0,0,0,3.584-.121c.176-.055.379-.177.356-.358a.423.423,0,0,0-.082-.174,11.171,11.171,0,0,1-1.088-2.063.169.169,0,0,0-.066-.092.161.161,0,0,0-.116,0c-.527.137-.985.48-1.513.625a2.161,2.161,0,0,1-.822.063c-.237-.026-.564-.224-.777-.2C1021.752,770.19,1022.052,770.93,1022.144,771.729Z" transform="translate(-7095.544 15193.652)" fill="#0389ff"/>
      <path id="Path_118" data-name="Path 118" d="M1105.872,760.555a6.123,6.123,0,0,0,2.074-1.947.318.318,0,0,0,.055-.166.341.341,0,0,0-.066-.163,6.749,6.749,0,0,0-1.684-1.818,4.97,4.97,0,0,0-.941.867c-.2.208-.746.551-.751.862,0,.187.208.39.306.527.132.195.264.4.377.6A9.882,9.882,0,0,1,1105.872,760.555Z" transform="translate(-7156.63 15202.821)" fill="#0389ff"/>
      <path id="Path_119" data-name="Path 119" d="M1007.269,777.688a.791.791,0,0,1-.142.527.7.7,0,0,1-.3.176c-1.676.6-3.6-.15-5.27.443-.345.121-.669.3-1.014.411a5.491,5.491,0,0,1-1.257.224c-.593.058-1.186.092-1.779.108a4.305,4.305,0,0,1-1.339-.116,1.62,1.62,0,0,1-1.028-.814.79.79,0,0,1-.05-.58.656.656,0,0,1,.108-.187,1.607,1.607,0,0,1,.4-.319l.617-.4a4.117,4.117,0,0,1,.933-.5c.242-.079.5-.113.748-.185a5.17,5.17,0,0,0,2.14-1.6l.838-.893a.822.822,0,0,1,.29-.232.791.791,0,0,1,.358-.037,4.839,4.839,0,0,1,2.284.769,3.3,3.3,0,0,0,.564.332,2.013,2.013,0,0,0,1.581-.2c.216-.113.169-.184.264-.387s.311-.335.5-.148a.55.55,0,0,1,.119.227,6.286,6.286,0,0,1,.113,1.863.828.828,0,0,0,.037.29,1.767,1.767,0,0,0,.163.263.426.426,0,0,1,.034.069A1.83,1.83,0,0,1,1007.269,777.688Z" transform="translate(-7075.978 15190.112)" fill="#514e7f"/>
      <path id="Path_120" data-name="Path 120" d="M1007.269,786.323a.792.792,0,0,1-.142.527.7.7,0,0,1-.3.176c-1.676.6-3.6-.15-5.27.443-.345.121-.669.3-1.014.411a5.5,5.5,0,0,1-1.257.224c-.593.058-1.186.092-1.779.108a4.3,4.3,0,0,1-1.339-.116,1.621,1.621,0,0,1-1.028-.814.79.79,0,0,1-.05-.58.657.657,0,0,1,.108-.187c.1.206.171.474.232.572a1.17,1.17,0,0,0,.79.567,2.008,2.008,0,0,0,.714-.092,36.384,36.384,0,0,0,4.585-.951,10.937,10.937,0,0,1,1.5-.577,11.923,11.923,0,0,1,1.623-.132c.856-.068,1.684-.327,2.53-.461a1.828,1.828,0,0,1,.1.883Z" transform="translate(-7075.978 15181.478)" fill="#464353"/>
      <path id="Path_121" data-name="Path 121" d="M1097.589,763.465a3.041,3.041,0,0,1-.925,1.647,10.562,10.562,0,0,0-1.291,1.415,11.63,11.63,0,0,1-1.193,2.045,3.234,3.234,0,0,1-.717.527,4.952,4.952,0,0,1-.93.427,7.121,7.121,0,0,1-2.635.145,2.341,2.341,0,0,1-.833-.163,2.4,2.4,0,0,1-.353-.213,1.676,1.676,0,0,1-.527-.545.549.549,0,0,1-.05-.393.9.9,0,0,1,.263-.385,5.955,5.955,0,0,1,.635-.572,3.768,3.768,0,0,0,.827-.727,2.37,2.37,0,0,0,.319-.727,6.519,6.519,0,0,0,.232-1.383,4.346,4.346,0,0,1,.1-.925c.134-.474.487-.9.445-1.4a.36.36,0,0,1,.019-.211.329.329,0,0,1,.166-.1,3.007,3.007,0,0,1,.864-.2,1,1,0,0,1,.791.314c.124.148.2.353.385.419a.639.639,0,0,0,.264,0,2.243,2.243,0,0,0,1.254-.387,1.581,1.581,0,0,0,.527-1.151c0-.163-.074-.335.177-.369.192-.026.343.174.44.306a4.3,4.3,0,0,1,.846,1.541.428.428,0,0,1,.161-.032.688.688,0,0,1,.574.3,1.14,1.14,0,0,1,.169.8Z" transform="translate(-7144.521 15199.809)" fill="#514e7f"/>
      <path id="Path_122" data-name="Path 122" d="M1097.774,768.59a3.042,3.042,0,0,1-.925,1.647,10.541,10.541,0,0,0-1.291,1.415,11.65,11.65,0,0,1-1.194,2.045,3.234,3.234,0,0,1-.717.527,4.95,4.95,0,0,1-.93.427,7.121,7.121,0,0,1-2.635.145,2.344,2.344,0,0,1-.833-.163,2.4,2.4,0,0,1-.353-.213,1.677,1.677,0,0,1-.527-.546,1.285,1.285,0,0,1,.543-.129c.393.021.677.39,1.054.5.527.161,1.054-.216,1.6-.345.353-.082.727-.058,1.072-.171a2.649,2.649,0,0,0,.791-.479,4.011,4.011,0,0,0,.846-.817,5.207,5.207,0,0,0,.5-.991,14.158,14.158,0,0,1,1-1.921,1.285,1.285,0,0,1,.206-.263c.082-.076.185-.132.264-.2a2.1,2.1,0,0,0,.638-1.162,1.945,1.945,0,0,1,.142-.387.688.688,0,0,1,.574.3A1.139,1.139,0,0,1,1097.774,768.59Z" transform="translate(-7144.706 15194.683)" fill="#464353"/>
      <path id="Path_123" data-name="Path 123" d="M978.424,545.494a3.826,3.826,0,0,1,1.075,1.257,25.568,25.568,0,0,1,1.626,4.893c.474-.48,2.356-.559,2.827-1.036.2-.2,1.283-1.2,1.444-1.433s1.367-.73,1.5-.967c.493-.883-3.494-4.216-2.985-5.1a.216.216,0,0,0,.042-.137.21.21,0,0,0-.066-.105,6.339,6.339,0,0,0-1.154-.791,1.844,1.844,0,0,1-.88-1.054,3.786,3.786,0,0,0-1.02.69q-1.094.935-2.155,1.918c-.279.263-.812.6-.941.964S978.157,545.278,978.424,545.494Z" transform="translate(-7063.209 15361.494)" fill="#a1616a"/>
      <path id="Path_124" data-name="Path 124" d="M990.838,552.61a11.544,11.544,0,0,0-1.708,1.4,3.416,3.416,0,0,0-1.088,1.742c-.05.264-.042.543-.084.814-.177,1.18-1.2,2.047-1.652,3.162a5.422,5.422,0,0,0-.29,1.054,12.437,12.437,0,0,0-.206,2.071c0,.675.648,1.138.891,1.768a10.725,10.725,0,0,1,.43,1.916,23.344,23.344,0,0,0,1.078,3.557c.891,2.458,3.776,9.256,4.667,11.717,2.727-.685,9.989-2.258,12.4-3.689.806-.479-5.586-5.9-4.724-6.271a.435.435,0,0,0,.24-.182.415.415,0,0,0,0-.264c-.859-3.765-3.554-6.851-4.774-10.54a31.856,31.856,0,0,0-1.765-3.57c-.527-1.1-.8-2.306-1.428-3.346a2.233,2.233,0,0,0-.456-.572,2.792,2.792,0,0,0-.506-.3C991.517,552.887,991.185,552.784,990.838,552.61Z" transform="translate(-7069.17 15352.958)" fill="#514e7f"/>
      <ellipse id="Ellipse_61" data-name="Ellipse 61" cx="4.269" cy="4.269" rx="4.269" ry="4.269" transform="translate(-6088.909 15898.021)" fill="#a1616a"/>
      <path id="Path_125" data-name="Path 125" d="M997.43,546.723a1.431,1.431,0,0,1,1.6-.229.791.791,0,0,1,.477.769l2.108.032a4.408,4.408,0,0,1,1,.092,1.459,1.459,0,0,1,.838.527c.026.034.055.074.1.082a.167.167,0,0,0,.1-.034,1.859,1.859,0,0,1,1.054-.19,5.7,5.7,0,0,1,3.1,1.362,1,1,0,0,1,.369.451c.074.24,0,.548.174.711a25.359,25.359,0,0,0,1.138,5.778,2.559,2.559,0,0,0,.64.919,3.688,3.688,0,0,1,.685,1.022c.385,1-.148,2.182.229,3.191a5.132,5.132,0,0,0,.727,1.146,2.953,2.953,0,0,1,.619,1.481c.016.242-.016.485,0,.73a4.453,4.453,0,0,0,.174.959c.153.582.316,1.165.485,1.744a3.925,3.925,0,0,0,1.473,2.453c-2.031.345-4.171.68-6.108-.024a3.162,3.162,0,0,1-.761-.382,4.386,4.386,0,0,1-1.336-2.155,10.13,10.13,0,0,1-.748-2.782,3.181,3.181,0,0,0-.126-.909,2.541,2.541,0,0,0-1.2-1.13,5.769,5.769,0,0,1-1.441-1.122,2.24,2.24,0,0,1-.585-1.686c.037-.3.153-.585.166-.885a.709.709,0,0,0-.411-.73c-1.478-.448-2.184-2.2-2.514-3.707a11.83,11.83,0,0,1-.19-2.371l-.018-1.526a2.023,2.023,0,0,1-.664-1.46,1.645,1.645,0,0,0,0-.482,1.355,1.355,0,0,0-.337-.527A4.452,4.452,0,0,1,997.43,546.723Z" transform="translate(-7077.728 15357.572)" fill="#464353"/>
      <path id="Path_126" data-name="Path 126" d="M979.34,562.737a11.28,11.28,0,0,1-.047,1.433c-.042.179-.113.35-.166.527a3.11,3.11,0,0,0,.2,2.008,11.158,11.158,0,0,0,1.025,1.779,2.709,2.709,0,0,1,.329.614,3.185,3.185,0,0,1,.127.7,21.431,21.431,0,0,0,.5,2.83,5.559,5.559,0,0,0,1,2.274.69.69,0,0,0,.411.279.743.743,0,0,0,.35-.074l1.091-.414a.762.762,0,0,0,.263-.137.661.661,0,0,0,.153-.427,6.272,6.272,0,0,0-.48-2.585,65.968,65.968,0,0,1-2.635-7.536,5.412,5.412,0,0,0-.775-2.411c-.219-.237-.145-.137-.406,0a3.3,3.3,0,0,0-.382.2,1.251,1.251,0,0,0-.556.933Z" transform="translate(-7064.186 15346.441)" fill="#464353"/>
      <path id="Path_127" data-name="Path 127" d="M1059.24,625.68" transform="translate(-7123.251 15299.142)" fill="#464353"/>
      <path id="Path_128" data-name="Path 128" d="M991.913,563.736q.435,2.3.888,4.6l4.237-1.112a2.967,2.967,0,0,0-.366-1.267c-.387-.97-.4-2.047-.709-3.043-.237-.759-.648-1.457-.87-2.221-.129-.443-.192-.906-.319-1.352a10.321,10.321,0,0,0-.5-1.289,8.212,8.212,0,0,0-.925-1.715,2.7,2.7,0,0,0-1.428.925,1.964,1.964,0,0,0-.263.912c-.074.954.263,1.91.155,2.854a8.432,8.432,0,0,0,.1,2.706Z" transform="translate(-7073.471 15350.211)" fill="#0389ff"/>
      <path id="Path_129" data-name="Path 129" d="M1005.788,636.479a5.1,5.1,0,0,1-.387,2.746,21.32,21.32,0,0,0-.864,4.134,3.424,3.424,0,0,1-.213,1.054q-.236.434-.514.843a4.224,4.224,0,0,0-.324,2.537c.061.569.153,1.136.263,1.7a4.277,4.277,0,0,1,.111,2.066c.335-.074.564.358.551.7s-.134.714.029,1.017c.416.15.422.722.408,1.162a9.8,9.8,0,0,0,.287,2.277q.943,4.529,2,9.035c1.526.474,3.307.967,4.761.311a.936.936,0,0,0,.6-.606,1.091,1.091,0,0,0-.058-.466l-.69-2.508a4.618,4.618,0,0,1-.248-1.844c.068-.466.263-.967.042-1.375a3.956,3.956,0,0,0-.29-.385c-.364-.527-.174-1.236-.142-1.879a1.474,1.474,0,0,0-.032-.429,2.254,2.254,0,0,0-.2-.472,7.2,7.2,0,0,1-.791-3.583.881.881,0,0,0-.063-.469,1.077,1.077,0,0,1-.116-.19.509.509,0,0,1,.037-.345,3,3,0,0,1-.556-.527.791.791,0,0,0,.132-1.217.406.406,0,0,0,.195-.7c-.09-.063-.206-.089-.263-.179-.1-.132-.018-.319.061-.461l.422-.762c.314-.564.385-1.262.722-1.813a13.608,13.608,0,0,0,1.112-2.537l1.2-3.346.817.709a2.559,2.559,0,0,1,.672.767,3.237,3.237,0,0,1,.216.917c.3,1.818,1.447,3.394,1.871,5.188a3.5,3.5,0,0,0,.385,1.159,2.513,2.513,0,0,1,.221.332,1.747,1.747,0,0,1,.092.551,2.566,2.566,0,0,0,1.083,1.844c.4.263.909.466,1.12.9a1.782,1.782,0,0,0,.184.385c.195.234.617.263.7.556.045.166-.042.361.053.506a.46.46,0,0,0,.2.148l1.178.59c1.317.656,1.982,2.161,2.954,3.265a6.771,6.771,0,0,1,.883,1.17c.419.748.614,1.689,1.318,2.171a2.048,2.048,0,0,1,.511.379c.224.293.142.7.161,1.072s.3.806.653.7a2.54,2.54,0,0,0,0,1.362,6.866,6.866,0,0,0,4.163-1.686,1.641,1.641,0,0,0,.677-1.136.44.44,0,0,0-.05-.227.617.617,0,0,0-.264-.2c-1.1-.6-1.431-1.976-1.981-3.1a25.953,25.953,0,0,0-1.813-2.761c-1.317-1.976-2.2-4.366-4.176-5.673a2.828,2.828,0,0,1-1.157-1.017,8.132,8.132,0,0,1-.232-.843.709.709,0,0,0-.619-.527,3.759,3.759,0,0,0,.142-1.317,1.637,1.637,0,0,0-.066-.567,2.681,2.681,0,0,0-.29-.559,5.415,5.415,0,0,1-.746-2.9,4.673,4.673,0,0,0-.05-1.557c-.079-.263-.216-.482-.314-.727a4.534,4.534,0,0,1-.227-1.357l-.108-1.736a8.3,8.3,0,0,0-.224-1.715c-.366-1.346-.717-6.988-1.958-7.623s-3.359,3.7-4.743,3.792a6.326,6.326,0,0,0-1.813.348,8.79,8.79,0,0,0-2.458,1.631l-2.561,2.15a9.331,9.331,0,0,1-1.589,1.146Z" transform="translate(-7082.149 15297.912)" fill="#464353"/>
      <path id="Path_130" data-name="Path 130" d="M962.656,518.792a3.22,3.22,0,0,1,2.485-1.212,5.8,5.8,0,0,1,2.746.69,3.545,3.545,0,0,0,.791.329c.453.092.954-.032,1.362.184a1.634,1.634,0,0,1,.6,1.631,2.966,2.966,0,0,0,.163,1.8,5.034,5.034,0,0,1,.313.469,1.565,1.565,0,0,1-.029,1,8.067,8.067,0,0,1-.527-.661.613.613,0,0,0-.746-.195c-.232.155-.232.443-.242.7s-.079.564-.322.648a.527.527,0,0,1-.527-.211c-.414-.506-.248-1.318-.656-1.823-.234-.29-.622-.429-.838-.732-.169-.237-.211-.545-.358-.79s-.493-.445-.725-.264a.987.987,0,0,0-.192.263,1.109,1.109,0,0,1-1.317.4,2.3,2.3,0,0,0-.572-.245.7.7,0,0,0-.651.353,1.4,1.4,0,0,0-.171.754,1.752,1.752,0,0,1-.142,1.036,1.071,1.071,0,0,1-.306.263.9.9,0,0,1-1,.1.754.754,0,0,1-.224-.7,5.772,5.772,0,0,1,.214-.74c.158-.559-.047-1.188.126-1.715A5.4,5.4,0,0,1,962.656,518.792Z" transform="translate(-7051.304 15378.758)" fill="#464353"/>
      <path id="Path_131" data-name="Path 131" d="M974.382,549.038a.657.657,0,0,0,.04.393.636.636,0,0,0,.213.206,4.422,4.422,0,0,0,2.013.651.606.606,0,0,1,.263.071.5.5,0,0,1,.119.561,1.5,1.5,0,0,0-.127.6c.053.377.5.548.878.6a2.034,2.034,0,0,0,1.525-.3,2.353,2.353,0,0,0,.63-.946c1.036-2.372,1.4-5.006,2.448-7.378a1.5,1.5,0,0,0,.158-.493.49.49,0,0,0-.2-.456c-.195-.121-.5-.053-.63-.24-.066-.1-.058-.227-.116-.327-.121-.216-.437-.19-.656-.306-.169-.092-.287-.264-.474-.314a.606.606,0,0,0-.5.213,6.367,6.367,0,0,0-1.281,2.158,25.626,25.626,0,0,1-1.844,3.4,1.966,1.966,0,0,0-.574-1.125c-.321-.066-.738.5-.912.714A4.52,4.52,0,0,0,974.382,549.038Z" transform="translate(-7060.743 15361.246)" fill="#0389ff"/>
      <rect id="Rectangle_350" data-name="Rectangle 350" width="20.56" height="20.56" transform="translate(-6084.206 15913.657)" fill="#fff"/>
      <path id="Path_133" data-name="Path 133" d="M1056.022,623.386a8.312,8.312,0,0,0-.975,1.022,2.037,2.037,0,0,0-.448,1.318.679.679,0,0,0,.126.385.329.329,0,0,0,.366.113.528.528,0,0,0,.179-.161,8.441,8.441,0,0,1,.606-.659c.079-.076.179-.158.285-.129a.3.3,0,0,1,.124.082.839.839,0,0,1,.263.4.943.943,0,0,1-.279.767,1.987,1.987,0,0,0-.472.7.3.3,0,0,0,0,.224.367.367,0,0,0,.14.121,2.034,2.034,0,0,0,1.7.111c.367-.145.683-.4,1.054-.527a2.527,2.527,0,0,0,.467-.174.959.959,0,0,0,.414-.617,2.646,2.646,0,0,0,.029-.761,8.693,8.693,0,0,0-.635-2.872.343.343,0,0,0-.1-.153.362.362,0,0,0-.174-.05,4.321,4.321,0,0,0-1.665-.113,1.137,1.137,0,0,0-.392.35C1056.533,622.851,1056.022,623.265,1056.022,623.386Z" transform="translate(-7119.833 15301.596)" fill="#a1616a"/>
      <path id="Path_134" data-name="Path 134" d="M1041.309,577.571c0-.443-.548-1.5.319-1.581,0-.469-.667-.764-.545-1.26.042-.169.177-.3.2-.472.055-.482-.814-.743-.672-1.207.053-.177.245-.285.287-.464.1-.416-.648-.6-.661-1.03,0-.145.079-.282.074-.424,0-.182-.158-.319-.245-.474-.224-.4-.116-1.028-.527-1.233.264.021.366-.382.25-.63s-.342-.461-.342-.735a1.176,1.176,0,0,0,0-.3c-.077-.264-.509-.282-.58-.545a2.754,2.754,0,0,1,0-.3c-.026-.206-.237-.332-.435-.393a1.73,1.73,0,0,1-.58-.206c-.126-.1-.263-.263-.408-.171-.05.029-.077.087-.116.132-.161.187-.469.105-.675-.034a2.791,2.791,0,0,1-1.033-1.86c-.132-.717-.124-1.457-.282-2.169a4.953,4.953,0,0,0-.192-.648,3.368,3.368,0,0,1-.306-.648c-.032-.414.827-.132,1.154-.09a5.115,5.115,0,0,1,.938.177,9.858,9.858,0,0,1,.957.419c1.318.577,2.877.648,3.926,1.615a3.261,3.261,0,0,0,1.08.878,5.509,5.509,0,0,1,.606.158c.5.234.574.893.846,1.37a2.9,2.9,0,0,1,.224.4,1.548,1.548,0,0,1,.071.506l.037,1.252a46.236,46.236,0,0,1-.1,6.282,5.187,5.187,0,0,0,.024,2.055c.053.179.129.35.174.527a3.607,3.607,0,0,1,.068.651l.029.809a.2.2,0,0,1-.258.24c-1.13-.1-2.269-.738-3.336-.353" transform="translate(-7105.278 15347.003)" fill="#464353"/>
      <path id="Path_135" data-name="Path 135" d="M978.813,611.393a.348.348,0,0,0-.126.105.9.9,0,0,0,0,1.07.362.362,0,0,1,.063.105.311.311,0,0,1-.032.179.593.593,0,0,0,.082.664c.082.069.192.1.245.192.092.153-.037.348-.016.527.026.234.3.35.527.379a.561.561,0,0,0,.514-.137.427.427,0,0,0,0-.466,1.248,1.248,0,0,0-.348-.348.527.527,0,0,0,.5-.482.748.748,0,0,0-.3-.656c-.047-.04-.105-.079-.119-.142s.05-.15.108-.211c.263-.264.466-.909-.029-1.054a1.22,1.22,0,0,0-.527.024c-.126.04-.126.116-.224.169S978.924,611.338,978.813,611.393Z" transform="translate(-7063.793 15309.879)" fill="#a1616a"/>
      <path id="Path_136" data-name="Path 136" d="M993.713,543.14a.87.87,0,0,0-.669.337,1.927,1.927,0,0,0-.279.9,7.854,7.854,0,0,1-1.054,2.862" transform="translate(-7073.515 15359.933)" opacity="0.1"/>
      <path id="Path_137" data-name="Path 137" d="M997.294,545.88a1.023,1.023,0,0,0-.875.527,2.925,2.925,0,0,0-.221.893,4.854,4.854,0,0,1-.877,1.873" transform="translate(-7076.174 15357.915)" opacity="0.1"/>
      <path id="Path_138" data-name="Path 138" d="M322.294,601.816c.153,1.665-1.1,3.278-.738,4.906.079.348.229.677.285,1.028a3.97,3.97,0,0,1-.978,2.693l-4.727,6.94a4.5,4.5,0,0,1-.677.835c-.906.79-2.261.719-3.449.959A5.916,5.916,0,0,0,309.7,620.2a.15.15,0,0,0-.032.208,1.989,1.989,0,0,0,1.718.806c.124.163,0,.4-.171.527-.263.177-.6.221-.653.654a.706.706,0,0,0,.087.432,1.335,1.335,0,0,0,.827.574c1.636.5,3.407-.377,4.63-1.581s2.108-2.706,3.309-3.926c.667-.672,1.423-1.252,2.108-1.9a24.253,24.253,0,0,0,3.46-4.479,4.972,4.972,0,0,0,.748-1.523c.126-.543.069-1.115.216-1.652a5.961,5.961,0,0,1,1.133-1.844,6.123,6.123,0,0,0,1.288-3.992,3.822,3.822,0,0,0-2.335-3.312,2.089,2.089,0,0,0-1.317-.082,3.18,3.18,0,0,0-1.333,1.054l-.9,1.038a2.392,2.392,0,0,0-.527.79.83.83,0,0,0,.184.883" transform="translate(-6571.167 15318.767)" fill="#fbbebe"/>
      <path id="Path_139" data-name="Path 139" d="M322.294,601.816c.153,1.665-1.1,3.278-.738,4.906.079.348.229.677.285,1.028a3.97,3.97,0,0,1-.978,2.693l-4.727,6.94a4.5,4.5,0,0,1-.677.835c-.906.79-2.261.719-3.449.959A5.916,5.916,0,0,0,309.7,620.2a.15.15,0,0,0-.032.208,1.989,1.989,0,0,0,1.718.806c.124.163,0,.4-.171.527-.263.177-.6.221-.653.654a.706.706,0,0,0,.087.432,1.335,1.335,0,0,0,.827.574c1.636.5,3.407-.377,4.63-1.581s2.108-2.706,3.309-3.926c.667-.672,1.423-1.252,2.108-1.9a24.253,24.253,0,0,0,3.46-4.479,4.972,4.972,0,0,0,.748-1.523c.126-.543.069-1.115.216-1.652a5.961,5.961,0,0,1,1.133-1.844,6.123,6.123,0,0,0,1.288-3.992,3.822,3.822,0,0,0-2.335-3.312,2.089,2.089,0,0,0-1.317-.082,3.18,3.18,0,0,0-1.333,1.054l-.9,1.038a2.392,2.392,0,0,0-.527.79.83.83,0,0,0,.184.883" transform="translate(-6571.167 15318.767)" opacity="0.05"/>
      <path id="Path_142" data-name="Path 142" d="M361.2,749.82a5.521,5.521,0,0,1-3.52.527c-.192-.024-.422-.04-.545.111-.179.216.032.527.25.711a5.238,5.238,0,0,0,2.419.993,16.5,16.5,0,0,0,2.371.158,40.085,40.085,0,0,0,6.463-.24.857.857,0,0,0,.353-.1.669.669,0,0,0,.263-.406,1.615,1.615,0,0,0-.564-1.539,4.744,4.744,0,0,0-1.507-.809l-1.876-.73a4.826,4.826,0,0,0-1.626-.59C362.794,747.962,361.943,749.382,361.2,749.82Z" transform="translate(-6606.094 15209.124)" fill="#3f3d56"/>
      <path id="Path_143" data-name="Path 143" d="M379.865,764.859a4.609,4.609,0,0,1-3.149,1.175c-.3,0-.706.055-.706.35a.463.463,0,0,0,.084.245,2.9,2.9,0,0,0,1.628,1.275,5.8,5.8,0,0,0,1.966.124l1.923-.1c.364-.018.73-.037,1.091-.082s.754-.119,1.13-.177a15.077,15.077,0,0,1,2.8-.132.815.815,0,0,0,.69-.185c.171-.216.071-.527.016-.79-.116-.556,0-1.141-.108-1.7a2.993,2.993,0,0,0-1.963-2.09c-.864-.329-2.4-.706-3.217-.158A20.719,20.719,0,0,0,379.865,764.859Z" transform="translate(-6620.048 15198.493)" fill="#3f3d56"/>
      <path id="Path_144" data-name="Path 144" d="M372.241,647.664a5,5,0,0,0-1.4,3.528,7.954,7.954,0,0,0,.777,1.947,13.727,13.727,0,0,1,.79,2.735c.292,1.362.585,2.727.767,4.108a25.653,25.653,0,0,1,.171,4.716,1.591,1.591,0,0,1-.329,1.054c-.105.105-.242.192-.287.335a.566.566,0,0,0,.061.4,4.377,4.377,0,0,0,2.345,2.158,8.983,8.983,0,0,0,3.188.6.9.9,0,0,0,.427-.055.822.822,0,0,0,.329-.377c.79-1.5.35-3.315.364-5.006,0-1.415.343-2.817.282-4.232-.05-1.133-.353-2.24-.464-3.37a19.946,19.946,0,0,1,.5-5.547c.264-1.4.527-2.806.856-4.195a8,8,0,0,1,.906-2.435c.369-.582.87-1.07,1.291-1.618a7.344,7.344,0,0,0,1.444-5.367,13.075,13.075,0,0,0-2.946.79,9.134,9.134,0,0,0-2.635,1.689,21.817,21.817,0,0,0-1.655,2.045q-1.154,1.4-2.271,2.825Q373.479,646.012,372.241,647.664Z" transform="translate(-6616.223 15290.799)" fill="#464353"/>
      <path id="Path_145" data-name="Path 145" d="M372.241,647.664a5,5,0,0,0-1.4,3.528,7.954,7.954,0,0,0,.777,1.947,13.727,13.727,0,0,1,.79,2.735c.292,1.362.585,2.727.767,4.108a25.653,25.653,0,0,1,.171,4.716,1.591,1.591,0,0,1-.329,1.054c-.105.105-.242.192-.287.335a.566.566,0,0,0,.061.4,4.377,4.377,0,0,0,2.345,2.158,8.983,8.983,0,0,0,3.188.6.9.9,0,0,0,.427-.055.822.822,0,0,0,.329-.377c.79-1.5.35-3.315.364-5.006,0-1.415.343-2.817.282-4.232-.05-1.133-.353-2.24-.464-3.37a19.946,19.946,0,0,1,.5-5.547c.264-1.4.527-2.806.856-4.195a8,8,0,0,1,.906-2.435c.369-.582.87-1.07,1.291-1.618a7.344,7.344,0,0,0,1.444-5.367,13.075,13.075,0,0,0-2.946.79,9.134,9.134,0,0,0-2.635,1.689,21.817,21.817,0,0,0-1.655,2.045q-1.154,1.4-2.271,2.825Q373.479,646.012,372.241,647.664Z" transform="translate(-6616.223 15290.799)" opacity="0.05"/>
      <path id="Path_146" data-name="Path 146" d="M387.088,635.856c.169.806.951,1.423.972,2.248a3.526,3.526,0,0,1-.79,1.779,11.929,11.929,0,0,0-.806,1.829,27.877,27.877,0,0,1-2.371,4.709,3.748,3.748,0,0,0-.851,2.335,3.447,3.447,0,0,0,.408,1.115l1.354,2.69a7.721,7.721,0,0,1,.69,1.7c.119.511.129,1.054.2,1.56.213,1.649.985,3.309.527,4.909-.04.137-.185.3-.293.208a5.125,5.125,0,0,1,.772,2.635,3.668,3.668,0,0,0,.016,1.478,1.613,1.613,0,0,1,.206.564c0,.134-.063.264-.076.4a.881.881,0,0,0,.675.819c.364.121.759.113,1.125.221a7.011,7.011,0,0,1,1.813,1.238,3.808,3.808,0,0,0,2.079.677.527.527,0,0,0,.306-.061.5.5,0,0,0,.171-.371,2.066,2.066,0,0,0-.746-1.794.831.831,0,0,1-.264-.29.7.7,0,0,1-.026-.324,24.033,24.033,0,0,0-.079-4.44,6.853,6.853,0,0,1-.068-1.412,5.775,5.775,0,0,0,.113-1.178,6.018,6.018,0,0,0-.361-1.125,7.888,7.888,0,0,1-.171-2.108,18.472,18.472,0,0,0-.6-3.607,2.738,2.738,0,0,0-.561-1.3c-.282-.3-.738-.574-.63-.967a1.117,1.117,0,0,1,.263-.385,1.544,1.544,0,0,0,.324-1.178.527.527,0,0,0,.606-.285,9.486,9.486,0,0,0,4.764-5.417,1.76,1.76,0,0,1,.213-.482,2.2,2.2,0,0,1,.872-.567,6.613,6.613,0,0,0,2.29-2.334,5.432,5.432,0,0,0,.885-1.694,5.582,5.582,0,0,0,.121-1.223l.055-2.108a1.211,1.211,0,0,0-.04-.414,1.054,1.054,0,0,0-.229-.337,4.093,4.093,0,0,0-2.25-1.212c-.577-.1-1.167-.084-1.752-.132a22.071,22.071,0,0,0-3.389-.364,5.451,5.451,0,0,0-4.216,2.943C388.031,635.363,387.72,635.837,387.088,635.856Z" transform="translate(-6625.363 15294.603)" fill="#464353"/>
      <rect id="Rectangle_351" data-name="Rectangle 351" width="20.56" height="20.56" transform="translate(-6277.03 15933.651)" fill="#fff"/>
      <ellipse id="Ellipse_63" data-name="Ellipse 63" cx="4.382" cy="4.382" rx="4.382" ry="4.382" transform="translate(-6257.054 15906.799)" fill="#fbbebe"/>
      <path id="Path_159" data-name="Path 159" d="M346.51,570.861a5.681,5.681,0,0,0,3.636,2.543l-.329,1.2c-.569,2.061-1.212,4.242-2.8,5.67a2.651,2.651,0,0,0-.445-2.05,7.764,7.764,0,0,0-1.486-1.555l-2.522-2.195a.689.689,0,0,1-.19-.211.643.643,0,0,1,0-.48,5.867,5.867,0,0,1,1.981-2.3,6.988,6.988,0,0,0,1-1.162C345.867,569.607,346.191,570.326,346.51,570.861Z" transform="translate(-6595.238 15340.135)" fill="#fbbebe"/>
      <path id="Path_160" data-name="Path 160" d="M354.837,581.643a2.372,2.372,0,0,1-.129.967.68.68,0,0,1-.79.406c.092-.208-.15-.445-.377-.419a.709.709,0,0,0-.5.424,1.581,1.581,0,0,0-.145.98,4.009,4.009,0,0,1,.248,1.23c-.05.345-.306.69-.169,1.014a1.63,1.63,0,0,0,.327.39,1.107,1.107,0,0,1-.119,1.518l3.425.066a2.4,2.4,0,0,0,.424,1.663,10.469,10.469,0,0,0,7.8,5.1.68.68,0,0,0-.163,1.038.961.961,0,0,0,1.1.063,8.327,8.327,0,0,0,.941-.7,2.874,2.874,0,0,1,1.929-.527c.43.039.843.176,1.273.2,1.265.069,2.353-.843,3.562-1.215a7.766,7.766,0,0,0,2.635-.827,1.045,1.045,0,0,0,.49-1.017,1.658,1.658,0,0,0-.369-.6,10.6,10.6,0,0,1-.988-1.844,11.012,11.012,0,0,0-2.469-3.3,21.8,21.8,0,0,0-2.445-1.858,4.135,4.135,0,0,0-.664-.4,6.811,6.811,0,0,1-.906-.369,5.059,5.059,0,0,1-.941-1.054,14.128,14.128,0,0,0-2.553-1.773,6.116,6.116,0,0,0-1.721-1.167c-.324-.1-.672-.105-1-.2-.738-.224-1.275-.88-2-1.144a8.09,8.09,0,0,0-1.81-.232,4.217,4.217,0,0,1-1.86-.7,2.234,2.234,0,0,0-.6-.353c-.914-.264-.988,1.428-1.075,2.018A16.918,16.918,0,0,0,354.837,581.643Z" transform="translate(-6603.006 15335.021)" fill="#3f3d56"/>
      <path id="Path_161" data-name="Path 161" d="M328.318,608.653c.153,1.663-1.1,3.275-.738,4.906.079.348.227.677.282,1.028a3.948,3.948,0,0,1-.975,2.69l-4.743,6.94a4.212,4.212,0,0,1-.675.835c-.906.8-2.261.719-3.449.962a5.905,5.905,0,0,0-2.311,1.022.15.15,0,0,0-.029.206,1.982,1.982,0,0,0,1.718.806c.124.163,0,.406-.171.527-.264.177-.6.224-.653.654a.732.732,0,0,0,.084.435,1.349,1.349,0,0,0,.83.574c1.636.5,3.4-.379,4.63-1.581s2.108-2.706,3.309-3.926c.667-.674,1.423-1.252,2.108-1.905a24.913,24.913,0,0,0,3.46-4.479,4.985,4.985,0,0,0,.748-1.526c.126-.54.069-1.115.216-1.649a5.853,5.853,0,0,1,1.133-1.844,6.13,6.13,0,0,0,1.288-3.995,3.826,3.826,0,0,0-2.335-3.312,2.09,2.09,0,0,0-1.317-.079A3.14,3.14,0,0,0,329.4,607l-.9,1.038a2.466,2.466,0,0,0-.527.79.83.83,0,0,0,.184.883" transform="translate(-6575.594 15313.731)" fill="#fbbebe"/>
      <path id="Path_162" data-name="Path 162" d="M364.251,590.342a2.651,2.651,0,0,0-1.747.527,2.44,2.44,0,0,0-.437.69,6.82,6.82,0,0,0-.872,2.743,12.37,12.37,0,0,0,.316,2.292,8.748,8.748,0,0,1-.2,1.926,13.148,13.148,0,0,0,2.487-.957,8.316,8.316,0,0,1,1.457-.756,4.323,4.323,0,0,1,2.69.527c.04-.5-.332-1.357-.292-1.844a2.02,2.02,0,0,1,.111-.614,3.657,3.657,0,0,1,.372-.593,2.427,2.427,0,0,0-.219-2.848,3.928,3.928,0,0,0-2.54-1.078,11.115,11.115,0,0,0-1.776-.061" transform="translate(-6609.134 15325.21)" fill="#3f3d56"/>
      <path id="Path_163" data-name="Path 163" d="M318.266,547.353l-.1-.825c.693.177,1.349-.408,1.792-1.017s.851-1.318,1.523-1.581a3.183,3.183,0,0,1,2.469.59,7.727,7.727,0,0,0,2.833.938,2.006,2.006,0,0,1,.469.076,1.629,1.629,0,0,1,.825,1.4,5.489,5.489,0,0,0,.3,1.713c.192.39.527.682.717,1.054.527,1.036.018,2.453.585,3.47l-1.4-1.286c-.129-.119-.311-.242-.451-.142s-.121.263-.169.387a.735.735,0,0,1-1,.364,2.737,2.737,0,0,1-.893-.817,5.461,5.461,0,0,0-2.229-1.689,2.848,2.848,0,0,0-2.358.14c-.656.372-1.136,1.233-1.939,1.262-1.1.042-1.56-2.008-2.068-2.817a1,1,0,0,0,.29-1.244C317.536,547.3,318.25,547.226,318.266,547.353Z" transform="translate(-6576.711 15359.422)" fill="#464353"/>
      <path id="Path_164" data-name="Path 164" d="M665.836,623.775c-.213-.9-.343-1.694-.343-1.694a3.511,3.511,0,0,0-.393-1.721v-.248h0v-1.818a6.019,6.019,0,0,1,.458-.951,7.1,7.1,0,0,0,0-2.661s-1.212-2.948-.919-4.819-2.487-8.308-2.487-8.308a8.208,8.208,0,0,1,.264-1.844,1.331,1.331,0,0,0,.034-.385.279.279,0,0,0,0-.047v.016a14.321,14.321,0,0,0-1.017-3.547l.132-4.406a12.975,12.975,0,0,0-.393-6.089c-.356-1.217-.582-2.19-.727-2.943-.016-.084-.032-.166-.045-.245,2.089-.319,3.689-.585,3.689-.585s-1.212-5.072-2.031-5.96-1.473-3.676-1.473-3.676-.427-3.583.264-4.63a6.967,6.967,0,0,0,.79-2.854s1.581-1.141,1.768-1.649a8.35,8.35,0,0,0,.527-2.25c0-.6-.2-1.141-.132-1.46s-.458-1.52-.195-2.092a1.531,1.531,0,0,0,.1-.551.033.033,0,0,0,0-.016h0a7.825,7.825,0,0,0-.14-1.489,4.216,4.216,0,0,0-1.555-.833l-.034-.134-.09-.356a1.219,1.219,0,0,0-.155-.092v-.659l.245-1.159c.485-2.01-2.2-2.311-2.2-2.311a1.418,1.418,0,0,0-.762-.669c-.527-.19-.09,3.03.163,3.236a10.477,10.477,0,0,1,1.054,1.66h0l.047.082a1.062,1.062,0,0,0-.124.129l.1.7.016.108a2.872,2.872,0,0,0-.43.73,1.558,1.558,0,0,1,.393,1.144,3.583,3.583,0,0,0,.163,1.394c-.029-.034-.374-.408-.719-.316s-1.318.379-1.318.379-.722.126-.656.285-.49.856-.49.856l-1.937-1.844c-.021-.055-.04-.111-.058-.166a4.422,4.422,0,0,1-.166-.79,4.321,4.321,0,0,0,.617-.2,1.337,1.337,0,0,0,.527-.343,2.092,2.092,0,0,0,.311-.835,11.608,11.608,0,0,1,.719-1.6,5.213,5.213,0,0,0,.374-2.859,1.9,1.9,0,0,0-.295-.843c-.316-.435-.891-.611-1.318-.959s-.685-.875-1.172-1.136a2.312,2.312,0,0,0-1.47-.126,7.857,7.857,0,0,0-2.743,1,1.41,1.41,0,0,1-.92.3,1.241,1.241,0,0,1-.661-.485.135.135,0,0,1,0-.029l-.024-.024a3.469,3.469,0,0,0-.3,1.449v.311a.584.584,0,0,1,0,.069h0a.466.466,0,0,1-.016.1.747.747,0,0,1-.179.263,1.163,1.163,0,0,0-.158.216.231.231,0,0,1,.026-.079,1.142,1.142,0,0,0-.2.609.606.606,0,0,0,.148.437,2.109,2.109,0,0,0,.314.263,3.692,3.692,0,0,0-.055.643,3.747,3.747,0,0,0,1.823,3.2l.066.166a4.608,4.608,0,0,1,.351,2.108.355.355,0,0,1-.024.155l-.068.079h0s-3.2.032-3.952-.651-1.9,1.665-1.9,1.665-1.146.224-1.375,0-1.581-.032-1.581-.032a2.9,2.9,0,0,0-2-.727,5.868,5.868,0,0,0-1.468-.817h0l-.037-.013h0a1.637,1.637,0,0,0-.722-.09,14.256,14.256,0,0,1-2.029-2c-.448-.7-2.635-3.286-2.653-3.3v-.124l-.026-.377a1.472,1.472,0,0,1-.2.018.459.459,0,0,0-.045-.132,7.127,7.127,0,0,0-.464-1.054s0-.474.14-.593a8.092,8.092,0,0,0-.058-1.863s-1.418-3.312-2.685-.84c0,0-2.4,1.6-.387,3.465,0,0,.79.387.917.7.076.2.348.762.527,1.133l.082.166-.024.018.032.311v.121c-.379.213-.635.427-.574.59a3.475,3.475,0,0,1,.229.856s2.785,3.486,3.146,4.977c0,0,7.467,4.437,9.923,4.756l-.424,2.219a17.58,17.58,0,0,0-.1,1.808c.032.474-.3,2.635-.3,2.635a17.464,17.464,0,0,1-.79,3.613,6.036,6.036,0,0,0-.3,2.348,15.825,15.825,0,0,1-.49,2.693,6.843,6.843,0,0,0-.1,2.7s-1.246,2.854,1.736.92c0,0,1.462-.09,3.162-.148v.867c-.021,1.634-.032,3.886.042,5.591.132,3.012,1.054,8.959,1.054,8.959v2.993a4.177,4.177,0,0,0-.084.856,5.549,5.549,0,0,0,.806,3l.229,2a8.273,8.273,0,0,1,.548,2.108,1.033,1.033,0,0,1-.024.19,1.423,1.423,0,0,0-.026.306,17.125,17.125,0,0,0,.527,3.078s.034,2.187.361,2.313c.279.108-.374,1.262-.569,1.581a.519.519,0,0,1-.013-.063c-.024.042-.039.066-.039.066a1.533,1.533,0,0,0-.1.553.791.791,0,0,0,.364.769c.622.382.956.7.429.825a5.229,5.229,0,0,0-.577.121c0-.024-.021-.05-.029-.074a.353.353,0,0,0-.206.366,1.621,1.621,0,0,0,.2.74,7.909,7.909,0,0,0,.885,1.618l.264-.029a1.244,1.244,0,0,1-.148.263,1.019,1.019,0,0,1-.369.327,1.18,1.18,0,0,1-.448.155,1.249,1.249,0,0,0-.928.451.969.969,0,0,0,.113,1.5l2.342.806s4.029.527,3.815-.379-.343-1.694-.343-1.694a3.576,3.576,0,0,0-.329-1.6,1.591,1.591,0,0,0-.142-.237l.142-.016a7.351,7.351,0,0,1,.688-2.371c.092-.087.113-.155.09-.208.042-.108-.061-.171-.192-.208l-.029.079a1.983,1.983,0,0,0-.39-.042s-.132-1.054.293-1.428a.4.4,0,0,0,.084-.311,1.793,1.793,0,0,0-.045-.427l-.016.026a15.217,15.217,0,0,0-.941-2.458,3.04,3.04,0,0,1,.229-1.333c.261-.382-.032-5.167-.032-5.167a15.665,15.665,0,0,0-.2-3.391,3.805,3.805,0,0,1,.361-2.348v-.084s-.016-.142-.04-.366v.024c-.066-.614-.19-1.723-.282-2.234-.132-.73.032-4.216.032-4.216l.59-1.489,1.054,2.566,1.112,3.425a2.911,2.911,0,0,1,.567,1.455v.108a1.709,1.709,0,0,0,0,.229,2.044,2.044,0,0,0,.34,1.22,5.311,5.311,0,0,0,.754,2.029,1.826,1.826,0,0,1,.458,1.2,20.089,20.089,0,0,0,.819,2.759,4.045,4.045,0,0,1,.229,1.581h0v.087s.076.838.074,1.544v.245a2.459,2.459,0,0,1-.069.569v-.084a5.864,5.864,0,0,0-.169,1.462,3.741,3.741,0,0,0,.624,2.427c.885,1.014,1.441.888,1.441.888s-.427,1.267-.951,1.523a.319.319,0,0,0-.055.034.146.146,0,0,0-.013-.074.619.619,0,0,0-.153.474,3.393,3.393,0,0,0,.648,1.879,1.038,1.038,0,0,0,.443.264l-.082.05a1.852,1.852,0,0,1-.182.087.862.862,0,0,1-.264.069,1.249,1.249,0,0,0-.927.451.969.969,0,0,0,.113,1.5l2.342.806S666.039,624.692,665.836,623.775Z" transform="translate(-6806 15357.655)" fill="url(#linear-gradient)"/>
      <path id="Path_165" data-name="Path 165" d="M704.349,833.778l-2.269-.806a.985.985,0,0,1-.108-1.5,1.194,1.194,0,0,1,.9-.451,1.11,1.11,0,0,0,.435-.156,1.029,1.029,0,0,0,.358-.327,1.668,1.668,0,0,0,.263-.878s2.49-.727,3.162,0a1.861,1.861,0,0,1,.3.443,3.691,3.691,0,0,1,.316,1.6s.126.79.332,1.694S704.349,833.778,704.349,833.778Z" transform="translate(-6859.901 15149.149)" fill="#2d293d"/>
      <path id="Path_166" data-name="Path 166" d="M746.46,829.574l-2.266-.806a.981.981,0,0,1-.111-1.5,1.192,1.192,0,0,1,.9-.453.817.817,0,0,0,.263-.068,1.344,1.344,0,0,0,.174-.087,1.434,1.434,0,0,0,.619-1.2s2.487-.73,3.162,0a1.76,1.76,0,0,1,.237.324,3.62,3.62,0,0,1,.382,1.723s.126.791.332,1.694S746.46,829.574,746.46,829.574Z" transform="translate(-6890.917 15152.246)" fill="#2d293d"/>
      <path id="Path_167" data-name="Path 167" d="M712.648,829.655a1.859,1.859,0,0,1,.3.443h0l-3.731.432a1.669,1.669,0,0,0,.263-.878S711.968,828.927,712.648,829.655Z" transform="translate(-6865.459 15149.151)" opacity="0.1"/>
      <path id="Path_168" data-name="Path 168" d="M753.51,825.723v.7c-.58.956-3.386.748-4.2.263a1.32,1.32,0,0,0,.174-.087,1.434,1.434,0,0,0,.619-1.2s2.487-.73,3.162,0A1.759,1.759,0,0,1,753.51,825.723Z" transform="translate(-6894.986 15152.29)" opacity="0.1"/>
      <path id="Path_169" data-name="Path 169" d="M713.963,712.567a6.228,6.228,0,0,0-.445.951v2.506c-.632,1.054-3.931.7-4.374.126s-.92-2.061-.414-2.313.92-1.523.92-1.523-.527.127-1.394-.888-.6-3.265-.443-3.8a11.282,11.282,0,0,0,0-2.345,4.722,4.722,0,0,0-.221-1.681,20.959,20.959,0,0,1-.791-2.759,1.872,1.872,0,0,0-.443-1.2,5.462,5.462,0,0,1-.73-2.029,2.08,2.08,0,0,1-.316-1.362,2.773,2.773,0,0,0-.54-1.65l-1.078-3.425L702.68,688.6l-.569,1.489s-.161,3.489-.032,4.216.316,2.661.316,2.661a3.905,3.905,0,0,0-.348,2.348,16.031,16.031,0,0,1,.19,3.391s.285,4.788.032,5.17a3.058,3.058,0,0,0-.221,1.317s1.3,2.79.885,3.162-.285,1.428-.285,1.428.888,0,.509.379a7.6,7.6,0,0,0-.667,2.371l-3.839.485a8.119,8.119,0,0,1-.859-1.618c-.506-1.172.095-1.054.606-1.172s.187-.443-.416-.825-.264-1.236-.264-1.236.92-1.555.6-1.681-.35-2.314-.35-2.314a14.187,14.187,0,0,1-.474-3.3,6.329,6.329,0,0,0-.509-2.371l-.221-2a5.491,5.491,0,0,1-.685-3.779V693.64s-.888-5.96-1.017-8.959c-.079-1.929-.058-4.561-.032-6.205.016-.92.032-1.531.032-1.531l13.7-1.425a11.327,11.327,0,0,0,.25,2.034c.14.751.358,1.726.7,2.943a13.386,13.386,0,0,1,.382,6.087l-.126,4.406s1.2,2.949.951,3.952a8.375,8.375,0,0,0-.264,1.844s2.7,6.437,2.411,8.308.891,4.806.891,4.806A7.374,7.374,0,0,1,713.963,712.567Z" transform="translate(-6854.993 15262.434)" fill="#464353"/>
      <path id="Path_170" data-name="Path 170" d="M737.22,751.886l4.158-.556S739.028,753.738,737.22,751.886Z" transform="translate(-6886.082 15206.6)" opacity="0.05"/>
      <path id="Path_171" data-name="Path 171" d="M748.629,735.87s.145,1.473-.759,2.029C747.87,737.9,749.485,737.646,748.629,735.87Z" transform="translate(-6893.925 15217.986)" opacity="0.1"/>
      <path id="Path_172" data-name="Path 172" d="M736.037,718.06s-3.483,2.869-4.743,2.635S736.037,718.06,736.037,718.06Z" transform="translate(-6881.589 15231.104)" opacity="0.1"/>
      <path id="Path_173" data-name="Path 173" d="M709.979,758.55s-2.635.6-2.725,1.665S709.979,758.55,709.979,758.55Z" transform="translate(-6864.01 15201.282)" opacity="0.1"/>
      <path id="Path_174" data-name="Path 174" d="M711.8,808.72s-3.739.7-2.677,1.175a18.11,18.11,0,0,0,2.806.854S713.13,810.812,711.8,808.72Z" transform="translate(-6865.245 15164.331)" opacity="0.05"/>
      <g id="Group_15" data-name="Group 15" transform="translate(-6159.998 15939.261)" opacity="0.05">
        <path id="Path_175" data-name="Path 175" d="M705.441,814.483a.74.74,0,0,1-.342-.543l-.037.069s-.35.854.264,1.236c.068.042.134.087.2.129.111-.021.232-.037.345-.066C706.366,815.192,706.044,814.873,705.441,814.483Z" transform="translate(-702.326 -778.774)"/>
        <path id="Path_176" data-name="Path 176" d="M724.572,813.253c.1-.095.1-.34.037-.654a1.767,1.767,0,0,0-.214.92A.7.7,0,0,1,724.572,813.253Z" transform="translate(-716.637 -777.787)"/>
        <path id="Path_177" data-name="Path 177" d="M722.143,755.22a4.368,4.368,0,0,0-.264,1.164,4.623,4.623,0,0,1,.29-.79A2.354,2.354,0,0,0,722.143,755.22Z" transform="translate(-714.786 -735.527)"/>
        <path id="Path_178" data-name="Path 178" d="M755.2,747.928a1.5,1.5,0,0,0,.034-.348c-.047.237-.079.458-.1.651C755.151,748.131,755.172,748.031,755.2,747.928Z" transform="translate(-739.275 -729.9)"/>
        <path id="Path_179" data-name="Path 179" d="M722.3,796.034a1.994,1.994,0,0,0,.095-.7,2.322,2.322,0,0,0-.182.888A.857.857,0,0,1,722.3,796.034Z" transform="translate(-715.029 -765.068)"/>
        <path id="Path_180" data-name="Path 180" d="M710.3,820.68a12.666,12.666,0,0,0-.435,1.947l-3.834.445a7.946,7.946,0,0,1-.859-1.618,2.816,2.816,0,0,1-.108-.279c-.229.105-.321.343-.018,1.054a7.843,7.843,0,0,0,.859,1.615l3.831-.445a7.561,7.561,0,0,1,.667-2.371C710.586,820.825,710.467,820.73,710.3,820.68Z" transform="translate(-702.243 -783.738)"/>
        <path id="Path_181" data-name="Path 181" d="M697.945,711.728s.032,2.19.348,2.316h0c.161-.361.264-.7.124-.761-.316-.127-.348-2.314-.348-2.314a14.054,14.054,0,0,1-.474-3.3,6.26,6.26,0,0,0-.509-2.371l-.221-2a5.5,5.5,0,0,1-.7-3.773v-3.08s-.888-5.96-1.014-8.972c-.082-1.929-.058-4.561-.032-6.205v-.79h-.108s-.016.609-.032,1.531c-.026,1.642-.05,4.277.032,6.205.126,3.012,1.014,8.972,1.014,8.972v3.075a5.484,5.484,0,0,0,.714,3.8l.221,2a6.3,6.3,0,0,1,.506,2.371A13.992,13.992,0,0,0,697.945,711.728Z" transform="translate(-694.956 -680.48)"/>
        <path id="Path_182" data-name="Path 182" d="M747.015,822.3a3.691,3.691,0,0,1-.606-1.507c-.393.353.058,1.726.48,2.269s3.742.92,4.377-.129v-.6C750.406,823.177,747.436,822.837,747.015,822.3Z" transform="translate(-732.74 -783.819)"/>
        <path id="Path_183" data-name="Path 183" d="M766.183,812.829a6.348,6.348,0,0,0-.443.951v.445c.071-.163.174-.38.316-.635a1.919,1.919,0,0,0,.14-.79Z" transform="translate(-747.089 -777.935)"/>
        <path id="Path_184" data-name="Path 184" d="M744.8,801.715a6.1,6.1,0,0,0,.313-.754s-.527.126-1.4-.888a4.521,4.521,0,0,1-.569-3.043c-.158.54-.414,2.79.443,3.8A2.235,2.235,0,0,0,744.8,801.715Z" transform="translate(-730.329 -766.32)"/>
        <path id="Path_185" data-name="Path 185" d="M727.949,739.425a17.4,17.4,0,0,1,.063,1.879c.021-.124.045-.224.063-.3a11.115,11.115,0,0,0,0-2.345,4.717,4.717,0,0,0-.221-1.681,20.839,20.839,0,0,1-.79-2.759,1.872,1.872,0,0,0-.443-1.2,5.464,5.464,0,0,1-.73-2.029,2.079,2.079,0,0,1-.319-1.362,2.78,2.78,0,0,0-.527-1.649l-1.078-3.425L722.94,722l-.572,1.489s0,.187-.018.482l.464-1.209,1.014,2.566,1.078,3.425a2.712,2.712,0,0,1,.527,1.647,2.085,2.085,0,0,0,.329,1.349,5.448,5.448,0,0,0,.727,2.029,1.882,1.882,0,0,1,.445,1.2,19.421,19.421,0,0,0,.791,2.759A4.518,4.518,0,0,1,727.949,739.425Z" transform="translate(-715.132 -711.06)"/>
      </g>
      <path id="Path_186" data-name="Path 186" d="M744.978,558.471l-.237,1.159.013.527v.379l-1.317.137-.148-.263h0a11.219,11.219,0,0,0-1.028-1.66c-.245-.206-.68-3.425-.158-3.233a1.38,1.38,0,0,1,.738.667S745.447,556.458,744.978,558.471Z" transform="translate(-6889.498 15350.823)" fill="#ffcdd3"/>
      <path id="Path_187" data-name="Path 187" d="M748.8,573.077l-1.318.137-.148-.263h0a1.165,1.165,0,0,1,1.46-.24Z" transform="translate(-6893.527 15338.27)" opacity="0.1"/>
      <path id="Path_188" data-name="Path 188" d="M748.9,574.025l-1.742.406-.037-.263-.1-.7a1.2,1.2,0,0,1,1.689-.232l.087.356Z" transform="translate(-6893.299 15337.948)" fill="#dce6f2"/>
      <path id="Path_189" data-name="Path 189" d="M635.1,551.687l-1.86,1-.169-.353c-.179-.372-.443-.93-.527-1.13-.111-.308-.888-.7-.888-.7-1.95-1.863.372-3.462.372-3.462,1.231-2.474,2.6.838,2.6.838a8.415,8.415,0,0,1,.055,1.863c-.134.116-.134.6-.134.6a7.252,7.252,0,0,1,.451,1.054C635.075,551.579,635.1,551.687,635.1,551.687Z" transform="translate(-6807.762 15357.733)" fill="#ffcdd3"/>
      <path id="Path_190" data-name="Path 190" d="M641.239,566.409l-1.86,1-.169-.353c.264-.219,1.194-.975,1.5-.941a2.189,2.189,0,0,0,.443,0C641.21,566.3,641.239,566.409,641.239,566.409Z" transform="translate(-6813.896 15343.011)" opacity="0.1"/>
      <path id="Path_191" data-name="Path 191" d="M641.583,567.327l-2.092,1.03-.042-.451-.029-.308s1.212-1.041,1.581-1a1.944,1.944,0,0,0,.548,0l.024.377Z" transform="translate(-6814.051 15342.657)" fill="#dce6f2"/>
      <path id="Path_192" data-name="Path 192" d="M713.117,576.162s-9.125,1.03-7.42.477a2.289,2.289,0,0,0,1.76-1.979,4.819,4.819,0,0,0-.34-2.108,9.162,9.162,0,0,0-.817-1.649s6.975-3.836,5.581-.348a5.466,5.466,0,0,0-.4,1.652,4.658,4.658,0,0,0,.177,1.671A4.983,4.983,0,0,0,713.117,576.162Z" transform="translate(-6862.708 15340.821)" fill="#ffcdd3"/>
      <path id="Path_193" data-name="Path 193" d="M714.161,570.553a5.476,5.476,0,0,0-.4,1.652,3.227,3.227,0,0,1-2.3.527,4.114,4.114,0,0,1-2.066-.169,9.17,9.17,0,0,0-.817-1.649S715.555,567.064,714.161,570.553Z" transform="translate(-6864.988 15340.82)" opacity="0.1"/>
      <ellipse id="Ellipse_64" data-name="Ellipse 64" cx="3.773" cy="3.773" rx="3.773" ry="3.773" transform="translate(-6157.422 15906.237)" fill="#ffcdd3"/>
      <path id="Path_194" data-name="Path 194" d="M713.117,588.441s-9.125,1.03-7.42.477a2.289,2.289,0,0,0,1.76-1.979,4.952,4.952,0,0,1,1.953-1.036,2.723,2.723,0,0,1,1.652-.026,2.2,2.2,0,0,1,.6.263A4.983,4.983,0,0,0,713.117,588.441Z" transform="translate(-6862.708 15328.542)" opacity="0.1"/>
      <path id="Path_195" data-name="Path 195" d="M749.179,575.541l-1.742.406-.037-.263a1.539,1.539,0,0,1,1.676-.574Z" transform="translate(-6893.579 15336.433)" opacity="0.1"/>
      <path id="Path_196" data-name="Path 196" d="M641.664,568.383l-2.092,1.03-.042-.451a15.406,15.406,0,0,1,2.108-.933Z" transform="translate(-6814.132 15341.602)" opacity="0.1"/>
      <path id="Path_197" data-name="Path 197" d="M709.078,677.5c-3.533.556-8.563,1.283-9.362,1.041a23.177,23.177,0,0,0-4.616-.119c.016-.92.032-1.531.032-1.531l13.7-1.426A11.352,11.352,0,0,0,709.078,677.5Z" transform="translate(-6855.06 15262.471)" opacity="0.1"/>
      <path id="Path_198" data-name="Path 198" d="M670.131,597.843s-11.636,2-12.885,1.615-7.66.034-7.66.034c-2.885,1.931-1.678-.92-1.678-.92a6.876,6.876,0,0,1,.095-2.7,16.508,16.508,0,0,0,.474-2.7,6.279,6.279,0,0,1,.284-2.345,18.118,18.118,0,0,0,.762-3.615s.319-2.155.287-2.635.095-1.8.095-1.8l.411-2.221c-2.371-.316-9.607-4.756-9.607-4.756-.348-1.489-3.043-4.977-3.043-4.977a3.667,3.667,0,0,0-.221-.856c-.19-.506,2.664-1.52,2.664-1.52s2.124,2.6,2.566,3.3a14.51,14.51,0,0,0,1.966,2,1.537,1.537,0,0,1,.7.092h.037a5.621,5.621,0,0,1,1.418.814,2.748,2.748,0,0,1,1.934.73s1.3-.19,1.523.032,1.318,0,1.318,0,1.112-2.345,1.844-1.665,3.823.651,3.823.651a4.573,4.573,0,0,1,2.045-1.144,2.722,2.722,0,0,1,1.652-.026,2.045,2.045,0,0,1,.653.316l1.876,1.844s.527-.7.477-.856.635-.285.635-.285.92-.285,1.267-.382.669.285.7.316a3.71,3.71,0,0,1-.158-1.394,1.581,1.581,0,0,0-.38-1.141c1.12-2.709,3.626-.416,3.626-.416a5.232,5.232,0,0,1,.032,2.06c-.253.572.263,1.776.19,2.092a14.269,14.269,0,0,0,.126,1.457,8.669,8.669,0,0,1-.506,2.253c-.192.506-1.713,1.647-1.713,1.647a7.15,7.15,0,0,1-.761,2.854c-.667,1.046-.263,4.63-.263,4.63a12.05,12.05,0,0,0,1.426,3.689C668.948,592.81,670.131,597.843,670.131,597.843Z" transform="translate(-6812.59 15341.292)" fill="#3f3d56"/>
      <path id="Path_199" data-name="Path 199" d="M692.716,595.435s-.348-1.054-.667-1.144a7.5,7.5,0,0,1-.92-.411l.206-.39s1.191.327,1.381.675A2.753,2.753,0,0,1,692.716,595.435Z" transform="translate(-6852.136 15322.85)" opacity="0.1"/>
      <path id="Path_200" data-name="Path 200" d="M664.943,589.767c-.063.319-2.883.6-2.883.6l1.425-1.431h0l.037.013h0A5.622,5.622,0,0,1,664.943,589.767Z" transform="translate(-6830.726 15326.201)" opacity="0.1"/>
      <ellipse id="Ellipse_65" data-name="Ellipse 65" cx="0.253" cy="0.253" rx="0.253" ry="0.253" transform="translate(-6174.209 15911.365)" fill="#575988"/>
      <ellipse id="Ellipse_66" data-name="Ellipse 66" cx="0.253" cy="0.253" rx="0.253" ry="0.253" transform="translate(-6173.885 15911.874)" fill="#575988"/>
      <ellipse id="Ellipse_67" data-name="Ellipse 67" cx="0.253" cy="0.253" rx="0.253" ry="0.253" transform="translate(-6173.566 15912.34)" fill="#575988"/>
      <ellipse id="Ellipse_68" data-name="Ellipse 68" cx="0.253" cy="0.253" rx="0.253" ry="0.253" transform="translate(-6173.235 15912.849)" fill="#575988"/>
      <ellipse id="Ellipse_69" data-name="Ellipse 69" cx="0.206" cy="0.206" rx="0.206" ry="0.206" transform="translate(-6143.302 15912.867)" fill="#575988"/>
      <ellipse id="Ellipse_70" data-name="Ellipse 70" cx="0.206" cy="0.206" rx="0.206" ry="0.206" transform="translate(-6143.27 15913.336)" fill="#575988"/>
      <ellipse id="Ellipse_71" data-name="Ellipse 71" cx="0.206" cy="0.206" rx="0.206" ry="0.206" transform="translate(-6143.244 15913.803)" fill="#575988"/>
      <path id="Path_201" data-name="Path 201" d="M697.21,633.47c-.029-.037,7.114,8.988,12.666,3.773C709.876,637.243,701.107,638.431,697.21,633.47Z" transform="translate(-6856.614 15293.404)" opacity="0.1"/>
      <path id="Path_202" data-name="Path 202" d="M681.63,651.28s4.276.116,4.724,1.346v1.281a.819.819,0,0,1-.79,0c-.432-.232-3.017-1.547-3.929-.914Z" transform="translate(-6845.139 15280.287)" opacity="0.1"/>
      <path id="Path_203" data-name="Path 203" d="M681.93,651.28s4.089.111,4.519,1.283v1.223a.79.79,0,0,1-.761,0c-.414-.224-2.9-1.476-3.757-.872Z" transform="translate(-6845.36 15280.287)" fill="#3f3d56"/>
      <path id="Path_204" data-name="Path 204" d="M690.49,616a13.774,13.774,0,0,0,1.657,2.843,11.109,11.109,0,0,0,2.6,2.508S690.561,616.6,690.49,616Z" transform="translate(-6851.665 15306.271)" opacity="0.1"/>
      <path id="Path_205" data-name="Path 205" d="M685.18,597.18s.714,3.08,2.551,4.126Z" transform="translate(-6847.754 15320.132)" opacity="0.1"/>
      <path id="Path_206" data-name="Path 206" d="M680.821,598.357c-.018-.058-.635,2.435,2.371,3.815C683.192,602.173,681.922,601.74,680.821,598.357Z" transform="translate(-6844.496 15319.266)" opacity="0.1"/>
      <path id="Path_207" data-name="Path 207" d="M751.9,590.514a22.077,22.077,0,0,1,1.9,1.426S752.8,590.451,751.9,590.514Z" transform="translate(-6896.891 15325.043)" opacity="0.1"/>
      <path id="Path_208" data-name="Path 208" d="M706.413,558.634a.8.8,0,0,0,.292.511.825.825,0,0,0,.356.079,7.707,7.707,0,0,0,3.425-.321,1.276,1.276,0,0,0,.527-.345,2.052,2.052,0,0,0,.279-.83,12.934,12.934,0,0,1,.7-1.6,5.383,5.383,0,0,0,.372-2.877,1.926,1.926,0,0,0-.287-.843c-.306-.435-.862-.611-1.265-.959s-.664-.877-1.133-1.138a2.2,2.2,0,0,0-1.423-.127,7.518,7.518,0,0,0-2.656,1,1.315,1.315,0,0,1-.888.3,1.22,1.22,0,0,1-.654-.5,3.509,3.509,0,0,0-.282,1.642.486.486,0,0,1-.177.511.959.959,0,0,0-.182,1.183c.124.145.311.224.43.372.213.263.14.646.134.985a.528.528,0,0,0,.084.335.49.49,0,0,0,.466.111,1.277,1.277,0,0,1,.5-.048.836.836,0,0,1,.432.332A6.025,6.025,0,0,1,706.413,558.634Z" transform="translate(-6861.082 15354.794)" fill="#2d293d"/>
      <g id="Group_16" data-name="Group 16" transform="translate(-6157.832 15905.737)" opacity="0.1">
        <path id="Path_209" data-name="Path 209" d="M711.035,567.071a1.247,1.247,0,0,1-.527.343,7.571,7.571,0,0,1-3.41.321.774.774,0,0,1-.356-.079.791.791,0,0,1-.3-.508,5.879,5.879,0,0,0-.962-2.232.822.822,0,0,0-.432-.332,1.274,1.274,0,0,0-.5.047.49.49,0,0,1-.466-.111.511.511,0,0,1-.082-.335c0-.34.076-.722-.137-.986-.119-.148-.306-.227-.43-.371a.743.743,0,0,1-.071-.759.868.868,0,0,0-.055,1.012c.124.145.311.224.429.372.214.264.14.646.134.985a.528.528,0,0,0,.084.335.487.487,0,0,0,.466.111,1.276,1.276,0,0,1,.5-.047.835.835,0,0,1,.432.332,5.981,5.981,0,0,1,.962,2.232.805.805,0,0,0,.292.511.825.825,0,0,0,.356.079,7.709,7.709,0,0,0,3.426-.321,1.294,1.294,0,0,0,.527-.345,1.008,1.008,0,0,0,.163-.306A.19.19,0,0,1,711.035,567.071Z" transform="translate(-703.176 -559.746)"/>
        <path id="Path_210" data-name="Path 210" d="M705.126,555.079a.528.528,0,0,0,.116-.192.8.8,0,0,0,0-.248,3.479,3.479,0,0,1,.176-1.365l-.021-.024a3.479,3.479,0,0,0-.282,1.642A1.1,1.1,0,0,1,705.126,555.079Z" transform="translate(-704.598 -553.25)"/>
      </g>
      <path id="Path_211" data-name="Path 211" d="M712.62,590.884s4.714.625,5.138-.084" transform="translate(-6867.963 15324.831)" opacity="0.1"/>
      <path id="Path_212" data-name="Path 212" d="M747.4,583.72s2.617,0,3.193.985" transform="translate(-6893.579 15330.046)" opacity="0.1"/>
      <text id="ویلا" transform="translate(-6160 15860)" fill="#0389ff" font-size="8" font-family="IRANSansWebFaNum-Medium, IRANSansWebFaNum" font-weight="500"><tspan x="-11.53" y="0">ویلا</tspan></text>
      <text id="خانه" transform="translate(-6185 15884)" fill="#0389ff" font-size="8" font-family="IRANSansWebFaNum-Medium, IRANSansWebFaNum" font-weight="500"><tspan x="-13.997" y="0">خانه</tspan></text>
      <text id="سوییت" transform="translate(-6258 15947)" fill="#0389ff" font-size="6" font-family="IRANSansWebFaNum-Medium, IRANSansWebFaNum" font-weight="500"><tspan x="-17.797" y="0">سوییت</tspan></text>
      <text id="بوم_گردی" data-name="بوم
گردی" transform="translate(-6069 15920)" fill="#0389ff" font-size="5" font-family="IRANSansWebFaNum-Medium, IRANSansWebFaNum" font-weight="500"><tspan x="-6.511" y="0">بوم</tspan><tspan y="0"></tspan><tspan x="-10.304" y="8">گردی</tspan></text>
      <text id="هتل-2" data-name="هتل" transform="translate(-6159.464 15914.364) rotate(45)" fill="#0389ff" font-size="8" font-family="IRANSansWebFaNum-Medium, IRANSansWebFaNum" font-weight="500"><tspan x="-13.586" y="0">هتل</tspan></text>
    </g>
  </g>
</svg>
