<svg xmlns="http://www.w3.org/2000/svg" width="15.49" height="17.978" viewBox="0 0 15.49 17.978">
  <g id="Group_1131" data-name="Group 1131" transform="translate(-287.309 -230.248)">
    <path id="Path_8" data-name="Path 8" d="M302.788,237.565a7.8,7.8,0,0,0-7.421-7.311,7.747,7.747,0,0,0-7.031,11.6c.91,1.583,3.709,4.314,5.3,5.8a2.13,2.13,0,0,0,2.911,0c1.706-1.606,4.7-4.575,5.545-6.416A7.789,7.789,0,0,0,302.788,237.565Zm-1.677,3.219c-.565,1.224-2.5,3.441-5.305,6.083a1.052,1.052,0,0,1-1.436,0,33.214,33.214,0,0,1-5.1-5.551,6.669,6.669,0,0,1,5.781-9.988c.091,0,.182,0,.273.005a6.709,6.709,0,0,1,6.387,6.293A6.612,6.612,0,0,1,301.111,240.784Z" transform="translate(0 0)" fill="#585858"/>
    <path id="Path_9" data-name="Path 9" d="M305.192,244.307a2.244,2.244,0,1,0,2.244,2.244A2.247,2.247,0,0,0,305.192,244.307Zm0,3.411a1.167,1.167,0,1,1,1.167-1.167A1.168,1.168,0,0,1,305.192,247.718Z" transform="translate(-10.022 -9.01)" fill="#585858"/>
  </g>
</svg>
