<svg xmlns="http://www.w3.org/2000/svg" width="70.383" height="64.656" viewBox="0 0 70.383 64.656">
  <g id="Group_1363" data-name="Group 1363" transform="translate(-407.234 -582.713)">
    <g id="_162-photo-camera" data-name="162-photo-camera" transform="translate(407.234 582.713)" opacity="0.538">
      <path id="Path_621" data-name="Path 621" d="M54.056,7.558h-9.89L42.654,4.232A6.85,6.85,0,0,0,36.433.227h-12.7a6.85,6.85,0,0,0-6.222,4.005L16,7.558H6.835A6.842,6.842,0,0,0,0,14.393V45.336a6.842,6.842,0,0,0,6.835,6.835H54.056a6.842,6.842,0,0,0,6.835-6.835V14.393A6.842,6.842,0,0,0,54.056,7.558Zm4.1,37.778a4.105,4.105,0,0,1-4.1,4.1H6.835a4.105,4.105,0,0,1-4.1-4.1V14.393a4.105,4.105,0,0,1,4.1-4.1H16.88a1.367,1.367,0,0,0,1.244-.8L20,5.363a4.111,4.111,0,0,1,3.733-2.4h12.7a4.11,4.11,0,0,1,3.732,2.4l1.877,4.128a1.368,1.368,0,0,0,1.244.8h10.77a4.106,4.106,0,0,1,4.1,4.1Zm0,0" transform="translate(0 -0.227)"/>
      <path id="Path_622" data-name="Path 622" d="M109.669,87.727A11.493,11.493,0,1,0,121.162,99.22,11.493,11.493,0,0,0,109.669,87.727Zm0,21.1a9.608,9.608,0,1,1,9.608-9.607A9.607,9.607,0,0,1,109.669,108.827Zm0,0" transform="translate(-79.586 -70.596)" stroke="#000" stroke-width="1"/>
    </g>
    <path id="Union_106" data-name="Union 106" d="M-2401,17974.35V17950h5v-12h22.65v24.35h-5v12Z" transform="translate(2850.969 -17326.98)" fill="#fff"/>
    <path id="Union_24" data-name="Union 24" d="M6572.192,5355.625h0v0h0v0Z" transform="translate(-6109.918 -4730.299)" fill="none" stroke="#0389ff" stroke-linecap="round" stroke-width="2.7"/>
  </g>
</svg>
