<svg xmlns="http://www.w3.org/2000/svg" width="304.449" height="210.867" viewBox="0 0 304.449 210.867">
  <g id="Group_1255" data-name="Group 1255" transform="translate(-1283.027 -1441.162)">
    <path id="Path_320" data-name="Path 320" d="M116.3,62.363c10.329-9.3,26.544-11.2,41.3-10.458,46.356,2.327,88.2,24.924,124.4,50.485,13.1,9.254,26,19.235,34.518,31.969,17.317,25.941,12.179,61.878-11.9,83.248C296.43,224.88,286.5,230.453,276.3,235.4c-18.126,8.785-37.679,15.836-58.256,17.844-14.671,1.431-29.511.264-44.109-1.729-40.749-5.581-80.747-17.917-114.274-39.034-14.711-9.259-28.57-20.771-34.631-35.759s-2.182-33.961,12.832-42.828c6.211-3.668,13.633-5.323,20.9-6.88,10.7-2.287,21.57-4.545,31.227-9.2,9.973-4.806,21.78-14.1,19.807-24.742C107.685,81.664,105.986,71.638,116.3,62.363Z" transform="translate(1260.73 1389.402)" fill="#0389ff" opacity="0.1"/>
    <path id="Path_321" data-name="Path 321" d="M279,496.376s2.732-1.958,5.56-.748c0,0-.79,1.681-4.313,1.66Z" transform="translate(1071.666 1062.782)" fill="#7e37b5"/>
    <path id="Path_322" data-name="Path 322" d="M277.39,500s-.73,3.28,1.494,5.41c0,0,1.233-1.389-.169-4.619Z" transform="translate(1072.938 1059.271)" fill="#0389ff"/>
    <path id="Path_323" data-name="Path 323" d="M264,482.524s.1-2.769,6.371-2.092a2.979,2.979,0,0,1-2.058,2.709A3.592,3.592,0,0,1,264,482.524Z" transform="translate(1082.715 1073.763)" fill="#0389ff"/>
    <path id="Path_324" data-name="Path 324" d="M259.268,488.65s-2.606.949-.029,6.708a2.979,2.979,0,0,0,1.942-2.793A3.6,3.6,0,0,0,259.268,488.65Z" transform="translate(1087.059 1067.631)" fill="#0389ff"/>
    <path id="Path_325" data-name="Path 325" d="M248.53,462.229s-.527-4.532,5.86-4.311c0,0,.609,4.1-4.693,5.359Z" transform="translate(1094.115 1090.271)" fill="#0389ff"/>
    <path id="Path_326" data-name="Path 326" d="M231.83,443.979s.677-5.183,7.114-3.894c0,0,.195,4.453-6.018,5.083Z" transform="translate(1106.408 1103.551)" fill="#0389ff"/>
    <path id="Path_327" data-name="Path 327" d="M219.38,424.523s1.27-5.083,7.641-3.813c0,0-1.317,4.572-7.185,4.724Z" transform="translate(1115.577 1117.82)" fill="#0389ff"/>
    <path id="Path_328" data-name="Path 328" d="M207.53,404.923s1.231-5.27,7.378-3.931c0,0-1.844,5.025-6.948,4.8Z" transform="translate(1124.305 1132.352)" fill="#0389ff"/>
    <path id="Path_329" data-name="Path 329" d="M199.66,383.117s.856-6.411,6.587-5.22c0,0-1.428,5.857-6.139,6.129Z" transform="translate(1130.102 1149.309)" fill="#0389ff"/>
    <path id="Path_330" data-name="Path 330" d="M192.09,361.582s1.072-6.469,6.89-4.822c0,0-2.024,6.153-6.456,5.694Z" transform="translate(1135.677 1164.967)" fill="#0389ff"/>
    <path id="Path_331" data-name="Path 331" d="M187.13,336.845s1.844-6.5,6.3-6.5c0,0-1.884,6.851-5.881,7.768Z" transform="translate(1139.33 1184.221)" fill="#0389ff"/>
    <path id="Path_332" data-name="Path 332" d="M183.71,313.962s1.984-7.815,5.626-7.357c0,0-1.352,5.965-5.452,8.556Z" transform="translate(1141.849 1201.723)" fill="#0389ff"/>
    <path id="Path_333" data-name="Path 333" d="M181.28,290.834s1.889-6.519,5.452-6.914c0,0-1.212,6.39-5.309,8.585Z" transform="translate(1143.639 1218.416)" fill="#0389ff"/>
    <path id="Path_334" data-name="Path 334" d="M178.76,268.475s2.419-6.548,4.774-6.785c0,0-.914,6.39-4.5,7.834Z" transform="translate(1145.494 1234.789)" fill="#0389ff"/>
    <path id="Path_335" data-name="Path 335" d="M176.83,244.644s1.37-7.064,3.7-7.734c0,0-.1,5.736-3.449,8.247Z" transform="translate(1146.916 1253.039)" fill="#0389ff"/>
    <path id="Path_336" data-name="Path 336" d="M172.4,220.259s1.51-5.644,3.386-6.569c0,0-.126,6.587-2.9,7.9Z" transform="translate(1150.178 1270.141)" fill="#0389ff"/>
    <path id="Path_337" data-name="Path 337" d="M166.875,193.023l-.725-9.823s3.847,7.288,1.054,11.549Z" transform="translate(1154.781 1292.598)" fill="#0389ff"/>
    <path id="Path_338" data-name="Path 338" d="M147.285,162.922s-2.843-7.085-3.475-7.462c0,0,5.217,4.479,4.954,10.482Z" transform="translate(1171.235 1313.027)" fill="#0389ff"/>
    <path id="Path_339" data-name="Path 339" d="M236.2,474.184s-4.545-.419-4.163,5.963c0,0,4.11.509,5.241-4.825Z" transform="translate(1106.272 1078.289)" fill="#0389ff"/>
    <path id="Path_340" data-name="Path 340" d="M218.12,454.82s-5.222.182-4.548,6.7c0,0,4.413.617,5.628-5.51Z" transform="translate(1119.899 1092.547)" fill="#0389ff"/>
    <path id="Path_341" data-name="Path 341" d="M197.891,436.406s-4.827-2.042-7.641,3.813c0,0,4.45,1.684,8.095-2.9Z" transform="translate(1137.031 1106.363)" fill="#0389ff"/>
    <path id="Path_342" data-name="Path 342" d="M185.941,415.578S181,413.4,178.36,419.114c0,0,5.125,1.547,8.015-2.667Z" transform="translate(1145.789 1121.75)" fill="#0389ff"/>
    <path id="Path_343" data-name="Path 343" d="M176.438,393.6s-4.843-4.284-8.4.374c0,0,4.914,3.489,8.65.611Z" transform="translate(1153.39 1138.957)" fill="#0389ff"/>
    <path id="Path_344" data-name="Path 344" d="M169.612,370.155s-4.875-4.385-8.392.527c0,0,5.42,3.544,8.6.419Z" transform="translate(1158.412 1156.23)" fill="#0389ff"/>
    <path id="Path_345" data-name="Path 345" d="M166.415,342.016s-3.839-5.56-8.055-4.126c0,0,3.989,5.892,8.066,5.467Z" transform="translate(1160.52 1178.84)" fill="#0389ff"/>
    <path id="Path_346" data-name="Path 346" d="M163.638,318.1s-3.929-7.04-7.328-5.662c0,0,2.84,5.417,7.465,6.864Z" transform="translate(1162.029 1197.543)" fill="#0389ff"/>
    <path id="Path_347" data-name="Path 347" d="M161.334,295.407s-3.968-5.507-7.454-4.682c0,0,3.286,5.612,7.881,6.305Z" transform="translate(1163.818 1213.467)" fill="#0389ff"/>
    <path id="Path_348" data-name="Path 348" d="M164.835,269.584s-3.149-6.229-5.515-6.195c0,0,1.636,6.245,5.359,7.267Z" transform="translate(1159.813 1233.537)" fill="#0389ff"/>
    <path id="Path_349" data-name="Path 349" d="M160.738,248.336s-3.478-6.3-5.907-6.218c0,0,1.866,5.428,5.821,6.788Z" transform="translate(1163.119 1249.203)" fill="#0389ff"/>
    <path id="Path_350" data-name="Path 350" d="M161.435,223.937s-2.622-5.222-4.645-5.747c0,0,1.457,6.429,4.432,7.167Z" transform="translate(1161.676 1266.828)" fill="#0389ff"/>
    <path id="Path_351" data-name="Path 351" d="M151.805,197.4l-5.715-8.021s1.694,8.068,6.564,9.559Z" transform="translate(1169.557 1288.047)" fill="#0389ff"/>
    <path id="Path_352" data-name="Path 352" d="M133.7,173.1S127.263,169,127,168.31c0,0,3.425,5.95,9.4,6.793Z" transform="translate(1183.615 1303.564)" fill="#0389ff"/>
    <path id="Path_353" data-name="Path 353" d="M124.672,160.752s-7.473-6.653-9.312-6.574a11.8,11.8,0,0,1,9.486,6.2Z" transform="translate(1192.189 1313.973)" fill="#0389ff"/>
    <path id="Path_354" data-name="Path 354" d="M156.13,194.661l-.264.045c-1.76-10.553-3.976-16.742-6.237-17.433l.076-.263C152.1,177.737,154.328,183.837,156.13,194.661Z" transform="translate(1166.949 1297.156)" fill="#444053"/>
    <path id="Path_355" data-name="Path 355" d="M176.285,267.039l-.4.047c-.121-.986-.227-2-.308-3-.714-8.761-1.61-16.8-2.611-22.811l.219-.292c1,6.023,2.074,14.3,2.79,23.071C176.061,265.053,176.164,266.057,176.285,267.039Z" transform="translate(1149.759 1250.043)" fill="#444053"/>
    <path id="Path_356" data-name="Path 356" d="M216.4,384.651a51.742,51.742,0,0,1-14.711-10.042A57.609,57.609,0,0,1,190.665,360.2a67.266,67.266,0,0,1-6.975-23.127l.422.179c2.24,18.228,11.046,30.412,17.918,36.96a51.156,51.156,0,0,0,14.558,9.947Z" transform="translate(1141.863 1179.27)" fill="#444053"/>
    <g id="Group_18" data-name="Group 18" transform="translate(1341.579 1442.748)" opacity="0.7">
      <path id="Path_357" data-name="Path 357" d="M320.84,435.432s3.191-1.054,5.533.941c0,0-1.257,1.37-4.614.3Z" transform="translate(-300.728 -335.716)" fill="#0389ff"/>
      <path id="Path_358" data-name="Path 358" d="M317.246,436.23s-1.671,2.917-.182,5.607c0,0,1.581-.956,1.215-4.458Z" transform="translate(-297.491 -336.509)" fill="#0389ff"/>
      <path id="Path_359" data-name="Path 359" d="M309.75,418.006s.922-2.614,6.706-.1a2.974,2.974,0,0,1-2.772,1.974A3.6,3.6,0,0,1,309.75,418.006Z" transform="translate(-292.56 -322.208)" fill="#0389ff"/>
      <path id="Path_360" data-name="Path 360" d="M302.349,420.89s-2.767.132-2.024,6.395a2.978,2.978,0,0,0,2.688-2.089A3.6,3.6,0,0,0,302.349,420.89Z" transform="translate(-285.525 -325.211)" fill="#0389ff"/>
      <path id="Path_361" data-name="Path 361" d="M299.3,394.795s.841-4.479,6.875-2.371c0,0-.635,4.092-6.073,3.721Z" transform="translate(-284.863 -303.829)" fill="#0389ff"/>
      <path id="Path_362" data-name="Path 362" d="M288.94,372.518s2.187-4.743,7.942-1.6c0,0-1.138,4.308-7.259,3.062Z" transform="translate(-277.233 -287.613)" fill="#0389ff"/>
      <path id="Path_363" data-name="Path 363" d="M282.9,350.653s2.727-4.479,8.432-1.368c0,0-2.635,3.968-8.266,2.371Z" transform="translate(-272.784 -271.663)" fill="#0389ff"/>
      <path id="Path_364" data-name="Path 364" d="M277.31,328.33s2.74-4.659,8.218-1.557c0,0-3.254,4.247-8.06,2.519Z" transform="translate(-268.667 -255.108)" fill="#0389ff"/>
      <path id="Path_365" data-name="Path 365" d="M275.27,305.132s2.725-5.865,7.847-3.02c0,0-3.107,5.164-7.683,4.024Z" transform="translate(-267.165 -237.156)" fill="#0389ff"/>
      <path id="Path_366" data-name="Path 366" d="M274.69,282.239s2.948-5.857,8.01-2.553c0,0-3.76,5.27-7.855,3.515Z" transform="translate(-266.738 -220.469)" fill="#0389ff"/>
      <path id="Path_367" data-name="Path 367" d="M276.16,258.172s3.689-5.655,7.947-4.327c0,0-3.839,5.989-7.926,5.668Z" transform="translate(-267.82 -202.032)" fill="#0389ff"/>
      <path id="Path_368" data-name="Path 368" d="M278.47,234.775s4.216-6.869,7.56-5.349c0,0-3.067,5.294-7.749,6.545Z" transform="translate(-269.382 -184.034)" fill="#0389ff"/>
      <path id="Path_369" data-name="Path 369" d="M282.888,212.23s3.747-5.662,7.262-4.98c0,0-3.057,5.742-7.62,6.616Z" transform="translate(-272.512 -167.821)" fill="#0389ff"/>
      <path id="Path_370" data-name="Path 370" d="M288.12,189.651s4.255-5.533,6.574-5.054c0,0-2.775,5.828-6.624,6.137Z" transform="translate(-276.592 -151.158)" fill="#0389ff"/>
      <path id="Path_371" data-name="Path 371" d="M292.71,165.511s3.41-6.324,5.839-6.282c0,0-1.807,5.446-5.747,6.851Z" transform="translate(-280.01 -132.495)" fill="#0389ff"/>
      <path id="Path_372" data-name="Path 372" d="M296.7,140.63s3.122-4.938,5.188-5.27c0,0-2.082,6.255-5.117,6.7Z" transform="translate(-282.948 -114.916)" fill="#0389ff"/>
      <path id="Path_373" data-name="Path 373" d="M298.2,110.176l2.232-9.6s1.5,8.1-2.432,11.33Z" transform="translate(-283.906 -89.3)" fill="#0389ff"/>
      <path id="Path_374" data-name="Path 374" d="M295.269,75.6s-.609-7.61-1.1-8.168c0,0,3.652,5.818,1.613,11.483Z" transform="translate(-281.085 -64.885)" fill="#0389ff"/>
      <path id="Path_375" data-name="Path 375" d="M282.627,402.094s-4.216-1.75-5.747,4.458c0,0,3.771,1.707,6.437-3.049Z" transform="translate(-268.351 -311.2)" fill="#0389ff"/>
      <path id="Path_376" data-name="Path 376" d="M270.607,378.853s-5.041-1.378-6.337,5.049c0,0,4.031,1.9,7.014-3.586Z" transform="translate(-259.063 -294.159)" fill="#0389ff"/>
      <path id="Path_377" data-name="Path 377" d="M258.732,355.783s-4-3.386-8.432,1.368c0,0,3.747,2.933,8.593-.364Z" transform="translate(-248.774 -276.398)" fill="#0389ff"/>
      <path id="Path_378" data-name="Path 378" d="M253.71,332.117s-4.074-3.552-8.29,1.12c0,0,4.432,3,8.445-.158Z" transform="translate(-245.18 -258.877)" fill="#0389ff"/>
      <path id="Path_379" data-name="Path 379" d="M252.641,307.255s-3.352-5.533-8.131-2.145c0,0,3.655,4.8,8.079,3.162Z" transform="translate(-244.51 -239.129)" fill="#0389ff"/>
      <path id="Path_380" data-name="Path 380" d="M252.978,282.906s-3.352-5.636-8.168-1.989c0,0,4.121,5.006,8.081,2.959Z" transform="translate(-244.731 -221.215)" fill="#0389ff"/>
      <path id="Path_381" data-name="Path 381" d="M260.031,252.949s-2.01-6.448-6.461-6.324c0,0,2.055,6.814,6.073,7.62Z" transform="translate(-251.183 -196.862)" fill="#0389ff"/>
      <path id="Path_382" data-name="Path 382" d="M264.539,229.092s-1.655-7.892-5.309-7.586c0,0,1.1,6.018,5.085,8.777Z" transform="translate(-255.351 -178.356)" fill="#0389ff"/>
      <path id="Path_383" data-name="Path 383" d="M269.176,206.51s-2.15-6.44-5.726-6.69c0,0,1.468,6.337,5.649,8.366Z" transform="translate(-258.459 -162.391)" fill="#0389ff"/>
      <path id="Path_384" data-name="Path 384" d="M280.246,182.674s-1.154-6.882-3.425-7.554c0,0-.292,6.448,2.956,8.535Z" transform="translate(-268.302 -144.199)" fill="#0389ff"/>
      <path id="Path_385" data-name="Path 385" d="M282.679,161.174s-1.447-7.048-3.789-7.694c0,0,.166,5.736,3.539,8.21Z" transform="translate(-269.831 -128.261)" fill="#0389ff"/>
      <path id="Path_386" data-name="Path 386" d="M290.474,138.119s-.949-5.765-2.724-6.869c0,0-.527,6.572,2.108,8.168Z" transform="translate(-276.325 -111.889)" fill="#0389ff"/>
      <path id="Path_387" data-name="Path 387" d="M289.138,109.839l-3.072-9.359s-.79,8.205,3.425,11.08Z" transform="translate(-275.073 -89.226)" fill="#0389ff"/>
      <path id="Path_388" data-name="Path 388" d="M279.242,81.291s-4.935-5.826-4.972-6.561c0,0,1.51,6.7,6.948,9.28Z" transform="translate(-266.428 -70.261)" fill="#0389ff"/>
      <path id="Path_389" data-name="Path 389" d="M274.305,66.821s-5.157-8.577-6.935-9.051a11.784,11.784,0,0,1,7.2,8.737Z" transform="translate(-261.346 -57.77)" fill="#0389ff"/>
      <path id="Path_390" data-name="Path 390" d="M294.043,108.583l-.263-.037c1.457-10.6,1.186-17.167-.769-18.5l.15-.219C295.234,91.245,295.537,97.729,294.043,108.583Z" transform="translate(-280.231 -81.382)" fill="#0389ff"/>
      <path id="Path_391" data-name="Path 391" d="M278.033,183.881l-.393-.071c.179-.978.379-1.974.6-2.962,1.926-8.577,3.462-16.513,4.292-22.552l.3-.216c-.833,6.06-2.274,14.268-4.2,22.858C278.409,181.9,278.209,182.9,278.033,183.881Z" transform="translate(-268.911 -131.649)" fill="#444053"/>
      <path id="Path_392" data-name="Path 392" d="M291.87,307.869A51.858,51.858,0,0,1,280.8,293.9a57.566,57.566,0,0,1-6.234-17.04,67.207,67.207,0,0,1,.221-24.154l.348.3c-3.28,18.07,1.5,32.325,6.124,40.623A51.011,51.011,0,0,0,292.2,307.456Z" transform="translate(-265.919 -201.345)" fill="#444053"/>
    </g>
    <path id="Path_393" data-name="Path 393" d="M1008.884,805.83s-11.14-.672-9.826,7.135a1.9,1.9,0,0,0,.988,2.005s.021-.58,1.144-.382a5.1,5.1,0,0,0,1.209.058,2.534,2.534,0,0,0,1.481-.611h0s3.13-1.294,4.348-6.411c0,0,.9-1.117.867-1.4l-1.881.79a3.366,3.366,0,0,1,.137,2.482s-.061-2.432-.422-2.372c-.074.013-.978.472-.978.472s1.107,2.371.263,4.079c0,0,.316-2.912-.617-3.91l-1.317.775s1.291,2.44.416,4.429c0,0,.224-3.054-.7-4.242l-1.2.935s1.215,2.406.474,4.055c0,0-.1-3.555-.733-3.823a6.9,6.9,0,0,0-1.209,1.317s.83,1.744.316,2.667c0,0-.316-2.372-.577-2.372a7.693,7.693,0,0,0-1.154,2.635,5.693,5.693,0,0,1,.9-2.793,3.133,3.133,0,0,0-1.6.827s.163-1.109,1.844-1.207a7.316,7.316,0,0,1,1.1-1.262,6.9,6.9,0,0,0-2.711.314s.9-1.054,3.02-.572l1.183-.967a9.8,9.8,0,0,0-3.162.032s1.083-.925,3.481-.25l1.288-.769a11.734,11.734,0,0,0-3.02-.263,4.629,4.629,0,0,1,3.4.053l.922-.414s-1.389-.264-1.794-.316-.427-.156-.427-.156a4.8,4.8,0,0,1,2.6.29A11.791,11.791,0,0,0,1008.884,805.83Z" transform="translate(541.418 834.036)" fill="#0389ff"/>
    <ellipse id="Ellipse_78" data-name="Ellipse 78" cx="7.884" cy="1.333" rx="7.884" ry="1.333" transform="translate(1534.746 1648.354)" fill="#0389ff" opacity="0.1"/>
    <path id="Path_394" data-name="Path 394" d="M1102.111,727.778s-6.279-.377-5.533,4.023a1.072,1.072,0,0,0,.556,1.13s.013-.327.645-.216a2.806,2.806,0,0,0,.682.034,1.411,1.411,0,0,0,.833-.345h0s1.765-.73,2.453-3.615c0,0,.509-.63.488-.79l-1.054.453a1.9,1.9,0,0,1,.076,1.4s-.034-1.373-.237-1.339c-.042,0-.551.264-.551.264a3.142,3.142,0,0,1,.153,2.3s.179-1.642-.348-2.2l-.746.435a3.3,3.3,0,0,1,.234,2.5,4.682,4.682,0,0,0-.393-2.393l-.675.527a3.22,3.22,0,0,1,.264,2.287s-.055-2-.414-2.155a4.208,4.208,0,0,0-.682.735s.469.985.179,1.5c0,0-.179-1.336-.324-1.341a4.423,4.423,0,0,0-.651,1.491,3.217,3.217,0,0,1,.509-1.581,1.777,1.777,0,0,0-.9.466s.092-.624,1.054-.68a4.1,4.1,0,0,1,.617-.711,3.881,3.881,0,0,0-1.528.177,1.72,1.72,0,0,1,1.7-.324l.669-.543a5.509,5.509,0,0,0-1.784.018,2.151,2.151,0,0,1,1.963-.142l.727-.435a6.653,6.653,0,0,0-1.7-.148,2.614,2.614,0,0,1,1.916.032l.527-.235s-.79-.153-1.012-.177-.242-.09-.242-.09a2.72,2.72,0,0,1,1.47.163A6.274,6.274,0,0,0,1102.111,727.778Z" transform="translate(469.561 891.518)" fill="#0389ff"/>
    <ellipse id="Ellipse_79" data-name="Ellipse 79" cx="4.445" cy="0.751" rx="4.445" ry="0.751" transform="translate(1562.902 1624.082)" fill="#0389ff" opacity="0.1"/>
    <path id="Path_395" data-name="Path 395" d="M958.162,742.272s-7.583-.458-6.687,4.856a1.294,1.294,0,0,0,.672,1.365s0-.393.777-.263a3.623,3.623,0,0,0,.825.042,1.734,1.734,0,0,0,1.007-.416h0s2.132-.88,2.962-4.366c0,0,.614-.759.588-.954l-1.278.545a2.3,2.3,0,0,1,.092,1.692s-.039-1.657-.287-1.618c-.05,0-.664.319-.664.319a3.792,3.792,0,0,1,.184,2.777s.216-1.981-.419-2.661l-.9.527a3.983,3.983,0,0,1,.282,3.017s.153-2.079-.472-2.9l-.817.635a3.89,3.89,0,0,1,.324,2.761s-.066-2.419-.5-2.6a4.957,4.957,0,0,0-.822.888s.564,1.188.213,1.815c0,0-.213-1.61-.39-1.618a5.428,5.428,0,0,0-.791,1.8,3.892,3.892,0,0,1,.614-1.9,2.141,2.141,0,0,0-1.088.564s.111-.756,1.265-.822a4.954,4.954,0,0,1,.746-.859,4.691,4.691,0,0,0-1.844.213,2.065,2.065,0,0,1,2.053-.39l.806-.656a6.626,6.626,0,0,0-2.153.021,2.623,2.623,0,0,1,2.372-.171l.877-.527a7.933,7.933,0,0,0-2.058-.179,3.167,3.167,0,0,1,2.313.037l.63-.258s-.943-.184-1.22-.213-.29-.105-.29-.105a3.276,3.276,0,0,1,1.773.2A7.922,7.922,0,0,0,958.162,742.272Z" transform="translate(576.438 880.844)" fill="#0389ff"/>
    <ellipse id="Ellipse_80" data-name="Ellipse 80" cx="5.367" cy="0.906" rx="5.367" ry="0.906" transform="translate(1524.011 1628.895)" fill="#0389ff" opacity="0.1"/>
    <path id="Path_396" data-name="Path 396" d="M352.443,435.922l-26.431,10.226L287.379,461.08c-1.457-2.706-3.607-6.408-6.269-10.8-9.148-15.164-24.289-38.749-37.764-59.475-15.188-23.353-28.257-43.073-28.257-43.073l9.462-2.743L301.84,322.57Z" transform="translate(1119.736 1190.949)" opacity="0.1"/>
    <path id="Path_397" data-name="Path 397" d="M354.443,428.922l-26.431,10.226L289.379,454.08c-1.457-2.706-3.607-6.408-6.268-10.8-9.148-15.164-24.289-38.749-37.764-59.475-15.188-23.353-28.257-43.073-28.257-43.073l9.462-2.743L303.84,315.57Z" transform="translate(1117.264 1195.105)" fill="#fff"/>
    <path id="Path_398" data-name="Path 398" d="M380.891,428.922l-26.431,10.226a198.78,198.78,0,0,1-44.9,4.129c-9.149-15.164-24.289-38.749-37.764-59.475L253,337.985l77.288-22.415Z" transform="translate(1090.816 1195.105)" opacity="0.1"/>
    <path id="Path_399" data-name="Path 399" d="M390.245,391.038s-41.063,24.289-102.367,18.808L239,290.7l23.422-4.023,80.966-13.9,45.94,115.965Z" transform="translate(1101.127 1226.629)" fill="#0389ff"/>
    <path id="Path_400" data-name="Path 400" d="M454.826,388.736a194.4,194.4,0,0,1-32.109-.912c-12.179-1.428-24.415-4.384-34.929-9.8a106.057,106.057,0,0,1-22.834-15.338c-17.024-15.314-27.561-37.221-37.023-76.015l80.966-13.9Z" transform="translate(1035.629 1226.629)" opacity="0.1"/>
    <path id="Path_401" data-name="Path 401" d="M469.589,285.084s-30.281,5.934-61.072,2.279c-12.179-1.436-24.428-4.384-34.929-9.8a106.054,106.054,0,0,1-22.834-15.338c-21.079-18.971-32.2-48.014-43.674-106.691,0,0,50.327,12.144,100.051-14.458C407.131,141.08,423.9,245.757,469.589,285.084Z" transform="translate(1050.985 1323.619)" fill="#fff"/>
    <path id="Path_402" data-name="Path 402" d="M530.593,594.5c-12.179-1.436-24.428-4.385-34.929-9.8a106.05,106.05,0,0,1-22.834-15.338c17.941-1.457,20.521-11.267,20.521-11.267C506.652,579.211,530.593,594.5,530.593,594.5Z" transform="translate(928.91 1016.48)" opacity="0.1"/>
    <path id="Path_403" data-name="Path 403" d="M405.85,246.593s27.034,3.085,52.338-11.133l1.734,5.568S435.714,253.1,405.85,253.1Z" transform="translate(978.24 1254.107)" fill="#0389ff" opacity="0.3"/>
    <path id="Path_404" data-name="Path 404" d="M405.85,335.519a178.022,178.022,0,0,0,56.8-16.629l1.012,2.313s-11.011,13.857-57.808,17.477Z" transform="translate(978.24 1192.66)" fill="#0389ff" opacity="0.3"/>
    <path id="Path_405" data-name="Path 405" d="M417.94,376.206a178.057,178.057,0,0,0,56.8-16.626l1.012,2.313s-11.009,13.87-57.808,17.493Z" transform="translate(969.336 1162.691)" fill="#0389ff" opacity="0.3"/>
    <path id="Path_406" data-name="Path 406" d="M429,420.056a178.059,178.059,0,0,0,56.8-16.626l1.012,2.313S475.783,419.606,429,423.237Z" transform="translate(961.19 1130.396)" fill="#0389ff" opacity="0.3"/>
    <path id="Path_407" data-name="Path 407" d="M442.13,457.636a178.055,178.055,0,0,0,56.8-16.626l1.012,2.313s-11.009,13.865-57.808,17.5Z" transform="translate(951.521 1102.719)" fill="#0389ff" opacity="0.3"/>
    <path id="Path_408" data-name="Path 408" d="M454.23,498.356a178.055,178.055,0,0,0,56.8-16.626l1.012,2.313s-11.011,13.865-57.808,17.493Z" transform="translate(942.608 1072.728)" fill="#0389ff" opacity="0.1"/>
    <rect id="Rectangle_359" data-name="Rectangle 359" width="7.944" height="7.944" transform="translate(1445.326 1506.895) rotate(-18.8)" fill="#0389ff" opacity="0.3"/>
    <rect id="Rectangle_360" data-name="Rectangle 360" width="7.944" height="7.944" transform="translate(1449.605 1518.082) rotate(-18.8)" fill="#0389ff" opacity="0.3"/>
    <rect id="Rectangle_361" data-name="Rectangle 361" width="7.944" height="7.944" transform="translate(1456.464 1539.611) rotate(-18.8)" fill="#0389ff" opacity="0.3"/>
    <rect id="Rectangle_362" data-name="Rectangle 362" width="7.944" height="7.944" transform="translate(1460.398 1551.164) rotate(-18.8)" fill="#0389ff" opacity="0.3"/>
    <rect id="Rectangle_363" data-name="Rectangle 363" width="7.944" height="7.944" transform="translate(1453.094 1529.705) rotate(-18.8)" fill="#0389ff" opacity="0.3"/>
    <path id="Path_419" data-name="Path 419" d="M955.5,576.89" transform="translate(573.42 1002.642)" fill="none"/>
    <path id="Path_443" data-name="Path 443" d="M646.98,291.913l-3.554-1.734a.429.429,0,0,1-.2-.574l.377-.775a.427.427,0,0,1,.574-.2l2.4,1.167,2.5-5.128a.432.432,0,0,1,.574-.2l.775.379a.427.427,0,0,1,.2.574l-3.067,6.29a.429.429,0,0,1-.574.2Z" transform="translate(803.442 1218.041)" fill="#65617d"/>
    <path id="Path_444" data-name="Path 444" d="M676.45,376.068l-3.555-1.734a.429.429,0,0,1-.2-.574l.377-.775a.432.432,0,0,1,.577-.2l2.393,1.167,2.5-5.133a.432.432,0,0,1,.574-.2l.772.379a.429.429,0,0,1,.2.574l-3.067,6.29a.435.435,0,0,1-.577.2Z" transform="translate(781.737 1156.063)" fill="#65617d"/>
    <path id="Path_445" data-name="Path 445" d="M663.217,334.574l-3.555-1.734a.432.432,0,0,1-.2-.574l.379-.775a.427.427,0,0,1,.574-.2l2.4,1.167,2.5-5.135a.429.429,0,0,1,.574-.2l.775.377a.435.435,0,0,1,.2.577l-3.07,6.295a.429.429,0,0,1-.574.2Z" transform="translate(791.484 1186.625)" fill="#65617d"/>
    <path id="Path_446" data-name="Path 446" d="M689.25,414.083l-3.555-1.734a.429.429,0,0,1-.2-.574l.377-.775a.429.429,0,0,1,.574-.2l2.4,1.167,2.5-5.128a.435.435,0,0,1,.577-.2l.772.379a.427.427,0,0,1,.2.574l-3.064,6.29A.435.435,0,0,1,689.25,414.083Z" transform="translate(772.311 1128.063)" fill="#65617d"/>
    <path id="Path_447" data-name="Path 447" d="M183.454,693.36s1.568,2.05-.722,5.143-4.182,5.707-3.425,7.641c0,0,3.457-5.747,6.268-5.826S186.548,696.817,183.454,693.36Z" transform="translate(1145.216 916.86)" fill="#3acc6c"/>
    <path id="Path_448" data-name="Path 448" d="M183.721,693.36a2.524,2.524,0,0,1,.321.643c2.743,3.225,4.216,6.234,1.568,6.324-2.458.069-5.407,4.464-6.11,5.573a2.019,2.019,0,0,0,.082.263s3.457-5.747,6.268-5.826S186.815,696.817,183.721,693.36Z" transform="translate(1144.949 916.86)" opacity="0.1"/>
    <path id="Path_449" data-name="Path 449" d="M205.571,701.978c0,.719-.082,1.318-.182,1.318s-.179-.585-.179-1.318.1-.382.2-.382S205.571,701.256,205.571,701.978Z" transform="translate(1126.014 910.856)" fill="#ffd037"/>
    <path id="Path_450" data-name="Path 450" d="M206.914,705.13c-.632.345-1.186.556-1.233.466s.427-.437,1.054-.79.382-.095.429,0S207.549,704.785,206.914,705.13Z" transform="translate(1125.67 908.563)" fill="#ffd037"/>
    <path id="Path_451" data-name="Path 451" d="M154.291,693.36s-1.565,2.05.725,5.143,4.179,5.707,3.425,7.641c0,0-3.454-5.747-6.268-5.826S151.2,696.817,154.291,693.36Z" transform="translate(1166.1 916.86)" fill="#3acc6c"/>
    <path id="Path_452" data-name="Path 452" d="M154.253,693.36a2.581,2.581,0,0,0-.319.643c-2.746,3.225-4.216,6.234-1.568,6.324,2.456.069,5.4,4.464,6.11,5.573a2.034,2.034,0,0,1-.084.263s-3.454-5.77-6.274-5.849S151.16,696.817,154.253,693.36Z" transform="translate(1166.139 916.86)" opacity="0.1"/>
    <path id="Path_453" data-name="Path 453" d="M153.05,701.978c0,.719.079,1.318.179,1.318s.182-.585.182-1.318-.1-.382-.2-.382S153.05,701.256,153.05,701.978Z" transform="translate(1164.43 910.856)" fill="#ffd037"/>
    <path id="Path_454" data-name="Path 454" d="M148.182,705.13c.635.345,1.186.556,1.233.466s-.427-.437-1.054-.79-.385-.095-.432,0S147.549,704.785,148.182,705.13Z" transform="translate(1168.297 908.563)" fill="#ffd037"/>
    <ellipse id="Ellipse_81" data-name="Ellipse 81" cx="16.387" cy="2.514" rx="16.387" ry="2.514" transform="translate(1308.146 1633.65)" fill="#0389ff" opacity="0.1"/>
    <path id="Path_455" data-name="Path 455" d="M164.645,728.7l-.079.64-.108.9-.047.377-.108.9-.05.377-.108.9-1.254,10.276c-.113.917-1.613,1.634-3.425,1.634h-6.511c-1.81,0-3.307-.717-3.425-1.634L148.274,732.8l-.111-.9-.045-.377-.113-.9-.045-.377-.111-.9-.079-.64c-.061-.527.748-.959,1.773-.959h13.33C163.9,727.74,164.711,728.18,164.645,728.7Z" transform="translate(1168.32 891.539)" fill="#65617d"/>
    <path id="Path_456" data-name="Path 456" d="M142.521,682.05l-.111.9H125.918l-.108-.9Z" transform="translate(1190.368 938.829)" fill="#9d9cb5"/>
    <path id="Path_457" data-name="Path 457" d="M142.8,686.91l-.111.9H126.511l-.111-.9Z" transform="translate(1189.934 935.249)" fill="#9d9cb5"/>
    <path id="Path_458" data-name="Path 458" d="M143.076,691.77l-.111.9H127.1l-.111-.9Z" transform="translate(1189.499 931.67)" fill="#9d9cb5"/>
  </g>
</svg>
