<svg xmlns="http://www.w3.org/2000/svg" width="20.195" height="21.768" viewBox="0 0 20.195 21.768">
  <g id="Group_53" data-name="Group 53" transform="translate(-846.84 -364.546)">
    <path id="Path_66" data-name="Path 66" d="M872.134,371.621a3.951,3.951,0,0,0,2.5.89,4.063,4.063,0,0,0,.421-.022,3.982,3.982,0,1,0-4.374-3.548,4.015,4.015,0,0,0,.19.861l-2.327,1.267a.686.686,0,1,0,.656,1.2l2.327-1.267A4,4,0,0,0,872.134,371.621Zm2.238-5.69a2.61,2.61,0,0,1,2.868,2.326h0a2.612,2.612,0,0,1-4.889,1.522v0l0-.006a2.614,2.614,0,0,1,2.026-3.84Z" transform="translate(-11.591)" fill="#0389ff"/>
    <path id="Path_67" data-name="Path 67" d="M876.568,394.745a3.982,3.982,0,1,0,3.983,3.983A3.987,3.987,0,0,0,876.568,394.745Zm0,6.594a2.611,2.611,0,1,1,2.611-2.611A2.614,2.614,0,0,1,876.568,401.339Z" transform="translate(-13.979 -16.397)" fill="#0389ff"/>
    <path id="Path_68" data-name="Path 68" d="M857.2,387.194l-2.695-1.71a4.012,4.012,0,0,0,.281-1.119,3.982,3.982,0,1,0-4.366,3.557,3.9,3.9,0,0,0,.411.021,3.954,3.954,0,0,0,2.509-.9,4.058,4.058,0,0,0,.426-.409l2.7,1.713a.686.686,0,1,0,.735-1.158Zm-6.64-.635a2.611,2.611,0,1,1,2.862-2.333A2.614,2.614,0,0,1,850.558,386.558Z" transform="translate(0 -8.379)" fill="#0389ff"/>
  </g>
</svg>
