<svg xmlns="http://www.w3.org/2000/svg" width="19.594" height="24.512" viewBox="0 0 19.594 24.512">
  <g id="Group_806" data-name="Group 806" transform="translate(0.001)">
    <path id="Path_25" data-name="Path 25" d="M642.794,241.407a6.223,6.223,0,1,0-6.224-6.223A6.23,6.23,0,0,0,642.794,241.407Zm0-11.05a4.826,4.826,0,1,1-4.826,4.826A4.832,4.832,0,0,1,642.794,230.357Z" transform="translate(-632.997 -228.96)" fill="#585858"/>
    <path id="Path_26" data-name="Path 26" d="M644.051,261.574H633.337a4.446,4.446,0,0,0-4.44,4.44v.444a4.446,4.446,0,0,0,4.44,4.44h10.713a4.446,4.446,0,0,0,4.44-4.44v-.444A4.446,4.446,0,0,0,644.051,261.574Zm3.043,4.884a3.047,3.047,0,0,1-3.043,3.043H633.337a3.047,3.047,0,0,1-3.043-3.043v-.444a3.047,3.047,0,0,1,3.043-3.043h10.713a3.047,3.047,0,0,1,3.043,3.043Z" transform="translate(-628.897 -246.386)" fill="#585858"/>
  </g>
</svg>
