<?xml version="1.0" encoding="utf-8"?>
<!-- Generator: Adobe Illustrator 23.0.3, SVG Export Plug-In . SVG Version: 6.00 Build 0)  -->
<svg version="1.1" id="Layer_1" xmlns="http://www.w3.org/2000/svg" xmlns:xlink="http://www.w3.org/1999/xlink" x="0px" y="0px"
	 viewBox="0 0 26.3 17.9" style="enable-background:new 0 0 26.3 17.9;" xml:space="preserve">
<style type="text/css">
	.st0{fill:#585858;}
</style>
<g>
	<path class="st0" d="M10.4,8.9c0,0.1,0,0.2,0,0.2l0,0l1.3-1.1c0.2-0.3,0.5-0.5,0.8-0.7l1.3-1.1c-0.2-0.1-0.5-0.1-0.7-0.1
		C11.6,6.2,10.4,7.4,10.4,8.9z"/>
	<path class="st0" d="M5.5,13.2c-1.6-1-3.1-2.2-4.3-3.7C1,9.2,1,8.7,1.3,8.3c1.4-1.8,3.1-3.2,5.2-4.2C7,3.8,7.6,3.6,8.2,3.4
		C6.6,4.8,5.7,6.8,5.7,8.9c0,1.2,0.3,2.4,0.9,3.5l0.8-0.7C7,10.8,6.8,9.9,6.8,8.9c0-3.5,2.9-6.4,6.4-6.4c1.3,0,2.6,0.4,3.7,1.2
		l1.6-1.4c-1.7-0.6-3.4-0.9-5.1-0.9h-0.4c-2.4,0-4.8,0.6-7,1.7c-2.2,1.1-4,2.6-5.5,4.5c-0.6,0.7-0.6,1.7,0,2.5C1.6,11.7,3,13,4.7,14
		L5.5,13.2z"/>
	<path class="st0" d="M25.8,7.7c-1.2-1.5-2.7-2.9-4.4-3.9l-0.9,0.7c1.7,1,3.2,2.3,4.4,3.8c0.3,0.3,0.3,0.8,0,1.2
		c-1.8,2.3-4.2,4-6.9,5c2.6-2.3,3.2-6.1,1.5-9.1L18.8,6c0.5,0.9,0.7,1.9,0.7,2.9c0,3.5-2.9,6.4-6.4,6.4c-1.4,0-2.7-0.4-3.8-1.3
		l-1.7,1.4c1.7,0.6,3.5,0.9,5.3,1h0.4c2.4,0,4.8-0.6,7-1.7c2.2-1.1,4-2.6,5.5-4.5C26.4,9.4,26.4,8.4,25.8,7.7z"/>
	<path class="st0" d="M13.4,10.6l-1.1,0.9c0.3,0.1,0.6,0.1,0.9,0.1v0c1.5,0,2.7-1.2,2.7-2.7c0-0.1,0-0.3,0-0.4l-1.1,0.9
		C14.5,10,14,10.5,13.4,10.6z"/>
	<path class="st0" d="M23.2,0.4c-0.2-0.2-0.4-0.3-0.7-0.1L2.8,16.9c-0.2,0.2-0.2,0.5,0,0.7c0.2,0.2,0.4,0.3,0.7,0.1L23.2,1
		C23.4,0.9,23.4,0.6,23.2,0.4z"/>
</g>
</svg>
