<svg xmlns="http://www.w3.org/2000/svg" width="26.646" height="28.557" viewBox="0 0 26.646 28.557">
  <g id="Group_33" data-name="Group 33" transform="translate(-741.83 -231.619)">
    <path id="Path_17" data-name="Path 17" d="M766.4,239.434a.806.806,0,0,0-.075-.068l-8.178-6.53a4.287,4.287,0,0,0-5.987,0l-8.177,6.53c-.026.021-.051.043-.076.067a7.046,7.046,0,0,0-2.077,5.013v8.807a6.93,6.93,0,0,0,6.922,6.921h12.8a6.929,6.929,0,0,0,6.921-6.921v-8.807A7.041,7.041,0,0,0,766.4,239.434Zm.266,13.819a5.116,5.116,0,0,1-5.11,5.111h-12.8a5.117,5.117,0,0,1-5.112-5.111v-8.807a5.244,5.244,0,0,1,1.512-3.7l8.174-6.527a.8.8,0,0,0,.075-.068,2.478,2.478,0,0,1,3.5,0,.806.806,0,0,0,.075.068l8.174,6.527a5.244,5.244,0,0,1,1.511,3.7Z" transform="translate(0)" fill="#585858"/>
  </g>
</svg>
