<svg id="house-outline" xmlns="http://www.w3.org/2000/svg" width="30.916" height="29.066" viewBox="0 0 30.916 29.066">
  <g id="Group_485" data-name="Group 485" transform="translate(0 0)">
    <path id="Path_848" data-name="Path 848" d="M105.207,300.251a.877.877,0,0,0-.891.892v12.18H98v-4.973a.88.88,0,0,0-.859-.874H92.57a.9.9,0,0,0-.907.874v4.973h-6.3V301.547a.875.875,0,0,0-1.75,0v12.667a.866.866,0,0,0,.859.861h8.1a.866.866,0,0,0,.859-.861v-4.973h2.819v4.973a.873.873,0,0,0,.891.861h8.068a.866.866,0,0,0,.859-.861V301.143A.871.871,0,0,0,105.207,300.251Z" transform="translate(-79.387 -286.008)" fill="#585858"/>
    <path id="Path_849" data-name="Path 849" d="M30.664,33.238l-7.031-7.061V21.362a.89.89,0,0,0-.907-.888.87.87,0,0,0-.859.888v3.048l-5.8-5.834a.852.852,0,0,0-.6-.277.88.88,0,0,0-.632.277L.271,33.141a.834.834,0,0,0,0,1.23.835.835,0,0,0,1.231,0L15.467,20.439,29.4,34.5a.861.861,0,0,0,.632.228.979.979,0,0,0,.632-.228A.919.919,0,0,0,30.664,33.238Z" transform="translate(0 -18.3)" fill="#585858"/>
  </g>
</svg>
