<?xml version="1.0" encoding="utf-8"?>
<!-- Generator: Adobe Illustrator 23.0.3, SVG Export Plug-In . SVG Version: 6.00 Build 0)  -->
<svg version="1.1" id="Layer_1" xmlns="http://www.w3.org/2000/svg" xmlns:xlink="http://www.w3.org/1999/xlink" x="0px" y="0px"
	 viewBox="0 0 24.7 18.1" style="enable-background:new 0 0 24.7 18.1;" xml:space="preserve">
<style type="text/css">
	.st0{fill:#424242;}
</style>
<g>
	<path class="st0" d="M22.9,0H1.7C0.8,0,0,0.8,0,1.7v14.6c0,1,0.8,1.7,1.7,1.7h21.2c1,0,1.7-0.8,1.7-1.7V1.7C24.6,0.8,23.9,0,22.9,0
		z M23.8,16.3c0,0.5-0.4,0.9-0.9,0.9H1.7c-0.5,0-0.9-0.4-0.9-0.9V1.7c0-0.5,0.4-0.9,0.9-0.9h21.2c0.5,0,0.9,0.4,0.9,0.9V16.3z"/>
	<path class="st0" d="M9.3,11.6l-1.5-0.8v-0.2c0.7-0.4,1.2-1,1.4-1.8c0.4-0.2,0.7-0.6,0.7-1.1V7.4c0-0.4-0.2-0.7-0.5-1
		C9.1,4.9,8,4.1,6.2,4.1c-0.1,0-0.2,0-0.3,0C5.4,4.2,5,4,4.6,3.8C4.4,3.7,4.3,3.6,4.2,3.5C4,3.3,3.7,3.2,3.5,3.4
		C3.4,3.5,3.3,3.7,3.3,3.8c0,0.2,0,0.3,0.1,0.5c0.1,0.4,0.1,0.4,0,0.6c0,0.1-0.1,0.2-0.2,0.3C3.1,5.7,3,6.1,2.9,6.4
		C2.6,6.7,2.5,7,2.5,7.4v0.4c0,0.5,0.3,0.9,0.7,1.1c0.2,0.8,0.7,1.4,1.4,1.8v0.2L3,11.6c-0.6,0.3-0.9,0.9-0.9,1.5v0.5
		c0,0.3,0,1.1,4.1,1.1c4.1,0,4.1-0.8,4.1-1.1v-0.5C10.3,12.5,9.9,11.9,9.3,11.6z M9.5,13.6c-1.1,0.3-2.2,0.5-3.3,0.4
		c-1.1,0.1-2.2,0-3.3-0.4v-0.5c0-0.3,0.2-0.6,0.5-0.8l1.6-0.8c0.2-0.1,0.4-0.4,0.4-0.7v-0.7l-0.2-0.1C4.5,9.8,4,9.2,3.9,8.5L3.8,8.3
		L3.6,8.2C3.4,8.1,3.3,8,3.3,7.8V7.4c0-0.2,0.1-0.3,0.2-0.4l0.2-0.1l0-0.2C3.8,6.4,3.8,6,4,5.7C4,5.5,4.1,5.4,4.1,5.4
		c0.1-0.2,0.2-0.5,0.2-0.8C4.8,4.9,5.4,5,6,4.9c0.1,0,0.1,0,0.2,0c1.5,0,2.3,0.6,2.4,1.8l0,0.2L8.8,7C9,7.1,9,7.2,9,7.4v0.4
		C9,8,8.9,8.1,8.8,8.2L8.5,8.3L8.5,8.5c-0.1,0.7-0.6,1.3-1.2,1.6L7,10.2v0.7c0,0.3,0.2,0.5,0.4,0.6l1.6,0.8c0.3,0.2,0.5,0.5,0.5,0.8
		L9.5,13.6z"/>
	<path class="st0" d="M12.3,6.2h4.1c0.2,0,0.4-0.2,0.4-0.4s-0.2-0.4-0.4-0.4h-4.1c-0.2,0-0.4,0.2-0.4,0.4S12.1,6.2,12.3,6.2z"/>
	<path class="st0" d="M18.1,6.2h0.4c0.2,0,0.4-0.2,0.4-0.4s-0.2-0.4-0.4-0.4h-0.4c-0.2,0-0.4,0.2-0.4,0.4S17.9,6.2,18.1,6.2z"/>
	<path class="st0" d="M12.7,12.3C12.7,12.3,12.7,12.3,12.7,12.3h-0.4c-0.2,0-0.4,0.2-0.4,0.4c0,0.2,0.2,0.4,0.4,0.4c0,0,0,0,0,0h0.4
		c0.2,0,0.4-0.2,0.4-0.4S13,12.3,12.7,12.3z"/>
	<path class="st0" d="M15.2,12.3C15.2,12.3,15.2,12.3,15.2,12.3h-0.8c-0.2,0-0.4,0.2-0.4,0.4c0,0.2,0.2,0.4,0.4,0.4c0,0,0,0,0,0h0.8
		c0.2,0,0.4-0.2,0.4-0.4S15.4,12.3,15.2,12.3z"/>
	<path class="st0" d="M17.3,12.3C17.3,12.3,17.3,12.3,17.3,12.3h-0.4c-0.2,0-0.4,0.2-0.4,0.4c0,0.2,0.2,0.4,0.4,0.4c0,0,0,0,0,0h0.4
		c0.2,0,0.4-0.2,0.4-0.4S17.5,12.3,17.3,12.3z"/>
	<path class="st0" d="M19.7,12.3C19.7,12.3,19.7,12.3,19.7,12.3h-0.8c-0.2,0-0.4,0.2-0.4,0.4c0,0.2,0.2,0.4,0.4,0.4c0,0,0,0,0,0h0.8
		c0.2,0,0.4-0.2,0.4-0.4S19.9,12.3,19.7,12.3z"/>
	<path class="st0" d="M21.1,12.4c-0.2,0.2-0.2,0.4,0,0.6c0.2,0.2,0.4,0.2,0.6,0c0.2-0.2,0.2-0.4,0-0.6
		C21.5,12.3,21.2,12.3,21.1,12.4z"/>
	<path class="st0" d="M12.3,8.6h9c0.2,0,0.4-0.2,0.4-0.4s-0.2-0.4-0.4-0.4h0h-9c-0.2,0-0.4,0.2-0.4,0.4S12.1,8.6,12.3,8.6z"/>
	<path class="st0" d="M21.4,10.3C21.4,10.3,21.4,10.3,21.4,10.3L21.4,10.3h-9c-0.2,0-0.4,0.2-0.4,0.4c0,0.2,0.2,0.4,0.4,0.4
		c0,0,0,0,0,0h9c0.2,0,0.4-0.2,0.4-0.4S21.6,10.3,21.4,10.3z"/>
</g>
</svg>
