<svg xmlns="http://www.w3.org/2000/svg" width="22.383" height="21.815" viewBox="0 0 22.383 21.815">
  <g id="Group_83" data-name="Group 83" transform="translate(-734.879 -793.224)">
    <path id="Path_78" data-name="Path 78" d="M757.026,799.365c-.279-2.121-1.028-3.615-2.227-4.443a10.053,10.053,0,0,0-4.714-1.416l-.31-.038a29.532,29.532,0,0,0-9.448.3,9.791,9.791,0,0,0-2.161.633h0a4.769,4.769,0,0,0-2.077,1.692,8.3,8.3,0,0,0-1.043,4.014c-.1,1.394-.2,3.049-.157,4.751.016.673.035,1.391.085,2.119a12.164,12.164,0,0,0,1.106,4.763,5.262,5.262,0,0,0,4.219,2.76,39.737,39.737,0,0,0,5.575.533h.122a31,31,0,0,0,5.587-.571,6.791,6.791,0,0,0,4.025-1.836c1.139-1.255,1.352-3.1,1.473-4.876A42.791,42.791,0,0,0,757.026,799.365Zm-1.34,8.3c-.1,1.534-.276,3.109-1.114,4.031a5.582,5.582,0,0,1-3.24,1.4,31.016,31.016,0,0,1-5.453.548,38.5,38.5,0,0,1-5.38-.518,3.812,3.812,0,0,1-3.185-2.027,10.944,10.944,0,0,1-.948-4.208c-.047-.7-.066-1.4-.081-2.056-.038-1.645.057-3.259.154-4.62a7.17,7.17,0,0,1,.812-3.34,3.35,3.35,0,0,1,1.484-1.191,8.513,8.513,0,0,1,1.853-.536,28.193,28.193,0,0,1,9.01-.292l.317.039a8.847,8.847,0,0,1,4.088,1.179,4.786,4.786,0,0,1,1.635,3.476A41.611,41.611,0,0,1,755.687,807.661Z" fill="#fff"/>
    <path id="Path_79" data-name="Path 79" d="M750.207,810.209a1.3,1.3,0,1,0-1.3-1.3A1.3,1.3,0,0,0,750.207,810.209Zm0-1.4a.1.1,0,0,1,.1.1c0,.106-.191.106-.191,0A.1.1,0,0,1,750.207,808.811Z" transform="translate(-7.493 -7.683)" fill="#fff"/>
    <path id="Path_80" data-name="Path 80" d="M756.913,819.055l-1,.8a5.913,5.913,0,0,1-7.467-.051l-.9-.747a.7.7,0,0,0-.892,1.076l.9.746a7.316,7.316,0,0,0,9.237.063l1-.8a.7.7,0,0,0-.878-1.087Z" transform="translate(-6.158 -13.717)" fill="#fff"/>
    <path id="Path_81" data-name="Path 81" d="M766.7,807a5.685,5.685,0,0,0-1.745-.242,2.889,2.889,0,0,1,1.232-.748.7.7,0,0,0-.343-1.354,4.079,4.079,0,0,0-2.837,2.837.7.7,0,0,0,.9.832,4.256,4.256,0,0,1,2.353,0A.7.7,0,0,0,766.7,807Z" transform="translate(-15.017 -6.095)" fill="#fff"/>
  </g>
</svg>
