<?xml version="1.0" encoding="utf-8"?>
<!-- Generator: Adobe Illustrator 23.0.3, SVG Export Plug-In . SVG Version: 6.00 Build 0)  -->
<svg version="1.1" id="Layer_1" xmlns="http://www.w3.org/2000/svg" xmlns:xlink="http://www.w3.org/1999/xlink" x="0px" y="0px"
	 viewBox="0 0 22.4 21.8" style="enable-background:new 0 0 22.4 21.8;" xml:space="preserve">
<style type="text/css">
	.st0{fill:#585858;}
</style>
<g id="Group_83" transform="translate(-734.879 -793.224)">
	<path id="Path_78" class="st0" d="M757,799.4c-0.3-2.1-1-3.6-2.2-4.4c-1.4-0.9-3-1.3-4.7-1.4l-0.3,0c-3.1-0.4-6.3-0.3-9.4,0.3
		c-0.7,0.1-1.5,0.3-2.2,0.6l0,0c-0.8,0.4-1.6,0.9-2.1,1.7c-0.7,1.2-1,2.6-1,4c-0.1,1.4-0.2,3-0.2,4.8c0,0.7,0,1.4,0.1,2.1
		c0,1.6,0.4,3.3,1.1,4.8c0.8,1.6,2.4,2.6,4.2,2.8c1.8,0.3,3.7,0.5,5.6,0.5h0.1c1.9,0,3.7-0.2,5.6-0.6c1.5-0.1,2.9-0.8,4-1.8
		c1.1-1.3,1.4-3.1,1.5-4.9C757.3,805,757.3,802.2,757,799.4z M755.7,807.7c-0.1,1.5-0.3,3.1-1.1,4c-0.9,0.8-2,1.3-3.2,1.4
		c-1.8,0.3-3.6,0.5-5.5,0.5c-1.8,0-3.6-0.2-5.4-0.5c-1.3-0.1-2.6-0.8-3.2-2c-0.6-1.3-0.9-2.8-0.9-4.2c0-0.7-0.1-1.4-0.1-2.1
		c0-1.6,0.1-3.3,0.2-4.6c0-1.2,0.3-2.3,0.8-3.3c0.4-0.5,0.9-0.9,1.5-1.2c0.6-0.2,1.2-0.4,1.9-0.5c3-0.6,6-0.7,9-0.3l0.3,0
		c1.4,0.1,2.8,0.5,4.1,1.2c1,0.9,1.6,2.1,1.6,3.5C755.9,802.2,755.9,805,755.7,807.7L755.7,807.7z"/>
	<path id="Path_79" class="st0" d="M742.7,802.5c0.7,0,1.3-0.6,1.3-1.3c0-0.7-0.6-1.3-1.3-1.3c-0.7,0-1.3,0.6-1.3,1.3l0,0
		C741.4,801.9,742,802.5,742.7,802.5z M742.7,801.1C742.8,801.1,742.8,801.2,742.7,801.1C742.8,801.3,742.6,801.3,742.7,801.1
		C742.6,801.2,742.7,801.1,742.7,801.1L742.7,801.1z"/>
	<path id="Path_80" class="st0" d="M750.8,805.3l-1,0.8c-2.2,1.8-5.3,1.7-7.5-0.1l-0.9-0.7c-0.3-0.2-0.7-0.2-1,0.1
		c-0.2,0.3-0.2,0.7,0.1,0.9l0.9,0.7c2.7,2.2,6.5,2.2,9.2,0.1l1-0.8c0.3-0.3,0.3-0.7,0-1C751.4,805.2,751,805.1,750.8,805.3
		L750.8,805.3z"/>
	<path id="Path_81" class="st0" d="M751.7,800.9c-0.6-0.2-1.2-0.3-1.7-0.2c0.3-0.3,0.8-0.6,1.2-0.7c0.4-0.1,0.6-0.5,0.4-0.9
		c-0.1-0.3-0.4-0.5-0.8-0.5c-1.4,0.4-2.5,1.5-2.8,2.8c-0.1,0.4,0.1,0.8,0.5,0.8c0.1,0,0.3,0,0.4,0c0.8-0.2,1.6-0.2,2.4,0
		c0.4,0.1,0.8-0.1,0.8-0.5C752.2,801.4,752,801,751.7,800.9z"/>
</g>
</svg>
