<?xml version="1.0" encoding="utf-8"?>
<!-- Generator: Adobe Illustrator 23.0.3, SVG Export Plug-In . SVG Version: 6.00 Build 0)  -->
<svg version="1.1" id="Layer_1" xmlns="http://www.w3.org/2000/svg" xmlns:xlink="http://www.w3.org/1999/xlink" x="0px" y="0px"
	 viewBox="0 0 19.8 25.1" style="enable-background:new 0 0 19.8 25.1;" xml:space="preserve">
<style type="text/css">
	.st0{fill:#585858;}
</style>
<g>
	<path class="st0" d="M18.8,0H0.9C0.4,0,0,0.4,0,0.9v23.3c0,0.5,0.4,0.9,0.9,0.9c0.2,0,0.4-0.1,0.6-0.2l2.1-2c0.1-0.1,0.3-0.1,0.4,0
		l1.4,1.2c0.8,0.7,2,0.7,2.8,0l1.4-1.2c0.1-0.1,0.3-0.1,0.4,0l1.4,1.2c0.8,0.7,2,0.7,2.8,0l1.4-1.2c0.1-0.1,0.3-0.1,0.4,0l2.1,2
		c0.4,0.3,0.9,0.3,1.3-0.1c0.2-0.2,0.2-0.4,0.2-0.6V0.9C19.8,0.4,19.4,0,18.8,0z M17.9,1.8v20.3l-0.6-0.5c-0.8-0.8-2-0.8-2.9,0
		l-1.4,1.2c-0.1,0.1-0.3,0.1-0.4,0l-1.4-1.2c-0.4-0.4-0.9-0.6-1.4-0.6s-1,0.2-1.4,0.6l-1.4,1.2c-0.1,0.1-0.3,0.1-0.4,0l-1.4-1.2
		c-0.8-0.7-2.1-0.7-2.9,0l-0.6,0.5V1.8H17.9z"/>
	<path class="st0" d="M5.8,10.1h7.8c0.5,0,0.9-0.4,0.9-0.9s-0.4-0.9-0.9-0.9H5.8c-0.5,0-0.9,0.4-0.9,0.9S5.3,10.1,5.8,10.1z"/>
	<path class="st0" d="M5.8,14.3h7.8c0.5,0,0.9-0.4,0.9-0.9c0-0.5-0.4-0.9-0.9-0.9H5.8c-0.5,0-0.9,0.4-0.9,0.9
		C4.9,13.9,5.3,14.3,5.8,14.3z"/>
</g>
</svg>
