<?xml version="1.0" encoding="utf-8"?>
<!-- Generator: Adobe Illustrator 23.0.3, SVG Export Plug-In . SVG Version: 6.00 Build 0)  -->
<svg version="1.1" id="Layer_1" xmlns="http://www.w3.org/2000/svg" xmlns:xlink="http://www.w3.org/1999/xlink" x="0px" y="0px"
	 viewBox="0 0 39.4 45.2" style="enable-background:new 0 0 39.4 45.2;" xml:space="preserve">
<style type="text/css">
	.st0{fill:#585858;}
</style>
<g id="Group_56" transform="translate(-624.52 -490.908)">
	<path id="Path_78" class="st0" d="M655.6,490.9h-22.8c-4.6,0-8.3,3.7-8.3,8.3v28.5c0,4.6,3.7,8.3,8.3,8.3h14.4
		c3.3,0,6.5-1.4,8.7-3.9l5.1-5.7c1.9-2.1,2.9-4.9,2.9-7.7v-19.5C663.9,494.6,660.2,490.9,655.6,490.9z M632.8,533.3
		c-3.1,0-5.5-2.5-5.5-5.5v-28.5c0-3.1,2.5-5.5,5.5-5.5h22.8c3.1,0,5.5,2.5,5.5,5.5v19.5c0,0.4,0,0.9-0.1,1.3c-0.1,0-0.3-0.1-0.4-0.1
		h-7.8c-2.2,0-4,1.8-4,4l-0.2,9.3c-0.4,0.1-0.9,0.1-1.3,0.1L632.8,533.3z M653.8,530.3c-0.7,0.8-1.6,1.5-2.5,2l0.2-8.3
		c0-0.7,0.6-1.2,1.3-1.2h7.4c-0.3,0.7-0.8,1.3-1.3,1.9L653.8,530.3z"/>
	<path id="Path_79" class="st0" d="M635.6,507.2h17.2c0.8,0,1.4-0.6,1.4-1.4c0-0.8-0.6-1.4-1.4-1.4c0,0,0,0,0,0h-17.2
		c-0.8,0-1.4,0.6-1.4,1.4C634.2,506.6,634.8,507.2,635.6,507.2C635.6,507.2,635.6,507.2,635.6,507.2z"/>
	<path id="Path_80" class="st0" d="M635.6,513.2h17.2c0.8,0,1.4-0.6,1.4-1.4s-0.6-1.4-1.4-1.4h-17.2c-0.8,0-1.4,0.6-1.4,1.4
		S634.8,513.2,635.6,513.2z"/>
	<path id="Path_81" class="st0" d="M642.9,516.5h-7.3c-0.8,0-1.4,0.6-1.4,1.4s0.6,1.4,1.4,1.4h7.3c0.8,0,1.4-0.6,1.4-1.4
		S643.6,516.5,642.9,516.5L642.9,516.5z"/>
</g>
</svg>
