<svg xmlns="http://www.w3.org/2000/svg" width="223.523" height="100.552" viewBox="0 0 223.523 100.552">
  <g id="Group_1391" data-name="Group 1391" transform="translate(689.681 -962.621)">
    <g id="Group_1228" data-name="Group 1228" transform="translate(-539.932 962.621)">
      <g id="Group_1227" data-name="Group 1227" transform="translate(0)">
        <path id="Path_1589" data-name="Path 1589" d="M-391.674,1007.566c-.013-.438-.022-.878-.022-1.32,0-20.541,14.079-37.192,31.448-37.192s31.447,16.651,31.447,37.192c0,.389-.007.776-.017,1.161,1.771,2.032,3.435,4.041,4.965,5.973a51.76,51.76,0,0,0,.491-7.134c0-24.093-16.515-43.625-36.887-43.625s-36.887,19.532-36.887,43.625a51.713,51.713,0,0,0,.516,7.309C-395.091,1011.621-393.434,1009.606-391.674,1007.566Z" transform="translate(397.136 -962.621)" fill="#0389ff"/>
      </g>
    </g>
    <g id="Group_1229" data-name="Group 1229" transform="translate(-513.371 1005.714)">
      <rect id="Rectangle_1218" data-name="Rectangle 1218" width="8.52" height="8.52" transform="translate(12.123 16.122)" fill="#0389ff"/>
      <rect id="Rectangle_1219" data-name="Rectangle 1219" width="8.52" height="8.52" transform="translate(0 16.122)" fill="#0389ff"/>
      <path id="Path_1590" data-name="Path 1590" d="M-318.925,1062.553h8.52v-2.828a10.132,10.132,0,0,0-8.52-9.979Z" transform="translate(331.048 -1049.746)" fill="#0389ff" fill-rule="evenodd"/>
      <path id="Path_1591" data-name="Path 1591" d="M-334.915,1049.746a10.132,10.132,0,0,0-8.52,9.979v2.828h8.52Z" transform="translate(343.435 -1049.746)" fill="#0389ff" fill-rule="evenodd"/>
    </g>
    <path id="Path_1592" data-name="Path 1592" d="M-323.361,1033.057c-9.256-11.741-23.5-26.484-36.558-31.412-13.043,4.929-27.011,19.671-36.267,31.412,0,0,8.768,31.957,34.7,48.833l1.708,1,1.708-1C-330.9,1063.931-323.361,1033.057-323.361,1033.057Zm-36.413,40.586c-17.543-12.659-25.676-27.928-29.364-40.586,0,0,20.291-21.439,29.218-24.976,8.939,3.537,29.51,24.976,29.51,24.976C-334.1,1045.716-342.23,1060.984-359.774,1073.644Z" transform="translate(-143.276 -19.722)" fill="#0389ff"/>
    <g id="Group_1230" data-name="Group 1230" transform="translate(-689.681 1005.086)">
      <path id="Path_1593" data-name="Path 1593" d="M-660.833,1048.477h.9q6.038,0,9.367,6.659a17.082,17.082,0,0,1,.678,3.725,10.981,10.981,0,0,1-1.129,4.627h6.659c.151.019.226.095.226.226v5.417a.2.2,0,0,1-.226.226h-26.974q-2.4,0-2.709,3.386v6.546a.2.2,0,0,1-.226.226h-2.6q-2.822-.311-2.822-2.822V1070.6q0-4.543,5.53-6.885a17.565,17.565,0,0,1,2.709-.226h1.693v-.113a9.232,9.232,0,0,1-1.016-4.176v-.451q0-6.49,6.772-9.706A10.608,10.608,0,0,1-660.833,1048.477Zm-4.176,10.5q0,3.3,3.725,4.515.9,0,.9.113,3.922,0,4.741-4.74,0-3.02-3.273-4.4a1.884,1.884,0,0,0-.9-.226h-1.016q-2.935,0-4.176,3.95Z" transform="translate(679.681 -1048.477)" fill="#0389ff"/>
      <path id="Path_1594" data-name="Path 1594" d="M-616.239,1075.958h37.809q2.6.566,2.6,2.6v2.934a.2.2,0,0,1-.226.226h-40.179a.2.2,0,0,1-.226-.226v-5.3Q-616.438,1075.958-616.239,1075.958Z" transform="translate(651.255 -1060.834)" fill="#0389ff"/>
      <path id="Path_1595" data-name="Path 1595" d="M-532.049,1048.657h.677q5.841,0,9.142,6.207a11.53,11.53,0,0,1,.9,4.4v4.853h3.555c.15.019.226.095.226.226v5.418a.2.2,0,0,1-.226.226h-4.345q-.565,2.793-3.95,6.546a13.057,13.057,0,0,1-8.578,3.612H-543.9a.2.2,0,0,1-.226-.226v-3.047q.423-2.6,3.273-2.6h3.386q6.18,0,9.142-4.176v-.113h-2.258q-8.917,0-11.173-8.69l-.226-2.031q0-6.688,6.772-10.045A10.788,10.788,0,0,1-532.049,1048.657Zm-4.176,10.722a4.5,4.5,0,0,0,3.16,4.4,1.887,1.887,0,0,0,.9.226h1.016q2.68,0,4.063-3.725,0-.931.113-1.015-.791-4.741-4.515-4.741h-.338q-3.385,0-4.4,4.176Z" transform="translate(618.727 -1048.558)" fill="#0389ff"/>
      <path id="Path_1596" data-name="Path 1596" d="M-480.208,1049.683h.9q5.614,0,8.916,5.869a8.673,8.673,0,0,1,1.016,4.063v.9q0,5.474-5.756,8.916a9.977,9.977,0,0,1-4.176,1.016h-17.324a.2.2,0,0,1-.226-.225v-5.3q.027-.225.226-.226h7.5a10.821,10.821,0,0,1-1.128-4.74q0-5.953,6.094-9.368A9.7,9.7,0,0,1-480.208,1049.683Zm-4.289,10.383a4.685,4.685,0,0,0,2.257,3.95,4.337,4.337,0,0,0,1.919.677h.79q3.216,0,4.4-3.838v-1.015q0-3.217-3.837-4.4h-1.354q-2.257,0-3.838,2.935Z" transform="translate(597.471 -1049.019)" fill="#0389ff"/>
    </g>
  </g>
</svg>
