<?xml version="1.0" encoding="utf-8"?>
<!-- Generator: Adobe Illustrator 23.0.3, SVG Export Plug-In . SVG Version: 6.00 Build 0)  -->
<svg version="1.1" id="Layer_1" xmlns="http://www.w3.org/2000/svg" xmlns:xlink="http://www.w3.org/1999/xlink" x="0px" y="0px"
	 viewBox="0 0 28.6 20.9" style="enable-background:new 0 0 28.6 20.9;" xml:space="preserve">
<style type="text/css">
	.st0{fill:#585858;}
</style>
<path class="st0" d="M25.3,0H3.2C1.4,0,0,1.5,0,3.2v14.4c0,1.8,1.4,3.2,3.2,3.2h22.1c1.8,0,3.2-1.4,3.2-3.2V3.2
	C28.6,1.5,27.1,0,25.3,0z M13.1,12.1L1.8,3.3V3.2c0-0.8,0.7-1.5,1.5-1.5h22.1c0.8,0,1.5,0.7,1.5,1.5v0.1l-11.1,8.7
	C14.9,12.7,13.9,12.7,13.1,12.1z M9.6,11.6l2.5,1.9c1.4,1.1,3.3,1.1,4.7,0l2.4-1.9l7.3,7c-0.3,0.3-0.7,0.5-1.1,0.5c0,0,0,0,0,0H3.2
	c-0.4,0-0.8-0.2-1.1-0.5L9.6,11.6z M8.2,10.5l-6.4,6V5.6L8.2,10.5z M26.8,5.6v10.9l-6.2-6L26.8,5.6z"/>
</svg>
