<?xml version="1.0" encoding="utf-8"?>
<!-- Generator: Adobe Illustrator 23.0.3, SVG Export Plug-In . SVG Version: 6.00 Build 0)  -->
<svg version="1.1" id="Layer_1" xmlns="http://www.w3.org/2000/svg" xmlns:xlink="http://www.w3.org/1999/xlink" x="0px" y="0px"
	 viewBox="0 0 17.6 17.6" style="enable-background:new 0 0 17.6 17.6;" xml:space="preserve">
<style type="text/css">
	.st0{fill:#585858;}
</style>
<g id="move" transform="translate(0 -0.175)">
	<g id="Group_1158" transform="translate(0 0.175)">
		<path id="Path_1560" class="st0" d="M16.1,8.3h-5.9c-0.2,0-0.4,0.2-0.5,0.4c0,0.2,0.2,0.4,0.4,0.5c0,0,0,0,0,0h5.9l-1.5,1.5
			c-0.2,0.2-0.2,0.5,0,0.6c0.2,0.2,0.5,0.2,0.6,0l2.3-2.3c0.2-0.2,0.2-0.4,0-0.6c0,0,0,0,0,0l-2.3-2.3c-0.2-0.2-0.5-0.2-0.6,0
			c-0.2,0.2-0.2,0.4,0,0.6L16.1,8.3z"/>
		<path id="Path_1561" class="st0" d="M2.4,11.4c0.2,0.2,0.5,0.2,0.6,0c0.2-0.2,0.2-0.5,0-0.6L1.5,9.2h5.9c0.2,0,0.4-0.2,0.5-0.4
			c0-0.2-0.2-0.4-0.4-0.5c0,0,0,0,0,0H1.5L3,6.8c0.2-0.2,0.2-0.5,0-0.6c-0.2-0.2-0.4-0.2-0.6,0L0.1,8.5C0,8.6,0,8.9,0.1,9.1
			c0,0,0,0,0,0L2.4,11.4z"/>
		<path id="Path_1562" class="st0" d="M6.9,3l1.5-1.5v5.9c0,0.2,0.2,0.4,0.4,0.4c0.2,0,0.4-0.2,0.4-0.4V1.5L10.7,3
			c0.2,0.2,0.5,0.2,0.6,0s0.2-0.5,0-0.6L9.1,0.1C8.9,0,8.7,0,8.5,0.1L6.2,2.4C6.1,2.5,6.1,2.8,6.2,3c0,0,0,0,0,0
			C6.4,3.2,6.7,3.2,6.9,3C6.8,3,6.9,3,6.9,3z"/>
		<path id="Path_1563" class="st0" d="M8.8,9.7c-0.2,0-0.4,0.2-0.4,0.4v5.9l-1.5-1.5c-0.2-0.2-0.4-0.2-0.6,0c-0.2,0.2-0.2,0.4,0,0.6
			c0,0,0,0,0,0l2.3,2.3c0.1,0.1,0.2,0.1,0.3,0.1c0.1,0,0.2,0,0.3-0.1l2.3-2.3c0.2-0.2,0.2-0.4,0-0.6c-0.2-0.2-0.4-0.2-0.6,0
			c0,0,0,0,0,0l-1.5,1.5v-5.9C9.2,9.9,9,9.7,8.8,9.7z"/>
	</g>
</g>
</svg>
