<?xml version="1.0" encoding="utf-8"?>
<!-- Generator: Adobe Illustrator 23.0.3, SVG Export Plug-In . SVG Version: 6.00 Build 0)  -->
<svg version="1.1" id="Layer_1" xmlns="http://www.w3.org/2000/svg" xmlns:xlink="http://www.w3.org/1999/xlink" x="0px" y="0px"
	 viewBox="0 0 19.2 23.3" style="enable-background:new 0 0 19.2 23.3;" xml:space="preserve">
<style type="text/css">
	.st0{fill:#585858;}
</style>
<g>
	<path class="st0" d="M17.7,15.1v-3.7c0-0.4-0.3-0.7-0.7-0.7c-0.4,0-0.7,0.3-0.7,0.7v3.7c0,1,0.4,2,1.2,2.6c0.2,0.2,0.3,0.4,0.3,0.7
		c0,0.3-0.1,0.5-0.3,0.7c-0.2,0.2-0.5,0.3-0.7,0.3H2.3c-0.3,0-0.5-0.1-0.7-0.3s-0.3-0.4-0.3-0.7c0-0.3,0.1-0.6,0.3-0.7
		c0.7-0.7,1.2-1.6,1.2-2.6v-4.4c0-1.8,0.7-3.5,2-4.8c1.3-1.3,3-2,4.8-2c0,0,0,0,0,0c0.9,0,1.9,0.2,2.8,0.6C12,5.2,11.8,6.1,12,7
		c0.2,0.9,0.8,1.8,1.6,2.3c0.8,0.5,1.8,0.7,2.8,0.5c1-0.2,1.8-0.8,2.3-1.6c0.5-0.8,0.7-1.8,0.5-2.8s-0.8-1.8-1.6-2.3
		c-1.3-0.8-3.1-0.7-4.3,0.3c-0.6-0.3-1.2-0.5-1.9-0.7c0.4-0.9,0.1-1.9-0.7-2.4C10.2,0,9.7-0.1,9.2,0C8.7,0.2,8.3,0.5,8,0.9
		C7.6,1.4,7.6,2.1,7.9,2.7c-3.7,0.8-6.4,4.1-6.4,7.9v4.4c0,0.6-0.3,1.2-0.7,1.6c-1,0.9-1,2.4-0.1,3.3c0.4,0.5,1.1,0.8,1.7,0.8h4.2
		c0.3,1.5,1.6,2.5,3.1,2.5c0.2,0,0.3,0,0.5,0c1.3-0.2,2.3-1.2,2.6-2.5h4.2c1.3,0,2.3-1.1,2.3-2.3c0-0.7-0.3-1.3-0.8-1.7
		C18,16.3,17.7,15.7,17.7,15.1z M11.3,20.8c-0.3,0.7-0.9,1.2-1.7,1.2c-0.8,0-1.5-0.5-1.7-1.2H11.3z M9,1.9c0-0.3,0.3-0.6,0.6-0.6
		c0.3,0,0.6,0.3,0.6,0.6c0,0.3-0.3,0.6-0.6,0.6S9,2.3,9,1.9z M15.5,3.9L15.5,3.9c1.3,0,2.4,1,2.4,2.3s-1,2.3-2.3,2.3
		c-1.3,0-2.3-1-2.3-2.3C13.3,4.9,14.3,3.9,15.5,3.9z"/>
	<path class="st0" d="M14.9,6.3v0.7c0,0.4,0.3,0.7,0.7,0.7s0.7-0.3,0.7-0.7V5.1c0-0.3-0.2-0.5-0.4-0.6s-0.5,0-0.7,0.1l-0.5,0.5
		c-0.3,0.3-0.3,0.7,0,0.9C14.7,6.2,14.8,6.2,14.9,6.3z"/>
</g>
</svg>
