<?xml version="1.0" encoding="utf-8"?>
<!-- Generator: Adobe Illustrator 23.0.3, SVG Export Plug-In . SVG Version: 6.00 Build 0)  -->
<svg version="1.1" id="Layer_1" xmlns="http://www.w3.org/2000/svg" xmlns:xlink="http://www.w3.org/1999/xlink" x="0px" y="0px"
	 viewBox="0 0 16.2 22.7" style="enable-background:new 0 0 16.2 22.7;" xml:space="preserve">
<style type="text/css">
	.st0{fill:#585858;}
</style>
<g>
	<path class="st0" d="M13.8,8.9c-0.1-0.1-0.3-0.3-0.4-0.4V5.5c0-3-2.4-5.4-5.4-5.4S2.6,2.5,2.6,5.5v3.2C2.5,8.7,2.5,8.8,2.4,8.9
		c-3.2,3.2-3.2,8.3,0,11.4c1.6,1.6,3.6,2.4,5.7,2.4c2.1,0,4.1-0.8,5.7-2.4C17,17.2,17,12.1,13.8,8.9z M13,19.5L13,19.5
		c-1.3,1.3-3,2-4.9,2c0,0,0,0,0,0c-1.8,0-3.6-0.7-4.9-2c-1.3-1.3-2-3-2-4.9c0-1.8,0.7-3.6,2-4.9c1.3-1.3,3-2,4.9-2c0,0,0,0,0,0
		c1.8,0,3.6,0.7,4.9,2c1.3,1.3,2,3.1,2,4.9C15,16.5,14.2,18.2,13,19.5z M3.9,7.7V5.5c0-2.3,1.9-4.2,4.2-4.2c2.3,0,4.2,1.9,4.2,4.2
		v2.2C9.6,6.1,6.4,6.2,3.9,7.7z"/>
	<path class="st0" d="M8.1,13.4c-1,0-1.7,0.8-1.7,1.7c0,0.7,0.4,1.4,1.1,1.6v1.2c0,0.3,0.3,0.6,0.6,0.6s0.6-0.3,0.6-0.6v-1.2
		c0.8-0.3,1.3-1.2,1-2.1C9.5,13.8,8.8,13.4,8.1,13.4z M8.6,15.1c0,0.3-0.2,0.5-0.5,0.5c-0.3,0-0.5-0.2-0.5-0.5s0.2-0.5,0.5-0.5
		C8.4,14.6,8.6,14.8,8.6,15.1z"/>
</g>
</svg>
