<svg xmlns="http://www.w3.org/2000/svg" width="16.814" height="26.378" viewBox="0 0 16.814 26.378">
  <g id="Group_65" data-name="Group 65" transform="translate(-640.944 -405.743)">
    <path id="Path_15" data-name="Path 15" d="M653.649,405.743h-8.6a4.115,4.115,0,0,0-4.11,4.11v18.158a4.115,4.115,0,0,0,4.11,4.11h8.6a4.115,4.115,0,0,0,4.109-4.11V409.853A4.115,4.115,0,0,0,653.649,405.743Zm2.307,22.268a2.31,2.31,0,0,1-2.307,2.307h-8.6a2.31,2.31,0,0,1-2.307-2.307V409.853a2.31,2.31,0,0,1,2.307-2.307h8.6a2.31,2.31,0,0,1,2.307,2.307Z" fill="#fff"/>
    <path id="Path_16" data-name="Path 16" d="M655.41,438.625h-6.4a.9.9,0,1,0,0,1.8h6.4a.9.9,0,1,0,0-1.8Z" transform="translate(-2.859 -13.121)" fill="#fff"/>
  </g>
</svg>
