<svg xmlns="http://www.w3.org/2000/svg" width="16.243" height="18.852" viewBox="0 0 16.243 18.852">
  <g id="Group_29" data-name="Group 29" transform="translate(-287.309 -230.247)">
    <path id="Path_8" data-name="Path 8" d="M303.539,237.921a8.175,8.175,0,0,0-7.781-7.667,8.124,8.124,0,0,0-7.372,12.159c.955,1.66,3.89,4.523,5.554,6.082a2.233,2.233,0,0,0,3.053,0c1.789-1.684,4.924-4.8,5.815-6.727A8.167,8.167,0,0,0,303.539,237.921Zm-1.758,3.375c-.592,1.283-2.62,3.609-5.563,6.379a1.1,1.1,0,0,1-1.506,0,34.826,34.826,0,0,1-5.347-5.821,6.993,6.993,0,0,1,6.062-10.473c.1,0,.191,0,.287.006a7.035,7.035,0,0,1,6.7,6.6A6.933,6.933,0,0,1,301.781,241.3Z" transform="translate(0 0)" fill="#585858"/>
    <path id="Path_9" data-name="Path 9" d="M305.3,244.307a2.353,2.353,0,1,0,2.353,2.353A2.356,2.356,0,0,0,305.3,244.307Zm0,3.577a1.224,1.224,0,1,1,1.224-1.224A1.225,1.225,0,0,1,305.3,247.884Z" transform="translate(-9.749 -8.764)" fill="#585858"/>
  </g>
</svg>
