<svg id="Group_1360" data-name="Group 1360" xmlns="http://www.w3.org/2000/svg" width="27.115" height="33.92" viewBox="0 0 27.115 33.92">
  <path id="Path_25" data-name="Path 25" d="M645.182,246.184a8.612,8.612,0,1,0-8.613-8.612A8.622,8.622,0,0,0,645.182,246.184Zm0-15.291a6.679,6.679,0,1,1-6.679,6.679A6.687,6.687,0,0,1,645.182,230.893Z" transform="translate(-631.625 -228.96)" fill="#585858"/>
  <path id="Path_26" data-name="Path 26" d="M649.868,261.574H635.042a6.152,6.152,0,0,0-6.145,6.144v.614a6.152,6.152,0,0,0,6.145,6.144h14.826a6.152,6.152,0,0,0,6.144-6.144v-.614A6.152,6.152,0,0,0,649.868,261.574Zm4.211,6.758a4.216,4.216,0,0,1-4.211,4.211H635.042a4.217,4.217,0,0,1-4.212-4.211v-.614a4.217,4.217,0,0,1,4.212-4.211h14.826a4.216,4.216,0,0,1,4.211,4.211Z" transform="translate(-628.897 -240.556)" fill="#585858"/>
</svg>
