<?xml version="1.0" encoding="utf-8"?>
<!-- Generator: Adobe Illustrator 23.0.3, SVG Export Plug-In . SVG Version: 6.00 Build 0)  -->
<svg version="1.1" id="Layer_1" xmlns="http://www.w3.org/2000/svg" xmlns:xlink="http://www.w3.org/1999/xlink" x="0px" y="0px"
	 viewBox="0 0 20.2 20.2" style="enable-background:new 0 0 20.2 20.2;" xml:space="preserve">
<style type="text/css">
	.st0{fill:#585858;}
</style>
<g id="Group_4_Copy" transform="translate(0.5 0.5)">
	<path class="st0" d="M9.6,19.7C4,19.7-0.5,15.2-0.5,9.6C-0.5,4,4-0.5,9.6-0.5c5.6,0,10.1,4.5,10.1,10.1
		C19.7,15.2,15.2,19.7,9.6,19.7z M9.6,0.5c-5,0-9.1,4.1-9.1,9.1c0,5,4.1,9.1,9.1,9.1c5,0,9.1-4.1,9.1-9.1C18.7,4.6,14.7,0.5,9.6,0.5
		z"/>
	<path class="st0" d="M8.6,13.8C8.6,13.8,8.6,13.8,8.6,13.8c-0.3,0-0.5-0.1-0.7-0.3l-2.4-2.6c-0.4-0.4-0.4-1,0-1.4
		c0.4-0.4,1-0.4,1.4,0l1.7,1.8l4.7-4.9c0.4-0.4,1-0.4,1.4,0c0.4,0.4,0.4,1,0,1.4l-5.4,5.6C9.1,13.7,8.9,13.8,8.6,13.8z"/>
</g>
</svg>
