<?xml version="1.0" encoding="utf-8"?>
<!-- Generator: Adobe Illustrator 23.0.3, SVG Export Plug-In . SVG Version: 6.00 Build 0)  -->
<svg version="1.1" id="Layer_1" xmlns="http://www.w3.org/2000/svg" xmlns:xlink="http://www.w3.org/1999/xlink" x="0px" y="0px"
	 viewBox="0 0 17 16.2" style="enable-background:new 0 0 17 16.2;" xml:space="preserve">
<style type="text/css">
	.st0{fill:#585858;}
</style>
<path id="Path_947" class="st0" d="M9,0.3l2.2,4.4c0.1,0.2,0.2,0.3,0.4,0.3l4.9,0.7c0.3,0,0.5,0.3,0.5,0.6c0,0.1-0.1,0.2-0.2,0.3
	l-3.5,3.4c-0.1,0.1-0.2,0.3-0.2,0.5l0.8,4.9c0.1,0.3-0.1,0.6-0.5,0.7c-0.1,0-0.3,0-0.4-0.1l-4.4-2.3c-0.2-0.1-0.4-0.1-0.5,0
	l-4.4,2.3c-0.3,0.1-0.6,0-0.8-0.2C3,15.8,3,15.7,3,15.5l0.8-4.9c0-0.2,0-0.4-0.2-0.5L0.2,6.7c-0.2-0.2-0.2-0.6,0-0.8
	c0.1-0.1,0.2-0.1,0.3-0.2l4.9-0.7c0.2,0,0.3-0.1,0.4-0.3L8,0.3C8.1,0,8.5-0.1,8.7,0.1C8.8,0.1,8.9,0.2,9,0.3z"/>
</svg>
