<svg xmlns="http://www.w3.org/2000/svg" width="22.405" height="21.382" viewBox="0 0 22.405 21.382">
  <path id="Path_935" data-name="Path 935" d="M537.084,416.831l2.885,5.845a.745.745,0,0,0,.561.408l6.45.937a.745.745,0,0,1,.413,1.271l-4.668,4.55a.745.745,0,0,0-.214.659l1.1,6.424a.745.745,0,0,1-1.081.785l-5.769-3.033a.745.745,0,0,0-.693,0L530.3,437.71a.745.745,0,0,1-1.081-.785l1.1-6.424a.745.745,0,0,0-.214-.659l-4.668-4.55a.745.745,0,0,1,.413-1.271l6.451-.937a.745.745,0,0,0,.561-.408l2.885-5.845A.745.745,0,0,1,537.084,416.831Z" transform="translate(-525.214 -416.415)" fill="#ffc845"/>
</svg>
