<?xml version="1.0" encoding="utf-8"?>
<!-- Generator: Adobe Illustrator 23.0.3, SVG Export Plug-In . SVG Version: 6.00 Build 0)  -->
<svg version="1.1" id="Layer_1" xmlns="http://www.w3.org/2000/svg" xmlns:xlink="http://www.w3.org/1999/xlink" x="0px" y="0px"
	 viewBox="0 0 18 17.2" style="enable-background:new 0 0 18 17.2;" xml:space="preserve">
<style type="text/css">
	.st0{fill:#585858;}
</style>
<path class="st0" d="M4.1,17.2c-0.4,0-0.8-0.2-0.9-0.6C3,16.4,3,16.2,3.1,15.9l0.8-4.9L0.3,7.6C0.1,7.4,0,7.1,0,6.8
	c0-0.3,0.1-0.6,0.3-0.8c0.2-0.2,0.4-0.3,0.6-0.3l4.9-0.7L8,0.6c0.1-0.3,0.3-0.4,0.6-0.5C8.9,0,9.2,0,9.5,0.1
	c0.2,0.1,0.4,0.3,0.5,0.5L12.1,5l4.9,0.7c0.3,0,0.5,0.2,0.7,0.4C17.9,6.4,18,6.7,18,7c0,0.2-0.1,0.5-0.3,0.6L14.1,11l0.8,4.9
	c0,0.3,0,0.6-0.2,0.8c-0.2,0.2-0.4,0.4-0.7,0.4c-0.2,0-0.5,0-0.7-0.1L9,14.8l-4.4,2.3C4.4,17.2,4.3,17.2,4.1,17.2z M4,16.1L4,16.1
	l4.5-2.2c0.3-0.2,0.7-0.2,1,0l4.4,2.3v0l0.1-0.1l-0.8-4.9c-0.1-0.3,0.1-0.7,0.3-0.9L17,6.9l0-0.1L12,6c-0.3,0-0.6-0.3-0.8-0.6L9.1,1
	c0,0,0,0,0,0L6.8,5.5C6.6,5.8,6.3,6,6,6L1.1,6.8l0,0.1l3.5,3.4c0.3,0.2,0.4,0.6,0.3,0.9L4,16.1L4,16.1z"/>
</svg>
