<?xml version="1.0" encoding="utf-8"?>
<!-- Generator: Adobe Illustrator 23.0.3, SVG Export Plug-In . SVG Version: 6.00 Build 0)  -->
<svg version="1.1" id="Layer_1" xmlns="http://www.w3.org/2000/svg" xmlns:xlink="http://www.w3.org/1999/xlink" x="0px" y="0px"
	 viewBox="0 0 22.5 22.5" style="enable-background:new 0 0 22.5 22.5;" xml:space="preserve">
<style type="text/css">
	.st0{fill:#585858;}
</style>
<path class="st0" d="M22.3,21.2l-5-5c0,0-0.1-0.1-0.2-0.1c1.5-1.7,2.4-3.9,2.4-6.4c0-5.4-4.4-9.8-9.8-9.8S0,4.4,0,9.8
	s4.4,9.8,9.8,9.8c2.4,0,4.7-0.9,6.4-2.4c0,0.1,0.1,0.1,0.1,0.2l5,5c0.1,0.1,0.3,0.2,0.5,0.2s0.4-0.1,0.5-0.2
	C22.6,22,22.6,21.5,22.3,21.2z M9.8,18c-4.5,0-8.3-3.7-8.3-8.3s3.7-8.3,8.3-8.3S18,5.2,18,9.8S14.3,18,9.8,18z"/>
</svg>
