<?xml version="1.0" encoding="utf-8"?>
<!-- Generator: Adobe Illustrator 23.0.3, SVG Export Plug-In . SVG Version: 6.00 Build 0)  -->
<svg version="1.1" id="Layer_1" xmlns="http://www.w3.org/2000/svg" xmlns:xlink="http://www.w3.org/1999/xlink" x="0px" y="0px"
	 viewBox="0 0 39.2 39.7" style="enable-background:new 0 0 39.2 39.7;" xml:space="preserve">
<style type="text/css">
	.st0{fill:#585858;}
</style>
<g id="Group_28" transform="translate(-855.105 -232.204)">
	<path id="Path_6" class="st0" d="M894,269.8l-5.7-5.9c-0.5-0.5-1.3-0.5-1.8,0c-0.5,0.5-0.5,1.3,0,1.8l5.7,5.9
		c0.5,0.5,1.3,0.5,1.8,0C894.4,271.1,894.5,270.3,894,269.8z"/>
	<path id="Path_7" class="st0" d="M872.6,232.2c-9.7,0-17.5,7.8-17.5,17.5c0,9.7,7.8,17.5,17.5,17.5c9.7,0,17.5-7.8,17.5-17.5v0
		C890.2,240.1,882.3,232.2,872.6,232.2z M872.6,264.7c-8.3,0-14.9-6.7-14.9-14.9s6.7-14.9,14.9-14.9s14.9,6.7,14.9,14.9v0
		C887.6,258,880.9,264.7,872.6,264.7L872.6,264.7z"/>
</g>
</svg>
