<?xml version="1.0" encoding="utf-8"?>
<!-- Generator: Adobe Illustrator 23.0.3, SVG Export Plug-In . SVG Version: 6.00 Build 0)  -->
<svg version="1.1" id="Layer_1" xmlns="http://www.w3.org/2000/svg" xmlns:xlink="http://www.w3.org/1999/xlink" x="0px" y="0px"
	 viewBox="0 0 20.2 21.8" style="enable-background:new 0 0 20.2 21.8;" xml:space="preserve">
<style type="text/css">
	.st0{fill:#585858;}
</style>
<g id="Group_53" transform="translate(-846.84 -364.548)">
	<path id="Path_66" class="st0" d="M860.5,371.6c0.7,0.6,1.6,0.9,2.5,0.9c0.1,0,0.3,0,0.4,0c2.2-0.2,3.8-2.2,3.5-4.4
		s-2.2-3.8-4.4-3.5c-2.2,0.2-3.8,2.2-3.5,4.4c0,0.3,0.1,0.6,0.2,0.9l-2.3,1.3c-0.3,0.2-0.5,0.6-0.3,0.9s0.6,0.5,0.9,0.3
		c0,0,0.1,0,0.1-0.1l2.3-1.3C860.1,371.2,860.3,371.4,860.5,371.6z M862.8,365.9c1.4-0.2,2.7,0.9,2.9,2.3c0,0,0,0,0,0l0,0
		c0.1,1.4-0.9,2.7-2.3,2.9c-1,0.1-2.1-0.4-2.6-1.3l0,0v0c-0.7-1.3-0.2-2.9,1.1-3.5C862.1,366.1,862.4,366,862.8,365.9L862.8,365.9z"
		/>
	<path id="Path_67" class="st0" d="M862.6,378.3c-2.2,0-4,1.8-4,4s1.8,4,4,4c2.2,0,4-1.8,4-4C866.6,380.1,864.8,378.4,862.6,378.3z
		 M862.6,384.9c-1.4,0-2.6-1.2-2.6-2.6s1.2-2.6,2.6-2.6c1.4,0,2.6,1.2,2.6,2.6C865.2,383.8,864,384.9,862.6,384.9z"/>
	<path id="Path_68" class="st0" d="M857.2,378.8l-2.7-1.7c0.1-0.4,0.2-0.7,0.3-1.1c0.2-2.2-1.4-4.1-3.6-4.4
		c-2.2-0.2-4.1,1.4-4.4,3.6c-0.2,2.2,1.4,4.1,3.6,4.4c0.1,0,0.3,0,0.4,0c0.9,0,1.8-0.3,2.5-0.9c0.2-0.1,0.3-0.3,0.4-0.4l2.7,1.7
		c0.3,0.2,0.7,0.1,1-0.2S857.5,379,857.2,378.8C857.2,378.8,857.2,378.8,857.2,378.8L857.2,378.8z M850.6,378.2
		c-1.4-0.1-2.5-1.4-2.3-2.9s1.4-2.5,2.9-2.3c1.4,0.1,2.5,1.4,2.3,2.9c0,0,0,0,0,0C853.3,377.3,852,378.3,850.6,378.2L850.6,378.2z"
		/>
</g>
</svg>
