<?xml version="1.0" encoding="utf-8"?>
<!-- Generator: Adobe Illustrator 23.0.3, SVG Export Plug-In . SVG Version: 6.00 Build 0)  -->
<svg version="1.1" id="Layer_1" xmlns="http://www.w3.org/2000/svg" xmlns:xlink="http://www.w3.org/1999/xlink" x="0px" y="0px"
	 viewBox="0 0 26.3 14.9" style="enable-background:new 0 0 26.3 14.9;" xml:space="preserve">
<style type="text/css">
	.st0{fill:#585858;}
</style>
<g id="eye_1_" transform="translate(0 -0.001)">
	<g id="Group_466" transform="translate(0 0)">
		<g id="Group_465">
			<path id="Path_845" class="st0" d="M25.8,6.2c-1.5-1.9-3.4-3.4-5.5-4.5c-2.2-1.1-4.6-1.7-7-1.7c-0.1,0-0.3,0-0.4,0
				c-2.4,0-4.8,0.6-7,1.7c-2.2,1.1-4,2.6-5.5,4.5c-0.6,0.7-0.6,1.7,0,2.5c1.5,1.9,3.4,3.4,5.5,4.5c2.2,1.1,4.6,1.7,7,1.7
				c0.1,0,0.3,0,0.4,0c2.4,0,4.8-0.6,7-1.7c2.2-1.1,4-2.6,5.5-4.5C26.4,7.9,26.4,6.9,25.8,6.2z M6.4,12.2c-2-1-3.8-2.4-5.2-4.2
				C1,7.7,1,7.2,1.3,6.9c1.8-2.3,4.2-4,6.9-5C5.1,4.6,4.8,9.3,7.6,12.4C7.8,12.6,8,12.8,8.2,13C7.6,12.8,7,12.5,6.4,12.2z
				 M13.1,13.8c-3.5,0-6.4-2.9-6.4-6.4s2.9-6.4,6.4-6.4s6.4,2.9,6.4,6.4l0,0C19.5,11,16.6,13.8,13.1,13.8z M25,8
				c-1.8,2.3-4.2,4-6.9,5c3.1-2.7,3.3-7.4,0.6-10.5c-0.2-0.2-0.4-0.4-0.6-0.6c2.7,1,5.1,2.7,6.9,5C25.3,7.2,25.3,7.7,25,8L25,8z"/>
		</g>
	</g>
	<g id="Group_468" transform="translate(10.401 4.713)">
		<g id="Group_467" transform="translate(0 0)">
			<path id="Path_846" class="st0" d="M2.7,0C1.2,0,0,1.2,0,2.7c0,1.5,1.2,2.7,2.7,2.7c1.5,0,2.7-1.2,2.7-2.7l0,0
				C5.5,1.2,4.2,0,2.7,0z M2.7,4.4c-0.9,0-1.7-0.7-1.7-1.7c0-0.9,0.7-1.7,1.7-1.7c0.9,0,1.7,0.7,1.7,1.7C4.4,3.6,3.6,4.4,2.7,4.4
				C2.7,4.4,2.7,4.4,2.7,4.4L2.7,4.4z"/>
		</g>
	</g>
</g>
</svg>
