<?xml version="1.0" encoding="utf-8"?>
<!-- Generator: Adobe Illustrator 23.0.3, SVG Export Plug-In . SVG Version: 6.00 Build 0)  -->
<svg version="1.1" id="Layer_1" xmlns="http://www.w3.org/2000/svg" xmlns:xlink="http://www.w3.org/1999/xlink" x="0px" y="0px"
	 viewBox="0 0 28.7 38.4" style="enable-background:new 0 0 28.7 38.4;" xml:space="preserve">
<style type="text/css">
	.st0{fill:#585858;}
</style>
<g id="Group_8" transform="translate(0.001 -0.001)">
	<path id="Path_17" class="st0" d="M19.8,16.6c3.4,3,4.3,8,2.3,12c5.3-8.9,3.3-15.9,3.3-15.9C13.7,6.9,7.2,11.9,7.2,11.9
		C11.9,11.9,16.3,13.6,19.8,16.6z"/>
	<path id="Path_18" class="st0" d="M6.7,18.6c3-3.4,7.9-4.3,11.9-2.3C9.7,11,2.8,13,2.8,13c-5.7,11.6-0.9,18.2-0.9,18.2
		C1.9,26.6,3.5,22.1,6.7,18.6z"/>
	<path id="Path_19" class="st0" d="M8.7,31.7c-3.4-3-4.3-8-2.3-12c-5.3,8.9-3.3,15.9-3.3,15.9c11.6,5.9,18.1,0.9,18.1,0.9
		C16.5,36.4,12.1,34.7,8.7,31.7z"/>
	<path id="Path_20" class="st0" d="M26.7,17.1c0,4.6-1.7,9.1-4.7,12.6c-3,3.4-8,4.3-12,2.3c8.9,5.3,15.9,3.3,15.9,3.3
		C31.6,23.5,26.7,17.1,26.7,17.1z"/>
	<path id="Path_21" class="st0" d="M22.6,0c-8.3,0.1-8.9,7.5-8.9,7.5C22,8.2,22.6,0,22.6,0z"/>
</g>
</svg>
