<?xml version="1.0" encoding="utf-8"?>
<!-- Generator: Adobe Illustrator 23.0.3, SVG Export Plug-In . SVG Version: 6.00 Build 0)  -->
<svg version="1.1" id="Layer_1" xmlns="http://www.w3.org/2000/svg" xmlns:xlink="http://www.w3.org/1999/xlink" x="0px" y="0px"
	 viewBox="0 0 21.1 19" style="enable-background:new 0 0 21.1 19;" xml:space="preserve">
<style type="text/css">
	.st0{fill:#585858;}
</style>
<g id="speech-bubble" transform="translate(0 -0.001)">
	<path id="Path_1567" class="st0" d="M10.6,4.1c-0.2,0-0.4,0.2-0.4,0.4S10.3,5,10.6,5C10.8,5,11,4.8,11,4.5l0,0
		C11,4.3,10.8,4.1,10.6,4.1z"/>
	<path id="Path_1568" class="st0" d="M3.7,11.6c0.2,0,0.4-0.2,0.4-0.4c0-0.2-0.2-0.4-0.4-0.4c-0.2,0-0.4,0.2-0.4,0.4l0,0
		C3.3,11.4,3.5,11.6,3.7,11.6z"/>
	<path id="Path_1569" class="st0" d="M13.9,0c-3.7,0-6.8,2.6-7,5.8C3.3,6,0,8.5,0,12c0,1.5,0.6,2.9,1.6,3.9c0.2,0.8,0,1.7-0.7,2.4
		c-0.2,0.2-0.2,0.4,0,0.6C1,18.9,1.1,19,1.2,19c1.2,0,2.3-0.5,3.2-1.3c0.9,0.3,1.9,0.4,2.9,0.4c3.7,0,6.8-2.6,7-5.8
		c0.8,0,1.7-0.2,2.5-0.4c0.8,0.8,2,1.3,3.2,1.3c0.2,0,0.4-0.2,0.4-0.4c0-0.1,0-0.2-0.1-0.3c-0.6-0.6-0.9-1.5-0.7-2.4
		c1-1.1,1.6-2.5,1.6-3.9C21.1,2.6,17.5,0,13.9,0z M7.3,17.3c-1,0-1.9-0.2-2.8-0.5c-0.2-0.1-0.3,0-0.5,0.1c-0.5,0.5-1.1,0.9-1.9,1.1
		c0.4-0.8,0.5-1.6,0.3-2.5c0-0.1-0.1-0.1-0.1-0.2c-0.9-0.9-1.4-2.2-1.5-3.4c0-2.9,2.9-5.4,6.4-5.4c3.3,0,6.2,2.3,6.2,5.4
		C13.5,14.9,10.7,17.3,7.3,17.3L7.3,17.3z M18.9,9.6c0,0-0.1,0.1-0.1,0.2c-0.2,0.8-0.1,1.7,0.3,2.5c-0.7-0.2-1.4-0.6-1.9-1.1
		C17,11,16.8,11,16.7,11.1c-0.8,0.3-1.6,0.4-2.4,0.5c-0.1-1.6-1-3.1-2.2-4.1h5.4c0.2,0,0.4-0.2,0.4-0.4c0-0.2-0.2-0.4-0.4-0.4h-6.6
		c-1-0.5-2-0.8-3.1-0.8c0.2-2.8,2.9-5,6.2-5c3.5,0,6.4,2.5,6.4,5.4C20.3,7.5,19.8,8.7,18.9,9.6z"/>
	<path id="Path_1570" class="st0" d="M10.6,10.7H5.4c-0.2,0-0.4,0.2-0.4,0.4c0,0.2,0.2,0.4,0.4,0.4c0,0,0,0,0,0h5.2
		c0.2,0,0.4-0.2,0.4-0.4C10.9,10.9,10.8,10.7,10.6,10.7z"/>
	<path id="Path_1571" class="st0" d="M10.6,13.2H3.7c-0.2,0-0.4,0.2-0.4,0.4c0,0.2,0.2,0.4,0.4,0.4c0,0,0,0,0,0h6.8
		c0.2,0,0.4-0.2,0.4-0.4C11,13.4,10.8,13.2,10.6,13.2C10.6,13.2,10.6,13.2,10.6,13.2z"/>
	<path id="Path_1572" class="st0" d="M17.4,4.1h-5.2c-0.2,0-0.4,0.2-0.4,0.4c0,0.2,0.2,0.4,0.4,0.4c0,0,0,0,0,0h5.2
		c0.2,0,0.4-0.2,0.4-0.4C17.9,4.3,17.7,4.1,17.4,4.1C17.4,4.1,17.4,4.1,17.4,4.1z"/>
</g>
</svg>
