<?xml version="1.0" encoding="utf-8"?>
<!-- Generator: Adobe Illustrator 23.0.3, SVG Export Plug-In . SVG Version: 6.00 Build 0)  -->
<svg version="1.1" id="Layer_1" xmlns="http://www.w3.org/2000/svg" xmlns:xlink="http://www.w3.org/1999/xlink" x="0px" y="0px"
	 viewBox="0 0 28.3 27.1" style="enable-background:new 0 0 28.3 27.1;" xml:space="preserve">
<style type="text/css">
	.st0{fill:#585858;}
</style>
<path class="st0" d="M28.3,10.2c-0.1-0.4-0.5-0.7-0.9-0.7l-8.5-1.2l-3.8-7.7c-0.2-0.4-0.5-0.6-1-0.6c-0.4,0-0.8,0.2-1,0.6L9.4,8.3
	L0.9,9.6c-0.4,0.1-0.7,0.3-0.9,0.7c-0.1,0.4,0,0.8,0.3,1.1l6.2,6l-1.4,8.5c0,0.3,0,0.6,0.2,0.8C5.4,26.8,5.7,27,6,27
	c0.1,0,0.1,0,0.2,0c0.2,0,0.3,0,0.5-0.1l7.6-4l7.6,4C22,27,22.1,27,22.3,27c0.6,0,1.1-0.5,1.1-1.1c0-0.1,0-0.2,0-0.2l-1.5-8.4l6.1-6
	C28.3,11,28.4,10.6,28.3,10.2z M8.7,17.1c0.1-0.3-0.1-0.7-0.3-0.9l-5-4.9l6.9-1c0.3-0.1,0.6-0.3,0.8-0.6l3.1-6.3l3.1,6.2
	c0.2,0.3,0.5,0.5,0.8,0.6l6.9,1l-5,4.9c-0.3,0.2-0.4,0.6-0.3,0.9l1.2,6.9l-6.2-3.2c-0.3-0.2-0.7-0.2-1,0L7.5,24L8.7,17.1z"/>
</svg>
