<svg xmlns="http://www.w3.org/2000/svg" width="26.256" height="14.885" viewBox="0 0 26.256 14.885">
  <path id="Subtraction_19" data-name="Subtraction 19" d="M16579.334,19133.418h-.408a16.1,16.1,0,0,1-5.3-.963l1.662-1.395a6.305,6.305,0,0,0,3.84,1.291,6.372,6.372,0,0,0,5.678-9.277l.836-.7a7.43,7.43,0,0,1-1.537,9.133,15.036,15.036,0,0,0,6.887-4.951.947.947,0,0,0,0-1.158,15.3,15.3,0,0,0-4.4-3.816l.869-.73a16.442,16.442,0,0,1,4.375,3.889,2.009,2.009,0,0,1,0,2.475,16.285,16.285,0,0,1-5.518,4.52A16.009,16.009,0,0,1,16579.334,19133.418Zm-8.664-2.4v0a16.339,16.339,0,0,1-4.246-3.8,2.014,2.014,0,0,1,0-2.475,16.335,16.335,0,0,1,5.523-4.52,15.97,15.97,0,0,1,6.979-1.686h.408a16.037,16.037,0,0,1,5.137.9l-1.623,1.363a6.316,6.316,0,0,0-3.721-1.2,6.375,6.375,0,0,0-5.742,9.141l-.84.705a7.348,7.348,0,0,1-.857-3.473,7.455,7.455,0,0,1,2.469-5.533,14.727,14.727,0,0,0-1.734.736,15.153,15.153,0,0,0-5.152,4.221.931.931,0,0,0,0,1.158,15.153,15.153,0,0,0,4.264,3.738l-.863.723Zm8.457-2.316a2.654,2.654,0,0,1-.861-.141l1.129-.947a1.655,1.655,0,0,0,1.3-1.092l1.131-.949a2.8,2.8,0,0,1,.029.4A2.732,2.732,0,0,1,16579.127,19128.7Zm-2.713-2.5,0,0c0-.061-.008-.127-.008-.225a2.727,2.727,0,0,1,2.723-2.723,2.827,2.827,0,0,1,.7.088l-1.3,1.1a1.682,1.682,0,0,0-.8.672l-1.3,1.092Z" transform="translate(-16566 -19118.533)"/>
</svg>
