<svg xmlns="http://www.w3.org/2000/svg" width="19.464" height="19.324" viewBox="0 0 19.464 19.324">
  <g id="time-left" transform="translate(0 -1.688)">
    <g id="Layer_2_16_" transform="translate(0 1.688)">
      <g id="Group_564" data-name="Group 564" transform="translate(0 0)">
        <path id="Path_898" data-name="Path 898" d="M253.794,423.179c-.161.04-.324.076-.487.105a.783.783,0,0,0,.285,1.539c.193-.036.388-.078.58-.126a.782.782,0,0,0-.378-1.518Z" transform="translate(-242.095 -405.521)" fill="#585858"/>
        <path id="Path_899" data-name="Path 899" d="M412.687,137.751a.782.782,0,0,0,1.486-.492c-.062-.187-.13-.374-.2-.557a.782.782,0,1,0-1.453.581C412.577,137.437,412.635,137.594,412.687,137.751Z" transform="translate(-395.202 -130.581)" fill="#585858"/>
        <path id="Path_900" data-name="Path 900" d="M321.682,394.041c-.138.091-.281.179-.424.262a.782.782,0,1,0,.782,1.356c.171-.1.34-.2.5-.312a.782.782,0,0,0-.863-1.306Z" transform="translate(-307.441 -377.5)" fill="#585858"/>
        <path id="Path_901" data-name="Path 901" d="M429.2,208.063a.782.782,0,1,0-1.564.061c.006.165.008.333,0,.5a.782.782,0,1,0,1.564.035C429.208,208.46,429.207,208.26,429.2,208.063Z" transform="translate(-409.742 -198.708)" fill="#585858"/>
        <path id="Path_902" data-name="Path 902" d="M378.349,344.225a.782.782,0,0,0-1.1.156c-.1.132-.2.263-.311.389a.783.783,0,0,0,.089,1.1c.019.016.038.03.057.044a.782.782,0,0,0,1.046-.133c.128-.15.253-.306.371-.465A.783.783,0,0,0,378.349,344.225Z" transform="translate(-360.992 -329.743)" fill="#585858"/>
        <path id="Path_903" data-name="Path 903" d="M414.947,279.388a.782.782,0,0,0-.981.513c-.049.158-.1.316-.163.471a.782.782,0,0,0,1.462.557c.07-.184.135-.373.194-.56A.783.783,0,0,0,414.947,279.388Z" transform="translate(-396.44 -267.734)" fill="#585858"/>
        <path id="Path_904" data-name="Path 904" d="M8.285,19.458a8.08,8.08,0,0,1-2.007-.638l-.022-.012c-.15-.071-.3-.146-.445-.225h0A8.347,8.347,0,0,1,5.03,18.1,8.165,8.165,0,0,1,5.064,4.721l.028-.02a8.179,8.179,0,0,1,9.167-.074l-.611.883c-.17.246-.065.425.232.4l2.656-.238a.437.437,0,0,0,.4-.572L16.218,2.53c-.08-.288-.284-.323-.454-.077l-.613.885A9.663,9.663,0,0,0,8.07,1.833q-.376.065-.741.158h0L7.3,2a9.649,9.649,0,0,0-5.35,3.586c-.011.013-.023.026-.033.041-.044.06-.088.121-.132.182-.071.1-.14.2-.207.306-.008.012-.015.025-.022.037A9.647,9.647,0,0,0,.01,11.842c0,.007,0,.013,0,.02.009.2.024.4.046.591,0,.013,0,.025.006.037.022.2.049.394.084.592a9.657,9.657,0,0,0,2.723,5.237l.01.01,0,0a9.859,9.859,0,0,0,1.247,1.042A9.648,9.648,0,0,0,8.009,21a.782.782,0,0,0,.276-1.54Z" transform="translate(0 -1.688)" fill="#585858"/>
        <path id="Path_905" data-name="Path 905" d="M206.62,83.2a.633.633,0,0,0-.633.633v6.307l5.769,2.982A.633.633,0,0,0,212.337,92l-5.084-2.628V83.831A.633.633,0,0,0,206.62,83.2Z" transform="translate(-197.368 -79.788)" fill="#585858"/>
      </g>
    </g>
  </g>
</svg>
