<?xml version="1.0" encoding="utf-8"?>
<!-- Generator: Adobe Illustrator 23.0.3, SVG Export Plug-In . SVG Version: 6.00 Build 0)  -->
<svg version="1.1" id="Layer_1" xmlns="http://www.w3.org/2000/svg" xmlns:xlink="http://www.w3.org/1999/xlink" x="0px" y="0px"
	 viewBox="0 0 19.5 19.3" style="enable-background:new 0 0 19.5 19.3;" xml:space="preserve">
<style type="text/css">
	.st0{fill:#585858;}
</style>
<g id="time-left" transform="translate(0 -1.688)">
	<g id="Layer_2_16_" transform="translate(0 1.688)">
		<g id="Group_564" transform="translate(0 0)">
			<path id="Path_898" class="st0" d="M11.7,17.7c-0.2,0-0.3,0.1-0.5,0.1c-0.4,0.1-0.7,0.5-0.6,0.9c0.1,0.4,0.5,0.7,0.9,0.6
				c0.2,0,0.4-0.1,0.6-0.1c0.4-0.1,0.7-0.5,0.6-0.9C12.5,17.8,12.1,17.6,11.7,17.7z"/>
			<path id="Path_899" class="st0" d="M17.5,7.2c0.1,0.4,0.6,0.6,1,0.5c0.4-0.1,0.6-0.6,0.5-1c-0.1-0.2-0.1-0.4-0.2-0.6
				c-0.2-0.4-0.6-0.6-1-0.4s-0.6,0.6-0.4,1l0,0C17.4,6.9,17.4,7,17.5,7.2z"/>
			<path id="Path_900" class="st0" d="M14.2,16.5c-0.1,0.1-0.3,0.2-0.4,0.3c-0.4,0.2-0.5,0.7-0.3,1.1s0.7,0.5,1.1,0.3l0,0
				c0.2-0.1,0.3-0.2,0.5-0.3c0.4-0.2,0.5-0.7,0.2-1.1S14.6,16.3,14.2,16.5L14.2,16.5L14.2,16.5z"/>
			<path id="Path_901" class="st0" d="M19.5,9.4c0-0.4-0.4-0.8-0.8-0.8S17.9,9,17.9,9.4l0,0c0,0.2,0,0.3,0,0.5
				c0,0.4,0.3,0.8,0.8,0.8s0.8-0.3,0.8-0.8C19.5,9.8,19.5,9.6,19.5,9.4z"/>
			<path id="Path_902" class="st0" d="M17.4,14.5c-0.3-0.3-0.8-0.2-1.1,0.2c0,0,0,0,0,0c-0.1,0.1-0.2,0.3-0.3,0.4
				c-0.3,0.3-0.2,0.8,0.1,1.1c0,0,0,0,0.1,0c0.3,0.2,0.8,0.2,1-0.1c0.1-0.1,0.3-0.3,0.4-0.5C17.8,15.2,17.7,14.7,17.4,14.5z"/>
			<path id="Path_903" class="st0" d="M18.5,11.7c-0.4-0.1-0.9,0.1-1,0.5c0,0,0,0,0,0c0,0.2-0.1,0.3-0.2,0.5c-0.2,0.4,0,0.9,0.5,1
				c0.4,0.2,0.9,0,1-0.5c0.1-0.2,0.1-0.4,0.2-0.6C19.1,12.2,18.9,11.8,18.5,11.7z"/>
			<path id="Path_904" class="st0" d="M8.3,17.8c-0.7-0.1-1.4-0.3-2-0.6l0,0C6.1,17,6,17,5.8,16.9l0,0c-0.3-0.1-0.5-0.3-0.8-0.5
				C1.3,13.8,0.5,8.7,3.1,5c0.5-0.8,1.2-1.5,2-2l0,0c2.8-1.9,6.4-1.9,9.2-0.1l-0.6,0.9c-0.2,0.2-0.1,0.4,0.2,0.4L16.5,4
				C16.8,4,17,3.8,17,3.5c0,0,0-0.1,0-0.1l-0.7-2.6c-0.1-0.3-0.3-0.3-0.5-0.1l-0.6,0.9c-2.1-1.4-4.6-1.9-7.1-1.5
				c-0.3,0-0.5,0.1-0.7,0.2l0,0l0,0C5.2,0.9,3.3,2.1,2,3.9c0,0,0,0,0,0c0,0.1-0.1,0.1-0.1,0.2C1.7,4.2,1.6,4.3,1.6,4.4c0,0,0,0,0,0
				C0.5,6.2-0.1,8.1,0,10.2c0,0,0,0,0,0c0,0.2,0,0.4,0,0.6c0,0,0,0,0,0c0,0.2,0,0.4,0.1,0.6c0.3,2,1.3,3.8,2.7,5.2l0,0l0,0
				c0.4,0.4,0.8,0.7,1.2,1c1.2,0.8,2.5,1.4,3.9,1.6c0.4,0.1,0.8-0.2,0.9-0.6C9,18.3,8.7,17.8,8.3,17.8L8.3,17.8z"/>
			<path id="Path_905" class="st0" d="M9.3,3.4C8.9,3.4,8.6,3.7,8.6,4v6.3l5.8,3c0.3,0.1,0.7,0,0.8-0.3c0.1-0.3,0-0.6-0.3-0.8
				L9.9,9.6V4C9.9,3.7,9.6,3.4,9.3,3.4z"/>
		</g>
	</g>
</g>
</svg>
