<?xml version="1.0" encoding="utf-8"?>
<!-- Generator: Adobe Illustrator 23.0.3, SVG Export Plug-In . SVG Version: 6.00 Build 0)  -->
<svg version="1.1" id="Layer_1" xmlns="http://www.w3.org/2000/svg" xmlns:xlink="http://www.w3.org/1999/xlink" x="0px" y="0px"
	 viewBox="0 0 29.1 33.3" style="enable-background:new 0 0 29.1 33.3;" xml:space="preserve">
<style type="text/css">
	.st0{fill:#585858;}
</style>
<g>
	<path class="st0" d="M27.8,5.7l-10-5.4c-1.1-0.6-2.5-0.1-3.2,1L8.9,11.9H1.9c0,0,0,0,0,0c-0.5,0-1,0.2-1.3,0.5
		C0.2,12.8,0,13.3,0,13.8v17.6c0,1,0.8,1.9,1.9,1.9h22.7c0,0,0,0,0,0c0.5,0,1-0.2,1.3-0.5c0.4-0.4,0.6-0.8,0.6-1.4v-3.8h0.4
		c0,0,0,0,0,0c0.5,0,0.9-0.4,0.9-0.9V22c0-0.5-0.4-0.9-0.9-0.9h-0.4v-4.3c0-0.8-0.5-1.4-1.1-1.7l3.3-6.1C29.3,7.7,28.9,6.3,27.8,5.7
		z M7.3,14.8H1.9c0,0,0,0-0.1,0v-0.9c0,0,0,0,0.1-0.1h5.9L7.3,14.8z M20.3,23.2v2.2c0,1.2,1,2.2,2.2,2.2h2.1v3.8c0,0,0,0.1-0.1,0.1
		H1.9c0,0-0.1,0-0.1-0.1V16.7c0,0,0-0.1,0.1-0.1h22.7c0,0,0.1,0,0.1,0.1V21h-2.1C21.3,21,20.3,22,20.3,23.2z M22.2,25.4v-2.2
		c0-0.1,0-0.2,0.1-0.2c0.1-0.1,0.1-0.1,0.2-0.1H26v2.8h-3.5c0,0,0,0,0,0c-0.1,0-0.2,0-0.2-0.1C22.2,25.6,22.2,25.5,22.2,25.4z
		 M16.3,2.1c0.1-0.2,0.4-0.3,0.6-0.2l0.7,0.4l-6.7,12.5H9.4L16.3,2.1z M13,14.8l6.3-11.6l0.8,0.4l-6,11.1H13z M16.2,14.8l5.5-10.2
		l5.1,2.8c0.2,0.1,0.3,0.3,0.2,0.5l-3.7,6.9H16.2z"/>
	<path class="st0" d="M25.1,7.2l-0.3-0.2c-1-0.5-2.1-0.2-2.7,0.8l-0.4,0.7c-0.3,0.5-0.3,1-0.1,1.5c0.1,0.5,0.5,0.9,1,1.2l0.3,0.2
		c0.3,0.1,0.6,0.2,0.9,0.2c0.7,0,1.4-0.4,1.8-1l0.4-0.8C26.3,8.9,26,7.8,25.1,7.2z M24.2,9.1l-0.4,0.7c0,0.1-0.1,0.1-0.2,0.1
		l-0.3-0.2c0,0-0.1-0.1-0.1-0.2l0.4-0.7c0-0.1,0.1-0.1,0.2-0.1c0,0,0,0,0,0l0.3,0.1C24.2,8.9,24.2,9,24.2,9.1z"/>
</g>
</svg>
